<?xml version="1.0" standalone="no"?>
<!DOCTYPE svg PUBLIC "-//W3C//DTD SVG 1.1//EN" "http://www.w3.org/Graphics/SVG/1.1/DTD/svg11.dtd" >
<svg>
<metadata>
Created by FontForge 20110222 at Tue Apr 16 14:16:38 2013
 By www-data
Copyright (c) 2005-2006 by Joshua Darden, Inc. All rights reserved.
</metadata>
<defs>
<font id="Omnes-BoldItalic" horiz-adv-x="500" >
  <font-face 
    font-family="Omnes"
    font-weight="700"
    font-style="italic"
    font-stretch="normal"
    units-per-em="1000"
    panose-1="0 0 0 0 0 0 0 0 0 0"
    ascent="785"
    descent="-215"
    x-height="496"
    cap-height="652"
    bbox="-125 -238.14 1093 931"
    underline-thickness="50"
    underline-position="-50"
    stemh="146"
    stemv="195"
    unicode-range="U+0020-FB02"
  />
<missing-glyph 
 />
    <glyph glyph-name=".notdef" 
 />
    <glyph glyph-name="space" unicode=" " horiz-adv-x="170" 
 />
    <glyph glyph-name="exclam" unicode="!" horiz-adv-x="297" 
d="M149 215c-41 0 -57 14 -56 67l4 266c1 76 43 112 116 112c103 0 140 -52 105 -135l-107 -257c-16 -39 -32 -53 -62 -53zM97 -8c-56 0 -82 19 -82 63c0 27 8 70 33 94c16 16 31 22 81 22c56 0 81 -19 81 -63c0 -27 -8 -70 -32 -94c-16 -16 -31 -22 -81 -22z" />
    <glyph glyph-name="quotedbl" unicode="&#x22;" horiz-adv-x="483" 
d="M373 329c-38 0 -58 9 -56 51l10 195c3 51 30 82 91 82c93 0 118 -41 92 -100l-83 -189c-13 -29 -22 -39 -54 -39zM158 329c-39 0 -59 9 -59 51l2 195c1 51 27 82 88 82c93 0 119 -41 96 -100l-75 -189c-11 -28 -21 -39 -52 -39z" />
    <glyph glyph-name="numbersign" unicode="#" horiz-adv-x="676" 
d="M186 -15c-35 0 -91 25 -91 69c0 12 3 25 7 39l11 36h-38c-43 0 -67 20 -67 49c0 15 7 53 26 71c12 12 25 18 62 18h60l35 113h-37c-43 0 -67 20 -67 49c0 16 7 53 26 71c12 12 25 18 62 18h60l42 137c2 5 8 7 18 7c36 0 91 -24 91 -68c0 -12 -3 -26 -7 -39l-11 -37h96
l43 137c1 5 8 7 18 7c35 0 90 -24 90 -68c0 -12 -2 -26 -6 -39l-11 -37h38c43 0 67 -20 67 -49c0 -15 -8 -53 -26 -71c-12 -12 -25 -18 -62 -18h-61l-35 -113h38c43 0 67 -20 67 -49c0 -16 -8 -53 -26 -71c-12 -12 -25 -18 -62 -18h-60l-43 -136c-1 -5 -8 -8 -18 -8
c-35 0 -90 25 -90 69c0 12 2 25 6 39l11 36h-95l-43 -136c-2 -5 -8 -8 -18 -8zM283 265h109l36 117h-109z" />
    <glyph glyph-name="dollar" unicode="$" horiz-adv-x="572" 
d="M161 15c-55 13 -96 34 -122 60c-27 27 -40 57 -40 87c0 58 58 90 63 85c43 -55 123 -98 190 -100c50 -1 73 19 73 50c0 32 -41 47 -93 70c-67 29 -147 70 -147 179c0 99 65 184 210 197l4 19c12 59 41 89 85 89h14c42 0 75 -30 62 -89l-7 -32c44 -12 78 -31 104 -57
c21 -22 32 -49 32 -76c0 -67 -66 -101 -71 -95c-43 59 -110 99 -175 100c-47 0 -71 -23 -71 -50c0 -34 46 -52 102 -75c76 -32 163 -74 163 -174c0 -107 -70 -184 -216 -197l-5 -21c-14 -59 -41 -89 -84 -89h-14c-42 0 -75 29 -63 89z" />
    <glyph glyph-name="percent" unicode="%" horiz-adv-x="764" 
d="M212 338c-102 0 -156 62 -156 139c0 98 58 180 179 180c103 0 157 -62 157 -139c0 -98 -59 -180 -180 -180zM109 -14c-7 -6 -74 25 -74 67c0 17 8 32 29 50l619 555c8 7 75 -25 75 -66c0 -17 -9 -32 -30 -50zM560 -9c-102 0 -156 62 -156 139c0 98 59 180 179 180
c103 0 157 -62 157 -139c0 -99 -59 -180 -180 -180zM218 431c38 0 59 36 59 81c0 30 -21 52 -48 52c-37 0 -60 -36 -60 -81c0 -30 23 -52 49 -52zM566 84c38 0 59 36 59 80c0 30 -21 53 -48 53c-37 0 -60 -37 -60 -81c0 -30 23 -52 49 -52z" />
    <glyph glyph-name="ampersand" unicode="&#x26;" horiz-adv-x="726" 
d="M242 -13c-158 0 -241 76 -241 175c0 119 78 171 174 204c-20 25 -33 59 -33 98c0 99 80 197 227 197c113 0 201 -65 201 -160c0 -97 -70 -140 -161 -167l79 -87c42 41 72 90 86 138c3 7 120 15 120 -82c0 -37 -23 -95 -100 -155l5 -5c24 -24 43 -41 89 -44
c3 0 16 -110 -101 -110c-56 0 -86 17 -120 60l-4 5c-60 -43 -131 -67 -221 -67zM334 411c54 16 86 36 86 79c0 26 -19 48 -52 48c-35 0 -59 -30 -59 -65c0 -23 6 -41 25 -62zM263 120c40 0 72 12 104 34l-118 127c-50 -17 -77 -45 -77 -88c0 -40 29 -73 91 -73z" />
    <glyph glyph-name="quoteright" unicode="&#x2019;" horiz-adv-x="256" 
d="M145 372c-22 -23 -108 3 -88 53l95 234c2 5 152 12 152 -77c0 -33 -13 -54 -53 -97z" />
    <glyph glyph-name="parenleft" unicode="(" horiz-adv-x="441" 
d="M263 -200c-53 0 -100 23 -140 63c-64 64 -103 170 -103 290c0 149 62 295 165 398c64 64 140 108 229 108c57 0 91 -29 91 -79c0 -35 -24 -68 -30 -69c-65 -5 -111 -28 -155 -72c-75 -75 -110 -188 -110 -291c0 -71 18 -126 63 -171c19 -19 41 -31 68 -42
c2 -1 17 -29 17 -53c0 -46 -38 -82 -95 -82z" />
    <glyph glyph-name="parenright" unicode=")" horiz-adv-x="441" 
d="M20 -200c-57 0 -91 29 -91 80c0 34 24 68 30 68c65 6 111 28 155 72c75 75 110 188 110 291c0 71 -19 126 -64 171c-18 19 -40 31 -68 42c-2 1 -16 29 -16 53c0 46 38 82 94 82c53 0 100 -23 140 -63c65 -64 103 -170 103 -290c0 -149 -61 -294 -165 -398
c-63 -63 -140 -108 -228 -108z" />
    <glyph glyph-name="asterisk" unicode="*" horiz-adv-x="433" 
d="M140 281l-4 2c-25 13 -33 34 -14 69l39 71l-66 32c-37 18 -37 30 -29 61l1 4c8 31 21 41 60 34l77 -14l10 73c5 39 23 47 50 47h4c27 0 46 -8 51 -47l9 -73l75 14c40 7 54 -5 61 -34l1 -4c7 -29 7 -43 -29 -61l-67 -33l39 -70c20 -36 4 -57 -14 -69l-3 -2
c-17 -12 -40 -20 -68 8l-58 60l-57 -60c-27 -29 -43 -21 -68 -8z" />
    <glyph glyph-name="plus" unicode="+" horiz-adv-x="534" 
d="M213 -1c-44 0 -67 28 -56 80l23 105h-97c-45 0 -68 22 -68 52c0 19 7 49 23 65c13 14 30 21 63 21h108l24 110c11 51 42 73 72 73h16c45 0 67 -29 56 -80l-22 -103h98c46 0 68 -22 68 -52c0 -19 -6 -49 -22 -65c-13 -14 -31 -21 -63 -21h-110l-24 -113
c-11 -51 -42 -72 -72 -72h-17z" />
    <glyph glyph-name="comma" unicode="," horiz-adv-x="266" 
d="M42 -112c-22 -23 -108 3 -88 53l93 231c2 6 153 12 153 -76c0 -33 -14 -55 -54 -98z" />
    <glyph glyph-name="hyphen" unicode="-" horiz-adv-x="469" 
d="M102 159c-52 0 -77 21 -77 62c0 20 9 68 32 90c15 15 33 23 72 23h236c52 0 77 -21 77 -62c0 -19 -9 -68 -32 -90c-15 -15 -33 -23 -71 -23h-237z" />
    <glyph glyph-name="period" unicode="." horiz-adv-x="259" 
d="M78 -8c-57 0 -82 19 -82 63c0 27 8 70 32 94c16 16 31 22 81 22c56 0 82 -19 82 -63c0 -27 -8 -70 -33 -94c-16 -16 -31 -22 -80 -22z" />
    <glyph glyph-name="slash" unicode="/" horiz-adv-x="382" 
d="M44 -215c-4 -6 -124 -5 -124 72c0 12 6 34 17 55l399 745c3 6 123 5 123 -72c0 -12 -6 -34 -17 -55z" />
    <glyph glyph-name="zero" unicode="0" horiz-adv-x="653" 
d="M294 -14c-170 0 -263 99 -263 236c0 44 8 87 23 156c45 199 153 283 336 283c170 0 263 -100 263 -236c0 -45 -7 -87 -23 -157c-44 -198 -152 -282 -336 -282zM320 144c62 0 88 40 106 116c20 81 29 129 29 159c0 50 -30 83 -91 83c-62 0 -87 -39 -106 -116
c-19 -80 -29 -129 -29 -158c0 -50 30 -84 91 -84z" />
    <glyph glyph-name="one" unicode="1" horiz-adv-x="420" 
d="M203 -5c-54 0 -86 34 -73 95l71 334c-14 -9 -30 -13 -45 -13c-28 0 -49 8 -63 22c-15 15 -23 36 -23 62c0 82 61 114 63 112c19 -16 49 -24 77 -24c41 0 76 27 97 73h47c60 0 87 -28 73 -94l-101 -476c-13 -62 -42 -91 -99 -91h-24z" />
    <glyph glyph-name="two" unicode="2" horiz-adv-x="577" 
d="M172 153h259c65 0 98 -21 98 -65c0 -42 -30 -88 -34 -88h-427c-12 0 -63 67 -63 141c0 55 18 101 51 134c52 51 126 71 223 94c89 22 137 42 137 87c0 36 -26 56 -78 56c-70 0 -117 -39 -149 -97c-2 -3 -103 5 -103 80c0 35 15 68 42 95c43 44 115 71 210 71
c170 0 264 -81 264 -195c0 -143 -82 -194 -254 -234c-114 -26 -140 -35 -161 -56c-6 -6 -11 -14 -15 -23z" />
    <glyph glyph-name="three" unicode="3" horiz-adv-x="585" 
d="M257 -13c-107 0 -183 26 -223 66c-25 25 -37 54 -37 83c0 104 120 110 122 100c10 -61 56 -100 136 -100c67 0 106 30 106 76c0 31 -21 50 -68 50h-22c-45 0 -68 19 -68 56c0 17 7 48 22 63c17 17 41 22 87 22h30c50 0 69 23 70 51c1 35 -35 57 -91 57
c-82 0 -120 -43 -135 -81c-2 -7 -107 -10 -107 79c0 30 13 58 35 80c45 45 122 72 218 72c174 0 268 -66 268 -171c0 -74 -44 -142 -148 -161c68 -27 98 -75 98 -134c0 -99 -59 -208 -293 -208z" />
    <glyph glyph-name="four" unicode="4" horiz-adv-x="628" 
d="M374 -9c-45 0 -89 23 -75 94l12 60h-240c-9 0 -50 47 -50 107c0 40 12 69 61 123l192 214c46 51 69 67 162 67c105 0 150 -33 130 -131l-49 -235h27c46 0 70 -21 70 -52c0 -16 -7 -55 -26 -74c-13 -13 -28 -19 -66 -19h-29l-13 -61c-15 -70 -39 -93 -82 -93h-24zM190 286
h160l49 236z" />
    <glyph glyph-name="five" unicode="5" horiz-adv-x="566" 
d="M227 397c27 8 55 12 91 12c153 0 220 -70 220 -177c0 -147 -112 -245 -287 -245c-122 0 -191 25 -226 61c-24 24 -31 49 -31 74c0 64 67 102 72 97c46 -58 94 -89 186 -89c64 0 105 36 105 83c0 44 -27 70 -94 70c-53 0 -89 -17 -112 -31c-70 15 -106 48 -89 129l35 166
c15 70 57 100 122 100h355c5 0 15 -19 15 -51c0 -50 -23 -107 -108 -107h-233z" />
    <glyph glyph-name="six" unicode="6" horiz-adv-x="622" 
d="M302 -12c-169 0 -267 106 -267 258c0 74 25 236 116 327c54 54 122 88 237 88c93 0 173 -29 211 -67c20 -21 31 -45 31 -71c0 -88 -103 -93 -105 -89c-16 35 -62 70 -127 70c-79 0 -126 -48 -152 -138c42 25 88 41 162 41c106 0 189 -60 189 -163
c0 -142 -106 -256 -295 -256zM311 130c58 0 94 41 94 90c0 43 -31 66 -85 66c-39 0 -65 -12 -91 -32c-1 -6 -2 -13 -2 -18c-8 -64 27 -106 84 -106z" />
    <glyph glyph-name="seven" unicode="7" horiz-adv-x="565" 
d="M193 -9c-2 -4 -127 -7 -127 81c0 36 19 56 57 101l267 312h-212c-68 0 -102 23 -102 69c0 43 31 93 35 93h429c12 0 57 -51 57 -111c0 -47 -19 -82 -67 -140z" />
    <glyph glyph-name="eight" unicode="8" horiz-adv-x="621" 
d="M290 -12c-180 0 -281 65 -281 179c0 77 51 144 162 170c-50 23 -81 63 -81 122c0 120 119 202 275 202c171 0 261 -77 261 -175c0 -84 -49 -141 -138 -164c61 -25 97 -68 97 -133c0 -123 -113 -201 -295 -201zM351 382c50 0 89 32 89 76c0 36 -31 63 -80 63
c-50 0 -90 -33 -90 -77c0 -36 32 -62 81 -62zM298 125c56 0 97 34 97 83c0 38 -33 66 -90 66c-53 0 -97 -33 -97 -81c0 -40 33 -68 90 -68z" />
    <glyph glyph-name="nine" unicode="9" horiz-adv-x="622" 
d="M268 -13c-122 0 -175 22 -215 62c-20 21 -30 45 -30 71c0 80 95 93 97 90c21 -37 70 -66 131 -66c80 0 126 44 149 124c-37 -19 -92 -37 -153 -37c-111 0 -191 58 -191 167c0 149 108 263 293 263c178 0 272 -107 272 -259c0 -74 -26 -237 -116 -327
c-53 -53 -122 -88 -237 -88zM331 352c38 0 66 13 91 33c1 6 3 18 3 24c9 69 -26 110 -82 110c-58 0 -96 -42 -96 -95c0 -45 30 -72 84 -72z" />
    <glyph glyph-name="colon" unicode=":" horiz-adv-x="266" 
d="M140 273c-56 0 -81 19 -81 63c0 27 7 70 32 95c16 16 31 22 81 22c56 0 82 -19 82 -64c0 -27 -8 -69 -33 -94c-16 -16 -31 -22 -81 -22zM81 -8c-56 0 -82 19 -82 63c0 27 8 70 33 94c16 16 31 22 81 22c56 0 81 -19 81 -63c0 -27 -8 -70 -32 -94c-16 -16 -31 -22 -81 -22
z" />
    <glyph glyph-name="semicolon" unicode=";" horiz-adv-x="274" 
d="M148 273c-56 0 -82 19 -82 63c0 27 8 70 33 95c15 15 30 22 80 22c57 0 82 -19 82 -64c0 -27 -8 -69 -32 -94c-16 -16 -31 -22 -81 -22zM46 -112c-22 -23 -108 3 -88 53l93 231c2 6 152 12 152 -76c0 -33 -13 -55 -53 -98z" />
    <glyph glyph-name="less" unicode="&#x3c;" horiz-adv-x="453" 
d="M340 10l-256 156c-29 17 -55 50 -54 88c2 42 31 73 66 90l321 156c8 2 43 -42 41 -90c-1 -34 -19 -68 -76 -93l-155 -68l97 -54c54 -30 69 -68 67 -100c-3 -48 -43 -90 -51 -85z" />
    <glyph glyph-name="equal" unicode="=" horiz-adv-x="534" 
d="M135 299c-50 0 -77 23 -77 58c0 18 7 62 29 82c14 14 30 21 73 21h294c51 0 77 -23 77 -57c0 -18 -7 -62 -28 -82c-15 -14 -31 -22 -74 -22h-294zM81 48c-50 0 -77 23 -77 57c0 18 8 62 29 82c14 14 31 22 73 22h295c50 0 77 -23 77 -58c0 -18 -8 -62 -29 -82
c-14 -14 -30 -21 -73 -21h-295z" />
    <glyph glyph-name="greater" unicode="&#x3e;" horiz-adv-x="453" 
d="M38 10c-8 -2 -43 42 -41 90c1 34 19 68 76 93l155 67l-97 55c-53 30 -69 67 -67 100c3 48 43 89 50 85l257 -156c29 -17 55 -50 53 -89c-2 -41 -30 -73 -66 -90z" />
    <glyph glyph-name="question" unicode="?" horiz-adv-x="522" 
d="M263 207c-70 0 -113 39 -113 91c0 60 37 89 117 112c67 20 83 31 83 59c0 29 -28 45 -64 45c-59 0 -103 -31 -123 -80c0 -2 -98 4 -98 77c0 32 14 61 38 85c41 41 105 65 196 65c150 0 251 -74 251 -182c0 -127 -98 -154 -166 -173c-45 -13 -72 -24 -72 -47
c0 -14 4 -22 15 -29c2 -2 -12 -23 -64 -23zM191 -8c-57 0 -82 19 -82 63c0 27 8 70 32 94c16 16 31 22 81 22c56 0 82 -19 82 -63c0 -27 -8 -70 -33 -94c-16 -16 -31 -22 -80 -22z" />
    <glyph glyph-name="at" unicode="@" horiz-adv-x="736" 
d="M369 -14c-205 0 -323 114 -323 294c0 220 160 381 378 381c180 0 307 -106 307 -266c0 -138 -79 -231 -197 -231c-77 0 -109 31 -119 73c-18 -41 -56 -70 -108 -70c-62 0 -104 44 -104 114c0 94 62 187 154 187c35 0 72 -17 88 -51c15 33 40 46 77 46c23 0 40 -9 40 -14
l-31 -144c-8 -37 0 -58 33 -58c58 0 97 47 97 144c0 123 -101 205 -243 205c-175 0 -302 -131 -302 -312c0 -139 96 -234 259 -234c63 0 121 24 160 57c13 10 24 15 36 15c29 0 43 -40 41 -43c-51 -56 -130 -93 -243 -93zM356 256c29 0 54 21 61 57l7 34
c-7 19 -21 33 -46 33c-39 0 -63 -38 -63 -79c0 -26 16 -45 41 -45z" />
    <glyph glyph-name="A" unicode="A" horiz-adv-x="692" 
d="M139 -10c-3 -4 -144 -5 -144 87c0 35 11 55 40 102l255 418c21 35 49 55 130 55c88 0 113 -24 119 -57l99 -537c3 -18 -54 -66 -114 -66c-53 0 -80 29 -91 91l-9 51h-207zM279 278h139l-30 186z" />
    <glyph glyph-name="B" unicode="B" horiz-adv-x="660" 
d="M117 0c-80 0 -116 40 -98 127l89 420c15 71 57 100 123 100h207c141 0 217 -50 217 -144c0 -83 -37 -138 -139 -164c78 -21 117 -69 117 -134c0 -124 -78 -205 -301 -205h-215zM271 386h81c62 0 96 24 96 73c0 31 -27 46 -80 46h-72zM220 143h105c73 0 106 23 106 78
c0 33 -30 49 -88 49h-96z" />
    <glyph glyph-name="C" unicode="C" horiz-adv-x="647" 
d="M358 -13c-195 0 -318 113 -318 290c0 204 153 384 371 384c113 0 177 -34 215 -71c28 -28 40 -61 40 -84c0 -105 -128 -115 -132 -109c-20 50 -59 82 -119 82c-95 0 -168 -82 -168 -181c0 -75 52 -130 126 -130c57 0 101 24 130 68c4 6 101 -17 101 -94
c0 -26 -14 -53 -40 -79c-42 -42 -116 -76 -206 -76z" />
    <glyph glyph-name="D" unicode="D" horiz-adv-x="682" 
d="M117 0c-80 0 -116 40 -98 127l89 420c15 71 57 100 123 100h134c195 0 310 -108 310 -270c0 -198 -131 -377 -404 -377h-154zM226 169h72c117 0 179 87 179 185c0 77 -50 124 -131 124h-54z" />
    <glyph glyph-name="E" unicode="E" horiz-adv-x="616" 
d="M117 0c-80 0 -116 40 -98 127l89 420c15 70 57 100 123 100h339c55 0 84 -24 84 -61c0 -21 -10 -67 -32 -89c-15 -15 -33 -22 -78 -22h-251l-14 -66h177c50 0 77 -24 77 -58c0 -18 -8 -61 -29 -82c-14 -14 -31 -22 -73 -22h-186l-16 -75h247c54 0 83 -23 83 -61
c0 -21 -9 -67 -31 -89c-15 -15 -33 -22 -78 -22h-333z" />
    <glyph glyph-name="F" unicode="F" horiz-adv-x="571" 
d="M84 -5c-55 0 -86 34 -73 95l97 457c15 71 57 100 123 100h317c52 0 81 -24 81 -60c0 -18 -9 -65 -31 -87c-14 -15 -31 -22 -75 -22h-233l-22 -105h158c51 0 78 -23 78 -57c0 -18 -7 -61 -29 -83c-14 -14 -30 -21 -74 -21h-160l-26 -124c-13 -62 -42 -93 -100 -93h-31z
" />
    <glyph glyph-name="G" unicode="G" horiz-adv-x="724" 
d="M490 60c-39 -46 -100 -73 -177 -73c-169 0 -273 108 -273 282c0 210 157 392 383 392c106 0 185 -31 229 -75c25 -25 37 -54 37 -82c0 -95 -119 -95 -124 -88c-26 41 -73 74 -136 74c-103 0 -185 -89 -186 -206c-1 -87 51 -147 135 -147c33 0 59 9 80 25
c19 15 32 27 44 62h-73c-46 0 -70 21 -70 52c0 16 7 56 26 75c13 12 28 20 66 20h185c54 0 74 -29 61 -91l-57 -266c-1 -5 -26 -19 -61 -19c-46 0 -80 19 -89 65z" />
    <glyph glyph-name="H" unicode="H" horiz-adv-x="697" 
d="M84 -5c-55 0 -86 34 -73 95l100 471c13 62 42 91 99 91h29c56 0 87 -32 74 -94l-32 -149h204l32 150c13 62 41 93 98 93h29c56 0 87 -33 74 -95l-100 -471c-13 -61 -42 -91 -100 -91h-29c-54 0 -86 32 -73 94l33 152h-203l-33 -153c-13 -62 -42 -93 -100 -93h-29z" />
    <glyph glyph-name="I" unicode="I" horiz-adv-x="304" 
d="M91 -5c-55 0 -86 34 -73 95l100 471c13 62 42 91 99 91h30c54 0 85 -34 72 -95l-100 -471c-13 -62 -42 -91 -98 -91h-30z" />
    <glyph glyph-name="J" unicode="J" horiz-adv-x="528" 
d="M196 -13c-80 0 -137 22 -171 56c-21 22 -32 45 -32 72c0 91 84 111 87 106c23 -39 59 -64 106 -64c58 0 88 33 105 112l62 290c13 62 42 93 99 93h28c56 0 87 -33 74 -94l-69 -324c-34 -159 -120 -247 -289 -247z" />
    <glyph glyph-name="K" unicode="K" horiz-adv-x="650" 
d="M493 -7c-87 0 -117 45 -161 128l-80 151l-39 -184c-13 -62 -42 -93 -100 -93h-29c-55 0 -86 33 -73 95l100 471c13 62 42 91 99 91h30c55 0 86 -34 73 -95l-38 -180l269 284c2 3 123 -20 123 -96c0 -31 -16 -61 -54 -96l-177 -164l80 -132c33 -55 55 -74 96 -76
c6 0 3 -104 -119 -104z" />
    <glyph glyph-name="L" unicode="L" horiz-adv-x="547" 
d="M117 0c-80 0 -116 40 -98 127l92 434c13 62 42 91 99 91h29c56 0 87 -32 74 -94l-83 -384h190c54 0 84 -25 84 -62c0 -19 -9 -66 -32 -89c-15 -15 -32 -23 -79 -23h-276z" />
    <glyph glyph-name="M" unicode="M" horiz-adv-x="772" 
d="M80 -5c-54 0 -82 34 -69 95l99 465c14 64 51 97 109 97h51c53 0 70 -17 78 -58l50 -255l162 263c25 40 51 50 96 50h63c60 0 85 -34 72 -97l-100 -467c-13 -62 -38 -93 -96 -93h-23c-54 0 -82 33 -69 95l58 275l-107 -191c-14 -26 -19 -48 -89 -48c-80 0 -76 24 -80 50
l-28 181l-58 -269c-13 -62 -38 -93 -96 -93h-23z" />
    <glyph glyph-name="N" unicode="N" horiz-adv-x="703" 
d="M80 -5c-54 0 -82 34 -69 95l100 467c14 64 44 95 102 95h18c42 0 65 -12 89 -56l161 -292l54 255c13 62 38 93 96 93h22c55 0 82 -34 69 -95l-99 -468c-13 -63 -44 -94 -101 -94h-12c-41 0 -65 12 -89 56l-166 303l-56 -266c-13 -62 -38 -93 -96 -93h-23z" />
    <glyph glyph-name="O" unicode="O" horiz-adv-x="727" 
d="M348 -13c-206 0 -307 136 -307 290c0 198 136 384 370 384c206 0 307 -135 307 -290c0 -198 -136 -384 -370 -384zM359 164c90 0 160 86 160 194c0 72 -43 127 -119 127c-90 0 -160 -86 -160 -194c0 -72 43 -127 119 -127z" />
    <glyph glyph-name="P" unicode="P" horiz-adv-x="614" 
d="M84 -5c-55 0 -86 34 -73 95l97 457c15 71 57 100 123 100h148c168 0 260 -66 260 -199c0 -154 -94 -267 -307 -267h-99l-20 -93c-13 -62 -42 -93 -100 -93h-29zM261 328h82c61 0 101 34 101 101c0 43 -29 67 -87 67h-61z" />
    <glyph glyph-name="Q" unicode="Q" horiz-adv-x="730" 
d="M390 167l-15 21c-15 21 -22 43 -22 64c0 40 41 74 80 74c27 0 55 -17 77 -51c10 25 15 53 15 83c0 72 -44 127 -121 127c-94 0 -164 -86 -164 -194c0 -72 43 -127 120 -127c10 0 20 1 30 3zM633 125l1 -1c21 -30 40 -51 60 -62c4 -3 -15 -78 -99 -78c-44 0 -68 7 -97 38
c-46 -20 -98 -31 -155 -31c-207 0 -302 131 -302 286c0 198 135 384 371 384c208 0 308 -134 308 -290c0 -90 -31 -177 -87 -246z" />
    <glyph glyph-name="R" unicode="R" horiz-adv-x="644" 
d="M262 344h88c73 0 103 37 103 88c0 41 -30 63 -83 63h-75zM465 233l36 -59c34 -56 54 -69 96 -75c7 -2 7 -106 -121 -106c-73 0 -108 30 -158 124l-45 84h-38l-24 -113c-13 -62 -42 -93 -100 -93h-27c-55 0 -86 34 -73 95l97 457c15 71 57 100 123 100h162
c177 0 262 -68 262 -194c0 -113 -67 -197 -190 -220z" />
    <glyph glyph-name="S" unicode="S" horiz-adv-x="583" 
d="M263 -14c-116 0 -194 29 -237 72c-24 24 -37 53 -37 82c0 61 68 102 73 96c42 -52 124 -97 199 -97c51 0 75 19 75 53c0 29 -42 39 -97 60c-76 28 -162 73 -162 184c0 116 82 225 277 225c108 0 183 -28 224 -69c21 -22 32 -47 32 -74c0 -70 -75 -111 -80 -105
c-42 56 -111 95 -178 95c-51 0 -77 -22 -77 -51c0 -31 47 -42 108 -65c85 -31 174 -75 174 -179c0 -128 -90 -227 -294 -227z" />
    <glyph glyph-name="T" unicode="T" horiz-adv-x="619" 
d="M249 -5c-55 0 -86 34 -73 95l82 383h-102c-55 0 -85 25 -85 62c0 19 9 66 32 89c15 15 33 23 79 23h413c55 0 85 -25 85 -62c0 -19 -9 -66 -32 -89c-15 -15 -33 -23 -79 -23h-110l-82 -385c-13 -62 -42 -93 -100 -93h-28z" />
    <glyph glyph-name="U" unicode="U" horiz-adv-x="671" 
d="M313 -13c-216 0 -306 111 -262 320l54 254c13 62 42 91 99 91h30c55 0 87 -32 73 -95l-57 -265c-18 -84 8 -130 84 -130c52 0 87 32 104 111l61 286c13 62 42 93 99 93h26c55 0 86 -33 73 -94l-63 -296c-40 -186 -149 -275 -321 -275z" />
    <glyph glyph-name="V" unicode="V" horiz-adv-x="671" 
d="M287 -5c-62 0 -93 27 -104 82l-98 506c-3 18 63 69 125 69c55 0 85 -37 92 -95l35 -306l217 404c1 3 151 -3 151 -99c0 -30 -12 -54 -41 -99l-253 -393c-35 -54 -70 -69 -124 -69z" />
    <glyph glyph-name="W" unicode="W" horiz-adv-x="979" 
d="M242 -5c-69 0 -102 25 -106 84l-31 520c-1 16 56 53 119 53c68 0 93 -48 92 -106l-6 -290l130 265c23 47 68 69 114 69c64 0 99 -26 101 -79l11 -259l171 402c2 4 161 10 161 -94c0 -22 -8 -45 -33 -94l-204 -400c-28 -55 -71 -71 -126 -71c-73 0 -107 26 -110 85
l-14 258l-139 -272c-30 -59 -77 -71 -130 -71z" />
    <glyph glyph-name="X" unicode="X" horiz-adv-x="661" 
d="M488 -10c-59 0 -100 40 -138 139l-30 79l-193 -218c-3 -2 -123 19 -123 96c0 30 19 61 54 95l168 162l-122 246c-7 13 47 67 117 67c47 0 75 -24 99 -83l54 -134l195 218c2 3 123 -18 123 -96c0 -29 -18 -61 -54 -95l-171 -164l49 -106c34 -74 63 -91 99 -93
c8 -1 -3 -113 -127 -113z" />
    <glyph glyph-name="Y" unicode="Y" horiz-adv-x="632" 
d="M259 -5c-55 0 -86 32 -73 94l36 166l-150 324c-5 10 42 73 122 73c42 0 65 -27 86 -80l65 -167l206 254c2 3 122 -7 122 -93c0 -25 -16 -60 -52 -98l-199 -215l-36 -167c-13 -62 -42 -91 -99 -91h-28z" />
    <glyph glyph-name="Z" unicode="Z" horiz-adv-x="591" 
d="M39 0c-10 0 -50 48 -50 98c0 43 18 65 65 108l302 275h-162c-70 0 -105 25 -105 70s32 96 36 96h449c10 0 50 -48 50 -98c0 -43 -18 -65 -65 -108l-302 -275h182c70 0 105 -25 105 -70s-32 -96 -36 -96h-469z" />
    <glyph glyph-name="bracketleft" unicode="[" horiz-adv-x="406" 
d="M77 -199c-81 0 -118 39 -99 127l134 631c15 69 57 99 122 99h158c48 0 74 -22 74 -55c0 -17 -8 -58 -28 -79c-13 -13 -28 -19 -69 -19h-91l-118 -551h86c48 0 74 -22 74 -55c0 -16 -8 -58 -28 -78c-13 -14 -29 -20 -70 -20h-145z" />
    <glyph glyph-name="backslash" unicode="\" horiz-adv-x="382" 
d="M235 -217c-35 0 -72 15 -72 19l-83 759c-9 79 30 98 73 98c36 0 72 -15 72 -18l83 -760c9 -78 -30 -98 -73 -98z" />
    <glyph glyph-name="bracketright" unicode="]" horiz-adv-x="406" 
d="M6 -199c-48 0 -74 22 -74 55c0 17 8 58 28 79c13 13 28 19 70 19h91l117 551h-85c-49 0 -75 22 -75 55c0 16 8 58 28 78c14 14 29 20 70 20h145c81 0 118 -39 99 -127l-134 -631c-15 -69 -57 -99 -122 -99h-158z" />
    <glyph glyph-name="asciicircum" unicode="^" 
d="M196 438c-36 0 -58 27 -58 57c0 35 25 67 65 96s89 51 132 60c24 -8 60 -31 88 -60c27 -28 46 -58 46 -86c0 -38 -26 -67 -66 -67c-32 0 -60 21 -78 58c-4 9 -9 20 -13 32c-8 -12 -15 -22 -24 -32c-26 -37 -56 -58 -92 -58z" />
    <glyph glyph-name="underscore" unicode="_" horiz-adv-x="516" 
d="M6 -139c-44 0 -67 20 -67 50c0 15 7 53 25 70c13 13 26 19 63 19h348c44 0 67 -20 67 -49c0 -16 -7 -54 -25 -71c-13 -13 -26 -19 -63 -19h-348z" />
    <glyph glyph-name="quoteleft" unicode="&#x2018;" horiz-adv-x="256" 
d="M216 372c-2 -6 -152 -12 -152 76c0 33 14 54 54 98l105 113c21 23 108 -4 88 -54z" />
    <glyph glyph-name="a" unicode="a" horiz-adv-x="640" 
d="M406 301c-14 36 -40 61 -84 61c-72 0 -117 -70 -117 -143c0 -49 31 -82 76 -82c54 0 99 40 112 103zM374 90c-34 -60 -96 -102 -173 -102c-107 0 -180 77 -180 198c0 163 108 322 267 322c63 0 123 -29 152 -86c26 55 67 78 130 78c37 0 67 -16 66 -23l-73 -342
c-13 -59 -4 -82 31 -93c1 -1 -14 -54 -101 -54c-79 0 -116 41 -119 102z" />
    <glyph glyph-name="b" unicode="b" horiz-adv-x="628" 
d="M247 310l-12 -54c-16 -71 16 -122 82 -122c67 0 104 65 104 135c0 54 -31 90 -81 90c-35 0 -69 -19 -93 -49zM192 80c-26 -60 -67 -84 -133 -84c-37 0 -67 16 -65 23l125 593c15 69 40 92 89 92h20c51 0 98 -21 83 -92l-37 -173c33 42 81 69 142 69
c108 0 190 -78 190 -208c0 -159 -98 -312 -252 -312c-66 0 -132 31 -162 92z" />
    <glyph glyph-name="c" unicode="c" horiz-adv-x="512" 
d="M268 -13c-151 0 -251 83 -251 227c0 159 125 294 286 294c86 0 144 -25 180 -61c24 -24 35 -52 35 -77c0 -93 -116 -96 -118 -88c-8 43 -37 76 -93 76c-70 0 -117 -62 -117 -128c0 -53 34 -93 95 -93c40 0 73 19 95 56c3 5 85 -11 85 -76c0 -25 -12 -50 -35 -73
c-34 -33 -90 -57 -162 -57z" />
    <glyph glyph-name="d" unicode="d" horiz-adv-x="640" 
d="M406 300c-15 37 -39 62 -89 62c-72 0 -109 -67 -109 -138c0 -52 30 -87 79 -87s93 37 106 101zM375 89c-32 -60 -88 -101 -162 -101c-108 0 -189 78 -189 209c0 159 97 311 251 311c63 0 125 -27 158 -80l39 184c15 69 39 92 89 92h20c51 0 98 -21 83 -92l-101 -477
c-13 -60 -4 -82 31 -93c1 -1 -14 -54 -101 -54c-79 0 -114 41 -118 101z" />
    <glyph glyph-name="e" unicode="e" horiz-adv-x="544" 
d="M194 298c16 -1 31 -1 44 -1c111 0 145 21 145 50c0 21 -21 40 -62 40c-56 0 -102 -38 -127 -89zM174 191c6 -47 41 -73 102 -73c58 0 105 30 133 66c1 1 76 -9 76 -68c0 -34 -10 -51 -31 -72c-32 -32 -93 -57 -181 -57c-176 0 -255 93 -255 218c0 181 139 303 312 303
c136 0 208 -62 208 -155c0 -103 -65 -164 -284 -164c-25 0 -51 0 -80 2z" />
    <glyph glyph-name="f" unicode="f" horiz-adv-x="416" 
d="M143 -5c-51 0 -98 22 -83 93l56 263h-18c-43 0 -68 21 -68 51c0 16 8 55 27 75c12 12 27 19 65 19h24l4 17c36 152 117 196 215 196c55 0 93 -14 116 -36c14 -14 21 -32 21 -51c0 -47 -43 -83 -46 -80c-13 15 -36 25 -63 25c-30 0 -50 -13 -59 -53l-4 -18h46
c45 0 70 -21 70 -52c0 -16 -8 -55 -27 -74c-12 -12 -27 -19 -65 -19h-46l-56 -263c-15 -70 -40 -93 -89 -93h-20z" />
    <glyph glyph-name="g" unicode="g" horiz-adv-x="629" 
d="M408 307c-14 32 -43 53 -87 53c-72 0 -113 -54 -113 -111c0 -46 33 -78 81 -78c55 0 96 34 107 83zM441 425c26 54 67 75 129 75c37 0 67 -16 66 -23l-90 -420c-37 -175 -120 -257 -325 -257c-107 0 -160 31 -192 63c-22 21 -32 48 -32 76c0 65 77 100 82 94
c31 -50 73 -79 145 -79c79 0 117 36 131 104l8 38c-38 -46 -86 -68 -151 -68c-109 0 -185 80 -185 201c0 138 94 279 258 279c62 0 124 -28 156 -83z" />
    <glyph glyph-name="h" unicode="h" horiz-adv-x="611" 
d="M457 -12c-84 0 -118 39 -118 98c0 29 7 58 23 116c12 43 19 75 19 91c0 37 -20 60 -58 60c-33 0 -54 -14 -75 -43l-48 -222c-15 -70 -39 -93 -88 -93h-20c-52 0 -99 22 -84 93l111 524c15 69 40 92 89 92h20c52 0 98 -21 83 -92l-42 -200c36 57 96 96 167 96
c92 0 147 -63 147 -155c0 -35 -10 -79 -28 -143c-13 -47 -23 -86 -23 -106c0 -29 13 -42 39 -48c2 0 -16 -68 -114 -68z" />
    <glyph glyph-name="i" unicode="i" horiz-adv-x="298" 
d="M225 552c-63 0 -100 33 -100 79c0 62 45 102 106 102c63 0 100 -33 100 -79c0 -62 -45 -102 -106 -102zM143 -12c-113 0 -136 68 -118 154l57 266c15 69 39 92 88 92h20c52 0 99 -21 84 -92l-59 -273c-13 -59 -3 -82 33 -93c1 -1 -14 -54 -105 -54z" />
    <glyph glyph-name="j" unicode="j" horiz-adv-x="301" 
d="M240 552c-62 0 -99 33 -99 79c0 62 45 102 106 102c63 0 99 -33 99 -79c0 -62 -45 -102 -106 -102zM9 -201c-53 0 -91 15 -112 36c-14 14 -22 33 -22 54c0 43 31 77 33 76c11 -10 35 -20 55 -20c23 0 38 13 47 53l87 410c15 69 39 92 88 92h20c52 0 99 -21 84 -92
l-92 -429c-26 -121 -78 -180 -188 -180z" />
    <glyph glyph-name="k" unicode="k" horiz-adv-x="556" 
d="M407 -10c-68 0 -93 31 -128 113l-51 118c1 1 -28 -133 -28 -133c-15 -70 -39 -93 -88 -93h-20c-52 0 -99 22 -84 93l111 524c15 69 40 92 89 92h20c52 0 98 -21 83 -92c0 0 -63 -301 -64 -301l202 197c3 2 104 -14 104 -97c0 -32 -16 -57 -46 -82l-114 -92l35 -65
c32 -60 45 -78 88 -82c6 -1 1 -100 -109 -100z" />
    <glyph glyph-name="l" unicode="l" horiz-adv-x="298" 
d="M143 -12c-113 0 -136 68 -118 154l100 470c15 69 39 92 88 92h20c52 0 99 -21 84 -92l-102 -477c-13 -59 -3 -82 33 -93c1 -1 -14 -54 -105 -54z" />
    <glyph glyph-name="m" unicode="m" horiz-adv-x="917" 
d="M566 403c42 63 98 105 177 105c90 0 145 -67 145 -155c0 -35 -10 -79 -28 -143c-13 -47 -23 -86 -23 -106c0 -29 13 -42 39 -48c3 0 -16 -68 -114 -68c-83 0 -118 39 -118 98c0 29 7 58 23 116c12 43 19 75 19 91c0 37 -21 60 -52 60c-26 0 -47 -12 -69 -40
c0 1 -47 -225 -47 -225c-15 -70 -41 -93 -90 -93h-20c-52 0 -97 21 -82 93l38 181c10 49 -9 84 -46 84c-28 0 -48 -12 -69 -37l-49 -228c-15 -70 -40 -93 -90 -93h-19c-52 0 -98 22 -83 93l85 400c1 4 25 12 56 12c49 0 96 -25 103 -93c43 63 100 101 174 101
c69 0 124 -40 140 -105z" />
    <glyph glyph-name="n" unicode="n" horiz-adv-x="611" 
d="M252 406c43 63 101 102 180 102c96 0 151 -63 151 -155c0 -35 -10 -79 -28 -143c-13 -47 -23 -86 -23 -106c0 -29 13 -42 39 -48c2 0 -16 -68 -114 -68c-84 0 -118 39 -118 98c0 29 7 58 23 116c12 43 19 75 19 91c0 37 -20 60 -58 60c-33 0 -54 -14 -75 -43l-48 -222
c-15 -70 -39 -93 -88 -93h-20c-52 0 -99 22 -84 93l85 400c1 4 25 12 56 12c49 0 97 -26 103 -94z" />
    <glyph glyph-name="o" unicode="o" horiz-adv-x="566" 
d="M264 -13c-163 0 -243 103 -243 227c0 150 99 294 281 294c163 0 243 -102 243 -227c0 -149 -99 -294 -281 -294zM268 128c71 0 117 72 117 146c0 53 -36 93 -87 93c-71 0 -117 -72 -117 -145c0 -54 36 -94 87 -94z" />
    <glyph glyph-name="p" unicode="p" horiz-adv-x="628" 
d="M247 310l-12 -54c-16 -71 16 -122 82 -122c67 0 104 65 104 135c0 54 -31 90 -81 90c-36 0 -70 -19 -93 -49zM252 404c32 62 88 104 164 104c108 0 190 -78 190 -208c0 -159 -98 -312 -252 -312c-71 0 -126 30 -157 84l-37 -173c-15 -69 -39 -92 -88 -92h-20
c-52 0 -99 21 -84 92l125 589c1 4 25 12 56 12c49 0 98 -26 103 -96z" />
    <glyph glyph-name="q" unicode="q" horiz-adv-x="629" 
d="M406 299c-15 38 -38 63 -89 63c-72 0 -109 -67 -109 -138c0 -52 30 -87 79 -87s92 37 106 101zM438 419c26 57 67 81 132 81c37 0 67 -16 66 -23l-123 -578c-15 -69 -39 -92 -88 -92h-20c-52 0 -99 21 -84 92l33 157c-35 -43 -81 -68 -141 -68c-108 0 -189 78 -189 209
c0 159 97 311 251 311c66 0 132 -29 163 -89z" />
    <glyph glyph-name="r" unicode="r" horiz-adv-x="465" 
d="M252 406c28 61 77 102 137 102c56 0 97 -35 97 -85c0 -93 -85 -122 -87 -120c-14 16 -35 31 -71 31c-54 0 -87 -51 -104 -133l-24 -113c-15 -70 -39 -93 -88 -93h-20c-52 0 -99 22 -84 93l85 400c1 4 25 12 56 12c49 0 96 -25 103 -94z" />
    <glyph glyph-name="s" unicode="s" horiz-adv-x="481" 
d="M228 -10c-102 0 -173 27 -210 64c-18 18 -31 40 -31 64c0 52 52 83 56 78c38 -41 103 -78 160 -78c31 0 46 11 46 28c0 14 -18 22 -55 37c-68 28 -140 58 -140 149c0 102 73 174 212 174c85 0 155 -26 195 -66c15 -15 25 -34 25 -58c0 -59 -59 -88 -63 -84
c-34 42 -88 79 -144 79c-32 0 -48 -12 -48 -28c0 -15 18 -23 67 -43c79 -31 149 -65 149 -151c0 -99 -75 -165 -219 -165z" />
    <glyph glyph-name="t" unicode="t" horiz-adv-x="433" 
d="M229 -14c-127 0 -179 73 -154 194l36 171h-11c-42 0 -67 21 -67 51c0 16 6 55 26 75c13 13 27 19 66 19h17l3 15c17 87 55 126 140 126c42 0 72 -16 70 -23l-25 -118h56c46 0 70 -21 70 -52c0 -16 -7 -55 -26 -74c-13 -12 -27 -19 -66 -19h-68l-34 -162
c-9 -42 7 -61 36 -61c21 0 42 10 56 22c4 4 28 -15 28 -51c0 -29 -11 -52 -31 -72c-26 -27 -68 -41 -122 -41z" />
    <glyph glyph-name="u" unicode="u" horiz-adv-x="615" 
d="M348 87c-42 -61 -99 -100 -177 -100c-118 0 -168 88 -139 227l41 194c15 70 39 92 89 92h20c51 0 99 -21 83 -92l-39 -174c-12 -54 6 -91 54 -91c33 0 53 14 75 43l47 222c15 70 40 92 89 92h20c52 0 98 -21 83 -92l-58 -273c-13 -59 -3 -82 31 -93
c2 -1 -14 -54 -100 -54c-79 0 -115 39 -119 99z" />
    <glyph glyph-name="v" unicode="v" horiz-adv-x="568" 
d="M234 -6c-41 0 -93 13 -99 55l-41 273c-11 74 -35 94 -70 99c-4 1 17 85 116 85c34 0 60 -9 81 -30c29 -29 40 -73 45 -141l9 -131l168 301c1 4 132 -8 132 -93c0 -29 -10 -50 -37 -90l-193 -282c-26 -39 -82 -46 -111 -46z" />
    <glyph glyph-name="w" unicode="w" horiz-adv-x="805" 
d="M205 -6c-71 0 -91 22 -94 63l-17 272c-4 65 -30 88 -66 93c-4 1 10 84 108 84c36 0 62 -8 82 -28c27 -27 38 -72 38 -139l-1 -137l97 205c20 43 46 55 89 55c58 0 94 -19 97 -73l9 -189l139 305c2 3 127 -1 128 -86c0 -23 -7 -41 -29 -80l-171 -299
c-20 -35 -50 -46 -95 -46c-64 0 -85 18 -90 63l-21 185l-115 -202c-19 -33 -48 -46 -88 -46z" />
    <glyph glyph-name="x" unicode="x" horiz-adv-x="556" 
d="M96 -11c-2 -3 -102 25 -102 97c0 35 21 62 55 90l111 90l-89 185c-3 7 45 52 117 52c53 0 70 -30 91 -88l27 -73l158 165c3 2 103 -25 103 -97c0 -35 -22 -63 -55 -90l-117 -96l18 -40c30 -67 63 -77 98 -79c6 -1 -10 -113 -121 -113c-48 0 -96 19 -123 111l-14 48z" />
    <glyph glyph-name="y" unicode="y" horiz-adv-x="572" 
d="M96 -201c-49 0 -85 12 -107 34c-17 17 -25 38 -25 64c0 35 27 67 29 65c11 -9 35 -17 54 -17c36 0 64 17 108 79l10 14c-23 7 -38 26 -42 58l-30 226c-10 72 -35 94 -70 99c-4 1 15 85 116 85c74 0 118 -51 127 -171l9 -127l170 297c2 3 131 -8 131 -93
c0 -29 -10 -50 -36 -90l-234 -367c-60 -94 -116 -156 -210 -156z" />
    <glyph glyph-name="z" unicode="z" horiz-adv-x="516" 
d="M40 0c-9 0 -46 41 -46 85c0 37 16 57 61 93l214 174h-112c-61 0 -91 21 -91 61c0 39 27 83 31 83h373c9 0 45 -42 45 -85c0 -37 -16 -57 -60 -93l-214 -174h130c61 0 91 -21 91 -61s-28 -83 -31 -83h-391z" />
    <glyph glyph-name="braceleft" unicode="{" horiz-adv-x="497" 
d="M301 -200c-53 0 -90 15 -126 51c-46 46 -75 125 -71 234l-24 17c-52 37 -67 56 -67 99c0 44 14 97 40 123c15 15 30 20 82 39l30 11c27 98 66 164 111 210c52 52 115 75 180 75c68 0 98 -30 98 -78c0 -38 -29 -67 -30 -67c-60 -1 -97 -15 -128 -46
c-34 -34 -56 -91 -76 -176l-131 -63l102 -74c-12 -94 -7 -148 25 -180c16 -16 40 -26 76 -33c2 0 14 -18 14 -45c0 -61 -34 -97 -105 -97z" />
    <glyph glyph-name="bar" unicode="|" horiz-adv-x="290" 
d="M43 -199c-51 0 -82 31 -69 93l143 673c13 62 41 92 94 92h29c50 0 81 -31 68 -93l-142 -673c-13 -62 -42 -92 -95 -92h-28z" />
    <glyph glyph-name="braceright" unicode="}" horiz-adv-x="497" 
d="M32 -200c-68 0 -98 30 -98 78c0 38 29 67 31 67c59 1 96 15 127 46c34 34 56 91 76 176l131 63l-102 74c12 94 7 148 -25 180c-16 16 -40 26 -76 33c-2 0 -14 18 -14 45c0 61 35 97 105 97c54 0 90 -14 126 -50c47 -47 75 -126 71 -235l24 -17c53 -38 67 -56 67 -99
c0 -44 -14 -97 -40 -123c-15 -15 -30 -20 -82 -39l-30 -11c-27 -98 -65 -164 -111 -210c-52 -52 -115 -75 -180 -75z" />
    <glyph glyph-name="asciitilde" unicode="~" horiz-adv-x="499" 
d="M318 153c-49 0 -91 20 -127 62c-16 -34 -41 -60 -72 -60c-35 0 -55 25 -55 54c0 73 59 121 114 121c49 0 91 -20 127 -62c16 33 41 59 72 59c35 0 55 -25 55 -53c0 -73 -59 -121 -114 -121z" />
    <glyph glyph-name="exclamdown" unicode="&#xa1;" horiz-adv-x="297" 
d="M201 477c-57 0 -82 19 -82 63c0 27 8 69 32 94c16 16 31 22 81 22c56 0 82 -19 82 -63c0 -27 -8 -69 -33 -94c-16 -16 -30 -22 -80 -22zM117 -12c-103 0 -141 51 -106 135l107 256c17 40 32 54 63 54c41 0 56 -14 55 -67l-4 -266c-1 -76 -43 -112 -115 -112z" />
    <glyph glyph-name="cent" unicode="&#xa2;" horiz-adv-x="541" 
d="M437 535c36 -11 63 -27 84 -48c23 -23 34 -53 34 -81c0 -97 -128 -89 -130 -81c-9 45 -40 72 -99 72c-73 0 -121 -65 -121 -135c0 -54 35 -95 98 -95c41 0 74 12 98 50c3 5 98 -11 98 -82c0 -22 -9 -44 -31 -66c-27 -27 -75 -48 -142 -53c1 0 -5 -27 -5 -27
c-13 -70 -39 -92 -80 -92h-5c-44 0 -90 21 -75 92l10 46c-89 33 -142 103 -142 210c0 152 105 276 249 299l6 30c14 70 40 93 81 93h4c44 0 91 -22 76 -93z" />
    <glyph glyph-name="sterling" unicode="&#xa3;" horiz-adv-x="609" 
d="M61 0c-47 0 -73 22 -73 54c0 17 8 58 28 77c14 13 30 20 62 20h15l26 88h-21c-30 0 -51 19 -51 45c0 18 8 55 25 72c12 12 25 18 61 18h29l22 77c42 146 122 210 256 210c65 0 118 -18 150 -50c22 -22 32 -47 32 -75c0 -86 -96 -96 -97 -93c-13 46 -43 66 -86 66
c-48 0 -77 -23 -100 -99l-11 -36h102c42 0 65 -19 65 -48c0 -15 -7 -52 -25 -69c-12 -12 -25 -18 -61 -18h-123l-27 -88h222c64 0 95 -22 95 -64s-29 -87 -32 -87h-483z" />
    <glyph glyph-name="fraction" unicode="&#x2044;" horiz-adv-x="724" 
d="M490 60c-39 -46 -100 -73 -177 -73c-169 0 -273 108 -273 282c0 210 157 392 383 392c106 0 185 -31 229 -75c25 -25 37 -54 37 -82c0 -95 -119 -95 -124 -88c-26 41 -73 74 -136 74c-103 0 -185 -89 -186 -206c-1 -87 51 -147 135 -147c33 0 59 9 80 25
c19 15 32 27 44 62h-73c-46 0 -70 21 -70 52c0 16 7 56 26 75c13 12 28 20 66 20h185c54 0 74 -29 61 -91l-57 -266c-1 -5 -26 -19 -61 -19c-46 0 -80 19 -89 65zM422 740c-103 0 -175 60 -175 128c0 32 24 63 62 63c37 0 85 -31 113 -92c40 60 83 92 125 92s67 -25 67 -56
c0 -65 -88 -135 -192 -135z" />
    <glyph glyph-name="yen" unicode="&#xa5;" horiz-adv-x="640" 
d="M413 255l-7 -35h117c43 0 64 -19 64 -45c0 -21 -6 -41 -20 -55c-12 -12 -31 -20 -57 -20h-130l-3 -14c-13 -62 -43 -91 -99 -91h-5c-54 0 -83 31 -72 94l2 11h-121c-43 0 -64 20 -64 46c0 21 6 40 20 54c13 13 32 20 57 20h134l7 35h-120c-44 0 -64 19 -64 45
c0 22 5 41 19 55c13 13 32 20 58 20h67l-102 205c-5 11 35 72 114 72c41 0 70 -24 90 -81l52 -146l182 234c2 3 121 -7 121 -92c0 -25 -16 -62 -54 -99l-94 -93h52c43 0 63 -20 63 -46c0 -21 -5 -40 -19 -54c-13 -13 -32 -20 -57 -20h-131z" />
    <glyph glyph-name="florin" unicode="&#x192;" horiz-adv-x="441" 
d="M135 -19c-51 0 -83 22 -82 29l56 266h-17c-43 0 -68 21 -68 51c0 16 7 54 27 74c13 13 27 19 65 19h23l9 41c34 153 117 196 215 196c56 0 92 -14 117 -39c14 -14 22 -34 22 -54c0 -50 -46 -89 -49 -85c-14 16 -37 26 -64 26c-30 0 -50 -13 -59 -53l-7 -32h49
c45 0 69 -21 69 -51c0 -16 -7 -55 -26 -74c-13 -13 -27 -19 -65 -19h-50l-34 -162c-24 -112 -73 -133 -131 -133z" />
    <glyph glyph-name="section" unicode="&#xa7;" horiz-adv-x="601" 
d="M221 -190c-116 0 -185 24 -221 60c-19 19 -27 40 -27 62c0 55 63 91 69 87c35 -40 123 -77 194 -77c47 0 68 18 68 42c0 26 -43 40 -95 57c-82 27 -193 61 -193 158c0 79 51 140 133 165c-29 22 -47 51 -47 92c0 121 104 204 259 204c108 0 172 -25 207 -60
c17 -17 26 -38 26 -57c0 -63 -69 -94 -74 -90c-37 42 -94 74 -157 74c-46 0 -68 -15 -68 -40s41 -39 95 -57c82 -26 189 -61 189 -156c0 -79 -49 -134 -130 -164c28 -21 48 -50 48 -94c0 -111 -88 -206 -276 -206zM340 159c40 7 69 32 69 65c0 43 -48 58 -109 76
c-15 4 -31 9 -46 13c-41 -9 -69 -32 -69 -64c0 -44 51 -60 114 -79c13 -4 27 -7 41 -11z" />
    <glyph glyph-name="currency" unicode="&#xa4;" horiz-adv-x="634" 
d="M112 341h-11c-39 0 -58 18 -58 42c0 19 6 37 18 49s28 19 52 19h31c18 44 41 85 70 114c67 67 141 96 237 96c79 0 148 -25 184 -61c23 -23 31 -50 31 -76c0 -91 -96 -104 -98 -100c-28 49 -64 74 -134 74c-41 0 -62 -10 -85 -34c-4 -4 -7 -8 -10 -13h112
c40 0 59 -18 59 -42c0 -19 -6 -37 -18 -49s-29 -19 -52 -19h-142c-2 -12 -5 -25 -7 -36h129c40 0 59 -18 59 -42c0 -19 -6 -37 -18 -49s-29 -19 -52 -19h-115c16 -29 48 -46 96 -46c54 0 84 16 127 58c6 6 75 -28 75 -83c0 -29 -10 -51 -32 -73c-39 -40 -111 -64 -191 -64
c-150 0 -253 78 -270 208c1 0 -29 0 -29 0c-39 0 -58 18 -58 42c0 19 6 37 18 49s28 19 52 19h23c2 11 4 23 7 36z" />
    <glyph glyph-name="quotesingle" unicode="'" horiz-adv-x="258" 
d="M155 329c-38 0 -58 9 -57 51l4 195c1 51 28 82 89 82c93 0 119 -41 95 -100l-77 -189c-12 -29 -22 -39 -54 -39z" />
    <glyph glyph-name="quotedblleft" unicode="&#x201c;" horiz-adv-x="489" 
d="M208 376c-3 -6 -143 -13 -143 75c0 34 14 56 55 99l111 117c21 23 107 -5 85 -54zM449 368c-2 -6 -147 -12 -147 80c0 30 10 51 49 94l102 113c20 23 108 -5 88 -54z" />
    <glyph glyph-name="guillemotleft" unicode="&#xab;" horiz-adv-x="554" 
d="M192 64c-42 0 -80 36 -110 79c-33 49 -56 103 -56 113c0 9 38 60 86 105c42 39 89 73 127 73c39 0 63 -21 63 -58c0 -39 -31 -70 -76 -97c-19 -11 -41 -23 -64 -34c18 -10 38 -24 54 -39c29 -27 48 -51 48 -76c1 -38 -29 -66 -72 -66zM423 59c-43 0 -79 38 -107 82
c-30 47 -48 98 -48 109c0 9 40 61 89 107c43 39 93 75 132 75c44 0 67 -22 67 -58c0 -43 -37 -77 -87 -104c-19 -10 -40 -21 -62 -31c19 -11 35 -22 50 -36c26 -25 43 -49 43 -75c0 -40 -29 -69 -77 -69z" />
    <glyph glyph-name="guilsinglleft" unicode="&#x2039;" horiz-adv-x="304" 
d="M91 -5c-55 0 -86 34 -73 95l100 471c13 62 42 91 99 91h30c54 0 85 -34 72 -95l-100 -471c-13 -62 -42 -91 -98 -91h-30zM275 741c-61 0 -90 33 -90 78c0 63 45 105 100 105c61 0 90 -33 90 -77c0 -64 -45 -106 -100 -106z" />
    <glyph glyph-name="guilsinglright" unicode="&#x203a;" horiz-adv-x="286" 
d="M143 -12c-113 0 -136 68 -118 154l57 266c15 69 39 92 88 92h20c52 0 99 -21 84 -92l-59 -273c-13 -59 -3 -82 33 -93c1 -1 -14 -54 -105 -54z" />
    <glyph glyph-name="fi" unicode="&#xfb01;" horiz-adv-x="583" 
d="M263 -14c-116 0 -194 29 -237 72c-24 24 -37 53 -37 82c0 61 68 102 73 96c42 -52 124 -97 199 -97c51 0 75 19 75 53c0 29 -42 39 -97 60c-76 28 -162 73 -162 184c0 116 82 225 277 225c108 0 183 -28 224 -69c21 -22 32 -47 32 -74c0 -70 -75 -111 -80 -105
c-42 56 -111 95 -178 95c-51 0 -77 -22 -77 -51c0 -31 47 -42 108 -65c85 -31 174 -75 174 -179c0 -128 -90 -227 -294 -227zM218 -234c-22 -15 -91 13 -70 48l89 147c2 3 126 5 126 -61c0 -33 -20 -51 -62 -79z" />
    <glyph glyph-name="fl" unicode="&#xfb02;" horiz-adv-x="481" 
d="M228 -10c-102 0 -173 27 -210 64c-18 18 -31 40 -31 64c0 52 52 83 56 78c38 -41 103 -78 160 -78c31 0 46 11 46 28c0 14 -18 22 -55 37c-68 28 -140 58 -140 149c0 102 73 174 212 174c85 0 155 -26 195 -66c15 -15 25 -34 25 -58c0 -59 -59 -88 -63 -84
c-34 42 -88 79 -144 79c-32 0 -48 -12 -48 -28c0 -15 18 -23 67 -43c79 -31 149 -65 149 -151c0 -99 -75 -165 -219 -165zM173 -234c-22 -15 -91 13 -70 48l89 147c2 3 126 5 126 -61c0 -33 -20 -51 -62 -79z" />
    <glyph glyph-name="endash" unicode="&#x2013;" horiz-adv-x="575" 
d="M103 166c-50 0 -77 23 -77 58c0 17 7 61 29 81c14 14 30 22 73 22h345c50 0 76 -23 76 -58c0 -17 -7 -61 -28 -81c-14 -14 -30 -22 -73 -22h-345z" />
    <glyph glyph-name="dagger" unicode="&#x2020;" horiz-adv-x="540" 
d="M172 -155c-34 0 -57 10 -50 49l53 309c10 56 25 101 70 141l-134 -36c-44 -12 -64 22 -64 57c0 59 19 138 83 121l132 -35l-4 142c-1 46 22 68 84 68c78 0 103 -31 81 -80l-58 -129l128 34c44 12 64 -22 64 -57c0 -59 -20 -138 -82 -121l-135 36c24 -35 24 -71 10 -126
l-82 -324c-11 -43 -32 -49 -60 -49h-36z" />
    <glyph glyph-name="daggerdbl" unicode="&#x2021;" horiz-adv-x="540" 
d="M172 -155c-34 0 -57 10 -50 49l26 146l-100 -26c-44 -12 -64 22 -64 57c0 59 19 137 82 121l103 -26l9 52c10 56 25 101 70 141l-134 -36c-44 -12 -64 22 -64 57c0 59 19 138 83 121l127 -33l-2 125c-1 46 22 68 84 68c78 0 102 -31 81 -80l-49 -112l122 32
c44 12 64 -22 64 -57c0 -59 -20 -138 -82 -121l-135 36c24 -35 24 -71 10 -126l-16 -65l93 24c44 11 64 -22 64 -57c0 -59 -20 -137 -82 -121l-107 28l-37 -148c-11 -43 -32 -49 -60 -49h-36z" />
    <glyph glyph-name="periodcentered" unicode="&#xb7;" horiz-adv-x="262" 
d="M115 158c-56 0 -82 19 -82 63c0 27 8 70 33 94c16 16 31 22 81 22c56 0 81 -19 81 -63c0 -27 -8 -70 -32 -94c-16 -16 -31 -22 -81 -22z" />
    <glyph glyph-name="paragraph" unicode="&#xb6;" horiz-adv-x="617" 
d="M463 -4c-30 0 -45 19 -38 53l117 550c7 34 22 49 53 49h16c31 0 45 -19 38 -53l-116 -550c-7 -35 -23 -49 -55 -49h-15zM303 -4c-31 0 -46 19 -39 53l46 215h-40c-143 0 -218 56 -218 163c0 128 84 220 257 220h128c37 0 58 -24 50 -62l-115 -540c-7 -35 -23 -49 -54 -49
h-15z" />
    <glyph glyph-name="bullet" unicode="&#x2022;" horiz-adv-x="363" 
d="M182 101c-84 0 -146 62 -146 146s63 149 146 149c82 0 145 -65 145 -149c0 -81 -65 -146 -145 -146z" />
    <glyph glyph-name="quotesinglbase" unicode="&#x201a;" horiz-adv-x="266" 
d="M49 -115c-21 -23 -108 4 -88 54l95 233c2 6 152 12 152 -76c0 -33 -14 -55 -54 -98z" />
    <glyph glyph-name="quotedblbase" unicode="&#x201e;" horiz-adv-x="490" 
d="M44 -113c-20 -23 -107 3 -88 53l91 234c2 5 148 12 148 -80c0 -30 -10 -51 -49 -94zM266 -125c-21 -23 -108 4 -85 54l108 237c3 6 143 13 143 -76c0 -33 -14 -55 -55 -98z" />
    <glyph glyph-name="quotedblright" unicode="&#x201d;" horiz-adv-x="489" 
d="M149 376c-20 -23 -108 5 -89 54l92 234c2 5 148 12 148 -81c0 -29 -11 -51 -49 -94zM371 365c-21 -23 -108 3 -85 53l108 238c2 5 143 13 143 -76c0 -33 -15 -55 -55 -98z" />
    <glyph glyph-name="guillemotright" unicode="&#xbb;" horiz-adv-x="554" 
d="M313 59c-38 0 -63 21 -63 58c0 38 32 70 77 97c19 11 40 23 64 34c-19 10 -38 24 -54 39c-29 27 -48 51 -48 76c0 38 28 66 72 66c42 0 79 -37 109 -80c33 -48 56 -102 56 -112c0 -9 -37 -60 -86 -105c-41 -39 -88 -73 -127 -73zM64 60c-44 0 -68 23 -68 59
c0 43 37 76 87 103c19 10 40 22 62 32c-18 10 -35 22 -49 36c-27 25 -44 48 -44 74c0 40 30 69 78 69c42 0 79 -37 107 -81c29 -47 48 -98 48 -109c0 -9 -41 -61 -89 -107c-43 -40 -94 -76 -132 -76z" />
    <glyph glyph-name="ellipsis" unicode="&#x2026;" horiz-adv-x="776" 
d="M595 -8c-57 0 -82 19 -82 63c0 27 8 70 32 94c16 16 31 22 81 22c56 0 82 -19 82 -63c0 -27 -8 -70 -33 -94c-16 -16 -31 -22 -80 -22zM336 -8c-56 0 -82 19 -82 63c0 27 8 70 33 94c16 16 31 22 80 22c57 0 82 -19 82 -63c0 -27 -8 -70 -32 -94c-16 -16 -31 -22 -81 -22
zM78 -8c-57 0 -82 19 -82 63c0 27 8 70 32 94c16 16 31 22 81 22c56 0 82 -19 82 -63c0 -27 -8 -70 -33 -94c-16 -16 -31 -22 -80 -22z" />
    <glyph glyph-name="perthousand" unicode="&#x2030;" horiz-adv-x="1117" 
d="M212 338c-102 0 -156 62 -156 139c0 98 58 180 179 180c103 0 157 -62 157 -139c0 -98 -59 -180 -180 -180zM109 -14c-7 -6 -74 25 -74 67c0 17 8 32 29 50l619 555c8 7 75 -25 75 -66c0 -17 -9 -32 -30 -50zM914 -9c-102 0 -156 62 -156 139c0 98 58 180 179 180
c102 0 156 -62 156 -139c0 -99 -58 -180 -179 -180zM560 -9c-102 0 -156 62 -156 139c0 98 59 180 179 180c103 0 157 -62 157 -139c0 -99 -59 -180 -180 -180zM218 431c38 0 59 36 59 81c0 30 -21 52 -48 52c-37 0 -60 -36 -60 -81c0 -30 23 -52 49 -52zM920 84
c38 0 59 36 59 80c0 30 -21 53 -48 53c-38 0 -60 -37 -60 -81c0 -30 22 -52 49 -52zM566 84c38 0 59 36 59 80c0 30 -21 53 -48 53c-37 0 -60 -37 -60 -81c0 -30 23 -52 49 -52z" />
    <glyph glyph-name="questiondown" unicode="&#xbf;" horiz-adv-x="522" 
d="M331 476c-57 0 -82 19 -82 63c0 27 8 70 32 94c16 16 31 23 81 23c56 0 82 -20 82 -64c0 -27 -8 -69 -33 -94c-15 -16 -30 -22 -80 -22zM253 -14c-149 0 -250 74 -250 182c0 127 98 154 166 174c44 13 71 23 71 46c0 14 -4 22 -15 30c-2 1 13 23 64 23
c71 0 113 -40 113 -92c0 -60 -36 -88 -117 -112c-66 -20 -82 -31 -82 -58c0 -30 27 -46 63 -46c60 0 104 31 124 80c0 2 97 -3 97 -76c0 -33 -13 -62 -37 -85c-42 -42 -105 -66 -197 -66z" />
    <glyph glyph-name="grave" unicode="`" 
d="M400 567c-10 -17 -104 -37 -188 12c-35 20 -56 53 -56 85c0 45 33 81 81 81c20 0 42 -6 59 -16c66 -40 114 -145 104 -162z" />
    <glyph glyph-name="acute" unicode="&#xb4;" 
d="M235 567c-9 17 45 123 113 160c18 10 39 15 59 15c49 0 81 -37 81 -81c0 -32 -23 -65 -59 -85c-87 -47 -185 -26 -194 -9z" />
    <glyph glyph-name="circumflex" unicode="&#x2c6;" 
d="M217 541c-36 0 -58 27 -58 57c0 35 25 67 65 96s89 51 132 60c24 -8 60 -31 88 -60c27 -28 46 -58 46 -86c0 -38 -26 -67 -66 -67c-32 0 -60 21 -78 58c-4 9 -9 20 -13 32c-8 -12 -15 -22 -24 -32c-26 -37 -56 -58 -92 -58z" />
    <glyph glyph-name="tilde" unicode="&#x2dc;" horiz-adv-x="499" 
d="M399 540c-49 0 -91 20 -127 62c-16 -34 -41 -60 -72 -60c-35 0 -55 25 -55 54c0 73 59 121 114 121c49 0 91 -20 127 -62c16 33 41 59 72 59c35 0 55 -25 55 -53c0 -73 -59 -121 -114 -121z" />
    <glyph glyph-name="macron" unicode="&#xaf;" 
d="M200 545c-44 0 -67 21 -67 50c0 15 7 53 25 71c13 12 26 18 63 18h235c44 0 67 -20 67 -49c0 -16 -7 -53 -25 -71c-13 -13 -26 -19 -63 -19h-235z" />
    <glyph glyph-name="breve" unicode="&#x2d8;" 
d="M330 540c-103 0 -175 60 -175 128c0 32 24 63 62 63c37 0 85 -31 113 -92c40 60 83 92 125 92s67 -25 67 -56c0 -65 -88 -135 -192 -135z" />
    <glyph glyph-name="dotaccent" unicode="&#x2d9;" 
d="M326 541c-61 0 -90 33 -90 78c0 63 45 105 100 105c61 0 90 -33 90 -77c0 -64 -45 -106 -100 -106z" />
    <glyph glyph-name="dieresis" unicode="&#xa8;" 
d="M439 540c-57 0 -86 32 -86 75c0 61 44 101 96 101c57 0 85 -32 85 -75c0 -60 -43 -101 -95 -101zM213 540c-57 0 -86 32 -86 75c0 61 44 101 96 101c57 0 86 -32 86 -75c0 -60 -44 -101 -96 -101z" />
    <glyph glyph-name="ring" unicode="&#x2da;" 
d="M331 541c-77 0 -126 44 -126 109c0 76 59 143 142 143c77 0 125 -44 125 -109c0 -76 -58 -143 -141 -143zM334 619c30 0 52 28 52 55c0 24 -17 42 -42 42c-31 0 -52 -28 -52 -55c0 -24 17 -42 42 -42z" />
    <glyph glyph-name="cedilla" unicode="&#xb8;" 
d="M115 -234c-22 -15 -91 13 -70 48l89 147c2 3 126 5 126 -61c0 -33 -20 -51 -62 -79z" />
    <glyph glyph-name="hungarumlaut" unicode="&#x2dd;" 
d="M352 567c-10 17 41 122 108 161c18 10 36 16 54 16c48 0 86 -32 86 -74c0 -35 -22 -73 -57 -93c-86 -48 -182 -27 -191 -10zM104 567c-9 17 42 122 109 161c17 10 36 16 53 16c49 0 87 -32 87 -74c0 -35 -22 -73 -58 -93c-85 -48 -181 -27 -191 -10z" />
    <glyph glyph-name="ogonek" unicode="&#x2db;" 
d="M196 -207c-63 0 -72 21 -81 64l-29 143h101l63 -89c25 -36 33 -48 33 -65c0 -34 -34 -53 -87 -53z" />
    <glyph glyph-name="caron" unicode="&#x2c7;" 
d="M311 529c-24 9 -61 32 -88 60c-28 29 -46 59 -46 87c0 38 26 67 66 67c32 0 61 -21 78 -58c5 -10 9 -21 13 -32c8 11 16 21 24 32c27 36 56 58 92 58s58 -27 58 -58c0 -35 -25 -67 -65 -96c-40 -28 -89 -50 -132 -60z" />
    <glyph glyph-name="emdash" unicode="&#x2014;" horiz-adv-x="737" 
d="M103 166c-50 0 -77 23 -77 58c0 17 7 61 29 81c14 14 30 22 73 22h507c50 0 76 -23 76 -58c0 -17 -7 -61 -28 -81c-14 -14 -30 -22 -73 -22h-507z" />
    <glyph glyph-name="AE" unicode="&#xc6;" horiz-adv-x="896" 
d="M139 -10c-3 -4 -144 -5 -144 87c0 35 11 55 40 102l248 406c24 40 53 62 131 62h430c55 0 84 -24 84 -61c0 -21 -10 -67 -32 -89c-15 -15 -32 -22 -78 -22h-262l14 -66h154c50 0 78 -24 78 -58c0 -18 -8 -61 -30 -82c-14 -14 -30 -22 -72 -22h-101l14 -75h147
c55 0 84 -23 84 -61c0 -21 -10 -67 -32 -89c-15 -15 -33 -22 -78 -22h-193c-70 0 -96 22 -108 85l-9 49h-207zM279 278h139l-31 186z" />
    <glyph glyph-name="ordfeminine" unicode="&#xaa;" horiz-adv-x="541" 
d="M200 -9c-50 0 -74 17 -74 57c0 24 7 63 30 85c15 14 27 20 72 20c51 0 74 -17 74 -57c0 -24 -7 -63 -30 -85c-15 -14 -27 -20 -72 -20zM359 494c-12 29 -32 49 -67 49c-56 0 -91 -55 -91 -113c0 -38 24 -64 59 -64c42 0 77 31 88 80zM333 327c-27 -48 -76 -83 -138 -83
c-86 0 -144 63 -144 159c0 130 86 259 213 259c51 0 99 -24 122 -71c20 45 53 64 105 64c30 0 54 -13 53 -19l-58 -273c-10 -48 -3 -66 24 -75c2 -1 -11 -43 -81 -43c-64 0 -93 34 -96 82z" />
    <glyph glyph-name="Lslash" unicode="&#x141;" horiz-adv-x="606" 
d="M171 0c-80 0 -116 40 -98 127l14 67l-53 -15c-5 -1 -28 32 -28 82c0 43 18 65 99 90l16 5l44 205c13 62 42 91 99 91h29c56 0 87 -32 74 -94l-31 -144l124 34c5 1 27 -31 27 -81c0 -43 -17 -67 -99 -90l-87 -25l-17 -78h190c54 0 84 -25 84 -62c0 -19 -9 -66 -32 -89
c-15 -15 -32 -23 -78 -23h-277z" />
    <glyph glyph-name="Oslash" unicode="&#xd8;" horiz-adv-x="727" 
d="M233 264l235 210c-18 10 -41 16 -67 16c-98 0 -170 -89 -170 -201c0 -8 1 -17 2 -25zM527 379c0 1 -232 -207 -232 -207c17 -9 38 -14 63 -14c98 0 170 90 170 202c0 7 0 13 -1 19zM682 517c24 -43 36 -94 36 -146c0 -198 -136 -384 -370 -384c-82 0 -147 22 -196 58
l-95 -86c-8 -7 -71 19 -71 62c0 18 10 32 28 48l65 58c-25 45 -38 96 -38 150c0 198 136 384 370 384c83 0 150 -23 199 -60l92 83c8 6 70 -20 70 -62c0 -19 -9 -33 -27 -49z" />
    <glyph glyph-name="OE" unicode="&#x152;" horiz-adv-x="1027" 
d="M359 164c90 0 160 86 160 194c0 72 -43 127 -119 127c-90 0 -160 -86 -160 -194c0 -72 43 -127 119 -127zM517 647h464c55 0 84 -24 84 -61c0 -21 -10 -67 -32 -89c-15 -15 -33 -22 -78 -22h-254c7 -21 12 -43 15 -66h140c50 0 78 -24 78 -58c0 -18 -8 -61 -30 -82
c-14 -14 -30 -22 -72 -22h-133c-8 -26 -19 -51 -32 -75h220c55 0 84 -23 84 -61c0 -21 -10 -67 -32 -89c-15 -15 -33 -22 -78 -22h-411c-32 -8 -66 -13 -102 -13c-206 0 -307 136 -307 290c0 198 136 384 370 384c39 0 74 -5 106 -14z" />
    <glyph glyph-name="ordmasculine" unicode="&#xba;" horiz-adv-x="458" 
d="M249 244c-130 0 -195 81 -195 182c0 119 80 235 225 235c131 0 196 -81 196 -181c0 -120 -80 -236 -226 -236zM169 -9c-50 0 -74 17 -74 57c0 24 7 63 30 85c15 14 27 20 72 20c51 0 74 -17 74 -57c0 -24 -7 -63 -30 -85c-15 -14 -27 -20 -72 -20zM253 359
c55 0 91 57 91 115c0 41 -28 73 -68 73c-56 0 -91 -58 -91 -116c0 -41 28 -72 68 -72z" />
    <glyph glyph-name="ae" unicode="&#xe6;" horiz-adv-x="861" 
d="M235 105c46 0 87 32 97 80l6 28l-27 -1c-97 -4 -131 -26 -131 -67c0 -24 20 -40 55 -40zM511 298c16 -1 30 -1 43 -1c112 0 146 21 146 50c0 21 -21 40 -62 40c-56 0 -102 -38 -127 -89zM491 191c6 -47 41 -73 102 -73c58 0 104 30 132 66c1 1 77 -9 77 -68
c0 -34 -10 -51 -31 -72c-32 -32 -93 -57 -177 -57c-109 0 -172 36 -205 91c-36 -56 -97 -91 -204 -91c-124 0 -188 48 -188 133c0 128 116 181 339 181h20v3c7 37 -14 66 -78 66c-61 0 -86 -12 -114 -66c-3 -4 -105 -11 -105 69c0 66 70 134 223 134c86 0 143 -28 173 -71
c49 46 114 72 191 72c137 0 209 -62 209 -155c0 -103 -65 -164 -284 -164c-25 0 -51 0 -80 2z" />
    <glyph glyph-name="dotlessi" unicode="&#x131;" horiz-adv-x="286" 
d="M143 -12c-113 0 -136 68 -118 154l57 266c15 69 39 92 88 92h20c52 0 99 -21 84 -92l-59 -273c-13 -59 -3 -82 33 -93c1 -1 -14 -54 -105 -54z" />
    <glyph glyph-name="lslash" unicode="&#x142;" horiz-adv-x="401" 
d="M198 -12c-113 0 -136 68 -118 154l13 62l-69 -16c-3 -1 -21 39 -21 71c0 47 19 76 84 93l39 10l53 250c15 69 40 92 89 92h20c52 0 98 -21 83 -92l-44 -208l71 17c3 1 21 -39 21 -70c0 -48 -19 -78 -84 -94l-41 -10l-24 -112c-13 -59 -3 -82 32 -93
c2 -1 -14 -54 -104 -54z" />
    <glyph glyph-name="oslash" unicode="&#xf8;" horiz-adv-x="566" 
d="M177 201l168 160c-14 9 -30 14 -49 14c-72 0 -121 -78 -121 -152c0 -7 1 -15 2 -22zM389 288c0 1 -165 -155 -165 -155c13 -8 29 -12 46 -12c72 0 120 77 120 152c0 5 0 10 -1 15zM517 390c19 -33 28 -71 28 -109c0 -149 -99 -294 -281 -294c-54 0 -99 13 -136 36
l-86 -81c-8 -7 -72 18 -72 59c0 14 8 30 26 46l56 52c-20 35 -31 75 -31 115c0 150 99 294 281 294c56 0 103 -14 140 -38l89 84c7 6 71 -18 71 -58c0 -15 -8 -32 -25 -49z" />
    <glyph glyph-name="oe" unicode="&#x153;" horiz-adv-x="923" 
d="M268 128c71 0 117 72 117 146c0 53 -36 93 -87 93c-71 0 -117 -72 -117 -145c0 -54 36 -94 87 -94zM573 298c16 -1 31 -1 44 -1c112 0 145 21 145 50c0 21 -20 40 -62 40c-56 0 -102 -38 -127 -89zM553 191c6 -47 41 -73 102 -73c58 0 105 30 133 66c1 1 77 -9 77 -68
c0 -34 -10 -51 -31 -72c-33 -33 -94 -57 -182 -57c-92 0 -164 32 -200 87c-46 -53 -110 -87 -195 -87c-158 0 -236 102 -236 227c0 150 97 294 275 294c93 0 162 -38 197 -98c51 61 121 98 219 98c133 0 205 -62 205 -155c0 -103 -65 -164 -284 -164c-25 0 -51 0 -80 2z" />
    <glyph glyph-name="germandbls" unicode="&#xdf;" horiz-adv-x="625" 
d="M386 -13c-60 0 -107 17 -131 41c-17 17 -24 36 -24 59c0 56 54 83 57 80c12 -15 29 -30 67 -30s67 28 67 70c0 32 -20 52 -59 67c-30 15 -57 32 -57 79c0 34 21 73 39 86c71 0 99 20 99 70c0 34 -28 59 -71 59c-44 0 -75 -29 -90 -98l-82 -382c-15 -68 -40 -93 -89 -93
h-20c-51 0 -98 24 -83 93l81 384c36 171 117 234 288 234s253 -75 253 -169c0 -86 -53 -139 -147 -153c75 -36 119 -91 119 -166c0 -133 -92 -231 -217 -231z" />
    <glyph glyph-name="logicalnot" unicode="&#xac;" horiz-adv-x="728" 
d="M372 -13c-208 0 -332 123 -332 291c0 207 162 383 384 383c103 0 183 -31 226 -74c27 -27 39 -55 39 -84c0 -93 -119 -93 -124 -86c-26 40 -72 73 -138 73c-96 0 -184 -85 -184 -206c0 -81 45 -140 138 -140c66 0 103 31 115 77h-77c-45 0 -70 22 -70 52c0 17 8 56 27 75
c12 13 27 20 65 20h197c44 0 65 -19 65 -58c0 -55 -14 -159 -92 -237c-52 -52 -128 -86 -239 -86z" />
    <glyph glyph-name="mu" unicode="&#xb5;" horiz-adv-x="579" 
d="M159 -13c-101 0 -162 48 -162 133c0 128 116 181 339 181h20v3c7 37 -14 66 -78 66c-61 0 -86 -12 -114 -66c-3 -4 -105 -11 -105 69c0 66 63 134 246 134c172 0 243 -86 239 -195c-2 -50 -37 -173 -38 -211c-1 -36 8 -51 36 -59c1 -1 -14 -54 -101 -54
c-70 0 -103 33 -112 75c-43 -54 -89 -76 -170 -76zM235 105c46 0 87 32 97 80l6 28l-27 -1c-97 -4 -131 -26 -131 -67c0 -24 20 -40 55 -40z" />
    <glyph glyph-name="trademark" unicode="&#x2122;" horiz-adv-x="715" 
d="M431 324c-30 0 -42 17 -42 49v229c0 33 12 50 42 50h33c26 0 36 -7 44 -27l51 -121l51 121c9 22 21 27 43 27h32c31 0 43 -17 43 -50v-229c0 -32 -11 -49 -41 -49h-17c-29 0 -41 17 -41 49v125l-28 -89c-4 -12 -4 -21 -42 -21c-40 0 -38 8 -42 21l-29 85v-121
c0 -32 -10 -49 -40 -49h-17zM203 324c-28 0 -43 17 -43 49v183h-49c-32 0 -48 16 -48 46v1c0 30 16 44 48 44h202c32 0 48 -14 48 -44v-1c0 -30 -16 -46 -48 -46h-48v-183c0 -32 -16 -49 -46 -49h-16z" />
    <glyph glyph-name="Eth" unicode="&#xd0;" horiz-adv-x="727" 
d="M158 0c-80 0 -118 40 -99 127l28 130h-18c-30 0 -53 17 -53 46c0 17 7 54 25 72c12 12 25 17 56 17h19l33 155c15 71 57 100 122 100h140c194 0 309 -108 309 -270c0 -198 -131 -377 -404 -377h-158zM267 169h76c117 0 179 87 179 185c0 77 -49 124 -131 124h-58l-19 -86
h55c40 0 63 -19 63 -48c0 -15 -8 -52 -25 -69c-12 -12 -25 -18 -61 -18h-60z" />
    <glyph glyph-name="plusminus" unicode="&#xb1;" horiz-adv-x="493" 
d="M78 1c-52 0 -80 24 -80 59c0 18 9 62 30 84c15 15 31 21 75 21h56l55 259c-16 -8 -34 -13 -51 -13c-31 0 -53 9 -68 24c-15 14 -22 35 -22 60c0 82 61 114 64 112c18 -16 48 -24 76 -24c42 0 77 27 97 73h45c60 0 87 -28 73 -94l-85 -397h26c52 0 80 -23 80 -58
c0 -19 -8 -63 -30 -85c-14 -15 -30 -21 -75 -21h-266z" />
    <glyph glyph-name="Thorn" unicode="&#xde;" horiz-adv-x="623" 
d="M84 -5c-55 0 -86 33 -73 95l100 469c13 62 41 93 100 93h36c48 0 79 -28 69 -77l-5 -24h45c173 0 263 -67 263 -192c0 -159 -95 -259 -302 -259h-101l-6 -27c-11 -50 -39 -78 -94 -78h-32zM247 247h81c71 0 101 39 100 90c0 43 -28 63 -85 63h-65z" />
    <glyph glyph-name="degree" unicode="&#xb0;" horiz-adv-x="383" 
d="M218 336c-92 0 -157 52 -157 134c0 88 54 188 185 188c93 0 158 -52 158 -134c0 -88 -54 -188 -186 -188zM225 426c46 0 68 57 68 91c0 33 -23 51 -54 51c-45 0 -67 -56 -67 -91c0 -33 23 -51 53 -51z" />
    <glyph glyph-name="thorn" unicode="&#xfe;" horiz-adv-x="628" 
d="M247 311l-12 -58c-15 -71 16 -119 79 -119c70 0 108 67 108 138c0 53 -31 87 -80 87c-37 0 -71 -18 -95 -48zM197 71l-37 -172c-15 -69 -39 -92 -88 -92h-20c-52 0 -99 21 -84 92l151 713c15 69 40 92 89 92h20c51 0 98 -21 83 -92l-37 -173c33 42 81 69 142 69
c108 0 190 -78 190 -208c0 -159 -98 -312 -252 -312c-63 0 -126 28 -157 83z" />
    <glyph glyph-name="registered" unicode="&#xae;" horiz-adv-x="746" 
d="M389 -14c-200 0 -337 140 -337 338c0 195 138 337 337 337c200 0 337 -140 337 -337c0 -196 -137 -338 -337 -338zM390 53c158 0 265 113 265 271c0 156 -109 270 -266 270c-160 0 -266 -113 -266 -270s108 -271 267 -271zM350 338h45c30 0 46 13 46 38s-16 38 -48 38
h-43v-76zM489 283l70 -102c6 -7 -31 -40 -67 -40c-23 0 -48 10 -66 44l-47 72h-27v-59c0 -34 -17 -54 -51 -54h-16c-32 0 -49 26 -49 68v226c0 42 21 64 59 64h108c103 0 154 -38 154 -118c0 -50 -25 -85 -68 -101z" />
    <glyph glyph-name="eth" unicode="&#xf0;" horiz-adv-x="617" 
d="M286 126c31 0 56 10 76 30c24 24 40 61 48 109c-11 32 -48 62 -98 62c-67 0 -113 -54 -112 -117c0 -50 33 -84 86 -84zM391 536l-163 -56c-4 -1 -24 24 -24 60c0 29 10 58 51 72l33 11c-35 16 -73 25 -109 28c-5 0 16 82 120 82c62 0 121 -20 170 -56l137 45
c4 1 24 -24 24 -61c0 -28 -10 -58 -51 -72c0 0 -24 -7 -24 -8c40 -65 59 -149 55 -242c-6 -114 -29 -198 -102 -271c-48 -48 -113 -81 -209 -81c-161 0 -282 80 -282 223c0 134 96 243 235 243c90 0 151 -37 178 -85c4 71 -12 126 -39 168z" />
    <glyph glyph-name="multiply" unicode="&#xd7;" horiz-adv-x="565" 
d="M403 21c-20 0 -39 11 -56 32l-76 98l-123 -104c-20 -17 -38 -24 -59 -24c-30 0 -66 45 -66 68c0 22 7 46 34 68l126 103l-78 98c-14 18 -21 33 -21 51c0 28 45 72 77 72c20 0 39 -11 56 -33l75 -98l124 104c21 17 38 25 58 25c30 0 66 -45 66 -69c0 -21 -7 -46 -33 -67
l-127 -103l79 -98c15 -18 21 -34 21 -51c0 -29 -45 -72 -77 -72z" />
    <glyph glyph-name="copyright" unicode="&#xa9;" horiz-adv-x="746" 
d="M389 -14c-200 0 -337 140 -337 338c0 195 138 337 337 337c200 0 337 -140 337 -337c0 -196 -137 -338 -337 -338zM390 53c158 0 265 113 265 271c0 156 -109 270 -266 270c-160 0 -266 -113 -266 -270s108 -271 267 -271zM399 138c-111 0 -188 77 -188 185
c0 106 78 183 188 183c62 0 100 -22 117 -40c12 -12 18 -23 18 -43c-1 -41 -54 -63 -57 -59c-22 26 -41 36 -73 36c-40 0 -73 -32 -73 -77c0 -46 33 -78 74 -78c33 0 52 11 73 36c3 4 56 -17 57 -58c0 -19 -6 -32 -19 -45c-17 -18 -55 -40 -117 -40z" />
    <glyph glyph-name="Aacute" unicode="&#xc1;" horiz-adv-x="692" 
d="M139 -10c-3 -4 -144 -5 -144 87c0 35 11 55 40 102l255 418c21 35 49 55 130 55c88 0 113 -24 119 -57l99 -537c3 -18 -54 -66 -114 -66c-53 0 -80 29 -91 91l-9 51h-207zM279 278h139l-30 186zM348 722c-9 17 45 123 113 160c18 10 39 15 59 15c49 0 81 -37 81 -81
c0 -32 -23 -65 -59 -85c-87 -47 -185 -26 -194 -9z" />
    <glyph glyph-name="Acircumflex" unicode="&#xc2;" horiz-adv-x="692" 
d="M139 -10c-3 -4 -144 -5 -144 87c0 35 11 55 40 102l255 418c21 35 49 55 130 55c88 0 113 -24 119 -57l99 -537c3 -18 -54 -66 -114 -66c-53 0 -80 29 -91 91l-9 51h-207zM279 278h139l-30 186zM326 696c-36 0 -58 27 -58 57c0 35 25 67 65 96s89 51 132 60
c24 -8 60 -31 88 -60c27 -28 46 -58 46 -86c0 -38 -26 -67 -66 -67c-32 0 -60 21 -78 58c-4 9 -9 20 -13 32c-8 -12 -15 -22 -24 -32c-26 -37 -56 -58 -92 -58z" />
    <glyph glyph-name="Adieresis" unicode="&#xc4;" horiz-adv-x="692" 
d="M139 -10c-3 -4 -144 -5 -144 87c0 35 11 55 40 102l255 418c21 35 49 55 130 55c88 0 113 -24 119 -57l99 -537c3 -18 -54 -66 -114 -66c-53 0 -80 29 -91 91l-9 51h-207zM279 278h139l-30 186zM550 695c-57 0 -86 32 -86 75c0 61 44 101 96 101c57 0 85 -32 85 -75
c0 -60 -43 -101 -95 -101zM324 695c-57 0 -86 32 -86 75c0 61 44 101 96 101c57 0 86 -32 86 -75c0 -60 -44 -101 -96 -101z" />
    <glyph glyph-name="Agrave" unicode="&#xc0;" horiz-adv-x="692" 
d="M139 -10c-3 -4 -144 -5 -144 87c0 35 11 55 40 102l255 418c21 35 49 55 130 55c88 0 113 -24 119 -57l99 -537c3 -18 -54 -66 -114 -66c-53 0 -80 29 -91 91l-9 51h-207zM279 278h139l-30 186zM485 722c-10 -17 -104 -37 -188 12c-35 20 -56 53 -56 85c0 45 33 81 81 81
c20 0 42 -6 59 -16c66 -40 114 -145 104 -162z" />
    <glyph glyph-name="Aring" unicode="&#xc5;" horiz-adv-x="692" 
d="M139 -10c-3 -4 -144 -5 -144 87c0 35 11 55 40 102l251 411c13 21 28 37 58 46c-22 18 -35 45 -35 77c0 73 57 137 140 137c77 0 126 -43 126 -105c0 -48 -25 -93 -65 -117c19 -10 27 -24 30 -40l98 -530c3 -18 -54 -66 -114 -66c-53 0 -80 29 -91 91l-9 51h-207z
M437 676c31 0 52 28 52 55c0 24 -17 42 -42 42c-31 0 -52 -28 -52 -55c0 -24 17 -42 42 -42zM279 278h139l-30 186z" />
    <glyph glyph-name="Atilde" unicode="&#xc3;" horiz-adv-x="692" 
d="M139 -10c-3 -4 -144 -5 -144 87c0 35 11 55 40 102l255 418c21 35 49 55 130 55c88 0 113 -24 119 -57l99 -537c3 -18 -54 -66 -114 -66c-53 0 -80 29 -91 91l-9 51h-207zM279 278h139l-30 186zM505 695c-49 0 -91 20 -127 62c-16 -34 -41 -60 -72 -60
c-35 0 -55 25 -55 54c0 73 59 121 114 121c49 0 91 -20 127 -62c16 33 41 59 72 59c35 0 55 -25 55 -53c0 -73 -59 -121 -114 -121z" />
    <glyph glyph-name="Ccedilla" unicode="&#xc7;" horiz-adv-x="647" 
d="M358 -13c-195 0 -318 113 -318 290c0 204 153 384 371 384c113 0 177 -34 215 -71c28 -28 40 -61 40 -84c0 -105 -128 -115 -132 -109c-20 50 -59 82 -119 82c-95 0 -168 -82 -168 -181c0 -75 52 -130 126 -130c57 0 101 24 130 68c4 6 101 -17 101 -94
c0 -26 -14 -53 -40 -79c-42 -42 -116 -76 -206 -76zM241 -234c-22 -15 -91 13 -70 48l89 147c2 3 126 5 126 -61c0 -33 -20 -51 -62 -79z" />
    <glyph glyph-name="Eacute" unicode="&#xc9;" horiz-adv-x="616" 
d="M117 0c-80 0 -116 40 -98 127l89 420c15 70 57 100 123 100h339c55 0 84 -24 84 -61c0 -21 -10 -67 -32 -89c-15 -15 -33 -22 -78 -22h-251l-14 -66h177c50 0 77 -24 77 -58c0 -18 -8 -61 -29 -82c-14 -14 -31 -22 -73 -22h-186l-16 -75h247c54 0 83 -23 83 -61
c0 -21 -9 -67 -31 -89c-15 -15 -33 -22 -78 -22h-333zM315 722c-9 17 45 123 113 160c18 10 39 15 59 15c49 0 81 -37 81 -81c0 -32 -23 -65 -59 -85c-87 -47 -185 -26 -194 -9z" />
    <glyph glyph-name="Ecircumflex" unicode="&#xca;" horiz-adv-x="616" 
d="M117 0c-80 0 -116 40 -98 127l89 420c15 70 57 100 123 100h339c55 0 84 -24 84 -61c0 -21 -10 -67 -32 -89c-15 -15 -33 -22 -78 -22h-251l-14 -66h177c50 0 77 -24 77 -58c0 -18 -8 -61 -29 -82c-14 -14 -31 -22 -73 -22h-186l-16 -75h247c54 0 83 -23 83 -61
c0 -21 -9 -67 -31 -89c-15 -15 -33 -22 -78 -22h-333zM302 696c-36 0 -58 27 -58 57c0 35 25 67 65 96s89 51 132 60c24 -8 60 -31 88 -60c27 -28 46 -58 46 -86c0 -38 -26 -67 -66 -67c-32 0 -60 21 -78 58c-4 9 -9 20 -13 32c-8 -12 -15 -22 -24 -32
c-26 -37 -56 -58 -92 -58z" />
    <glyph glyph-name="Edieresis" unicode="&#xcb;" horiz-adv-x="616" 
d="M117 0c-80 0 -116 40 -98 127l89 420c15 70 57 100 123 100h339c55 0 84 -24 84 -61c0 -21 -10 -67 -32 -89c-15 -15 -33 -22 -78 -22h-251l-14 -66h177c50 0 77 -24 77 -58c0 -18 -8 -61 -29 -82c-14 -14 -31 -22 -73 -22h-186l-16 -75h247c54 0 83 -23 83 -61
c0 -21 -9 -67 -31 -89c-15 -15 -33 -22 -78 -22h-333zM522 695c-57 0 -86 32 -86 75c0 61 44 101 96 101c57 0 85 -32 85 -75c0 -60 -43 -101 -95 -101zM296 695c-57 0 -86 32 -86 75c0 61 44 101 96 101c57 0 86 -32 86 -75c0 -60 -44 -101 -96 -101z" />
    <glyph glyph-name="Egrave" unicode="&#xc8;" horiz-adv-x="616" 
d="M117 0c-80 0 -116 40 -98 127l89 420c15 70 57 100 123 100h339c55 0 84 -24 84 -61c0 -21 -10 -67 -32 -89c-15 -15 -33 -22 -78 -22h-251l-14 -66h177c50 0 77 -24 77 -58c0 -18 -8 -61 -29 -82c-14 -14 -31 -22 -73 -22h-186l-16 -75h247c54 0 83 -23 83 -61
c0 -21 -9 -67 -31 -89c-15 -15 -33 -22 -78 -22h-333zM498 722c-10 -17 -104 -37 -188 12c-35 20 -56 53 -56 85c0 45 33 81 81 81c20 0 42 -6 59 -16c66 -40 114 -145 104 -162z" />
    <glyph glyph-name="Iacute" unicode="&#xcd;" horiz-adv-x="304" 
d="M91 -5c-55 0 -86 34 -73 95l100 471c13 62 42 91 99 91h30c54 0 85 -34 72 -95l-100 -471c-13 -62 -42 -91 -98 -91h-30zM171 722c-9 17 45 123 113 160c18 10 39 15 59 15c49 0 81 -37 81 -81c0 -32 -23 -65 -59 -85c-87 -47 -185 -26 -194 -9z" />
    <glyph glyph-name="Icircumflex" unicode="&#xce;" horiz-adv-x="304" 
d="M91 -5c-55 0 -86 34 -73 95l100 471c13 62 42 91 99 91h30c54 0 85 -34 72 -95l-100 -471c-13 -62 -42 -91 -98 -91h-30zM145 696c-36 0 -58 27 -58 57c0 35 25 67 65 96s89 51 132 60c24 -8 60 -31 88 -60c27 -28 46 -58 46 -86c0 -38 -26 -67 -66 -67
c-32 0 -60 21 -78 58c-4 9 -9 20 -13 32c-8 -12 -15 -22 -24 -32c-26 -37 -56 -58 -92 -58z" />
    <glyph glyph-name="Idieresis" unicode="&#xcf;" horiz-adv-x="304" 
d="M91 -5c-55 0 -86 34 -73 95l100 471c13 62 42 91 99 91h30c54 0 85 -34 72 -95l-100 -471c-13 -62 -42 -91 -98 -91h-30zM367 695c-57 0 -86 32 -86 75c0 61 44 101 96 101c57 0 85 -32 85 -75c0 -60 -43 -101 -95 -101zM141 695c-57 0 -86 32 -86 75c0 61 44 101 96 101
c57 0 86 -32 86 -75c0 -60 -44 -101 -96 -101z" />
    <glyph glyph-name="Igrave" unicode="&#xcc;" horiz-adv-x="304" 
d="M91 -5c-55 0 -86 34 -73 95l100 471c13 62 42 91 99 91h30c54 0 85 -34 72 -95l-100 -471c-13 -62 -42 -91 -98 -91h-30zM317 722c-10 -17 -104 -37 -188 12c-35 20 -56 53 -56 85c0 45 33 81 81 81c20 0 42 -6 59 -16c66 -40 114 -145 104 -162z" />
    <glyph glyph-name="Ntilde" unicode="&#xd1;" horiz-adv-x="703" 
d="M80 -5c-54 0 -82 34 -69 95l100 467c14 64 44 95 102 95h18c42 0 65 -12 89 -56l161 -292l54 255c13 62 38 93 96 93h22c55 0 82 -34 69 -95l-99 -468c-13 -63 -44 -94 -101 -94h-12c-41 0 -65 12 -89 56l-166 303l-56 -266c-13 -62 -38 -93 -96 -93h-23zM519 695
c-49 0 -91 20 -127 62c-16 -34 -41 -60 -72 -60c-35 0 -55 25 -55 54c0 73 59 121 114 121c49 0 91 -20 127 -62c16 33 41 59 72 59c35 0 55 -25 55 -53c0 -73 -59 -121 -114 -121z" />
    <glyph glyph-name="Oacute" unicode="&#xd3;" horiz-adv-x="727" 
d="M348 -13c-206 0 -307 136 -307 290c0 198 136 384 370 384c206 0 307 -135 307 -290c0 -198 -136 -384 -370 -384zM359 164c90 0 160 86 160 194c0 72 -43 127 -119 127c-90 0 -160 -86 -160 -194c0 -72 43 -127 119 -127zM348 722c-9 17 45 123 113 160
c18 10 39 15 59 15c49 0 81 -37 81 -81c0 -32 -23 -65 -59 -85c-87 -47 -185 -26 -194 -9z" />
    <glyph glyph-name="Ocircumflex" unicode="&#xd4;" horiz-adv-x="727" 
d="M348 -13c-206 0 -307 136 -307 290c0 198 136 384 370 384c206 0 307 -135 307 -290c0 -198 -136 -384 -370 -384zM359 164c90 0 160 86 160 194c0 72 -43 127 -119 127c-90 0 -160 -86 -160 -194c0 -72 43 -127 119 -127zM333 696c-36 0 -58 27 -58 57c0 35 25 67 65 96
s89 51 132 60c24 -8 60 -31 88 -60c27 -28 46 -58 46 -86c0 -38 -26 -67 -66 -67c-32 0 -60 21 -78 58c-4 9 -9 20 -13 32c-8 -12 -15 -22 -24 -32c-26 -37 -56 -58 -92 -58z" />
    <glyph glyph-name="Odieresis" unicode="&#xd6;" horiz-adv-x="727" 
d="M348 -13c-206 0 -307 136 -307 290c0 198 136 384 370 384c206 0 307 -135 307 -290c0 -198 -136 -384 -370 -384zM359 164c90 0 160 86 160 194c0 72 -43 127 -119 127c-90 0 -160 -86 -160 -194c0 -72 43 -127 119 -127zM562 695c-57 0 -86 32 -86 75
c0 61 44 101 96 101c57 0 85 -32 85 -75c0 -60 -43 -101 -95 -101zM336 695c-57 0 -86 32 -86 75c0 61 44 101 96 101c57 0 86 -32 86 -75c0 -60 -44 -101 -96 -101z" />
    <glyph glyph-name="Ograve" unicode="&#xd2;" horiz-adv-x="727" 
d="M348 -13c-206 0 -307 136 -307 290c0 198 136 384 370 384c206 0 307 -135 307 -290c0 -198 -136 -384 -370 -384zM359 164c90 0 160 86 160 194c0 72 -43 127 -119 127c-90 0 -160 -86 -160 -194c0 -72 43 -127 119 -127zM513 722c-10 -17 -104 -37 -188 12
c-35 20 -56 53 -56 85c0 45 33 81 81 81c20 0 42 -6 59 -16c66 -40 114 -145 104 -162z" />
    <glyph glyph-name="Otilde" unicode="&#xd5;" horiz-adv-x="727" 
d="M348 -13c-206 0 -307 136 -307 290c0 198 136 384 370 384c206 0 307 -135 307 -290c0 -198 -136 -384 -370 -384zM359 164c90 0 160 86 160 194c0 72 -43 127 -119 127c-90 0 -160 -86 -160 -194c0 -72 43 -127 119 -127zM513 695c-49 0 -91 20 -127 62
c-16 -34 -41 -60 -72 -60c-35 0 -55 25 -55 54c0 73 59 121 114 121c49 0 91 -20 127 -62c16 33 41 59 72 59c35 0 55 -25 55 -53c0 -73 -59 -121 -114 -121z" />
    <glyph glyph-name="Scaron" unicode="&#x160;" horiz-adv-x="583" 
d="M263 -14c-116 0 -194 29 -237 72c-24 24 -37 53 -37 82c0 61 68 102 73 96c42 -52 124 -97 199 -97c51 0 75 19 75 53c0 29 -42 39 -97 60c-76 28 -162 73 -162 184c0 116 82 225 277 225c108 0 183 -28 224 -69c21 -22 32 -47 32 -74c0 -70 -75 -111 -80 -105
c-42 56 -111 95 -178 95c-51 0 -77 -22 -77 -51c0 -31 47 -42 108 -65c85 -31 174 -75 174 -179c0 -128 -90 -227 -294 -227zM375 684c-24 9 -61 32 -88 60c-28 29 -46 59 -46 87c0 38 26 67 66 67c32 0 61 -21 78 -58c5 -10 9 -21 13 -32c8 11 16 21 24 32
c27 36 56 58 92 58s58 -27 58 -58c0 -35 -25 -67 -65 -96c-40 -28 -89 -50 -132 -60z" />
    <glyph glyph-name="Uacute" unicode="&#xda;" horiz-adv-x="671" 
d="M313 -13c-216 0 -306 111 -262 320l54 254c13 62 42 91 99 91h30c55 0 87 -32 73 -95l-57 -265c-18 -84 8 -130 84 -130c52 0 87 32 104 111l61 286c13 62 42 93 99 93h26c55 0 86 -33 73 -94l-63 -296c-40 -186 -149 -275 -321 -275zM341 720c-9 17 45 123 113 160
c18 10 39 15 59 15c49 0 81 -37 81 -81c0 -32 -23 -65 -59 -85c-87 -47 -185 -26 -194 -9z" />
    <glyph glyph-name="Ucircumflex" unicode="&#xdb;" horiz-adv-x="671" 
d="M313 -13c-216 0 -306 111 -262 320l54 254c13 62 42 91 99 91h30c55 0 87 -32 73 -95l-57 -265c-18 -84 8 -130 84 -130c52 0 87 32 104 111l61 286c13 62 42 93 99 93h26c55 0 86 -33 73 -94l-63 -296c-40 -186 -149 -275 -321 -275zM324 694c-36 0 -58 27 -58 57
c0 35 25 67 65 96s89 51 132 60c24 -8 60 -31 88 -60c27 -28 46 -58 46 -86c0 -38 -26 -67 -66 -67c-32 0 -60 21 -78 58c-4 9 -9 20 -13 32c-8 -12 -15 -22 -24 -32c-26 -37 -56 -58 -92 -58z" />
    <glyph glyph-name="Udieresis" unicode="&#xdc;" horiz-adv-x="671" 
d="M313 -13c-216 0 -306 111 -262 320l54 254c13 62 42 91 99 91h30c55 0 87 -32 73 -95l-57 -265c-18 -84 8 -130 84 -130c52 0 87 32 104 111l61 286c13 62 42 93 99 93h26c55 0 86 -33 73 -94l-63 -296c-40 -186 -149 -275 -321 -275zM545 693c-57 0 -86 32 -86 75
c0 61 44 101 96 101c57 0 85 -32 85 -75c0 -60 -43 -101 -95 -101zM319 693c-57 0 -86 32 -86 75c0 61 44 101 96 101c57 0 86 -32 86 -75c0 -60 -44 -101 -96 -101z" />
    <glyph glyph-name="Ugrave" unicode="&#xd9;" horiz-adv-x="671" 
d="M313 -13c-216 0 -306 111 -262 320l54 254c13 62 42 91 99 91h30c55 0 87 -32 73 -95l-57 -265c-18 -84 8 -130 84 -130c52 0 87 32 104 111l61 286c13 62 42 93 99 93h26c55 0 86 -33 73 -94l-63 -296c-40 -186 -149 -275 -321 -275zM502 720c-10 -17 -104 -37 -188 12
c-35 20 -56 53 -56 85c0 45 33 81 81 81c20 0 42 -6 59 -16c66 -40 114 -145 104 -162z" />
    <glyph glyph-name="Yacute" unicode="&#xdd;" horiz-adv-x="632" 
d="M259 -5c-55 0 -86 32 -73 94l36 166l-150 324c-5 10 42 73 122 73c42 0 65 -27 86 -80l65 -167l206 254c2 3 122 -7 122 -93c0 -25 -16 -60 -52 -98l-199 -215l-36 -167c-13 -62 -42 -91 -99 -91h-28zM317 720c-9 17 45 123 113 160c18 10 39 15 59 15
c49 0 81 -37 81 -81c0 -32 -23 -65 -59 -85c-87 -47 -185 -26 -194 -9z" />
    <glyph glyph-name="Ydieresis" unicode="&#x178;" horiz-adv-x="632" 
d="M259 -5c-55 0 -86 32 -73 94l36 166l-150 324c-5 10 42 73 122 73c42 0 65 -27 86 -80l65 -167l206 254c2 3 122 -7 122 -93c0 -25 -16 -60 -52 -98l-199 -215l-36 -167c-13 -62 -42 -91 -99 -91h-28zM516 693c-57 0 -86 32 -86 75c0 61 44 101 96 101
c57 0 85 -32 85 -75c0 -60 -43 -101 -95 -101zM290 693c-57 0 -86 32 -86 75c0 61 44 101 96 101c57 0 86 -32 86 -75c0 -60 -44 -101 -96 -101z" />
    <glyph glyph-name="Zcaron" unicode="&#x17d;" horiz-adv-x="591" 
d="M39 0c-10 0 -50 48 -50 98c0 43 18 65 65 108l302 275h-162c-70 0 -105 25 -105 70s32 96 36 96h449c10 0 50 -48 50 -98c0 -43 -18 -65 -65 -108l-302 -275h182c70 0 105 -25 105 -70s-32 -96 -36 -96h-469zM356 684c-24 9 -61 32 -88 60c-28 29 -46 59 -46 87
c0 38 26 67 66 67c32 0 61 -21 78 -58c5 -10 9 -21 13 -32c8 11 16 21 24 32c27 36 56 58 92 58s58 -27 58 -58c0 -35 -25 -67 -65 -96c-40 -28 -89 -50 -132 -60z" />
    <glyph glyph-name="aacute" unicode="&#xe1;" horiz-adv-x="640" 
d="M406 301c-14 36 -40 61 -84 61c-72 0 -117 -70 -117 -143c0 -49 31 -82 76 -82c54 0 99 40 112 103zM374 90c-34 -60 -96 -102 -173 -102c-107 0 -180 77 -180 198c0 163 108 322 267 322c63 0 123 -29 152 -86c26 55 67 78 130 78c37 0 67 -16 66 -23l-73 -342
c-13 -59 -4 -82 31 -93c1 -1 -14 -54 -101 -54c-79 0 -116 41 -119 102zM290 567c-9 17 45 123 113 160c18 10 39 15 59 15c49 0 81 -37 81 -81c0 -32 -23 -65 -59 -85c-87 -47 -185 -26 -194 -9z" />
    <glyph glyph-name="acircumflex" unicode="&#xe2;" horiz-adv-x="640" 
d="M406 301c-14 36 -40 61 -84 61c-72 0 -117 -70 -117 -143c0 -49 31 -82 76 -82c54 0 99 40 112 103zM374 90c-34 -60 -96 -102 -173 -102c-107 0 -180 77 -180 198c0 163 108 322 267 322c63 0 123 -29 152 -86c26 55 67 78 130 78c37 0 67 -16 66 -23l-73 -342
c-13 -59 -4 -82 31 -93c1 -1 -14 -54 -101 -54c-79 0 -116 41 -119 102zM285 541c-36 0 -58 27 -58 57c0 35 25 67 65 96s89 51 132 60c24 -8 60 -31 88 -60c27 -28 46 -58 46 -86c0 -38 -26 -67 -66 -67c-32 0 -60 21 -78 58c-4 9 -9 20 -13 32c-8 -12 -15 -22 -24 -32
c-26 -37 -56 -58 -92 -58z" />
    <glyph glyph-name="adieresis" unicode="&#xe4;" horiz-adv-x="640" 
d="M406 301c-14 36 -40 61 -84 61c-72 0 -117 -70 -117 -143c0 -49 31 -82 76 -82c54 0 99 40 112 103zM374 90c-34 -60 -96 -102 -173 -102c-107 0 -180 77 -180 198c0 163 108 322 267 322c63 0 123 -29 152 -86c26 55 67 78 130 78c37 0 67 -16 66 -23l-73 -342
c-13 -59 -4 -82 31 -93c1 -1 -14 -54 -101 -54c-79 0 -116 41 -119 102zM507 540c-57 0 -86 32 -86 75c0 61 44 101 96 101c57 0 85 -32 85 -75c0 -60 -43 -101 -95 -101zM281 540c-57 0 -86 32 -86 75c0 61 44 101 96 101c57 0 86 -32 86 -75c0 -60 -44 -101 -96 -101z" />
    <glyph glyph-name="agrave" unicode="&#xe0;" horiz-adv-x="640" 
d="M406 301c-14 36 -40 61 -84 61c-72 0 -117 -70 -117 -143c0 -49 31 -82 76 -82c54 0 99 40 112 103zM374 90c-34 -60 -96 -102 -173 -102c-107 0 -180 77 -180 198c0 163 108 322 267 322c63 0 123 -29 152 -86c26 55 67 78 130 78c37 0 67 -16 66 -23l-73 -342
c-13 -59 -4 -82 31 -93c1 -1 -14 -54 -101 -54c-79 0 -116 41 -119 102zM455 567c-10 -17 -104 -37 -188 12c-35 20 -56 53 -56 85c0 45 33 81 81 81c20 0 42 -6 59 -16c66 -40 114 -145 104 -162z" />
    <glyph glyph-name="aring" unicode="&#xe5;" horiz-adv-x="640" 
d="M406 301c-14 36 -40 61 -84 61c-72 0 -117 -70 -117 -143c0 -49 31 -82 76 -82c54 0 99 40 112 103zM374 90c-34 -60 -96 -102 -173 -102c-107 0 -180 77 -180 198c0 163 108 322 267 322c63 0 123 -29 152 -86c26 55 67 78 130 78c37 0 67 -16 66 -23l-73 -342
c-13 -59 -4 -82 31 -93c1 -1 -14 -54 -101 -54c-79 0 -116 41 -119 102zM391 541c-77 0 -126 44 -126 109c0 76 59 143 142 143c77 0 125 -44 125 -109c0 -76 -58 -143 -141 -143zM394 619c30 0 52 28 52 55c0 24 -17 42 -42 42c-31 0 -52 -28 -52 -55c0 -24 17 -42 42 -42z
" />
    <glyph glyph-name="atilde" unicode="&#xe3;" horiz-adv-x="640" 
d="M406 301c-14 36 -40 61 -84 61c-72 0 -117 -70 -117 -143c0 -49 31 -82 76 -82c54 0 99 40 112 103zM374 90c-34 -60 -96 -102 -173 -102c-107 0 -180 77 -180 198c0 163 108 322 267 322c63 0 123 -29 152 -86c26 55 67 78 130 78c37 0 67 -16 66 -23l-73 -342
c-13 -59 -4 -82 31 -93c1 -1 -14 -54 -101 -54c-79 0 -116 41 -119 102zM460 540c-49 0 -91 20 -127 62c-16 -34 -41 -60 -72 -60c-35 0 -55 25 -55 54c0 73 59 121 114 121c49 0 91 -20 127 -62c16 33 41 59 72 59c35 0 55 -25 55 -53c0 -73 -59 -121 -114 -121z" />
    <glyph glyph-name="ccedilla" unicode="&#xe7;" horiz-adv-x="512" 
d="M268 -13c-151 0 -251 83 -251 227c0 159 125 294 286 294c86 0 144 -25 180 -61c24 -24 35 -52 35 -77c0 -93 -116 -96 -118 -88c-8 43 -37 76 -93 76c-70 0 -117 -62 -117 -128c0 -53 34 -93 95 -93c40 0 73 19 95 56c3 5 85 -11 85 -76c0 -25 -12 -50 -35 -73
c-34 -33 -90 -57 -162 -57zM161 -234c-22 -15 -91 13 -70 48l89 147c2 3 126 5 126 -61c0 -33 -20 -51 -62 -79z" />
    <glyph glyph-name="eacute" unicode="&#xe9;" horiz-adv-x="544" 
d="M194 298c16 -1 31 -1 44 -1c111 0 145 21 145 50c0 21 -21 40 -62 40c-56 0 -102 -38 -127 -89zM174 191c6 -47 41 -73 102 -73c58 0 105 30 133 66c1 1 76 -9 76 -68c0 -34 -10 -51 -31 -72c-32 -32 -93 -57 -181 -57c-176 0 -255 93 -255 218c0 181 139 303 312 303
c136 0 208 -62 208 -155c0 -103 -65 -164 -284 -164c-25 0 -51 0 -80 2zM265 567c-9 17 45 123 113 160c18 10 39 15 59 15c49 0 81 -37 81 -81c0 -32 -23 -65 -59 -85c-87 -47 -185 -26 -194 -9z" />
    <glyph glyph-name="ecircumflex" unicode="&#xea;" horiz-adv-x="544" 
d="M194 298c16 -1 31 -1 44 -1c111 0 145 21 145 50c0 21 -21 40 -62 40c-56 0 -102 -38 -127 -89zM174 191c6 -47 41 -73 102 -73c58 0 105 30 133 66c1 1 76 -9 76 -68c0 -34 -10 -51 -31 -72c-32 -32 -93 -57 -181 -57c-176 0 -255 93 -255 218c0 181 139 303 312 303
c136 0 208 -62 208 -155c0 -103 -65 -164 -284 -164c-25 0 -51 0 -80 2zM244 541c-36 0 -58 27 -58 57c0 35 25 67 65 96s89 51 132 60c24 -8 60 -31 88 -60c27 -28 46 -58 46 -86c0 -38 -26 -67 -66 -67c-32 0 -60 21 -78 58c-4 9 -9 20 -13 32c-8 -12 -15 -22 -24 -32
c-26 -37 -56 -58 -92 -58z" />
    <glyph glyph-name="edieresis" unicode="&#xeb;" horiz-adv-x="544" 
d="M194 298c16 -1 31 -1 44 -1c111 0 145 21 145 50c0 21 -21 40 -62 40c-56 0 -102 -38 -127 -89zM174 191c6 -47 41 -73 102 -73c58 0 105 30 133 66c1 1 76 -9 76 -68c0 -34 -10 -51 -31 -72c-32 -32 -93 -57 -181 -57c-176 0 -255 93 -255 218c0 181 139 303 312 303
c136 0 208 -62 208 -155c0 -103 -65 -164 -284 -164c-25 0 -51 0 -80 2zM466 540c-57 0 -86 32 -86 75c0 61 44 101 96 101c57 0 85 -32 85 -75c0 -60 -43 -101 -95 -101zM240 540c-57 0 -86 32 -86 75c0 61 44 101 96 101c57 0 86 -32 86 -75c0 -60 -44 -101 -96 -101z" />
    <glyph glyph-name="egrave" unicode="&#xe8;" horiz-adv-x="544" 
d="M194 298c16 -1 31 -1 44 -1c111 0 145 21 145 50c0 21 -21 40 -62 40c-56 0 -102 -38 -127 -89zM174 191c6 -47 41 -73 102 -73c58 0 105 30 133 66c1 1 76 -9 76 -68c0 -34 -10 -51 -31 -72c-32 -32 -93 -57 -181 -57c-176 0 -255 93 -255 218c0 181 139 303 312 303
c136 0 208 -62 208 -155c0 -103 -65 -164 -284 -164c-25 0 -51 0 -80 2zM438 567c-10 -17 -104 -37 -188 12c-35 20 -56 53 -56 85c0 45 33 81 81 81c20 0 42 -6 59 -16c66 -40 114 -145 104 -162z" />
    <glyph glyph-name="iacute" unicode="&#xed;" horiz-adv-x="286" 
d="M143 -12c-113 0 -136 68 -118 154l57 266c15 69 39 92 88 92h20c52 0 99 -21 84 -92l-59 -273c-13 -59 -3 -82 33 -93c1 -1 -14 -54 -105 -54zM135 567c-9 17 45 123 113 160c18 10 39 15 59 15c49 0 81 -37 81 -81c0 -32 -23 -65 -59 -85c-87 -47 -185 -26 -194 -9z" />
    <glyph glyph-name="icircumflex" unicode="&#xee;" horiz-adv-x="286" 
d="M143 -12c-113 0 -136 68 -118 154l57 266c15 69 39 92 88 92h20c52 0 99 -21 84 -92l-59 -273c-13 -59 -3 -82 33 -93c1 -1 -14 -54 -105 -54zM110 541c-36 0 -58 27 -58 57c0 35 25 67 65 96s89 51 132 60c24 -8 60 -31 88 -60c27 -28 46 -58 46 -86
c0 -38 -26 -67 -66 -67c-32 0 -60 21 -78 58c-4 9 -9 20 -13 32c-8 -12 -15 -22 -24 -32c-26 -37 -56 -58 -92 -58z" />
    <glyph glyph-name="idieresis" unicode="&#xef;" horiz-adv-x="286" 
d="M143 -12c-113 0 -136 68 -118 154l57 266c15 69 39 92 88 92h20c52 0 99 -21 84 -92l-59 -273c-13 -59 -3 -82 33 -93c1 -1 -14 -54 -105 -54zM332 540c-57 0 -86 32 -86 75c0 61 44 101 96 101c57 0 85 -32 85 -75c0 -60 -43 -101 -95 -101zM106 540
c-57 0 -86 32 -86 75c0 61 44 101 96 101c57 0 86 -32 86 -75c0 -60 -44 -101 -96 -101z" />
    <glyph glyph-name="igrave" unicode="&#xec;" horiz-adv-x="286" 
d="M143 -12c-113 0 -136 68 -118 154l57 266c15 69 39 92 88 92h20c52 0 99 -21 84 -92l-59 -273c-13 -59 -3 -82 33 -93c1 -1 -14 -54 -105 -54zM288 567c-10 -17 -104 -37 -188 12c-35 20 -56 53 -56 85c0 45 33 81 81 81c20 0 42 -6 59 -16c66 -40 114 -145 104 -162z
" />
    <glyph glyph-name="ntilde" unicode="&#xf1;" horiz-adv-x="611" 
d="M252 406c43 63 101 102 180 102c96 0 151 -63 151 -155c0 -35 -10 -79 -28 -143c-13 -47 -23 -86 -23 -106c0 -29 13 -42 39 -48c2 0 -16 -68 -114 -68c-84 0 -118 39 -118 98c0 29 7 58 23 116c12 43 19 75 19 91c0 37 -20 60 -58 60c-33 0 -54 -14 -75 -43l-48 -222
c-15 -70 -39 -93 -88 -93h-20c-52 0 -99 22 -84 93l85 400c1 4 25 12 56 12c49 0 97 -26 103 -94zM448 540c-49 0 -91 20 -127 62c-16 -34 -41 -60 -72 -60c-35 0 -55 25 -55 54c0 73 59 121 114 121c49 0 91 -20 127 -62c16 33 41 59 72 59c35 0 55 -25 55 -53
c0 -73 -59 -121 -114 -121z" />
    <glyph glyph-name="oacute" unicode="&#xf3;" horiz-adv-x="566" 
d="M264 -13c-163 0 -243 103 -243 227c0 150 99 294 281 294c163 0 243 -102 243 -227c0 -149 -99 -294 -281 -294zM268 128c71 0 117 72 117 146c0 53 -36 93 -87 93c-71 0 -117 -72 -117 -145c0 -54 36 -94 87 -94zM258 567c-9 17 45 123 113 160c18 10 39 15 59 15
c49 0 81 -37 81 -81c0 -32 -23 -65 -59 -85c-87 -47 -185 -26 -194 -9z" />
    <glyph glyph-name="ocircumflex" unicode="&#xf4;" horiz-adv-x="566" 
d="M264 -13c-163 0 -243 103 -243 227c0 150 99 294 281 294c163 0 243 -102 243 -227c0 -149 -99 -294 -281 -294zM268 128c71 0 117 72 117 146c0 53 -36 93 -87 93c-71 0 -117 -72 -117 -145c0 -54 36 -94 87 -94zM237 541c-36 0 -58 27 -58 57c0 35 25 67 65 96
s89 51 132 60c24 -8 60 -31 88 -60c27 -28 46 -58 46 -86c0 -38 -26 -67 -66 -67c-32 0 -60 21 -78 58c-4 9 -9 20 -13 32c-8 -12 -15 -22 -24 -32c-26 -37 -56 -58 -92 -58z" />
    <glyph glyph-name="odieresis" unicode="&#xf6;" horiz-adv-x="566" 
d="M264 -13c-163 0 -243 103 -243 227c0 150 99 294 281 294c163 0 243 -102 243 -227c0 -149 -99 -294 -281 -294zM268 128c71 0 117 72 117 146c0 53 -36 93 -87 93c-71 0 -117 -72 -117 -145c0 -54 36 -94 87 -94zM459 540c-57 0 -86 32 -86 75c0 61 44 101 96 101
c57 0 85 -32 85 -75c0 -60 -43 -101 -95 -101zM233 540c-57 0 -86 32 -86 75c0 61 44 101 96 101c57 0 86 -32 86 -75c0 -60 -44 -101 -96 -101z" />
    <glyph glyph-name="ograve" unicode="&#xf2;" horiz-adv-x="566" 
d="M264 -13c-163 0 -243 103 -243 227c0 150 99 294 281 294c163 0 243 -102 243 -227c0 -149 -99 -294 -281 -294zM268 128c71 0 117 72 117 146c0 53 -36 93 -87 93c-71 0 -117 -72 -117 -145c0 -54 36 -94 87 -94zM410 567c-10 -17 -104 -37 -188 12
c-35 20 -56 53 -56 85c0 45 33 81 81 81c20 0 42 -6 59 -16c66 -40 114 -145 104 -162z" />
    <glyph glyph-name="otilde" unicode="&#xf5;" horiz-adv-x="566" 
d="M264 -13c-163 0 -243 103 -243 227c0 150 99 294 281 294c163 0 243 -102 243 -227c0 -149 -99 -294 -281 -294zM268 128c71 0 117 72 117 146c0 53 -36 93 -87 93c-71 0 -117 -72 -117 -145c0 -54 36 -94 87 -94zM420 540c-49 0 -91 20 -127 62c-16 -34 -41 -60 -72 -60
c-35 0 -55 25 -55 54c0 73 59 121 114 121c49 0 91 -20 127 -62c16 33 41 59 72 59c35 0 55 -25 55 -53c0 -73 -59 -121 -114 -121z" />
    <glyph glyph-name="scaron" unicode="&#x161;" horiz-adv-x="481" 
d="M228 -10c-102 0 -173 27 -210 64c-18 18 -31 40 -31 64c0 52 52 83 56 78c38 -41 103 -78 160 -78c31 0 46 11 46 28c0 14 -18 22 -55 37c-68 28 -140 58 -140 149c0 102 73 174 212 174c85 0 155 -26 195 -66c15 -15 25 -34 25 -58c0 -59 -59 -88 -63 -84
c-34 42 -88 79 -144 79c-32 0 -48 -12 -48 -28c0 -15 18 -23 67 -43c79 -31 149 -65 149 -151c0 -99 -75 -165 -219 -165zM307 529c-24 9 -61 32 -88 60c-28 29 -46 59 -46 87c0 38 26 67 66 67c32 0 61 -21 78 -58c5 -10 9 -21 13 -32c8 11 16 21 24 32c27 36 56 58 92 58
s58 -27 58 -58c0 -35 -25 -67 -65 -96c-40 -28 -89 -50 -132 -60z" />
    <glyph glyph-name="uacute" unicode="&#xfa;" horiz-adv-x="615" 
d="M348 87c-42 -61 -99 -100 -177 -100c-118 0 -168 88 -139 227l41 194c15 70 39 92 89 92h20c51 0 99 -21 83 -92l-39 -174c-12 -54 6 -91 54 -91c33 0 53 14 75 43l47 222c15 70 40 92 89 92h20c52 0 98 -21 83 -92l-58 -273c-13 -59 -3 -82 31 -93
c2 -1 -14 -54 -100 -54c-79 0 -115 39 -119 99zM277 567c-9 17 45 123 113 160c18 10 39 15 59 15c49 0 81 -37 81 -81c0 -32 -23 -65 -59 -85c-87 -47 -185 -26 -194 -9z" />
    <glyph glyph-name="ucircumflex" unicode="&#xfb;" horiz-adv-x="615" 
d="M348 87c-42 -61 -99 -100 -177 -100c-118 0 -168 88 -139 227l41 194c15 70 39 92 89 92h20c51 0 99 -21 83 -92l-39 -174c-12 -54 6 -91 54 -91c33 0 53 14 75 43l47 222c15 70 40 92 89 92h20c52 0 98 -21 83 -92l-58 -273c-13 -59 -3 -82 31 -93
c2 -1 -14 -54 -100 -54c-79 0 -115 39 -119 99zM257 541c-36 0 -58 27 -58 57c0 35 25 67 65 96s89 51 132 60c24 -8 60 -31 88 -60c27 -28 46 -58 46 -86c0 -38 -26 -67 -66 -67c-32 0 -60 21 -78 58c-4 9 -9 20 -13 32c-8 -12 -15 -22 -24 -32c-26 -37 -56 -58 -92 -58z
" />
    <glyph glyph-name="udieresis" unicode="&#xfc;" horiz-adv-x="615" 
d="M348 87c-42 -61 -99 -100 -177 -100c-118 0 -168 88 -139 227l41 194c15 70 39 92 89 92h20c51 0 99 -21 83 -92l-39 -174c-12 -54 6 -91 54 -91c33 0 53 14 75 43l47 222c15 70 40 92 89 92h20c52 0 98 -21 83 -92l-58 -273c-13 -59 -3 -82 31 -93
c2 -1 -14 -54 -100 -54c-79 0 -115 39 -119 99zM479 540c-57 0 -86 32 -86 75c0 61 44 101 96 101c57 0 85 -32 85 -75c0 -60 -43 -101 -95 -101zM253 540c-57 0 -86 32 -86 75c0 61 44 101 96 101c57 0 86 -32 86 -75c0 -60 -44 -101 -96 -101z" />
    <glyph glyph-name="ugrave" unicode="&#xf9;" horiz-adv-x="615" 
d="M348 87c-42 -61 -99 -100 -177 -100c-118 0 -168 88 -139 227l41 194c15 70 39 92 89 92h20c51 0 99 -21 83 -92l-39 -174c-12 -54 6 -91 54 -91c33 0 53 14 75 43l47 222c15 70 40 92 89 92h20c52 0 98 -21 83 -92l-58 -273c-13 -59 -3 -82 31 -93
c2 -1 -14 -54 -100 -54c-79 0 -115 39 -119 99zM436 567c-10 -17 -104 -37 -188 12c-35 20 -56 53 -56 85c0 45 33 81 81 81c20 0 42 -6 59 -16c66 -40 114 -145 104 -162z" />
    <glyph glyph-name="yacute" unicode="&#xfd;" horiz-adv-x="572" 
d="M96 -201c-49 0 -85 12 -107 34c-17 17 -25 38 -25 64c0 35 27 67 29 65c11 -9 35 -17 54 -17c36 0 64 17 108 79l10 14c-23 7 -38 26 -42 58l-30 226c-10 72 -35 94 -70 99c-4 1 15 85 116 85c74 0 118 -51 127 -171l9 -127l170 297c2 3 131 -8 131 -93
c0 -29 -10 -50 -36 -90l-234 -367c-60 -94 -116 -156 -210 -156zM259 564c-9 17 45 123 113 160c18 10 39 15 59 15c49 0 81 -37 81 -81c0 -32 -23 -65 -59 -85c-87 -47 -185 -26 -194 -9z" />
    <glyph glyph-name="ydieresis" unicode="&#xff;" horiz-adv-x="572" 
d="M96 -201c-49 0 -85 12 -107 34c-17 17 -25 38 -25 64c0 35 27 67 29 65c11 -9 35 -17 54 -17c36 0 64 17 108 79l10 14c-23 7 -38 26 -42 58l-30 226c-10 72 -35 94 -70 99c-4 1 15 85 116 85c74 0 118 -51 127 -171l9 -127l170 297c2 3 131 -8 131 -93
c0 -29 -10 -50 -36 -90l-234 -367c-60 -94 -116 -156 -210 -156zM456 540c-57 0 -86 32 -86 75c0 61 44 101 96 101c57 0 85 -32 85 -75c0 -60 -43 -101 -95 -101zM230 540c-57 0 -86 32 -86 75c0 61 44 101 96 101c57 0 86 -32 86 -75c0 -60 -44 -101 -96 -101z" />
    <glyph glyph-name="zcaron" unicode="&#x17e;" horiz-adv-x="516" 
d="M40 0c-9 0 -46 41 -46 85c0 37 16 57 61 93l214 174h-112c-61 0 -91 21 -91 61c0 39 27 83 31 83h373c9 0 45 -42 45 -85c0 -37 -16 -57 -60 -93l-214 -174h130c61 0 91 -21 91 -61s-28 -83 -31 -83h-391zM299 529c-24 9 -61 32 -88 60c-28 29 -46 59 -46 87
c0 38 26 67 66 67c32 0 61 -21 78 -58c5 -10 9 -21 13 -32c8 11 16 21 24 32c27 36 56 58 92 58s58 -27 58 -58c0 -35 -25 -67 -65 -96c-40 -28 -89 -50 -132 -60z" />
    <glyph glyph-name="Euro" unicode="&#x20ac;" horiz-adv-x="629" 
d="M408 307c-14 32 -43 53 -87 53c-72 0 -113 -54 -113 -111c0 -46 33 -78 81 -78c55 0 96 34 107 83zM441 425c26 54 67 75 129 75c37 0 67 -16 66 -23l-90 -420c-37 -175 -120 -257 -325 -257c-107 0 -160 31 -192 63c-22 21 -32 48 -32 76c0 65 77 100 82 94
c31 -50 73 -79 145 -79c79 0 117 36 131 104l8 38c-38 -46 -86 -68 -151 -68c-109 0 -185 80 -185 201c0 138 94 279 258 279c62 0 124 -28 156 -83zM391 540c-103 0 -175 60 -175 128c0 32 24 63 62 63c37 0 85 -31 113 -92c40 60 83 92 125 92s67 -25 67 -56
c0 -65 -88 -135 -192 -135z" />
    <glyph glyph-name="nbspace" unicode="&#xa0;" horiz-adv-x="170" 
 />
    <glyph glyph-name="infinity" unicode="&#x221e;" horiz-adv-x="513" 
d="M72 0c-54 0 -83 25 -83 62c0 19 8 65 31 88c15 15 32 22 78 22h44l64 303h-34c-54 0 -84 25 -84 61c0 19 9 65 32 88c15 15 32 23 78 23h279c54 0 83 -25 83 -62c0 -19 -8 -65 -31 -88c-15 -15 -32 -22 -78 -22h-44l-64 -303h34c54 0 83 -25 83 -61c0 -19 -8 -65 -31 -88
c-15 -15 -32 -23 -78 -23h-279z" />
    <glyph glyph-name="lessequal" unicode="&#x2264;" horiz-adv-x="286" 
d="M225 552c-63 0 -100 33 -100 79c0 62 45 102 106 102c63 0 100 -33 100 -79c0 -62 -45 -102 -106 -102zM23 -194c-37 0 -67 16 -65 23l124 579c15 69 39 92 88 92h20c52 0 99 -21 84 -92l-97 -451c-23 -109 -67 -151 -154 -151z" />
    <glyph glyph-name="partialdiff" unicode="&#x2202;" horiz-adv-x="546" 
d="M164 -19c-35 -10 -55 -25 -55 -44c0 -29 43 -48 115 -48c48 0 69 14 69 32c0 17 -23 27 -57 38c-20 7 -45 13 -72 22zM270 241c55 0 78 47 78 84s-23 65 -64 65c-54 0 -77 -47 -77 -84s23 -65 63 -65zM403 482c16 70 59 104 101 104c74 0 87 -83 83 -89
c0 0 -106 -76 -107 -76c22 -28 34 -62 34 -99c0 -107 -83 -188 -225 -188c-17 0 -34 1 -50 3c-1 -3 -1 -6 -1 -9c0 -16 37 -29 95 -48c76 -25 170 -60 170 -143c0 -90 -102 -149 -282 -149c-200 0 -287 56 -287 131c0 59 52 111 163 127c-7 9 -11 21 -11 33
c0 35 22 63 63 79c-67 29 -108 80 -108 150c0 109 101 200 238 200c47 0 89 -9 124 -26z" />
    <glyph glyph-name="summation" unicode="&#x2211;" horiz-adv-x="634" 
d="M380 -9c-45 0 -91 23 -76 94l13 60h-246c-9 0 -50 47 -50 107c0 36 15 66 60 123l229 285c2 3 113 7 113 -80c0 -24 -7 -41 -25 -62l-195 -232h147l15 75c14 69 40 92 82 92h13c45 0 89 -22 75 -93l-14 -70h29c45 0 70 -21 70 -52c0 -16 -8 -55 -27 -74
c-12 -13 -27 -19 -66 -19h-36l-13 -61c-15 -70 -39 -93 -82 -93h-16z" />
    <glyph glyph-name="product" unicode="&#x220f;" horiz-adv-x="705" 
d="M223 -14c-145 0 -212 107 -172 297l59 278c13 62 42 91 99 91h27c56 0 86 -32 73 -95l-58 -273c-18 -86 5 -134 71 -134c45 0 79 24 103 64l74 345c13 62 42 93 99 93h28c55 0 87 -33 74 -94l-81 -379c-17 -79 -3 -109 40 -123c2 -1 -17 -68 -118 -68
c-79 0 -120 41 -126 108c-40 -63 -105 -110 -192 -110z" />
    <glyph glyph-name="pi" unicode="&#x3c0;" horiz-adv-x="746" 
d="M389 -14c-200 0 -337 140 -337 338c0 195 138 337 337 337c200 0 337 -140 337 -337c0 -196 -137 -338 -337 -338zM390 53c158 0 265 113 265 271c0 156 -109 270 -266 270c-160 0 -266 -113 -266 -270s108 -271 267 -271zM295 134c-31 0 -49 18 -49 53v239
c0 42 21 65 59 65h95c104 0 159 -44 159 -130c0 -85 -53 -129 -154 -129h-42v-45c0 -34 -18 -53 -51 -53h-17zM361 317h39c30 0 47 16 47 44c0 27 -17 44 -50 44h-36v-88z" />
    <glyph glyph-name="integral" unicode="&#x222b;" horiz-adv-x="633" 
d="M253 -5c-55 0 -86 34 -73 95l30 143c-115 37 -164 134 -135 265l14 63c14 62 41 91 98 91h30c55 0 86 -32 73 -94l-10 -47c-18 -84 4 -131 78 -131c49 0 85 31 102 113l14 67c13 62 42 92 98 92h28c55 0 86 -33 73 -93l-19 -88c-33 -153 -113 -232 -244 -250l-28 -135
c-13 -62 -42 -91 -99 -91h-30z" />
    <glyph glyph-name="Omega" unicode="&#x2126;" horiz-adv-x="603" 
d="M204 -200c-106 0 -159 31 -190 62c-21 21 -31 46 -31 74c0 64 77 100 82 94c30 -48 73 -76 142 -76c72 0 110 36 124 104l8 38c-38 -43 -88 -70 -160 -70c-110 0 -169 89 -139 228l33 154c15 69 39 92 89 92h20c51 0 99 -21 83 -92l-31 -137c-13 -59 6 -93 54 -93
c33 0 53 16 75 45l39 185c15 70 40 92 89 92h20c52 0 98 -21 83 -92l-74 -351c-37 -175 -120 -257 -316 -257z" />
    <glyph glyph-name="radical" unicode="&#x221a;" horiz-adv-x="728" 
d="M383 -10c-120 91 -343 160 -343 328v6c0 100 68 171 165 171h8c105 0 151 -77 170 -151c20 74 65 151 171 151h8c97 0 164 -71 164 -171v-6c0 -168 -223 -237 -343 -328z" />
    <glyph glyph-name="Delta" unicode="&#x2206;" horiz-adv-x="555" 
d="M189 296h194c2 5 3 12 3 17c0 46 -28 74 -80 74c-53 0 -94 -31 -117 -91zM175 199c8 -55 50 -82 116 -82c53 0 93 27 118 65c2 2 76 -8 76 -75c0 -24 -10 -45 -30 -65c-30 -30 -90 -55 -168 -55c-171 0 -268 93 -268 223c0 167 131 298 288 298c178 0 230 -112 230 -206
c0 -42 -10 -68 -23 -81c-16 -16 -33 -22 -65 -22h-274z" />
    <glyph glyph-name="apple" unicode="&#xf8ff;" horiz-adv-x="758" 
d="M330 -69l-41 98l-97 -41c-47 -20 -89 24 -70 70l40 98l-98 41c-46 19 -46 79 0 98l98 41l-40 98c-19 46 23 90 70 70l97 -41l41 98c19 46 79 46 98 0l41 -98l97 41c46 19 88 -25 70 -70l-40 -98l98 -41c46 -19 46 -79 0 -98l-98 -41l40 -98c19 -46 -23 -90 -70 -70
l-97 41l-41 -98c-19 -46 -79 -46 -98 0zM379 74l21 49c12 21 28 29 51 20l49 -18l-19 49c-8 21 0 39 21 51l48 21l-48 21c-21 12 -30 29 -21 52l19 48l-49 -18c-24 -9 -39 -1 -51 20l-21 49l-21 -49c-12 -21 -27 -29 -51 -20l-49 18l19 -48c9 -22 0 -40 -21 -52l-48 -21
l48 -21c21 -12 29 -30 21 -51l-19 -49l49 18c24 9 39 1 51 -20z" />
    <glyph glyph-name="Gbreve" unicode="&#x11e;" horiz-adv-x="724" 
d="M490 60c-39 -46 -100 -73 -177 -73c-169 0 -273 108 -273 282c0 210 157 392 383 392c106 0 185 -31 229 -75c25 -25 37 -54 37 -82c0 -95 -119 -95 -124 -88c-26 41 -73 74 -136 74c-103 0 -185 -89 -186 -206c-1 -87 51 -147 135 -147c33 0 59 9 80 25
c19 15 32 27 44 62h-73c-46 0 -70 21 -70 52c0 16 7 56 26 75c13 12 28 20 66 20h185c54 0 74 -29 61 -91l-57 -266c-1 -5 -26 -19 -61 -19c-46 0 -80 19 -89 65zM422 740c-103 0 -175 60 -175 128c0 32 24 63 62 63c37 0 85 -31 113 -92c40 60 83 92 125 92s67 -25 67 -56
c0 -65 -88 -135 -192 -135z" />
    <glyph glyph-name="gbreve" unicode="&#x11f;" horiz-adv-x="629" 
d="M408 307c-14 32 -43 53 -87 53c-72 0 -113 -54 -113 -111c0 -46 33 -78 81 -78c55 0 96 34 107 83zM441 425c26 54 67 75 129 75c37 0 67 -16 66 -23l-90 -420c-37 -175 -120 -257 -325 -257c-107 0 -160 31 -192 63c-22 21 -32 48 -32 76c0 65 77 100 82 94
c31 -50 73 -79 145 -79c79 0 117 36 131 104l8 38c-38 -46 -86 -68 -151 -68c-109 0 -185 80 -185 201c0 138 94 279 258 279c62 0 124 -28 156 -83zM391 540c-103 0 -175 60 -175 128c0 32 24 63 62 63c37 0 85 -31 113 -92c40 60 83 92 125 92s67 -25 67 -56
c0 -65 -88 -135 -192 -135z" />
    <glyph glyph-name="Idotaccent" unicode="&#x130;" horiz-adv-x="304" 
d="M91 -5c-55 0 -86 34 -73 95l100 471c13 62 42 91 99 91h30c54 0 85 -34 72 -95l-100 -471c-13 -62 -42 -91 -98 -91h-30zM275 741c-61 0 -90 33 -90 78c0 63 45 105 100 105c61 0 90 -33 90 -77c0 -64 -45 -106 -100 -106z" />
    <glyph glyph-name="Scedilla" unicode="&#x15e;" horiz-adv-x="583" 
d="M263 -14c-116 0 -194 29 -237 72c-24 24 -37 53 -37 82c0 61 68 102 73 96c42 -52 124 -97 199 -97c51 0 75 19 75 53c0 29 -42 39 -97 60c-76 28 -162 73 -162 184c0 116 82 225 277 225c108 0 183 -28 224 -69c21 -22 32 -47 32 -74c0 -70 -75 -111 -80 -105
c-42 56 -111 95 -178 95c-51 0 -77 -22 -77 -51c0 -31 47 -42 108 -65c85 -31 174 -75 174 -179c0 -128 -90 -227 -294 -227zM218 -234c-22 -15 -91 13 -70 48l89 147c2 3 126 5 126 -61c0 -33 -20 -51 -62 -79z" />
    <glyph glyph-name="scedilla" unicode="&#x15f;" horiz-adv-x="481" 
d="M228 -10c-102 0 -173 27 -210 64c-18 18 -31 40 -31 64c0 52 52 83 56 78c38 -41 103 -78 160 -78c31 0 46 11 46 28c0 14 -18 22 -55 37c-68 28 -140 58 -140 149c0 102 73 174 212 174c85 0 155 -26 195 -66c15 -15 25 -34 25 -58c0 -59 -59 -88 -63 -84
c-34 42 -88 79 -144 79c-32 0 -48 -12 -48 -28c0 -15 18 -23 67 -43c79 -31 149 -65 149 -151c0 -99 -75 -165 -219 -165zM173 -234c-22 -15 -91 13 -70 48l89 147c2 3 126 5 126 -61c0 -33 -20 -51 -62 -79z" />
    </font>
</defs>
</svg>
