<?xml version="1.0" standalone="no"?>
<!DOCTYPE svg PUBLIC "-//W3C//DTD SVG 1.1//EN" "http://www.w3.org/Graphics/SVG/1.1/DTD/svg11.dtd" >
<svg>
<metadata>
Created by FontForge 20090914 at Thu Sep 19 18:01:52 2013
 By www-data
Copyright \(c\) 2002 Agfa Monotype Corporation. All rights reserved. ITC Conduit is designed by Mark van Bronkhorst, MvB Design. ITC Conduit is a trademark of International Typeface Corporation.
</metadata>
<defs>
<font id="ConduitITCLight" horiz-adv-x="510" >
  <font-face 
    font-family="ConduitITCLight"
    font-weight="300"
    font-stretch="normal"
    units-per-em="1000"
    panose-1="2 0 5 6 4 0 0 2 0 4"
    ascent="757"
    descent="-243"
    x-height="440.999"
    cap-height="629"
    bbox="-76 -235.002 804 917"
    underline-thickness="47"
    underline-position="-66"
    unicode-range="U+0020-U+FB02"
  />
<missing-glyph horiz-adv-x="174" 
 />
    <glyph glyph-name=".notdef" horiz-adv-x="174" 
 />
    <glyph glyph-name="space" unicode=" " horiz-adv-x="174" 
 />
    <glyph glyph-name="exclam" unicode="!" horiz-adv-x="291" 
d="M159 196c-1.33301 -6 -4.66699 -9 -10 -9h-5c-6 0 -9.33301 3 -10 9l-22 169v254c0 6.66699 3.33301 10 10 10h48c6.66699 0 10 -3.33301 10 -10v-253zM195.999 34c0 -14 -4.83301 -25.667 -14.5 -35s-21.5 -14 -35.5 -14c-13.333 0 -24.833 4.83301 -34.5 14.5
s-14.5 21.167 -14.5 34.5s4.83301 24.833 14.5 34.5s21.167 14.5 34.5 14.5c14 0 25.833 -4.66699 35.5 -14s14.5 -21 14.5 -35z" />
    <glyph glyph-name="quotedbl" unicode="&#x22;" horiz-adv-x="282" 
d="M222 472c-1.33301 -6 -4.66699 -9 -10 -9h-14c-6 0 -9.33301 3 -10 9l-21 151c0 7.33301 3.33301 11 10 11h54c6.66699 0 10 -3.66699 10 -11zM96.999 472c-1.33301 -6 -4.66699 -9 -10 -9h-15c-6 0 -9.33301 3 -10 9l-21 151c0 7.33301 3.33301 11 10 11h55
c6.66699 0 10 -3.66699 10 -11z" />
    <glyph glyph-name="numbersign" unicode="#" horiz-adv-x="563" 
d="M508 395c-2 -6.66699 -6.33008 -10 -12.9971 -10h-59c-6 0 -9.33301 -2 -10 -6l-35 -126c0 -6 3.66699 -9 11 -9h62c5.33301 0 8 -2 8 -6l-11 -41c-2 -6.66699 -6.33301 -10 -13 -10h-69c-6 0 -9.33301 -2 -10 -6l-49 -174c-0.666992 -4.66699 -4 -7 -10 -7h-33
c-7.33301 0 -11 3 -11 9l48 170c0 5.33301 -3.66699 8 -11 8h-122c-6 0 -9.33301 -2 -10 -6l-50 -174c-0.666992 -4.66699 -4 -7 -10 -7h-33c-7.33301 0 -11 3 -11 9l47 170c0 5.33301 -3.66699 8 -11 8h-51c-5.33301 0 -8 2 -8 6l11 41c2 6.66699 6.33301 10 13 10h57
c5.33301 0 8.66602 2.66699 9.99902 8l36 125c0 5.33301 -3.66699 8 -11 8h-60c-5.33301 0 -8 2 -8 6l11 41c2 6.66699 6.33301 10 13 10h66c5.33301 0 8.66602 2.66699 9.99902 8l50 173c0.666992 4.66699 4 7 10 7h33c7.33301 0 11 -3 11 -9l-48 -170
c0 -6 3.66699 -9 11 -9h122c5.33301 0 8.66602 2.66699 9.99902 8l50 173c0.666992 4.66699 4 7 10 7h33c7.33301 0 11 -3 11 -9l-48 -170c0 -6 3.66699 -9 11 -9h53c5.33301 0 8 -2 8 -6zM370.003 377c0 5.33301 -3.66602 8 -10.999 8h-122c-6 0 -9.33301 -2 -10 -6
l-35 -126c0 -6 3.66699 -9 11 -9h122c5.33301 0 8.66602 2.66699 9.99902 8z" />
    <glyph glyph-name="dollar" unicode="$" 
d="M447 154c0 -44 -13.6641 -80.5 -40.9971 -109.5s-65.333 -46.833 -114 -53.5c-5.33301 -0.666992 -8 -4 -8 -10v-33c0 -6.66699 -3.33301 -10 -10 -10h-27c-6.66699 0 -10 3.33301 -10 10v32c0 6.66699 -3 10 -9 10c-34 0 -61.5 5 -82.5 15s-38.167 23 -51.5 39
c-5.33301 6 -10 12.333 -14 19s-6 11.334 -6 14.001c0 4 2 7 6 9l38 19l4 2c1.33301 0.666992 2.66602 1 3.99902 1c3.33301 0 6 -1.66699 8 -5c12 -18 26.333 -31.833 43 -41.5s33.667 -14.5 51 -14.5c6 0 9 3.33301 9 10v228c0 4 -2 7 -6 9
c-19.333 8.66699 -38 18.167 -56 28.5s-33.833 22.5 -47.5 36.5s-24.667 30.5 -33 49.5s-12.5 41.5 -12.5 67.5c0 42.667 12.5 78.5 37.5 107.5s61.5 47.5 109.5 55.5c5.33301 1.33301 8 4.66602 8 9.99902v33c0 6.66699 3.33301 10 10 10h27c6.66699 0 10 -3.33301 10 -10
v-32c0 -6 2.66699 -9.33301 8 -10c28 -3.33301 51 -10 69 -20s33 -21.667 45 -35c5.33301 -5.33301 10.166 -11.333 14.499 -18s6.5 -11 6.5 -13c0 -4 -2.33301 -7 -7 -9l-38 -19c-3.33301 -2 -6.33301 -3 -9 -3s-5 1.33301 -7 4c-14.667 20 -31.667 34.667 -51 44
c-3.33301 2 -7.33301 3.83301 -12 5.5s-8.33398 2.5 -11.001 2.5c-5.33301 0 -8 -3.66699 -8 -11v-210c0 -4 2 -7 6 -9c20 -9.33301 39.5 -19.166 58.5 -29.499s35.667 -23 50 -38s26 -32.833 35 -53.5s13.5 -45.334 13.5 -74.001zM237.003 566
c0 7.33301 -3.00098 11 -9.00098 11c-3.33301 0 -7.5 -1.33301 -12.5 -4s-9.16699 -4.66699 -12.5 -6c-18 -10 -31.5 -23 -40.5 -39s-13.5 -33.333 -13.5 -52c0 -16.667 4.33301 -31.5 13 -44.5s22 -25.833 40 -38.5c4 -2.66699 8.83301 -5.66699 14.5 -9
s9.83398 -5 12.501 -5c5.33301 0 8 3.66699 8 11v176zM379.002 154c0 20.667 -5.00195 38.167 -15.002 52.5s-24.333 27.833 -43 40.5c-3.33301 2 -8.16602 5.16699 -14.499 9.5s-11.166 6.5 -14.499 6.5c-5.33301 0 -8 -3.66699 -8 -11v-190c0 -7.33301 2.33301 -11 7 -11
c2.66699 0 7 1 13 3s10.667 4 14 6c19.333 9.33301 34.333 22.333 45 39s16 35 16 55z" />
    <glyph glyph-name="percent" unicode="%" horiz-adv-x="490" 
d="M223 445c0 -25.333 -8 -45.833 -24 -61.5s-38 -23.5 -66 -23.5s-50 7.83301 -66 23.5s-24 36.167 -24 61.5v100c0 25.333 8 45.833 24 61.5s38 23.5 66 23.5s50 -7.83301 66 -23.5s24 -36.167 24 -61.5v-100zM399 622l-99 -231l-43 -100l-43.5 -102.5l-41.5 -97.5
l-36 -85c-2 -4 -5 -6 -9 -6h-24c-7.33301 0 -11 2.66699 -11 8l263 616c2 4 5 6 9 6h24c7.33301 0 11 -2.66699 11 -8zM448 85c0 -25.333 -8 -45.833 -24 -61.5s-38 -23.5 -66 -23.5s-50 7.83301 -66 23.5s-24 36.167 -24 61.5v100c0 25.333 8 45.833 24 61.5
s38 23.5 66 23.5s50 -7.83301 66 -23.5s24 -36.167 24 -61.5v-100zM173 545c0 10.667 -4 20 -12 28s-17.333 12 -28 12s-20 -4 -28 -12s-12 -17.333 -12 -28v-100c0 -10.667 4 -20 12 -28s17.333 -12 28 -12s20 4 28 12s12 17.333 12 28v100zM398 185c0 10.667 -4 20 -12 28
s-17.333 12 -28 12s-20 -4 -28 -12s-12 -17.333 -12 -28v-100c0 -10.667 4 -20 12 -28s17.333 -12 28 -12s20 4 28 12s12 17.333 12 28v100z" />
    <glyph glyph-name="ampersand" unicode="&#x26;" horiz-adv-x="625" 
d="M602 1c0 -6.66699 -3.00293 -10.0029 -9.00293 -10.0029h-2c-32 4.66699 -60 13.834 -84 27.501s-47 31.167 -69 52.5c-2 2 -4.33301 3 -7 3s-5 -1.66699 -7 -5c-16 -24.667 -35.833 -44 -59.5 -58s-54.834 -21 -93.501 -21h-31c-53.333 0 -95.666 15.333 -126.999 46
s-47 72.667 -47 126v26c0 10 1.83301 20.667 5.5 32s8.83398 22.5 15.501 33.5s14.834 21.167 24.501 30.5s20.834 17 33.501 23c4.66699 2 7 4.66699 7 8s-1.66699 6.33301 -5 9c-27.333 22 -47.833 43.5 -61.5 64.5s-20.5 46.167 -20.5 75.5c0 54 15.5 96.833 46.5 128.5
s73.833 47.5 128.5 47.5c53.333 0 95.666 -15.667 126.999 -47s47 -73.666 47 -126.999v-21c0 -9.33301 -1.83301 -19.833 -5.5 -31.5s-9.66699 -23.167 -18 -34.5s-19.166 -22.166 -32.499 -32.499s-29.666 -18.833 -48.999 -25.5c-5.33301 -2 -8 -5 -8 -9
c0 -3.33301 1.66699 -6.33301 5 -9l22.5 -17c7 -5.33301 14 -11.333 21 -18l23 -22.5l28.5 -29.5c3.33301 -3.33301 6.33301 -5 9 -5c3.33301 0 6 3 8 9c13.333 44 34.166 76.333 62.499 97s63.166 31 104.499 31h7c6.66699 0 10 -3.33301 10 -10v-47
c0 -6.66699 -3.33301 -10 -10 -10h-15c-15.333 0 -28.666 -2.83301 -39.999 -8.5s-21.333 -13.5 -30 -23.5s-16 -21.333 -22 -34s-11 -26 -15 -40l-5 -18c-2 -5.33301 -0.666992 -10 4 -14c22.667 -22.667 44.167 -40.667 64.5 -54s40.833 -23 61.5 -29
c4.66699 -0.666992 7 -4 7 -10v-49zM346.997 475.997c0 14.667 -2.83105 28.5 -8.49805 41.5s-13.334 24.333 -23.001 34s-21 17.167 -34 22.5s-26.833 8 -41.5 8c-15.333 0 -29.333 -2.66699 -42 -8s-23.834 -12.833 -33.501 -22.5s-17.167 -21 -22.5 -34
s-8 -26.833 -8 -41.5c0 -27.333 8.83301 -50.833 26.5 -70.5s39.167 -38.167 64.5 -55.5c3.33301 -2.66699 7.33301 -4 12 -4c8.66699 0 19.334 2.33301 32.001 7s24.667 11.667 36 21s21.166 20.833 29.499 34.5s12.5 29.5 12.5 47.5v20zM379.999 128.997
c0 2.66699 -1.66699 5.83398 -5 9.50098s-6.33301 7.16699 -9 10.5l-43.5 49c-13.667 14.667 -27.167 27.334 -40.5 38.001c-9.33301 7.33301 -18.666 13.833 -27.999 19.5l-30 18.5l-11.5 7.5c-3.66699 2.33301 -6.83398 3.5 -9.50098 3.5c-2 0 -5.5 -1.5 -10.5 -4.5
s-9.5 -6.16699 -13.5 -9.5c-14 -10.667 -25 -23.334 -33 -38.001s-12 -30.667 -12 -48v-31c0 -14.667 2.66699 -28.5 8 -41.5s12.833 -24.333 22.5 -34s20.834 -17.334 33.501 -23.001s26.667 -8.5 42 -8.5h31c17.333 0 34.666 4.83301 51.999 14.5s32 23.5 44 41.5
c1.33301 2 3.83301 6.16699 7.5 12.5s5.5 10.833 5.5 13.5z" />
    <glyph glyph-name="quotesingle" unicode="'" horiz-adv-x="157" 
d="M97 472c-1.33301 -6 -4.66699 -9 -10 -9h-15c-6 0 -9.33301 3 -10 9l-21 151c0 7.33301 3.33301 11 10 11h55c6.66699 0 10 -3.66699 10 -11z" />
    <glyph glyph-name="parenleft" unicode="(" horiz-adv-x="387" 
d="M291 -176c0 -6.66699 -3.00098 -10.002 -9.00098 -10.002c-5.33301 0 -14.166 1.66699 -26.499 5s-24.166 7.66602 -35.499 12.999c-28.667 14.667 -50.834 35.334 -66.501 62.001s-23.5 58 -23.5 94v572c0 36 7.83301 67.333 23.5 94s38.5 47 68.5 61
c11.333 5.33301 22.833 9.5 34.5 12.5s20.167 4.5 25.5 4.5c6 0 9 -3.33301 9 -10v-39c0 -5.33301 -2.66699 -8.66602 -8 -9.99902c-26.667 -5.33301 -47.5 -17.5 -62.5 -36.5s-22.5 -41.167 -22.5 -66.5v-593c0 -25.333 7.5 -47.5 22.5 -66.5s35.833 -31.5 62.5 -37.5
c5.33301 -1.33301 8 -4.66602 8 -9.99902v-39v0z" />
    <glyph glyph-name="parenright" unicode=")" horiz-adv-x="387" 
d="M258 -12c0 -36 -7.83398 -67.3311 -23.501 -93.998s-37.834 -47.334 -66.501 -62.001c-11.333 -5.33301 -23.166 -9.66602 -35.499 -12.999s-21.166 -5 -26.499 -5c-6 0 -9 3.33301 -9 10v39c0 5.33301 2.66699 8.66602 8 9.99902c26.667 6 47.5 18.5 62.5 37.5
s22.5 41.167 22.5 66.5v593c0 25.333 -7.5 47.5 -22.5 66.5s-35.833 31.167 -62.5 36.5c-5.33301 1.33301 -8 4.66602 -8 9.99902v39c0 6.66699 3 10 9 10c5.33301 0 13.833 -1.5 25.5 -4.5s23.167 -7.16699 34.5 -12.5c30 -14 52.833 -34.333 68.5 -61s23.5 -58 23.5 -94
v-572v0z" />
    <glyph glyph-name="asterisk" unicode="*" horiz-adv-x="384" 
d="M354 466c0 -1.33301 -0.666992 -3.33301 -2 -6l-19 -32c-2 -4 -4.66699 -6 -8 -6c-2.66699 0 -5 1 -7 3l-94 65c-3.33301 2 -6 3 -8 3c-5.33301 0 -8 -3.33301 -8 -10l14 -118c0 -6 -3.33301 -9 -10 -9h-39c-6.66699 0 -10 3 -10 9l14 118c0 6.66699 -2.66699 10 -8 10
c-2.66699 0 -5.33398 -1 -8.00098 -3l-91 -65c-3.33301 -2 -5.66602 -3 -6.99902 -3c-3.33301 0 -6 2 -8 6l-19 33c-1.33301 2.66699 -2 4.66699 -2 6c0 3.33301 2.33301 6 7 8l103 44c5.33301 2 8 5 8 9s-2.66699 7 -8 9l-103 47c-4.66699 2 -7 4.66699 -7 8
c0 1.33301 0.666992 3.33301 2 6l19 32c2 4 4.66699 6 8 6c1.33301 0 3.66602 -1 6.99902 -3l89 -67c2.66699 -2 5.33398 -3 8.00098 -3c5.33301 0 8 3.33301 8 10l-12 116c0 6 3.33301 9 10 9h38c6.66699 0 10 -3 10 -9l-13 -116c0 -6.66699 2.66699 -10 8 -10
c2 0 4.66699 1 8 3l94 67c2 2 4.33301 3 7 3c3.33301 0 6 -2 8 -6l19 -32c1.33301 -2.66699 2 -4.66699 2 -6c0 -3.33301 -2.33301 -6 -7 -8l-107 -47c-4.66699 -2 -7 -5 -7 -9s2.33301 -7 7 -9l107 -45c4.66699 -2 7 -4.66699 7 -8z" />
    <glyph glyph-name="plus" unicode="+" 
d="M466 223c0 -6.66699 -3.33301 -10 -10 -10h-167c-6.66699 0 -10 -3.33301 -10 -10v-167c0 -6.66699 -3.33301 -10 -10 -10h-26c-6.66699 0 -10 3.33301 -10 10v167c0 6.66699 -3.33301 10 -10 10h-168c-6.66699 0 -10 3.33301 -10 10v27c0 6.66699 3.33301 10 10 10h168
c6.66699 0 10 3.33301 10 10v167c0 6.66699 3.33301 10 10 10h26c6.66699 0 10 -3.33301 10 -10v-167c0 -6.66699 3.33301 -10 10 -10h167c6.66699 0 10 -3.33301 10 -10v-27v0z" />
    <glyph glyph-name="comma" unicode="," horiz-adv-x="209" 
d="M154 25c0 -38 -5.83301 -68.167 -17.5 -90.5s-26.834 -40.833 -45.501 -55.5c-5.33301 -4 -10.166 -7.33301 -14.499 -10s-7.5 -4 -9.5 -4c-3.33301 0 -6 1.66699 -8 5l-10 16c-1.33301 2.66699 -2 5 -2 7s1 4 3 6c12 10 21.667 22.667 29 38s11 37 11 65
c0 6.66699 -3.33301 10 -10 10h-14c-6.66699 0 -10 3.33301 -10 10v59c0 6.66699 3.33301 10 10 10h78c6.66699 0 10 -3.33301 10 -10v-56v0z" />
    <glyph glyph-name="hyphen" unicode="-" horiz-adv-x="261" 
d="M212 197c0 -6.66699 -3.33301 -10 -10 -10h-142c-6.66699 0 -10 3.33301 -10 10v48c0 6.66699 3.33301 10 10 10h142c6.66699 0 10 -3.33301 10 -10v-48v0z" />
    <glyph glyph-name="period" unicode="." horiz-adv-x="209" 
d="M154 34c0 -14 -4.83301 -25.667 -14.5 -35s-21.5 -14 -35.5 -14c-13.333 0 -24.666 4.83301 -33.999 14.5s-14 21.167 -14 34.5s4.66699 24.833 14 34.5s20.666 14.5 33.999 14.5c14 0 25.833 -4.66699 35.5 -14s14.5 -21 14.5 -35z" />
    <glyph glyph-name="slash" unicode="/" horiz-adv-x="305" 
d="M310 622c0 -2.66699 -1.66699 -8 -5 -16l-15 -35l-242 -565c-2 -4 -5 -6 -9 -6h-34c-7.33301 0 -11 2.66699 -11 8c0 2.66699 2 8.16699 6 16.5l13 28.5l244 571c2 4 5 6 9 6h34c6.66699 0 10 -2.66699 10 -8z" />
    <glyph glyph-name="zero" unicode="0" 
d="M445 154c0 -24 -4.16699 -46.167 -12.5 -66.5s-20.166 -37.666 -35.499 -51.999s-33.666 -25.5 -54.999 -33.5s-45.333 -12 -72 -12h-31c-26.667 0 -50.667 4 -72 12s-39.5 19.167 -54.5 33.5s-26.667 31.666 -35 51.999s-12.5 42.5 -12.5 66.5v322
c0 24 4.16699 46.167 12.5 66.5s20 37.666 35 51.999s33.167 25.5 54.5 33.5s45.333 12 72 12h31c26.667 0 50.667 -4 72 -12s39.666 -19.167 54.999 -33.5s27.166 -31.666 35.499 -51.999s12.5 -42.5 12.5 -66.5v-322zM377 476c0 14.667 -2.83301 28.5 -8.5 41.5
s-13.334 24.333 -23.001 34s-21 17.167 -34 22.5s-26.833 8 -41.5 8h-31c-15.333 0 -29.333 -2.66699 -42 -8s-23.834 -12.833 -33.501 -22.5s-17.167 -21 -22.5 -34s-8 -26.833 -8 -41.5v-322c0 -14.667 2.66699 -28.5 8 -41.5s12.833 -24.333 22.5 -34
s20.834 -17.334 33.501 -23.001s26.667 -8.5 42 -8.5h31c14.667 0 28.5 2.83301 41.5 8.5s24.333 13.334 34 23.001s17.334 21 23.001 34s8.5 26.833 8.5 41.5v322z" />
    <glyph glyph-name="one" unicode="1" 
d="M433 10c0 -6.66699 -3.33301 -10 -10 -10h-297c-6.66699 -0 -10 3.33301 -10 10v37c0 6.66699 3.33301 10 10 10h105c6.66699 0 10 3.33301 10 10v423c0 7.33301 -2.66699 11 -8 11c-3.33301 0 -6.33301 -1.33301 -9 -4l-66 -66c-2.66699 -2.66699 -5 -4 -7 -4
c-2.66699 0 -5 1.33301 -7 4l-25 28c-2 2 -3 4.33301 -3 7s1 5 3 7l153 153c2 2 4.33301 3 7 3h19c6.66699 0 10 -3.33301 10 -10v-552c0 -6.66699 3.33301 -10 10 -10h105c6.66699 0 10 -3.33301 10 -10v-37v0z" />
    <glyph glyph-name="two" unicode="2" 
d="M439 476c0 -29.333 -4.99609 -54.335 -14.9961 -75.002s-22.667 -39 -38 -55s-32.5 -30 -51.5 -42l-56.5 -35c-17.333 -10 -33.666 -20.333 -48.999 -31s-28.833 -22.334 -40.5 -35.001s-21 -26.667 -28 -42s-10.5 -33 -10.5 -53v-41c0 -6.66699 3.33301 -10 10 -10h260
c6.66699 0 10 -3.33301 10 -10v-37c0 -6.66699 -3.33301 -10 -10 -10h-328c-6.66699 0 -10 3.33301 -10 10v98c0 29.333 4.33301 55 13 77s20 41.333 34 58s30 31.5 48 44.5s36 25.167 54 36.5l52.5 33c17 10.667 32 21.834 45 33.501s23.333 24.5 31 38.5
s11.5 29.667 11.5 47c0 14.667 -2.83301 28.5 -8.5 41.5s-13.334 24.333 -23.001 34s-21 17.167 -34 22.5s-26.833 8 -41.5 8h-40c-17.333 0 -34.333 -4.66699 -51 -14s-30.667 -22.666 -42 -39.999c-2 -3.33301 -4.66699 -5 -8 -5c-2.66699 0 -6 1.33301 -10 4l-36 18
c-4 2 -6 5 -6 9c0 2 1.83301 6.33301 5.5 13s8.16699 13 13.5 19c13.333 16 30.666 29 51.999 39s48.666 15 81.999 15h40c26.667 0 50.667 -4 72 -12s39.666 -19.167 54.999 -33.5s27.166 -31.666 35.499 -51.999s12.5 -42.5 12.5 -66.5z" />
    <glyph glyph-name="three" unicode="3" 
d="M430 162c0 -53.333 -15.833 -95.3398 -47.5 -126.007s-74.167 -46 -127.5 -46h-31c-33.333 0 -60.5 4.83301 -81.5 14.5s-38.167 22.5 -51.5 38.5c-5.33301 6.66699 -10.166 13.334 -14.499 20.001s-6.5 11.334 -6.5 14.001c0 4 2 7 6 9l38 19
c2.66699 2 5.33398 3 8.00098 3c3.33301 0 6 -1.66699 8 -5c12 -18 26.333 -31.833 43 -41.5s33.667 -14.5 51 -14.5h31c14.667 0 28.5 2.83301 41.5 8.5s24.333 13.334 34 23.001s17.334 21 23.001 34s8.5 26.833 8.5 41.5v36c0 14.667 -2.83301 28.334 -8.5 41.001
s-13.334 23.834 -23.001 33.501s-21 17.334 -34 23.001s-26.833 8.5 -41.5 8.5h-70c-6.66699 0 -10 3.33301 -10 10v37c0 6.66699 3.33301 10 10 10h70c14.667 0 28.667 2.83301 42 8.5s24.666 13.334 33.999 23.001s16.833 21 22.5 34s8.5 27.167 8.5 42.5v15
c0 14.667 -2.83301 28.5 -8.5 41.5s-13.334 24.333 -23.001 34s-21 17.167 -34 22.5s-26.833 8 -41.5 8h-31c-17.333 0 -34.333 -4.66699 -51 -14s-31 -23 -43 -41c-2 -3.33301 -4.66699 -5 -8 -5s-6.33301 1 -9 3l-38 20c-4 2 -6 4.66699 -6 8
c0 2.66699 2.16699 7.66699 6.5 15s9.16602 13.666 14.499 18.999c13.333 16 30.5 28.833 51.5 38.5s48.5 14.5 82.5 14.5h31c53.333 0 95.833 -15.667 127.5 -47s47.5 -73.666 47.5 -126.999v-16c0 -16 -3 -30.833 -9 -44.5s-13.5 -25.834 -22.5 -36.501
s-19.167 -19.667 -30.5 -27s-22.333 -12.333 -33 -15v-4c8.66699 -2.66699 18.5 -7.66699 29.5 -15s21.333 -16.666 31 -27.999s17.834 -24.333 24.501 -39s10 -30.667 10 -48v-31v0z" />
    <glyph glyph-name="four" unicode="4" 
d="M477 161c0 -6.66699 -3.33398 -10 -10.001 -10h-74c-6.66699 0 -10 -3.33301 -10 -10v-131c0 -6.66699 -3.33301 -10 -10 -10h-47c-6.66699 -0 -10 3.33301 -10 10v131c0 6.66699 -3.33301 10 -10 10h-261c-6.66699 0 -10 3 -10 9l2 58l268 407
c2.66699 2.66699 5.33398 4 8.00098 4h60c6.66699 0 10 -3.33301 10 -10v-401c0 -6.66699 3.33301 -10 10 -10h74c6.66699 0 10 -3.33301 10 -10v-37zM315.999 513c0 8 -3 12 -9 12c-3.33301 0 -6.33301 -2 -9 -6l-196 -295c-2 -3.33301 -3 -6 -3 -8
c0 -5.33301 3.66699 -8 11 -8h196c6.66699 0 10 3.33301 10 10v295z" />
    <glyph glyph-name="five" unicode="5" 
d="M447 162c0 -53.333 -15.833 -95.3359 -47.5 -126.003s-74.167 -46 -127.5 -46h-31c-31.333 0 -57 4.16699 -77 12.5s-36.667 19.5 -50 33.5c-6.66699 7.33301 -13 15.166 -19 23.499s-9 14.166 -9 17.499s2 6 6 8l36 19c5.33301 2.66699 9 4 11 4
c3.33301 0 6 -1.66699 8 -5c12 -18 26.333 -31.833 43 -41.5s33.667 -14.5 51 -14.5h31c14.667 0 28.5 2.83301 41.5 8.5s24.333 13.334 34 23.001s17.334 21 23.001 34s8.5 26.833 8.5 41.5v36c0 14.667 -2.83301 28.334 -8.5 41.001s-13.334 23.834 -23.001 33.501
s-21 17.334 -34 23.001s-26.833 8.5 -41.5 8.5h-153c-6.66699 0 -10 3.33301 -10 10v313c0 6.66699 3.33301 10 10 10h307c6.66699 0 10 -3.33301 10 -10v-37c0 -6.66699 -3.33301 -10 -10 -10h-240c-6.66699 0 -10 -3.33301 -10 -10v-199c0 -6.66699 3.33301 -10 10 -10h86
c53.333 0 95.833 -15.167 127.5 -45.5s47.5 -72.166 47.5 -125.499v-20v0z" />
    <glyph glyph-name="six" unicode="6" 
d="M453 154c0 -24 -4.17188 -46.167 -12.5049 -66.5s-20.166 -37.666 -35.499 -51.999s-33.666 -25.5 -54.999 -33.5s-45.333 -12 -72 -12h-30c-53.333 0 -95.5 15.167 -126.5 45.5s-46.5 69.833 -46.5 118.5v322c0 48.667 15.5 88.167 46.5 118.5s73.167 45.5 126.5 45.5
h30c32.667 0 59.5 -4.66699 80.5 -14s38.167 -21.666 51.5 -36.999c6.66699 -7.33301 12.334 -14.333 17.001 -21s7 -11.334 7 -14.001c0 -4 -2.33301 -7 -7 -9l-34 -17c-2 -1.33301 -4.16699 -2.5 -6.5 -3.5s-4.16602 -1.5 -5.49902 -1.5c-3.33301 0 -6 1.66699 -8 5
c-11.333 17.333 -25 30.666 -41 39.999s-34 14 -54 14h-30c-14.667 0 -28.5 -2.66699 -41.5 -8s-24.167 -12.833 -33.5 -22.5s-16.833 -21 -22.5 -34s-8.5 -26.833 -8.5 -41.5v-167c0 -7.33301 3 -11 9 -11c3.33301 0 6.33301 1.66699 9 5
c17.333 22 34.833 36.833 52.5 44.5s33.167 11.5 46.5 11.5h30c22.667 0 44 -4 64 -12s37.333 -19.167 52 -33.5s26.334 -31.5 35.001 -51.5s13 -42 13 -66v-42zM384.995 196c0 14.667 -2.83594 28.3311 -8.50293 40.998s-13.334 23.834 -23.001 33.501
s-21 17.334 -34 23.001s-26.833 8.5 -41.5 8.5h-30c-30 0 -55.167 -10.167 -75.5 -30.5s-30.5 -45.5 -30.5 -75.5v-42c0 -14.667 2.83301 -28.5 8.5 -41.5s13.334 -24.333 23.001 -34s20.834 -17.334 33.501 -23.001s26.334 -8.5 41.001 -8.5h30
c14.667 0 28.5 2.83301 41.5 8.5s24.333 13.334 34 23.001s17.334 21 23.001 34s8.5 26.833 8.5 41.5v42z" />
    <glyph glyph-name="seven" unicode="7" 
d="M433 522c0 -32 -4.66699 -59.5 -14 -82.5s-21.333 -43.333 -36 -61s-31 -33 -49 -46s-35.667 -25.167 -53 -36.5c-15.333 -10 -29.5 -20 -42.5 -30s-24.333 -20.667 -34 -32s-17.334 -23.5 -23.001 -36.5s-8.5 -27.5 -8.5 -43.5v-144c0 -6.66699 -3.33301 -10 -10 -10
h-48c-6.66699 -0 -10 3.33301 -10 10v144c0 26.667 3.66699 50 11 70s16.833 37.667 28.5 53s25 28.833 40 40.5s30.5 22.834 46.5 33.501l49 34c16 11.333 30.333 23.5 43 36.5s22.834 27.667 30.501 44s11.5 35.166 11.5 56.499v40c0 6.66699 -3.33301 10 -10 10h-261
c-6.66699 0 -10 3.33301 -10 10v37c0 6.66699 3.33301 10 10 10h329c6.66699 0 10 -3.33301 10 -10v-97v0z" />
    <glyph glyph-name="eight" unicode="8" 
d="M446 162c0 -53.333 -15.835 -95.333 -47.502 -126s-74.167 -46 -127.5 -46h-31c-53.333 0 -95.666 15.333 -126.999 46s-47 72.667 -47 126v26c0 32 9.83301 59 29.5 81s42.5 37.667 68.5 47v5c-9.33301 2.66699 -19.666 7.16699 -30.999 13.5s-22 14.833 -32 25.5
s-18.333 23 -25 37s-10 30 -10 48v21c0 53.333 15.667 95.666 47 126.999s73.666 47 126.999 47h31c53.333 0 95.833 -15.667 127.5 -47s47.5 -73.666 47.5 -126.999v-21c0 -16 -3 -30.833 -9 -44.5s-13.667 -25.834 -23 -36.501s-19.5 -19.667 -30.5 -27
s-21.833 -12.333 -32.5 -15v-4c8.66699 -2.66699 18.5 -7.66699 29.5 -15s21.333 -16.666 31 -27.999s17.834 -24.333 24.501 -39s10 -30.667 10 -48v-26zM377.998 476c0 14.667 -2.83105 28.5 -8.49805 41.5s-13.334 24.333 -23.001 34s-21 17.167 -34 22.5
s-26.833 8 -41.5 8h-31c-15.333 0 -29.333 -2.66699 -42 -8s-23.834 -12.833 -33.501 -22.5s-17.167 -21 -22.5 -34s-8 -26.833 -8 -41.5v-20c0 -15.333 2.66699 -29.5 8 -42.5s12.833 -24.333 22.5 -34s20.834 -17.334 33.501 -23.001s26.667 -8.5 42 -8.5h31
c14.667 0 28.667 2.83301 42 8.5s24.666 13.334 33.999 23.001s16.833 21 22.5 34s8.5 27.167 8.5 42.5v20zM378 185c0 14.667 -2.83301 28.3311 -8.5 40.998s-13.334 23.834 -23.001 33.501s-21 17.334 -34 23.001s-26.833 8.5 -41.5 8.5h-31
c-15.333 0 -29.333 -2.83301 -42 -8.5s-23.834 -13.167 -33.501 -22.5s-17.167 -20.5 -22.5 -33.5s-8 -26.833 -8 -41.5v-31c0 -14.667 2.66699 -28.5 8 -41.5s12.833 -24.333 22.5 -34s20.834 -17.334 33.501 -23.001s26.667 -8.5 42 -8.5h31
c14.667 0 28.5 2.83301 41.5 8.5s24.333 13.334 34 23.001s17.334 21 23.001 34s8.5 26.833 8.5 41.5v31z" />
    <glyph glyph-name="nine" unicode="9" 
d="M435 154c0 -24 -4.16797 -46.1699 -12.501 -66.5029s-20.166 -37.666 -35.499 -51.999s-33.666 -25.5 -54.999 -33.5s-45.333 -12 -72 -12h-30c-34 0 -61.667 5 -83 15s-38.666 23.333 -51.999 40c-6 7.33301 -10.667 14 -14 20s-5 10 -5 12c0 4 2 7 6 9l38 19
c2.66699 2 5.66699 3 9 3s6 -1.66699 8 -5c22.667 -37.333 53.667 -56 93 -56h30c14.667 0 28.5 2.83301 41.5 8.5s24.333 13.334 34 23.001s17.334 21 23.001 34s8.5 26.833 8.5 41.5v132c0 7.33301 -3 11 -9 11c-3.33301 0 -6.33301 -1.66699 -9 -5
c-17.333 -22.667 -35 -38 -53 -46s-33.333 -12 -46 -12h-30c-23.333 0 -44.833 4 -64.5 12s-36.834 19.333 -51.501 34s-26.167 32 -34.5 52s-12.5 42 -12.5 66v78c0 48.667 15.5 88.167 46.5 118.5s73.167 45.5 126.5 45.5h30c26.667 0 50.667 -4 72 -12
s39.666 -19.167 54.999 -33.5s27.166 -31.666 35.499 -51.999s12.5 -42.5 12.5 -66.5v-322zM366.999 475.997c0 14.667 -2.83594 28.5 -8.50293 41.5s-13.334 24.333 -23.001 34s-21 17.167 -34 22.5s-26.833 8 -41.5 8h-30c-14.667 0 -28.5 -2.66699 -41.5 -8
s-24.167 -12.833 -33.5 -22.5s-16.833 -21 -22.5 -34s-8.5 -26.833 -8.5 -41.5v-78c0 -14.667 2.83301 -28.5 8.5 -41.5s13.334 -24.333 23.001 -34s20.834 -17.334 33.501 -23.001s26.334 -8.5 41.001 -8.5h30c14.667 0 28.5 2.83301 41.5 8.5s24.333 13.334 34 23.001
s17.334 21 23.001 34s8.5 26.833 8.5 41.5v78z" />
    <glyph glyph-name="colon" unicode=":" horiz-adv-x="209" 
d="M154 315c0 -13.333 -5 -25 -15 -35s-21.667 -15 -35 -15s-24.666 5 -33.999 15s-14 21.667 -14 35s4.66699 24.833 14 34.5s20.666 14.5 33.999 14.5c14 0 25.833 -4.66699 35.5 -14s14.5 -21 14.5 -35zM154 34c0 -14 -4.83301 -25.667 -14.5 -35s-21.5 -14 -35.5 -14
c-13.333 0 -24.666 4.83301 -33.999 14.5s-14 21.167 -14 34.5s4.66699 24.833 14 34.5s20.666 14.5 33.999 14.5c14 0 25.833 -4.66699 35.5 -14s14.5 -21 14.5 -35z" />
    <glyph glyph-name="semicolon" unicode=";" horiz-adv-x="209" 
d="M154 315c0 -13.333 -5 -25 -15 -35s-21.667 -15 -35 -15s-24.666 5 -33.999 15s-14 21.667 -14 35s4.66699 24.833 14 34.5s20.666 14.5 33.999 14.5c14 0 25.833 -4.66699 35.5 -14s14.5 -21 14.5 -35zM154 25c0 -38 -5.83301 -68.167 -17.5 -90.5
s-26.834 -40.833 -45.501 -55.5c-5.33301 -4 -10.166 -7.33301 -14.499 -10s-7.5 -4 -9.5 -4c-3.33301 0 -6 1.66699 -8 5l-10 16c-1.33301 2.66699 -2 5 -2 7s1 4 3 6c12 10 21.667 22.667 29 38s11 37 11 65c0 6.66699 -3.33301 10 -10 10h-14
c-6.66699 0 -10 3.33301 -10 10v59c0 6.66699 3.33301 10 10 10h78c6.66699 0 10 -3.33301 10 -10v-56z" />
    <glyph glyph-name="less" unicode="&#x3c;" 
d="M414 423c0 -3.33301 -1.99902 -6.00098 -5.99902 -8.00098l-288 -166c-4.66699 -3.33301 -7 -6.33301 -7 -9s2.33301 -5.66699 7 -9l288 -167c3.33301 -2 5 -4.66699 5 -8s-0.666992 -5.66602 -2 -6.99902l-14 -21c-2 -3.33301 -4.66699 -5 -8 -5
c-0.666992 0 -2.33398 0.666992 -5.00098 2l-312 179c-3.33301 2 -5 5 -5 9v51c0 4 1.66699 7 5 9l313 181c2.66699 1.33301 4.66699 2 6 2c3.33301 0 6 -2 8 -6l13 -21c1.33301 -2.66699 2 -4.66699 2 -6z" />
    <glyph glyph-name="equal" unicode="=" 
d="M466 317c0 -6.66699 -3.33301 -10 -10 -10h-401c-6.66699 0 -10 3.33301 -10 10v26c0 6.66699 3.33301 10 10 10h401c6.66699 0 10 -3.33301 10 -10v-26zM466 130c0 -6.66699 -3.33301 -10 -10 -10h-401c-6.66699 0 -10 3.33301 -10 10v26c0 6.66699 3.33301 10 10 10
h401c6.66699 0 10 -3.33301 10 -10v-26z" />
    <glyph glyph-name="greater" unicode="&#x3e;" 
d="M444 214c0 -4 -1.66699 -7 -5 -9l-312 -180c-2.66699 -1.33301 -4.66699 -2 -6 -2c-3.33301 0 -6 2 -8 6l-13 21c-1.33301 2.66699 -2 4.66699 -2 6c0 3.33301 2 6 6 8l287 167c4.66699 3.33301 7 6.33301 7 9s-2.33301 5.66699 -7 9l-287 166c-4 2 -6 4.66699 -6 8
c0 1.33301 0.666992 3.33301 2 6l13 21c2 4 4.66699 6 8 6c1.33301 0 3.33301 -0.666992 6 -2l312 -182c3.33301 -2 5 -5 5 -9v-49v0z" />
    <glyph glyph-name="question" unicode="?" 
d="M441 476c0 -27.333 -3.66504 -50.0029 -10.998 -68.0029s-16.833 -32.667 -28.5 -44s-24.5 -20.666 -38.5 -27.999s-27.333 -14 -40 -20c-11.333 -5.33301 -22 -10.833 -32 -16.5s-18.667 -12.167 -26 -19.5s-13.166 -16 -17.499 -26s-6.5 -22 -6.5 -36
c0 -3.33301 0.166992 -7 0.5 -11s0.5 -7.66699 0.5 -11c0 -6 -3.33301 -9 -10 -9h-48c-6.66699 0 -10 3 -10 9c-0.666992 8.66699 -1 15.834 -1 21.501v15.5c0 22 3.5 40.167 10.5 54.5s16.167 26.333 27.5 36s23.666 17.834 36.999 24.501l40 20
c11.333 6 22.166 12.167 32.499 18.5s19.5 13.666 27.5 21.999s14.333 17.833 19 28.5s7 23.667 7 39c0 14.667 -2.83301 28.5 -8.5 41.5s-13.334 24.333 -23.001 34s-21 17.167 -34 22.5s-26.833 8 -41.5 8h-40c-16.667 0 -33.5 -4.66699 -50.5 -14s-31.5 -23 -43.5 -41
c-2 -3.33301 -4.66699 -5 -8 -5c-2 0 -4.33301 0.666992 -7 2l-40 21c-4 2 -6 4.66699 -6 8c0 2 2.33301 6.66699 7 14s9.66699 14.333 15 21c13.333 15.333 30.5 27.833 51.5 37.5s48.167 14.5 81.5 14.5h40c26.667 0 50.667 -4 72 -12s39.5 -19.167 54.5 -33.5
s26.667 -31.666 35 -51.999s12.5 -42.5 12.5 -66.5zM274.002 33.9971c0 -14 -4.83301 -25.667 -14.5 -35s-21.5 -14 -35.5 -14c-13.333 0 -24.833 4.83301 -34.5 14.5s-14.5 21.167 -14.5 34.5s4.83301 24.833 14.5 34.5s21.167 14.5 34.5 14.5
c14 0 25.833 -4.66699 35.5 -14s14.5 -21 14.5 -35z" />
    <glyph glyph-name="at" unicode="@" horiz-adv-x="704" 
d="M626 246c0 -25.333 -8.33105 -46.3301 -24.998 -62.9971s-39.334 -25 -68.001 -25h-12c-15.333 0 -29.333 2.66699 -42 8s-23 12.666 -31 21.999c-4.66699 6 -10.334 6.33301 -17.001 1c-10 -9.33301 -22.5 -16.833 -37.5 -22.5s-27.833 -8.5 -38.5 -8.5
c-38 0 -68.5 10.833 -91.5 32.5s-34.5 50.5 -34.5 86.5v82c0 35.333 11.5 63.666 34.5 84.999s53.5 32 91.5 32c9.33301 0 19.333 -2 30 -6s20.667 -8.66699 30 -14c4 -2.66699 7.5 -3.5 10.5 -2.5s4.5 4.16699 4.5 9.5v4c0 6 3.33301 9 10 9h31
c6.66699 0 10 -3.33301 10 -10v-215c0 -12 3.83301 -21.833 11.5 -29.5s17.5 -11.5 29.5 -11.5h11c11.333 0 21 4 29 12s12 17.667 12 29v207c0 36 -11.5 65 -34.5 87s-54.5 33 -94.5 33h-178c-40 0 -71.667 -11 -95 -33s-35 -51 -35 -87v-286c0 -36 11.667 -65 35 -87
s55 -33 95 -33h260c6.66699 0 10 -3.33301 10 -10v-32c0 -6.66699 -3.33301 -10 -10 -10h-260c-28 0 -53.167 4.16699 -75.5 12.5s-41.333 20.166 -57 35.499s-27.834 33.5 -36.501 54.5s-13 44.167 -13 69.5v286c0 25.333 4.33301 48.5 13 69.5s20.834 39.167 36.501 54.5
s34.667 27.166 57 35.499s47.5 12.5 75.5 12.5h178c28 0 53.167 -4.16699 75.5 -12.5s41.333 -20.166 57 -35.499s27.667 -33.5 36 -54.5s12.5 -44.167 12.5 -69.5v-212zM430.002 351.003c0 20.667 -7.33203 38 -21.999 52s-32.334 21 -53.001 21
c-20 0 -37.333 -7.16699 -52 -21.5s-22 -31.5 -22 -51.5v-67c0 -20.667 7 -38.167 21 -52.5s31.667 -21.5 53 -21.5c20 0 37.5 7.16699 52.5 21.5s22.5 31.833 22.5 52.5v67z" />
    <glyph glyph-name="A" unicode="A" horiz-adv-x="448" 
d="M439 8c0 -5.33301 -3.66797 -8.00195 -11.001 -8.00195h-51c-6 0 -9.33301 2.33301 -10 7l-39 138c-0.666992 4 -4 6 -10 6h-188c-6 0 -9.33301 -2 -10 -6l-39 -138c-0.666992 -4.66699 -4 -7 -10 -7h-51c-7.33301 0 -11 2.66699 -11 8
c0 2.66699 0.833008 6.33398 2.5 11.001s3.16699 9.33398 4.5 14.001l179 589c0.666992 4.66699 4 7 10 7h38c6 0 9.33301 -2.33301 10 -7l177 -583c2.66699 -7.33301 4.83398 -13.833 6.50098 -19.5s2.5 -9.5 2.5 -11.5zM237.999 477.998
c-0.666992 2.66699 -2.33496 8.83203 -5.00195 18.499s-4.66699 16.5 -6 20.5h-4c-1.33301 -4 -3.16602 -10.667 -5.49902 -20s-4.16602 -15.666 -5.49902 -18.999l-72 -261c0 -6 3.66699 -9 11 -9h144c7.33301 0 11 3 11 9z" />
    <glyph glyph-name="B" unicode="B" horiz-adv-x="521" 
d="M461 173c0 -53.333 -15.832 -95.502 -47.499 -126.502s-74.167 -46.5 -127.5 -46.5h-194c-6.66699 0 -10 3.33301 -10 10v609c0 6.66699 3.33301 10 10 10h194c53.333 0 95.833 -15.5 127.5 -46.5s47.5 -73.167 47.5 -126.5v-11
c0 -9.33301 -1.83301 -19.666 -5.5 -30.999s-8.83398 -22.5 -15.501 -33.5s-14.5 -21 -23.5 -30s-18.833 -16.167 -29.5 -21.5c-5.33301 -3.33301 -8 -6.66602 -8 -9.99902s2 -6 6 -8c18.667 -9.33301 36 -24.833 52 -46.5s24 -47.167 24 -76.5v-15zM394.001 465.998
c0 14.667 -2.83301 28.3301 -8.5 40.9971s-13.334 23.834 -23.001 33.501s-21.167 17.334 -34.5 23.001s-27.333 8.5 -42 8.5h-127c-6.66699 0 -10 -3.33301 -10 -10v-204c0 -6.66699 3.33301 -10 10 -10h127c14.667 0 28.667 2.83301 42 8.5s24.833 13.334 34.5 23.001
s17.334 21 23.001 34s8.5 27.167 8.5 42.5v10zM394.001 184.994c0 14.667 -2.83301 28.3311 -8.5 40.998s-13.334 23.834 -23.001 33.501s-21.167 17.334 -34.5 23.001s-27.333 8.5 -42 8.5h-127c-6.66699 0 -10 -3.33301 -10 -10v-214c0 -6.66699 3.33301 -10 10 -10h127
c14.667 0 28.667 2.83301 42 8.5s24.833 13.167 34.5 22.5s17.334 20.5 23.001 33.5s8.5 27.167 8.5 42.5v21z" />
    <glyph glyph-name="C" unicode="C" horiz-adv-x="464" 
d="M427 77c0 -2 -2.33301 -6.49707 -7 -13.4971s-10 -13.833 -16 -20.5c-13.333 -15.333 -30.5 -28 -51.5 -38s-48.167 -15 -81.5 -15h-31c-26.667 0 -50.667 4 -72 12s-39.5 19.167 -54.5 33.5s-26.667 31.666 -35 51.999s-12.5 42.5 -12.5 66.5v322
c0 24 4.16699 46.167 12.5 66.5s20 37.666 35 51.999s33.167 25.5 54.5 33.5s45.333 12 72 12h31c33.333 0 60.5 -5 81.5 -15s38.5 -22.667 52.5 -38c5.33301 -5.33301 10.333 -11.666 15 -18.999s7 -12 7 -14c0 -4 -2.33301 -7 -7 -9l-38 -19
c-3.33301 -2 -6.33301 -3 -9 -3s-5 1.33301 -7 4c-12.667 17.333 -27.5 30.833 -44.5 40.5s-33.833 14.5 -50.5 14.5h-31c-15.333 0 -29.333 -2.66699 -42 -8s-23.834 -12.833 -33.501 -22.5s-17.167 -21 -22.5 -34s-8 -26.833 -8 -41.5v-322
c0 -14.667 2.66699 -28.5 8 -41.5s12.833 -24.333 22.5 -34s20.834 -17.334 33.501 -23.001s26.667 -8.5 42 -8.5h31c17.333 0 34.5 5.16699 51.5 15.5s31.5 24.166 43.5 41.499c2 2.66699 4.33301 4 7 4s5.66699 -1 9 -3l38 -19c4.66699 -2.66699 7 -5.66699 7 -9z" />
    <glyph glyph-name="D" unicode="D" horiz-adv-x="526" 
d="M461 175c0 -54 -15.833 -96.667 -47.5 -128s-74.167 -47 -127.5 -47h-194c-6.66699 -0 -10 3.33301 -10 10v609c0 6.66699 3.33301 10 10 10h194c53.333 0 95.833 -15.5 127.5 -46.5s47.5 -73.167 47.5 -126.5v-281zM394 466c0 14.667 -2.83301 28.3311 -8.5 40.998
s-13.334 23.834 -23.001 33.501s-21.167 17.334 -34.5 23.001s-27.333 8.5 -42 8.5h-127c-6.66699 0 -10 -3.33301 -10 -10v-495c0 -6.66699 3.33301 -10 10 -10h127c14.667 0 28.667 2.83301 42 8.5s24.833 13.167 34.5 22.5s17.334 20.5 23.001 33.5s8.5 27.167 8.5 42.5
v302z" />
    <glyph glyph-name="E" unicode="E" horiz-adv-x="479" 
d="M430 10c0 -6.66699 -3.33301 -10 -10 -10h-328c-6.66699 -0 -10 3.33301 -10 10v609c0 6.66699 3.33301 10 10 10h328c6.66699 0 10 -3.33301 10 -10v-37c0 -6.66699 -3.33301 -10 -10 -10h-261c-6.66699 0 -10 -3.33301 -10 -10v-204c0 -6.66699 3.33301 -10 10 -10h214
c6.66699 0 10 -3.33301 10 -10v-37c0 -6.66699 -3.33301 -10 -10 -10h-214c-6.66699 0 -10 -3.33301 -10 -10v-214c0 -6.66699 3.33301 -10 10 -10h261c6.66699 0 10 -3.33301 10 -10v-37v0z" />
    <glyph glyph-name="F" unicode="F" horiz-adv-x="453" 
d="M430 582c0 -6.66699 -3.33301 -10 -10 -10h-261c-6.66699 0 -10 -3.33301 -10 -10v-204c0 -6.66699 3.33301 -10 10 -10h214c6.66699 0 10 -3.33301 10 -10v-37c0 -6.66699 -3.33301 -10 -10 -10h-214c-6.66699 0 -10 -3.33301 -10 -10v-271
c0 -6.66699 -3.33301 -10 -10 -10h-47c-6.66699 -0 -10 3.33301 -10 10v609c0 6.66699 3.33301 10 10 10h328c6.66699 0 10 -3.33301 10 -10v-37v0z" />
    <glyph glyph-name="G" unicode="G" 
d="M446 154c0 -24 -4.16895 -46.166 -12.502 -66.499s-20.166 -37.666 -35.499 -51.999s-33.666 -25.5 -54.999 -33.5s-45.333 -12 -72 -12h-31c-26.667 0 -50.667 4 -72 12s-39.5 19.167 -54.5 33.5s-26.667 31.666 -35 51.999s-12.5 42.5 -12.5 66.5v322
c0 24 4.16699 46.167 12.5 66.5s20 37.666 35 51.999s33.167 25.5 54.5 33.5s45.333 12 72 12h50c34 0 61.5 -5 82.5 -15s38.167 -23 51.5 -39c5.33301 -6 10.166 -12.167 14.499 -18.5s6.5 -10.833 6.5 -13.5c0 -4 -2.33301 -7 -7 -9l-36 -18
c-5.33301 -2.66699 -9 -4 -11 -4c-2.66699 0 -5 1.33301 -7 4c-12 18 -26.5 31.667 -43.5 41s-33.833 14 -50.5 14h-50c-15.333 0 -29.333 -2.66699 -42 -8s-23.834 -12.833 -33.501 -22.5s-17.167 -21 -22.5 -34s-8 -26.833 -8 -41.5v-322c0 -14.667 2.66699 -28.5 8 -41.5
s12.833 -24.333 22.5 -34s20.834 -17.334 33.501 -23.001s26.667 -8.5 42 -8.5h31c14.667 0 28.5 2.83301 41.5 8.5s24.333 13.334 34 23.001s17.334 21 23.001 34s8.5 26.833 8.5 41.5v80c0 6.66699 -3.33301 10 -10 10h-105c-6.66699 0 -10 3.33301 -10 10v38
c0 6.66699 3.33301 10 10 10h173c6.66699 0 10 -3.33301 10 -10v-138v0z" />
    <glyph glyph-name="H" unicode="H" horiz-adv-x="557" 
d="M477 10c0 -6.66699 -3.33301 -10 -10 -10h-48c-6.66699 -0 -10 3.33301 -10 10v271c0 6.66699 -3.33301 10 -10 10h-240c-6.66699 0 -10 -3.33301 -10 -10v-271c0 -6.66699 -3.33301 -10 -10 -10h-47c-6.66699 -0 -10 3.33301 -10 10v609c0 6.66699 3.33301 10 10 10h47
c6.66699 0 10 -3.33301 10 -10v-261c0 -6.66699 3.33301 -10 10 -10h240c6.66699 0 10 3.33301 10 10v261c0 6.66699 3.33301 10 10 10h48c6.66699 0 10 -3.33301 10 -10v-609v0z" />
    <glyph glyph-name="I" unicode="I" horiz-adv-x="230" 
d="M149 10c0 -6.66699 -3.33301 -10 -10 -10h-47c-6.66699 -0 -10 3.33301 -10 10v609c0 6.66699 3.33301 10 10 10h47c6.66699 0 10 -3.33301 10 -10v-609v0z" />
    <glyph glyph-name="J" unicode="J" horiz-adv-x="417" 
d="M352 164c0 -24 -4.49707 -46.502 -13.4971 -67.502s-21.5 -39.333 -37.5 -55s-34.667 -28.167 -56 -37.5s-44 -14 -68 -14c-24.667 0 -48.834 5.83301 -72.501 17.5s-44.167 26.167 -61.5 43.5c-6 5.33301 -11.167 10.666 -15.5 15.999s-6.5 9.33301 -6.5 12
s2.33301 5.33398 7 8.00098l36 18c5.33301 2.66699 8.66602 4 9.99902 4c3.33301 0 6 -1.66699 8 -5c11.333 -17.333 25.666 -31.166 42.999 -41.499s34.666 -15.5 51.999 -15.5c14.667 0 28.5 2.83301 41.5 8.5s24.333 13.334 34 23.001s17.334 21 23.001 34
s8.5 26.833 8.5 41.5v465c0 6.66699 3.33301 10 10 10h48c6.66699 0 10 -3.33301 10 -10v-455v0z" />
    <glyph glyph-name="K" unicode="K" horiz-adv-x="526" 
d="M507 8c0 -5.33301 -3.66797 -7.99902 -11.001 -7.99902h-60c-4 0 -7 1.66699 -9 5l-183 299c-3.33301 4.66699 -6.33301 7 -9 7c-2 0 -4.66699 -1.66699 -8 -5l-78 -98v-198c0 -6.66699 -3.33301 -10 -10 -10h-47c-6.66699 0 -10 3.33301 -10 10v609
c0 6.66699 3.33301 10 10 10h47c6.66699 0 10 -3.33301 10 -10v-300c0 -8 3 -12 9 -12c2.66699 0 5.66699 2 9 6l238 312c2.66699 2.66699 5.33398 4 8.00098 4h53c7.33301 0 11 -2.66699 11 -8c0 -2.66699 -1 -5.33398 -3 -8.00098l-185 -228
c-3.33301 -3.33301 -5 -6.33301 -5 -9c0 -2 0.5 -4 1.5 -6s2.16699 -3.66699 3.5 -5l210 -340l5.5 -9.5c1.66699 -3 2.5 -5.5 2.5 -7.5z" />
    <glyph glyph-name="L" unicode="L" horiz-adv-x="453" 
d="M430 10c0 -6.66699 -3.33301 -10 -10 -10h-328c-6.66699 -0 -10 3.33301 -10 10v609c0 6.66699 3.33301 10 10 10h47c6.66699 0 10 -3.33301 10 -10v-552c0 -6.66699 3.33301 -10 10 -10h261c6.66699 0 10 -3.33301 10 -10v-37v0z" />
    <glyph glyph-name="M" unicode="M" horiz-adv-x="652" 
d="M571 10c0 -6.66699 -3.33301 -9.99902 -10 -9.99902h-47c-6.66699 0 -10 3.33301 -10 10v238c0 20 0.333008 42.167 1 66.5s1.5 47.666 2.5 69.999s2 42.333 3 60s1.83301 29.5 2.5 35.5l-4 1l-4.5 -13.5c-2.33301 -7 -5 -14.333 -8 -22l-8.5 -22
c-2.66699 -7 -4.33398 -11.5 -5.00098 -13.5l-138 -310c-2 -4 -5 -6 -9 -6h-20c-4 0 -7 2 -9 6l-137 310c-1.33301 2 -3.16602 6.5 -5.49902 13.5s-5 14.5 -8 22.5l-8 22l-4.5 13l-4 -1c0.666992 -6 1.5 -17.833 2.5 -35.5s2 -37.667 3 -60s1.83301 -45.666 2.5 -69.999
s1 -46.5 1 -66.5v-238c0 -6.66699 -3.33301 -10 -10 -10h-47c-6.66699 0 -10 3.33301 -10 10v609c0 6.66699 3.33301 10 10 10h46c4 0 7 -2 9 -6l164 -380c0.666992 -2 1.66699 -4.83301 3 -8.5s2.83301 -7.5 4.5 -11.5s3 -7.83301 4 -11.5s1.83301 -6.5 2.5 -8.5h3
c0.666992 4 3 10.667 7 20s6.66699 15.666 8 18.999l162 381c2 4 5 6 9 6h47c6.66699 0 10 -3.33301 10 -10v-609v0z" />
    <glyph glyph-name="N" unicode="N" horiz-adv-x="557" 
d="M477 10c0 -6.66699 -3.33398 -9.99805 -10.001 -9.99805h-47c-4 0 -7 1.66699 -9 5l-243 440c-2 3.33301 -5.16699 9.16602 -9.5 17.499s-7.16602 14.5 -8.49902 18.5l-4 -1c0.666992 -6 1.16699 -17.833 1.5 -35.5s0.666016 -37.667 0.999023 -60
s0.5 -45.666 0.5 -69.999v-66.5v-238c0 -6.66699 -3.33301 -10 -10 -10h-47c-6.66699 0 -10 3.33301 -10 10v609c0 6.66699 3.33301 10 10 10h46c4 0 7 -1.66699 9 -5l243 -445c1.33301 -2.66699 4.33301 -8.33398 9 -17.001s7.66699 -15 9 -19l4 1
c-0.666992 6 -1.16699 17.833 -1.5 35.5s-0.666016 37.667 -0.999023 60s-0.5 45.666 -0.5 69.999v66.5v243c0 6.66699 3.33301 10 10 10h48c6.66699 0 10 -3.33301 10 -10v-609v0z" />
    <glyph glyph-name="O" unicode="O" 
d="M446 154c0 -24 -4.16699 -46.167 -12.5 -66.5s-20.166 -37.666 -35.499 -51.999s-33.666 -25.5 -54.999 -33.5s-45.333 -12 -72 -12h-31c-26.667 0 -50.667 4 -72 12s-39.5 19.167 -54.5 33.5s-26.667 31.666 -35 51.999s-12.5 42.5 -12.5 66.5v322
c0 24 4.16699 46.167 12.5 66.5s20 37.666 35 51.999s33.167 25.5 54.5 33.5s45.333 12 72 12h31c26.667 0 50.667 -4 72 -12s39.666 -19.167 54.999 -33.5s27.166 -31.666 35.499 -51.999s12.5 -42.5 12.5 -66.5v-322zM378 476c0 14.667 -2.83301 28.5 -8.5 41.5
s-13.334 24.333 -23.001 34s-21 17.167 -34 22.5s-26.833 8 -41.5 8h-31c-15.333 0 -29.333 -2.66699 -42 -8s-23.834 -12.833 -33.501 -22.5s-17.167 -21 -22.5 -34s-8 -26.833 -8 -41.5v-322c0 -14.667 2.66699 -28.5 8 -41.5s12.833 -24.333 22.5 -34
s20.834 -17.334 33.501 -23.001s26.667 -8.5 42 -8.5h31c14.667 0 28.5 2.83301 41.5 8.5s24.333 13.334 34 23.001s17.334 21 23.001 34s8.5 26.833 8.5 41.5v322z" />
    <glyph glyph-name="P" unicode="P" horiz-adv-x="484" 
d="M461 456c0 -23.333 -4.16895 -45 -12.502 -65s-20.166 -37.5 -35.499 -52.5s-33.666 -26.667 -54.999 -35s-45.333 -12.5 -72 -12.5h-127c-6.66699 0 -10 -3.33301 -10 -10v-271c0 -6.66699 -3.33301 -10 -10 -10h-47c-6.66699 -0 -10 3.33301 -10 10v609
c0 6.66699 3.33301 10 10 10h194c53.333 0 95.833 -15.667 127.5 -47s47.5 -73.333 47.5 -126zM393.998 466c0 14.667 -2.83301 28.3301 -8.5 40.9971s-13.334 23.834 -23.001 33.501s-21.167 17.334 -34.5 23.001s-27.333 8.5 -42 8.5h-127
c-6.66699 0 -10 -3.33301 -10 -10v-204c0 -6.66699 3.33301 -10 10 -10h127c14.667 0 28.667 2.83301 42 8.5s24.833 13.334 34.5 23.001s17.334 21 23.001 34s8.5 27.167 8.5 42.5v10z" />
    <glyph glyph-name="Q" unicode="Q" 
d="M446 154c0 -42.667 -13.498 -78.666 -40.498 -107.999s-64.833 -47.666 -113.5 -54.999c-5.33301 -0.666992 -8 -4 -8 -10v-65c0 -6.66699 -3.33301 -10 -10 -10h-37c-6.66699 0 -10 3.33301 -10 10v65c0 5.33301 -3.33301 8.66602 -10 9.99902
c-49.333 7.33301 -86.833 25.666 -112.5 54.999s-38.5 65.333 -38.5 108v322c0 24 4.16699 46.167 12.5 66.5s20 37.666 35 51.999s33.167 25.5 54.5 33.5s45.333 12 72 12h31c26.667 0 50.667 -4 72 -12s39.666 -19.167 54.999 -33.5s27.166 -31.666 35.499 -51.999
s12.5 -42.5 12.5 -66.5v-322zM378.002 476.001c0 14.667 -2.8291 28.498 -8.49609 41.498s-13.334 24.333 -23.001 34s-21 17.167 -34 22.5s-26.833 8 -41.5 8h-31c-15.333 0 -29.333 -2.66699 -42 -8s-23.834 -12.833 -33.501 -22.5s-17.167 -21 -22.5 -34
s-8 -26.833 -8 -41.5v-322c0 -18 4.16699 -34.667 12.5 -50s21.166 -28.333 38.499 -39c6.66699 -4 13.167 -7.5 19.5 -10.5s11.166 -4.5 14.499 -4.5c5.33301 0 8 3.33301 8 10v49c0 6.66699 3.33301 10 10 10h37c6.66699 0 10 -3.33301 10 -10v-48c0 -6 2.33301 -9 7 -9
c3.33301 0 8.33301 1.33301 15 4s12.667 5.33398 18 8.00098c18 10 31.5 22.833 40.5 38.5s13.5 32.834 13.5 51.501v322z" />
    <glyph glyph-name="R" unicode="R" 
d="M462 8c0 -5.33301 -3.33301 -7.99805 -10 -7.99805h-54c-4.66699 0 -7.66699 2.33301 -9 7l-96 278c-1.33301 4 -4 6 -8 6h-126c-6.66699 0 -10 -3.33301 -10 -10v-271c0 -6.66699 -3.33301 -10 -10 -10h-47c-6.66699 0 -10 3.33301 -10 10v609
c0 6.66699 3.33301 10 10 10h194c53.333 0 95.833 -15.5 127.5 -46.5s47.5 -73.167 47.5 -126.5v-11c0 -12.667 -2.66699 -25.834 -8 -39.501s-12.5 -26.5 -21.5 -38.5s-19.167 -22.833 -30.5 -32.5s-23 -16.834 -35 -21.501c-4 -2 -6 -4.33301 -6 -7
c0 -1.33301 1.33301 -5.33301 4 -12l90 -261c2 -5.33301 3.83301 -10.5 5.5 -15.5s2.5 -8.16699 2.5 -9.5zM394 466.002c0 14.667 -2.83301 28.3301 -8.5 40.9971s-13.334 23.834 -23.001 33.501s-21.167 17.334 -34.5 23.001s-27.333 8.5 -42 8.5h-127
c-6.66699 0 -10 -3.33301 -10 -10v-204c0 -6.66699 3.33301 -10 10 -10h127c14.667 0 28.667 2.83301 42 8.5s24.833 13.334 34.5 23.001s17.334 21 23.001 34s8.5 27.167 8.5 42.5v10z" />
    <glyph glyph-name="S" unicode="S" horiz-adv-x="462" 
d="M418 154c0 -24 -4.16797 -46.166 -12.501 -66.499s-20 -37.666 -35 -51.999s-33.333 -25.5 -55 -33.5s-45.834 -12 -72.501 -12h-43c-34 0 -61.667 5 -83 15s-38.666 23 -51.999 39c-4.66699 5.33301 -9.16699 11.5 -13.5 18.5s-6.5 11.833 -6.5 14.5c0 3.33301 2 6 6 8
l38 20c1.33301 0.666992 2.83301 1.33398 4.5 2.00098s3.16699 1 4.5 1c3.33301 0 6 -1.66699 8 -5c12 -18 26.333 -31.833 43 -41.5s33.667 -14.5 51 -14.5h43c14.667 0 28.667 2.83301 42 8.5s24.833 13.167 34.5 22.5s17.334 20.5 23.001 33.5s8.5 27.167 8.5 42.5
c0 18 -3.66699 33.5 -11 46.5s-17.333 24.667 -30 35s-27 19.666 -43 27.999s-33 16.5 -51 24.5c-19.333 8.66699 -38.666 18 -57.999 28s-36.833 22 -52.5 36s-28.334 31 -38.001 51s-14.5 44.333 -14.5 73c0 24 4.16699 46.167 12.5 66.5s20 37.666 35 51.999
s33.167 25.5 54.5 33.5s45.333 12 72 12h16c34 0 61.5 -5 82.5 -15s38.167 -22.667 51.5 -38c5.33301 -6.66699 10.333 -13.334 15 -20.001s7 -11 7 -13c0 -4 -2.33301 -7 -7 -9l-34 -17c-2 -1.33301 -4.33301 -2.5 -7 -3.5s-4.66699 -1.5 -6 -1.5
c-2.66699 0 -5 1.33301 -7 4c-12 18 -26.5 31.667 -43.5 41s-34.167 14 -51.5 14h-16c-14.667 0 -28.5 -2.66699 -41.5 -8s-24.167 -12.833 -33.5 -22.5s-16.833 -21 -22.5 -34s-8.5 -26.833 -8.5 -41.5c0 -16 3.83301 -30 11.5 -42s18 -22.833 31 -32.5
s28.167 -18.667 45.5 -27l54 -25.5c18.667 -8.66699 37.167 -18.167 55.5 -28.5s34.833 -23 49.5 -38s26.667 -32.833 36 -53.5s14 -45.667 14 -75z" />
    <glyph glyph-name="T" unicode="T" horiz-adv-x="396" 
d="M373 582c0 -6.66699 -3.33301 -10 -10 -10h-121c-6.66699 0 -10 -3.33301 -10 -10v-552c0 -6.66699 -3.33301 -10 -10 -10h-47c-6.66699 -0 -10 3.33301 -10 10v552c0 6.66699 -3.33301 10 -10 10h-121c-6.66699 0 -10 3.33301 -10 10v37c0 6.66699 3.33301 10 10 10h329
c6.66699 0 10 -3.33301 10 -10v-37v0z" />
    <glyph glyph-name="U" unicode="U" 
d="M446 154c0 -24 -4.1709 -46.167 -12.5039 -66.5s-20.166 -37.666 -35.499 -51.999s-33.666 -25.5 -54.999 -33.5s-45.333 -12 -72 -12h-31c-26.667 0 -50.667 4 -72 12s-39.5 19.167 -54.5 33.5s-26.667 31.666 -35 51.999s-12.5 42.5 -12.5 66.5v465
c0 6.66699 3.33301 10 10 10h48c6.66699 0 10 -3.33301 10 -10v-465c0 -14.667 2.66699 -28.5 8 -41.5s12.833 -24.333 22.5 -34s20.834 -17.334 33.501 -23.001s26.667 -8.5 42 -8.5h31c14.667 0 28.5 2.83301 41.5 8.5s24.333 13.334 34 23.001s17.334 21 23.001 34
s8.5 26.833 8.5 41.5v465c0 6.66699 3.33301 10 10 10h48c6.66699 0 10 -3.33301 10 -10v-465v0z" />
    <glyph glyph-name="V" unicode="V" horiz-adv-x="448" 
d="M439 621c0 -2 -1.16797 -6.5 -3.50098 -13.5s-4.16602 -12.833 -5.49902 -17.5l-178 -583c-0.666992 -4.66699 -4 -7 -10 -7h-36c-6 -0 -9.33301 2.33301 -10 7l-180 589c-1.33301 5.33301 -2.83301 10.333 -4.5 15s-2.5 8 -2.5 10c0 5.33301 3.66699 8 11 8h51
c6 0 9.33301 -2.33301 10 -7l133 -469c1.33301 -3.33301 3 -9.83301 5 -19.5s3.66699 -16.5 5 -20.5h5c1.33301 4 3 10.833 5 20.5s3.66699 16.167 5 19.5l128 469c0.666992 4.66699 4 7 10 7h51c7.33301 0 11 -2.66699 11 -8z" />
    <glyph glyph-name="W" unicode="W" horiz-adv-x="674" 
d="M657 621c0 -2 -0.832031 -6.83105 -2.49902 -14.498l-4.5 -21.5l-126 -577c-1.33301 -5.33301 -4.66602 -8 -9.99902 -8h-36c-6 0 -9.33301 2.33301 -10 7l-118 403c-0.666992 1.33301 -1.5 4 -2.5 8s-2 8.33301 -3 13s-1.83301 9.16699 -2.5 13.5
s-1.33398 7.5 -2.00098 9.5h-4c-0.666992 -2 -1.5 -5.16699 -2.5 -9.5l-3 -13l-3 -12.5c-1 -4 -1.83301 -7 -2.5 -9l-120 -403c-0.666992 -4.66699 -4 -7 -10 -7h-36c-5.33301 0 -8.66602 2.66699 -9.99902 8l-128 590c-1.33301 3.33301 -2.33301 7.16602 -3 11.499
s-1 8.16602 -1 11.499c0 5.33301 3.33301 8 10 8h52c5.33301 0 8.66602 -2.66699 9.99902 -8l84 -428c0 -2 0.5 -5 1.5 -9s2 -8.33301 3 -13l3 -13.5c1 -4.33301 1.83301 -7.5 2.5 -9.5h5c0.666992 2 1.5 5.16699 2.5 9.5l3 13l3 12.5c1 4 1.83301 7 2.5 9l122 432
c0.666992 4.66699 4 7 10 7h14c6 0 9.33301 -2.33301 10 -7l119 -433c0.666992 -2 1.5 -5 2.5 -9s2 -8.33301 3 -13l3 -13.5c1 -4.33301 1.83301 -7.5 2.5 -9.5h5c1.33301 4 3 11.5 5 22.5s3.66699 18.833 5 23.5l85 429c1.33301 5.33301 4.66602 8 9.99902 8h52
c6.66699 0 10 -2.66699 10 -8z" />
    <glyph glyph-name="X" unicode="X" horiz-adv-x="457" 
d="M427 8c0 -5.33301 -3.66699 -8.00098 -11 -8.00098h-56c-4 0 -7 2 -9 6l-110 238c-2 5.33301 -5 8 -9 8s-7 -2.66699 -9 -8l-117 -238c-2.66699 -4 -5.66699 -6 -9 -6h-56c-7.33301 0 -11 2.66699 -11 8c0 2.66699 1.33301 6.83398 4 12.501s5.66699 11.167 9 16.5
l135 266c1.33301 2 2.5 4.16699 3.5 6.5s1.5 4.16602 1.5 5.49902s-0.5 3.33301 -1.5 6s-2.16699 5 -3.5 7l-137 270c-2 3.33301 -4.16699 7.5 -6.5 12.5s-3.5 8.5 -3.5 10.5c0 5.33301 3.66699 8 11 8h55c3.33301 0 6.33301 -2 9 -6l117 -239c2 -5.33301 5 -8 9 -8
s7 2.66699 9 8l110 239c2 4 5 6 9 6h55c7.33301 0 11 -2.66699 11 -8c0 -2 -1.33301 -5.5 -4 -10.5l-8 -15.5l-134 -266c-1.33301 -2.66699 -2.5 -5.16699 -3.5 -7.5s-1.5 -4.16602 -1.5 -5.49902s0.5 -3.5 1.5 -6.5s2.16699 -5.16699 3.5 -6.5l136 -271l7.5 -14.5
c2.33301 -4.33301 3.5 -7.5 3.5 -9.5z" />
    <glyph glyph-name="Y" unicode="Y" horiz-adv-x="448" 
d="M432 621c0 -2.66699 -6.66602 -16.333 -19.999 -41l-154 -289v-281c0 -6.66699 -3.33301 -10 -10 -10h-49c-6.66699 -0 -10 3.33301 -10 10v281l-155 293c-4.66699 8 -8.83398 15.667 -12.501 23s-5.5 12 -5.5 14c0 5.33301 3.66699 8 11 8h57c3.33301 0 6.33301 -2 9 -6
l123 -252c2 -5.33301 5 -8 9 -8s7 2.66699 9 8l121 252c2.66699 4 5.66699 6 9 6h57c7.33301 0 11 -2.66699 11 -8z" />
    <glyph glyph-name="Z" unicode="Z" horiz-adv-x="438" 
d="M394 10c0 -6.66699 -3.33301 -10 -10 -10h-338c-6.66699 0 -10 2.66699 -10 8c0 2.66699 1.33301 7 4 13l9 20l221 497c2 5.33301 4.16699 10.5 6.5 15.5s3.5 8.5 3.5 10.5c0 5.33301 -3.33301 8 -10 8h-215c-6.66699 0 -10 3.33301 -10 10v37
c0 6.66699 3.33301 10 10 10h315c6.66699 0 10 -2.66699 10 -8c0 -2 -0.833008 -5 -2.5 -9s-4.16699 -9.66699 -7.5 -17l-221 -493l-10.5 -23.5c-3 -7 -4.5 -11.5 -4.5 -13.5c0 -5.33301 3.33301 -8 10 -8h240c6.66699 0 10 -3.33301 10 -10v-37v0z" />
    <glyph glyph-name="bracketleft" unicode="[" horiz-adv-x="387" 
d="M291 -177c0 -6.66699 -3.33301 -10 -10 -10h-141c-6.66699 0 -10 3.33301 -10 10v900c0 6.66699 3.33301 10 10 10h141c6.66699 0 10 -3.33301 10 -10v-37c0 -6.66699 -3.33301 -10 -10 -10h-73c-6.66699 0 -10 -3.33301 -10 -10v-786c0 -6.66699 3.33301 -10 10 -10h73
c6.66699 0 10 -3.33301 10 -10v-37v0z" />
    <glyph glyph-name="backslash" unicode="\" horiz-adv-x="305" 
d="M311 8c0 -5.33301 -3.66699 -8 -11 -8h-34c-4 0 -7 2 -9 6l-242 565l-15 35c-3.33301 8 -5 13.333 -5 16c0 5.33301 3.33301 8 10 8h34c4 0 7 -2 9 -6l244 -571l13 -28.5c4 -8.33301 6 -13.833 6 -16.5z" />
    <glyph glyph-name="bracketright" unicode="]" horiz-adv-x="387" 
d="M258 -177c0 -6.66699 -3.33301 -10 -10 -10h-141c-6.66699 0 -10 3.33301 -10 10v37c0 6.66699 3.33301 10 10 10h74c6.66699 0 10 3.33301 10 10v786c0 6.66699 -3.33301 10 -10 10h-74c-6.66699 0 -10 3.33301 -10 10v37c0 6.66699 3.33301 10 10 10h141
c6.66699 0 10 -3.33301 10 -10v-900v0z" />
    <glyph glyph-name="asciicircum" unicode="^" horiz-adv-x="741" 
d="M689 596c0 -12 -4.50098 -22.501 -13.501 -31.501s-19.5 -13.5 -31.5 -13.5c-12.667 0 -23.167 4.33301 -31.5 13s-12.5 19.334 -12.5 32.001s4.16699 23.167 12.5 31.5s18.833 12.5 31.5 12.5s23.334 -4.16699 32.001 -12.5s13 -18.833 13 -31.5zM677.999 9.99902
c0 -6.66699 -3.33301 -10 -10 -10h-47c-6.66699 0 -10 3.33301 -10 10v422c0 6.66699 3.33301 10 10 10h47c6.66699 0 10 -3.33301 10 -10v-422zM510.999 347.999c0 -6.66699 -3.33203 -9.99902 -9.99902 -9.99902h-73c-6.66699 0 -10 -3.33301 -10 -10v-318
c0 -6.66699 -3.33301 -10 -10 -10h-48c-6.66699 -0 -10 3.33301 -10 10v318c0 6.66699 -3.33301 10 -10 10h-176c-6.66699 0 -10 -3.33301 -10 -10v-318c0 -6.66699 -3.33301 -10 -10 -10h-47c-6.66699 -0 -10 3.33301 -10 10v318c0 6.66699 -3.33301 10 -10 10h-27
c-6.66699 0 -10 3.33301 -10 10v37c0 6.66699 3.33301 10 10 10h27c6.66699 0 10 3.33301 10 10v61c0 24 4.5 46.667 13.5 68s21.333 39.833 37 55.5s34 28 55 37s43.5 13.5 67.5 13.5c26.667 0 48.5 -3.33301 65.5 -10s32.167 -16 45.5 -28c4 -3.33301 7.83301 -7 11.5 -11
s6.83398 -6 9.50098 -6c3.33301 0 6.83301 2 10.5 6s7.5 7.66699 11.5 11c6.66699 5.33301 14.5 10.166 23.5 14.499s17.667 8.16602 26 11.499s16.166 5.83301 23.499 7.5s12.666 2.5 15.999 2.5c5.33301 0 8 -3.33301 8 -10v-39c0 -5.33301 -2.66699 -8.66602 -8 -9.99902
c-26.667 -5.33301 -47.5 -17.5 -62.5 -36.5s-22.5 -41.167 -22.5 -66.5v-71c0 -6.66699 3.33301 -10 10 -10h73c6.66699 0 10 -3.33301 10 -10v-37zM358 516c0 3.33301 -1.5 7.16699 -4.5 11.5s-6.83301 9.16602 -11.5 14.499c-22.667 26.667 -50 40 -82 40
c-14.667 0 -28.5 -2.66699 -41.5 -8s-24.167 -12.833 -33.5 -22.5s-16.833 -21 -22.5 -34s-8.5 -26.833 -8.5 -41.5v-71c0 -6.66699 3.33301 -10 10 -10h176c6.66699 0 10 3.33301 10 10v61c0 16.667 1.33301 28.334 4 35.001s4 11.667 4 15z" />
    <glyph glyph-name="underscore" unicode="_" horiz-adv-x="200" 
d="M215 -215c0 -6.66699 -3.33301 -10 -10 -10h-210c-6.66699 0 -10 3.33301 -10 10v25c0 6.66699 3.33301 10 10 10h210c6.66699 0 10 -3.33301 10 -10v-25v0z" />
    <glyph glyph-name="grave" unicode="`" horiz-adv-x="500" 
d="M291 505c0 -5.33301 -3.66797 -8.00098 -11.001 -8.00098h-20c-4 0 -7.66699 1.66699 -11 5l-114 102c-2.66699 2.66699 -4 5.33398 -4 8.00098c0 6 3.66699 9 11 9h66c4.66699 0 8.33398 -2 11.001 -6l69 -102c2 -3.33301 3 -6 3 -8z" />
    <glyph glyph-name="a" unicode="a" horiz-adv-x="462" 
d="M392 10c0 -6.66699 -3.33398 -10.001 -10.001 -10.001h-37c-6.66699 0 -10 3.33301 -10 10v43c0 8 -3 12 -9 12c-2.66699 0 -5.66699 -1.66699 -9 -5c-15.333 -17.333 -31.666 -31.666 -48.999 -42.999s-32.666 -17 -45.999 -17h-40
c-17.333 -0 -33.666 2.83301 -48.999 8.5s-28.666 13.5 -39.999 23.5s-20.333 22.167 -27 36.5s-10 30.5 -10 48.5v6c0 18 3.33301 34.167 10 48.5s15.667 26.5 27 36.5s24.666 17.667 39.999 23s31.666 8 48.999 8h132c6.66699 0 10 3 10 9v41
c0 30 -10.333 54.833 -31 74.5s-46 29.5 -76 29.5c-16.667 0 -33.5 -4.66699 -50.5 -14s-31.5 -23 -43.5 -41c-2 -3.33301 -4.66699 -5 -8 -5c-2 0 -5.66699 1.33301 -11 4l-36 19c-4 2 -6 4.66699 -6 8c0 2 2.16699 6.16699 6.5 12.5l12.5 17.5
c13.333 16.667 30.666 30.167 51.999 40.5s49.333 15.5 84 15.5c53.333 0 95.833 -14.667 127.5 -44s47.5 -68.333 47.5 -117v-279zM323.999 181.999c0 6.66699 -3.33301 10.001 -10 10.001h-132c-16.667 0 -30.667 -5.66699 -42 -17s-17 -25.333 -17 -42v-16
c0 -16 5.83301 -30 17.5 -42s25.5 -18 41.5 -18h40c11.333 0 22.333 2.5 33 7.5s20.5 11.667 29.5 20s16.833 17.666 23.5 27.999s12 20.833 16 31.5v38z" />
    <glyph glyph-name="b" unicode="b" horiz-adv-x="474" 
d="M420 164c0 -24 -4.16992 -46 -12.5029 -66s-20.166 -37.333 -35.499 -52s-33.666 -26 -54.999 -34s-45.333 -12 -72 -12c-12.667 0 -28 4 -46 12s-35.667 23 -53 45c-2.66699 3.33301 -5.66699 5 -9 5c-6 0 -9 -3.66699 -9 -11v-41c0 -6.66699 -3.33301 -10 -10 -10h-37
c-6.66699 -0 -10 3.33301 -10 10v609c0 6.66699 3.33301 10 10 10h48c6.66699 0 10 -3.33301 10 -10v-226c0 -7.33301 2.66699 -11 8 -11c2.66699 0 5.66699 1.66699 9 5c17.333 21.333 35 35.833 53 43.5s33.333 11.5 46 11.5c22.667 0 44.167 -4 64.5 -12
s37.833 -19.167 52.5 -33.5s26.334 -31.5 35.001 -51.5s13 -42 13 -66v-115zM351.997 279c0 14.667 -2.83594 28.3311 -8.50293 40.998s-13.334 23.834 -23.001 33.501s-21 17.334 -34 23.001s-26.833 8.5 -41.5 8.5c-30 0 -55.167 -10.167 -75.5 -30.5
s-30.5 -45.5 -30.5 -75.5v-115c0 -14.667 2.83301 -28.5 8.5 -41.5s13.334 -24.333 23.001 -34s20.834 -17.334 33.501 -23.001s26.334 -8.5 41.001 -8.5s28.5 2.83301 41.5 8.5s24.333 13.334 34 23.001s17.334 21 23.001 34s8.5 26.833 8.5 41.5v115z" />
    <glyph glyph-name="c" unicode="c" horiz-adv-x="425" 
d="M385 77c0 -2 -2.00098 -5.99805 -6.00098 -11.998s-9.33301 -13 -16 -21c-13.333 -16 -30.5 -29 -51.5 -39s-48.5 -15 -82.5 -15c-53.333 0 -95.5 15.167 -126.5 45.5s-46.5 69.833 -46.5 118.5v135c0 48.667 15.5 88 46.5 118s73.167 45 126.5 45
c33.333 0 60.666 -4.83301 81.999 -14.5s38.666 -22.167 51.999 -37.5c6 -7.33301 11.167 -14 15.5 -20s6.5 -10.333 6.5 -13c0 -4 -2.33301 -7 -7 -9l-36 -18c-5.33301 -2.66699 -9 -4 -11 -4c-2.66699 0 -5 1.33301 -7 4c-12 17.333 -26.5 30.833 -43.5 40.5
s-34.167 14.5 -51.5 14.5c-30 0 -55.167 -10.167 -75.5 -30.5s-30.5 -45.5 -30.5 -75.5v-135c0 -14.667 2.83301 -28.5 8.5 -41.5s13.334 -24.333 23.001 -34s20.834 -17.334 33.501 -23.001s26.334 -8.5 41.001 -8.5c17.333 0 34.5 5.16699 51.5 15.5
s31.5 24.166 43.5 41.499c2 2.66699 4.33301 4 7 4c2 0 4.16699 -0.5 6.5 -1.5s4.5 -2.16699 6.5 -3.5l34 -17c4.66699 -2.66699 7 -5.66699 7 -9z" />
    <glyph glyph-name="d" unicode="d" horiz-adv-x="474" 
d="M404 10c0 -6.66699 -3.33398 -9.99902 -10.001 -9.99902h-37c-6.66699 0 -10 3.33301 -10 10v43c0 7.33301 -3 11 -9 11c-3.33301 0 -6.33301 -1.66699 -9 -5c-18 -23.333 -36 -39 -54 -47s-33.333 -12 -46 -12c-26.667 0 -50.667 4 -72 12s-39.5 19.333 -54.5 34
s-26.5 32 -34.5 52s-12 42 -12 66v115c0 24 4.16699 46 12.5 66s19.833 37.167 34.5 51.5s31.834 25.5 51.501 33.5s41.167 12 64.5 12c12.667 0 28 -3.83301 46 -11.5s35.667 -22.834 53 -45.501c2.66699 -3.33301 5.66699 -5 9 -5c6 0 9 3.66699 9 11v228
c0 6.66699 3.33301 10 10 10h48c6.66699 0 10 -3.33301 10 -10v-609zM335.999 279.001c0 14.667 -2.83594 28.3311 -8.50293 40.998s-13.334 23.834 -23.001 33.501s-21 17.334 -34 23.001s-26.833 8.5 -41.5 8.5c-30 0 -55.167 -10.167 -75.5 -30.5
s-30.5 -45.5 -30.5 -75.5v-115c0 -14.667 2.83301 -28.5 8.5 -41.5s13.334 -24.333 23.001 -34s20.834 -17.334 33.501 -23.001s26.334 -8.5 41.001 -8.5s28.5 2.83301 41.5 8.5s24.333 13.334 34 23.001s17.334 21 23.001 34s8.5 26.833 8.5 41.5v115z" />
    <glyph glyph-name="e" unicode="e" horiz-adv-x="458" 
d="M404 228c0 -6.66699 -3.33496 -9.99902 -10.002 -9.99902h-261c-6.66699 0 -10 -3.33301 -10 -10v-54c0 -14.667 2.83301 -28.5 8.5 -41.5s13.334 -24.333 23.001 -34s20.834 -17.334 33.501 -23.001s26.334 -8.5 41.001 -8.5c17.333 0 34.5 5.16699 51.5 15.5
s31.5 24.166 43.5 41.499c2 2.66699 4.33301 4 7 4c1.33301 0 2.83301 -0.333008 4.5 -1s3.83398 -1.66699 6.50098 -3l36 -18c4.66699 -2.66699 7 -5.66699 7 -9c0 -2 -2.16699 -6.16699 -6.5 -12.5s-9.5 -13.166 -15.5 -20.499c-13.333 -16 -30.5 -29 -51.5 -39
s-48.5 -15 -82.5 -15c-53.333 0 -95.5 15.167 -126.5 45.5s-46.5 69.833 -46.5 118.5v135c0 19.333 4 38.666 12 57.999s19.5 36.833 34.5 52.5s33.167 28.334 54.5 38.001s45.333 14.5 72 14.5s50.667 -4.83301 72 -14.5s39.666 -22.334 54.999 -38.001
s27.166 -33.167 35.499 -52.5s12.5 -38.666 12.5 -57.999v-61zM335.998 289.001c0 14.667 -2.83203 28.3311 -8.49902 40.998s-13.334 23.834 -23.001 33.501s-21 17.334 -34 23.001s-26.833 8.5 -41.5 8.5c-30 0 -55.167 -10.167 -75.5 -30.5s-30.5 -45.5 -30.5 -75.5v-14
c0 -6.66699 3.33301 -10 10 -10h193c6.66699 0 10 3.33301 10 10v14z" />
    <glyph glyph-name="f" unicode="f" horiz-adv-x="276" 
d="M287 588c-1.33301 -4.66699 -4.33301 -7 -9 -7c-2 0 -4.66699 0.166992 -8 0.5s-6.66602 0.5 -9.99902 0.5c-14.667 0 -28.5 -2.66699 -41.5 -8s-24.167 -12.833 -33.5 -22.5s-16.833 -21 -22.5 -34s-8.5 -26.833 -8.5 -41.5v-71c0 -6.66699 3.33301 -10 10 -10h74
c6.66699 0 10 -3.33301 10 -10v-37c0 -6.66699 -3.33301 -10 -10 -10h-74c-6.66699 0 -10 -3.33301 -10 -10v-318c0 -6.66699 -3.33301 -10 -10 -10h-47c-6.66699 -0 -10 3.33301 -10 10v318c0 6.66699 -3.33301 10 -10 10h-27c-6.66699 0 -10 3.33301 -10 10v37
c0 6.66699 3.33301 10 10 10h27c6.66699 0 10 3.33301 10 10v61c0 24 4.5 46.667 13.5 68s21.333 39.833 37 55.5s34 28 55 37s43.5 13.5 67.5 13.5c5.33301 0 10.666 -0.166992 15.999 -0.5s10.333 -0.833008 15 -1.5c6 -0.666992 9 -4 9 -10z" />
    <glyph glyph-name="g" unicode="g" horiz-adv-x="458" 
d="M451 -109c0 -18 -3.33398 -34.168 -10.001 -48.501s-15.834 -26.5 -27.501 -36.5s-25.334 -17.667 -41.001 -23s-32.167 -8 -49.5 -8h-141c-17.333 0 -33.666 2.66699 -48.999 8s-28.666 13 -39.999 23s-20.333 22.167 -27 36.5s-10 30.5 -10 48.5v6
c0 18.667 5.5 35.5 16.5 50.5s26.167 29.167 45.5 42.5c3.33301 1.33301 5 4 5 8c0 2 -0.833008 4.5 -2.5 7.5s-3.16699 5.83301 -4.5 8.5c-8.66699 15.333 -13 30.333 -13 45c0 16.667 5 33.667 15 51c1.33301 2.66699 3.33301 5.83398 6 9.50098s4 6.5 4 8.5
s-1.5 4.5 -4.5 7.5s-6.16699 5.83301 -9.5 8.5c-20 17.333 -34.667 36.333 -44 57s-14 43.334 -14 68.001v10c0 24 4.5 46 13.5 66s21.167 37.167 36.5 51.5s33.666 25.5 54.999 33.5s44 12 68 12c12.667 0 28 -4 46 -12s36 -23.333 54 -46
c2.66699 -3.33301 5.66699 -5 9 -5c6 0 9 3.66699 9 11v42c0 6.66699 3.33301 10 10 10h37c6.66699 0 10 -3.33301 10 -10v-163c0 -24 -4.5 -46 -13.5 -66s-21.5 -37.333 -37.5 -52s-34.667 -26 -56 -34s-44 -12 -68 -12c-4.66699 0 -10 0.166992 -16 0.5
s-11.333 0.833008 -16 1.5c-9.33301 -4 -17.833 -10.333 -25.5 -19s-11.5 -18.334 -11.5 -29.001s3.33301 -20.667 10 -30s15.334 -15.333 26.001 -18h127c18 0 34.667 -2.66699 50 -8s28.833 -12.833 40.5 -22.5s20.834 -21.5 27.501 -35.5s10 -30 10 -48v-6z
M335.999 278.999c0 14.667 -2.83594 28.3311 -8.50293 40.998s-13.334 23.834 -23.001 33.501s-21 17.334 -34 23.001s-26.833 8.5 -41.5 8.5c-30 0 -55.167 -10.167 -75.5 -30.5s-30.5 -45.5 -30.5 -75.5v-10c0 -14.667 2.83301 -28.5 8.5 -41.5s13.334 -24.333 23.001 -34
s20.834 -17.334 33.501 -23.001s26.334 -8.5 41.001 -8.5s28.5 2.83301 41.5 8.5s24.333 13.334 34 23.001s17.334 21 23.001 34s8.5 26.833 8.5 41.5v10zM382.996 -103.004c0 16 -5.99902 29.333 -17.999 40s-26 16 -42 16h-141c-16.667 0 -30.667 -5.16699 -42 -15.5
s-17 -23.833 -17 -40.5v-6c0 -17.333 5.5 -31.5 16.5 -42.5s25.167 -16.5 42.5 -16.5h141c17.333 0 31.666 5.5 42.999 16.5s17 25.167 17 42.5v6z" />
    <glyph glyph-name="h" unicode="h" horiz-adv-x="484" 
d="M420 10c0 -6.66699 -3.33203 -10.0029 -9.99902 -10.0029h-48c-6.66699 0 -10 3.33301 -10 10v269c0 14.667 -2.83301 28.334 -8.5 41.001s-13.334 23.834 -23.001 33.501s-21 17.334 -34 23.001s-26.833 8.5 -41.5 8.5c-30 0 -55.167 -10.167 -75.5 -30.5
s-30.5 -45.5 -30.5 -75.5v-269c0 -6.66699 -3.33301 -10 -10 -10h-48c-6.66699 -0 -10 3.33301 -10 10v609c0 6.66699 3.33301 10 10 10h48c6.66699 0 10 -3.33301 10 -10v-226c0 -7.33301 2.66699 -11 8 -11c2.66699 0 5.66699 1.66699 9 5
c17.333 21.333 35 35.833 53 43.5s33.333 11.5 46 11.5c23.333 0 45 -4 65 -12s37.5 -19.167 52.5 -33.5s26.667 -31.5 35 -51.5s12.5 -42 12.5 -66v-269v0z" />
    <glyph glyph-name="i" unicode="i" horiz-adv-x="209" 
d="M149 596c0 -12 -4.50098 -22.501 -13.501 -31.501s-19.5 -13.5 -31.5 -13.5c-12.667 0 -23 4.33301 -31 13s-12 19.334 -12 32.001c0 11.333 4.33301 21.5 13 30.5s18.667 13.5 30 13.5c12.667 0 23.334 -4.16699 32.001 -12.5s13 -18.833 13 -31.5zM138.999 9.99902
c0 -6.66699 -3.33301 -10 -10 -10h-48c-6.66699 0 -10 3.33301 -10 10v422c0 6.66699 3.33301 10 10 10h48c6.66699 0 10 -3.33301 10 -10v-422z" />
    <glyph glyph-name="j" unicode="j" horiz-adv-x="209" 
d="M149 596c0 -12 -4.50098 -22.501 -13.501 -31.501s-19.5 -13.5 -31.5 -13.5c-12.667 0 -23 4.33301 -31 13s-12 19.334 -12 32.001c0 11.333 4.33301 21.5 13 30.5s18.667 13.5 30 13.5c12.667 0 23.334 -4.16699 32.001 -12.5s13 -18.833 13 -31.5zM138.999 -62.001
c0 -36 -9.66699 -68.166 -29 -96.499s-45.333 -49.5 -78 -63.5c-6.66699 -3.33301 -15 -6.33301 -25 -9s-16.667 -4 -20 -4c-6 0 -9 3.33301 -9 10v38c0 5.33301 2.66699 8.66602 8 9.99902c26.667 6 47.5 18.5 62.5 37.5s22.5 41.167 22.5 66.5v505
c0 6.66699 3.33301 10 10 10h48c6.66699 0 10 -3.33301 10 -10v-494z" />
    <glyph glyph-name="k" unicode="k" horiz-adv-x="447" 
d="M425 8c0 -5.33301 -3.66602 -8 -10.999 -8h-57c-4 0 -7 1.66699 -9 5l-138 228c-2 4 -4.66699 6 -8 6c-2.66699 0 -5.33398 -1.33301 -8.00098 -4l-55 -56v-169c0 -6.66699 -3.33301 -10 -10 -10h-48c-6.66699 -0 -10 3.33301 -10 10v609c0 6.66699 3.33301 10 10 10h48
c6.66699 0 10 -3.33301 10 -10v-346c0 -7.33301 3 -11 9 -11c2.66699 0 5.33398 1.33301 8.00098 4l155 171c2 3.33301 5.33301 5 10 5h50c7.33301 0 11 -2.66699 11 -8c0 -3.33301 -1.33301 -6.33301 -4 -9l-117 -118c-2.66699 -3.33301 -4.83398 -5.83301 -6.50098 -7.5
s-2.5 -3.5 -2.5 -5.5c0 -3.33301 2.33301 -8.33301 7 -15l156 -251c2.66699 -4 5 -7.66699 7 -11s3 -6.33301 3 -9z" />
    <glyph glyph-name="l" unicode="l" horiz-adv-x="209" 
d="M139 10c0 -6.66699 -3.33301 -10 -10 -10h-48c-6.66699 -0 -10 3.33301 -10 10v609c0 6.66699 3.33301 10 10 10h48c6.66699 0 10 -3.33301 10 -10v-609v0z" />
    <glyph glyph-name="m" unicode="m" horiz-adv-x="729" 
d="M659 10c0 -6.66699 -3.33594 -10 -10.0029 -10h-48c-6.66699 -0 -10 3.33301 -10 10v269c0 14.667 -3 28.5 -9 41.5s-13.667 24.167 -23 33.5s-19.666 16.833 -30.999 22.5s-22.666 8.5 -33.999 8.5c-10.667 0 -21.5 -2.83301 -32.5 -8.5s-21.167 -13.167 -30.5 -22.5
s-17 -20.5 -23 -33.5s-9 -26.833 -9 -41.5v-269c0 -6.66699 -3.33301 -10 -10 -10h-48c-6.66699 -0 -10 3.33301 -10 10v269c0 14.667 -3 28.5 -9 41.5s-13.667 24.167 -23 33.5s-19.666 16.833 -30.999 22.5s-22.666 8.5 -33.999 8.5c-10.667 0 -21.667 -2.83301 -33 -8.5
s-21.5 -13.167 -30.5 -22.5s-16.5 -20.5 -22.5 -33.5s-9 -26.833 -9 -41.5v-269c0 -6.66699 -3.33301 -10 -10 -10h-48c-6.66699 -0 -10 3.33301 -10 10v422c0 6.66699 3.33301 10 10 10h37c6.66699 0 10 -3.33301 10 -10v-40c0 -8 2.66699 -12 8 -12
c2.66699 0 5.66699 1.66699 9 5c18.667 22 37.5 37 56.5 45s33.5 12 43.5 12c18 0 37.167 -4.16699 57.5 -12.5s38.5 -23.833 54.5 -46.5c2 -3.33301 4.66699 -5 8 -5c2 0 4.66699 1.66699 8 5c17.333 22.667 36.5 38.167 57.5 46.5s42.167 12.5 63.5 12.5
c23.333 0 45.166 -4 65.499 -12s37.833 -19.167 52.5 -33.5s26.167 -31.5 34.5 -51.5s12.5 -42 12.5 -66v-269v0z" />
    <glyph glyph-name="n" unicode="n" horiz-adv-x="490" 
d="M420 10c0 -6.66699 -3.33008 -10.0029 -9.99707 -10.0029h-48c-6.66699 0 -10 3.33301 -10 10v269c0 14.667 -2.83301 28.334 -8.5 41.001s-13.334 23.834 -23.001 33.501s-21 17.334 -34 23.001s-26.833 8.5 -41.5 8.5c-30 0 -55.167 -10.167 -75.5 -30.5
s-30.5 -45.5 -30.5 -75.5v-269c0 -6.66699 -3.33301 -10 -10 -10h-48c-6.66699 -0 -10 3.33301 -10 10v422c0 6.66699 3.33301 10 10 10h37c6.66699 0 10 -3.33301 10 -10v-40c0 -7.33301 3 -11 9 -11c3.33301 0 6.33301 1.66699 9 5c17.333 22 35 36.833 53 44.5
s33.333 11.5 46 11.5c26.667 0 50.667 -4 72 -12s39.666 -19.167 54.999 -33.5s27.166 -31.5 35.499 -51.5s12.5 -42 12.5 -66v-269v0z" />
    <glyph glyph-name="o" unicode="o" horiz-adv-x="458" 
d="M404 154c0 -24 -4.16699 -46.168 -12.5 -66.501s-20.166 -37.666 -35.499 -51.999s-33.666 -25.5 -54.999 -33.5s-45.333 -12 -72 -12c-53.333 0 -95.5 15.167 -126.5 45.5s-46.5 69.833 -46.5 118.5v135c0 48.667 15.5 88 46.5 118s73.167 45 126.5 45
c26.667 0 50.667 -4 72 -12s39.666 -19.167 54.999 -33.5s27.166 -31.5 35.499 -51.5s12.5 -42 12.5 -66v-135zM336 288.999c0 14.667 -2.83594 28.3311 -8.50293 40.998s-13.334 23.834 -23.001 33.501s-21 17.334 -34 23.001s-26.833 8.5 -41.5 8.5
c-30 0 -55.167 -10.167 -75.5 -30.5s-30.5 -45.5 -30.5 -75.5v-135c0 -14.667 2.83301 -28.5 8.5 -41.5s13.334 -24.333 23.001 -34s20.834 -17.334 33.501 -23.001s26.334 -8.5 41.001 -8.5s28.5 2.83301 41.5 8.5s24.333 13.334 34 23.001s17.334 21 23.001 34
s8.5 26.833 8.5 41.5v135z" />
    <glyph glyph-name="p" unicode="p" horiz-adv-x="474" 
d="M420 164c0 -24 -4.33008 -45.999 -12.9971 -65.999s-20.334 -37.333 -35.001 -52s-32.167 -26 -52.5 -34s-41.833 -12 -64.5 -12c-12.667 0 -28 4.16699 -46 12.5s-35.667 23.166 -53 44.499c-3.33301 3.33301 -6.33301 5 -9 5c-5.33301 0 -8 -4 -8 -12v-265
c0 -6.66699 -3.33301 -10 -10 -10h-48c-6.66699 0 -10 3.33301 -10 10v647c0 6.66699 3.33301 10 10 10h37c6.66699 0 10 -3.33301 10 -10v-40c0 -7.33301 3 -11 9 -11c3.33301 0 6.33301 1.66699 9 5c17.333 22 35 36.833 53 44.5s33.333 11.5 46 11.5
c26.667 0 50.667 -4 72 -12s39.666 -19.167 54.999 -33.5s27.166 -31.5 35.499 -51.5s12.5 -42 12.5 -66v-115zM352.003 279.001c0 14.667 -2.83594 28.3311 -8.50293 40.998s-13.334 23.834 -23.001 33.501s-21 17.334 -34 23.001s-26.833 8.5 -41.5 8.5
c-30 0 -55.167 -10.167 -75.5 -30.5s-30.5 -45.5 -30.5 -75.5v-115c0 -14.667 2.83301 -28.5 8.5 -41.5s13.334 -24.333 23.001 -34s20.834 -17.334 33.501 -23.001s26.334 -8.5 41.001 -8.5s28.5 2.83301 41.5 8.5s24.333 13.334 34 23.001s17.334 21 23.001 34
s8.5 26.833 8.5 41.5v115z" />
    <glyph glyph-name="q" unicode="q" horiz-adv-x="474" 
d="M404 -215c0 -6.66699 -3.33203 -10 -9.99902 -10h-48c-6.66699 0 -10 3.33301 -10 10v267c0 7.33301 -3 11 -9 11c-3.33301 0 -6.33301 -1.66699 -9 -5c-17.333 -22.667 -35 -38 -53 -46s-33.333 -12 -46 -12c-23.333 0 -44.833 4 -64.5 12s-36.834 19.333 -51.501 34
s-26.167 32 -34.5 52s-12.5 42 -12.5 66v115c0 24 4 46 12 66s19.5 37.167 34.5 51.5s33.167 25.5 54.5 33.5s45.333 12 72 12c12.667 0 28 -4 46 -12s36 -23.333 54 -46c2.66699 -3.33301 5.66699 -5 9 -5c6 0 9 3.66699 9 11v42c0 6.66699 3.33301 10 10 10h37
c6.66699 0 10 -3.33301 10 -10v-647zM336.001 279c0 14.667 -2.83594 28.3311 -8.50293 40.998s-13.334 23.834 -23.001 33.501s-21 17.334 -34 23.001s-26.833 8.5 -41.5 8.5c-30 0 -55.167 -10.167 -75.5 -30.5s-30.5 -45.5 -30.5 -75.5v-115
c0 -14.667 2.83301 -28.5 8.5 -41.5s13.334 -24.333 23.001 -34s20.834 -17.334 33.501 -23.001s26.334 -8.5 41.001 -8.5s28.5 2.83301 41.5 8.5s24.333 13.334 34 23.001s17.334 21 23.001 34s8.5 26.833 8.5 41.5v115z" />
    <glyph glyph-name="r" unicode="r" horiz-adv-x="298" 
d="M272 383c0 -6.66699 -3.99902 -10 -11.999 -10h-15c-15.333 0 -29.333 -2.66699 -42 -8s-23.834 -12.666 -33.501 -21.999s-17.167 -20.333 -22.5 -33s-8 -26.334 -8 -41.001v-259c0 -6.66699 -3.33301 -10 -10 -10h-48c-6.66699 -0 -10 3.33301 -10 10v422
c0 6.66699 3.33301 10 10 10h37c6.66699 0 10 -3.33301 10 -10v-50c0 -7.33301 3 -11 9 -11c3.33301 0 6.33301 1.66699 9 5c17.333 22 35 38.5 53 49.5s33.333 16.5 46 16.5h17c6.66699 0 10 -3.33301 10 -10v-49v0z" />
    <glyph glyph-name="s" unicode="s" horiz-adv-x="438" 
d="M390 134c0 -19.333 -3.33203 -37.8301 -9.99902 -55.4971s-16.834 -33 -30.501 -46s-30.334 -23.333 -50.001 -31s-42.5 -11.5 -68.5 -11.5h-31c-34 0 -61.5 5.33301 -82.5 16s-38.167 23.667 -51.5 39c-5.33301 6 -10 12.167 -14 18.5s-6 10.5 -6 12.5
c0 3.33301 2.33301 6 7 8l35 17c2.66699 2 5.66699 3 9 3s6 -1.66699 8 -5c10 -16.667 23.5 -30.167 40.5 -40.5s35.167 -15.5 54.5 -15.5h31c31.333 0 54.5 8 69.5 24s22.5 33.667 22.5 53c0 12 -4 22.167 -12 30.5s-18.5 15.5 -31.5 21.5s-28.167 11 -45.5 15
s-35.333 7.66699 -54 11c-16 3.33301 -32 7.16602 -48 11.499s-30.333 10.666 -43 18.999s-23 19.166 -31 32.499s-12 30.666 -12 51.999c0 22 4 41.667 12 59s19 32 33 44s30.333 21 49 27s38.667 9 60 9h31c32.667 0 59.334 -5 80.001 -15s37.667 -22 51 -36
c6 -6.66699 11.167 -13.167 15.5 -19.5s6.5 -10.5 6.5 -12.5c0 -4 -2.33301 -7 -7 -9l-30 -15l-7 -3.5c-2 -1 -3.66699 -1.5 -5 -1.5c-3.33301 0 -6 1.66699 -8 5c-11.333 16 -25.5 29 -42.5 39s-34.833 15 -53.5 15h-31c-32.667 0 -55.667 -6.5 -69 -19.5
s-20 -29.5 -20 -49.5c0 -13.333 4 -24.333 12 -33s18.5 -16 31.5 -22s28 -10.833 45 -14.5l52.5 -11.5c16 -3.33301 32.333 -7.33301 49 -12s31.5 -11.167 44.5 -19.5s23.667 -19.166 32 -32.499s12.5 -30.333 12.5 -51z" />
    <glyph glyph-name="t" unicode="t" horiz-adv-x="308" 
d="M253 1c0 -6.66699 -2.99902 -10.002 -8.99902 -10.002c-2.66699 0 -8.33398 0.833008 -17.001 2.5s-16.667 3.83398 -24 6.50098c-36 11.333 -63.5 30.333 -82.5 57s-28.5 59 -28.5 97v221c0 6.66699 -3.33301 10 -10 10h-58c-6.66699 0 -10 3.33301 -10 10v19l109 115
c4.66699 4.66699 8.66699 7 12 7h15c6.66699 0 10 -3.33301 10 -10v-74c0 -6.66699 3.33301 -10 10 -10h73c6.66699 0 10 -3.33301 10 -10v-37c0 -6.66699 -3.33301 -10 -10 -10h-73c-6.66699 0 -10 -3.33301 -10 -10v-221c0 -25.333 7.5 -47.5 22.5 -66.5
s35.833 -31.5 62.5 -37.5c5.33301 -1.33301 8 -4.66602 8 -9.99902v-39v0z" />
    <glyph glyph-name="u" unicode="u" horiz-adv-x="479" 
d="M409 10c0 -6.66699 -3.33691 -9.99902 -10.0039 -9.99902h-37c-6.66699 0 -10 3.33301 -10 10v43c0 7.33301 -3 11 -9 11c-3.33301 0 -6.33301 -1.66699 -9 -5c-18 -23.333 -35.833 -39 -53.5 -47s-33.167 -12 -46.5 -12c-26.667 0 -50.667 4 -72 12
s-39.5 19.333 -54.5 34s-26.5 32 -34.5 52s-12 42 -12 66v268c0 6.66699 3.33301 10 10 10h47c6.66699 0 10 -3.33301 10 -10v-268c0 -14.667 2.83301 -28.5 8.5 -41.5s13.334 -24.333 23.001 -34s20.834 -17.334 33.501 -23.001s26.334 -8.5 41.001 -8.5
s28.667 2.83301 42 8.5s24.833 13.167 34.5 22.5s17.334 20.5 23.001 33.5s8.5 27.167 8.5 42.5v268c0 6.66699 3.33301 10 10 10h47c6.66699 0 10 -3.33301 10 -10v-422v0z" />
    <glyph glyph-name="v" unicode="v" horiz-adv-x="427" 
d="M415 434c0 -2 -1.00195 -5.5 -3.00195 -10.5l-6 -15.5l-163 -402c-2 -4 -5 -6 -9 -6h-40c-4 0 -7 2 -9 6l-163 402l-6.5 16.5c-1.66699 4.33301 -2.5 7.5 -2.5 9.5c0 5.33301 3.33301 8 10 8h49c4 0 7 -2 9 -6l120 -303c1.33301 -2.66699 3.33301 -8.66699 6 -18
s4.33398 -16.333 5.00098 -21h4c0.666992 4.66699 2.33398 11.667 5.00098 21s4.66699 15.333 6 18l119 303c2 4 5 6 9 6h50c6.66699 0 10 -2.66699 10 -8z" />
    <glyph glyph-name="w" unicode="w" horiz-adv-x="611" 
d="M592 434c0 -2 -0.834961 -5.66602 -2.50195 -10.999l-5.5 -17l-122 -399c-0.666992 -4.66699 -4 -7 -10 -7h-36c-6 0 -9.33301 2.33301 -10 7l-88 298c-2.66699 8 -4.66699 14.667 -6 20s-2.66602 11.666 -3.99902 18.999h-4
c-1.33301 -7.33301 -2.66602 -13.666 -3.99902 -18.999s-3.33301 -12 -6 -20l-89 -298c-0.666992 -4.66699 -4 -7 -10 -7h-36c-6 0 -9.33301 2.33301 -10 7l-123 402l-4.5 14c-1.66699 5.33301 -2.5 9 -2.5 11c0 5.33301 3.66699 8 11 8h52c6 0 9.33301 -2.33301 10 -7
l73 -283c2 -8 3.83301 -14.667 5.5 -20s3.16699 -11.666 4.5 -18.999h4c1.33301 7.33301 2.83301 13.666 4.5 18.999s3.5 12 5.5 20l79 283c0.666992 4.66699 4 7 10 7h56c6 0 9.33301 -2.33301 10 -7l78 -283l5.5 -19.5c1.66699 -5.66699 3.16699 -12.167 4.5 -19.5h4
c1.33301 7.33301 2.83301 13.666 4.5 18.999s3.5 12 5.5 20l73 283c0.666992 4.66699 4 7 10 7h52c7.33301 0 11 -2.66699 11 -8z" />
    <glyph glyph-name="x" unicode="x" horiz-adv-x="404" 
d="M384 8c0 -5.33301 -3.33301 -7.99902 -10 -7.99902h-55c-4 0 -7 1.66699 -9 5l-100 162c-2 3.33301 -4.66699 5 -8 5c-4 0 -6.66699 -1.66699 -8 -5l-101 -162c-2 -3.33301 -4.66699 -5 -8 -5h-56c-6.66699 0 -10 2.66699 -10 8c0 2.66699 1.33301 6 4 10s5 7.66699 7 11
l119 183c3.33301 4.66699 5 8.66699 5 12c0 2 -0.5 4 -1.5 6s-2.16699 3.66699 -3.5 5l-118 180c-2.66699 4 -5 7.66699 -7 11s-3 6 -3 8c0 5.33301 3.33301 8 10 8h54c3.33301 0 6 -1.66699 8 -5l101 -161c1.33301 -3.33301 4.33301 -5 9 -5c3.33301 0 6 1.66699 8 5
l100 161c2 3.33301 4.66699 5 8 5h54c6.66699 0 10 -2.66699 10 -8c0 -3.33301 -5 -12.333 -15 -27l-113 -173c-1.33301 -1.33301 -2.5 -3 -3.5 -5s-1.5 -4 -1.5 -6s0.5 -4 1.5 -6s2.16699 -3.66699 3.5 -5l118 -183l7.5 -11.5c2.33301 -3.66699 3.5 -6.83398 3.5 -9.50098z
" />
    <glyph glyph-name="y" unicode="y" horiz-adv-x="479" 
d="M409 -60c0 -25.333 -3.66992 -48.665 -11.0029 -69.998s-18.333 -39.833 -33 -55.5s-33 -27.834 -55 -36.501s-47.333 -13 -76 -13c-32 0 -58.667 5 -80 15s-38.666 22.667 -51.999 38c-4.66699 5.33301 -9.66699 11.833 -15 19.5s-8 12.5 -8 14.5
c0 3.33301 2.33301 6.33301 7 9l36 18c5.33301 2.66699 8.66602 4 9.99902 4c3.33301 0 6 -1.66699 8 -5c11.333 -17.333 25.5 -31 42.5 -41s34.167 -15 51.5 -15c14.667 0 28.667 2.83301 42 8.5s24.833 13.167 34.5 22.5s17.334 20.5 23.001 33.5s8.5 27.167 8.5 42.5v119
c0 7.33301 -3 11 -9 11c-3.33301 0 -6.33301 -1.66699 -9 -5c-14.667 -19.333 -30.334 -33.166 -47.001 -41.499s-31 -12.5 -43 -12.5c-26.667 0 -50.667 4 -72 12s-39.5 19.333 -54.5 34s-26.5 32 -34.5 52s-12 42 -12 66v268c0 6.66699 3.33301 10 10 10h47
c6.66699 0 10 -3.33301 10 -10v-268c0 -14.667 2.83301 -28.5 8.5 -41.5s13.334 -24.333 23.001 -34s20.834 -17.334 33.501 -23.001s26.334 -8.5 41.001 -8.5c18.667 0 34.667 3.5 48 10.5s24.5 15.833 33.5 26.5s15.667 22.167 20 34.5s6.5 24.166 6.5 35.499v268
c0 6.66699 3.33301 10 10 10h47c6.66699 0 10 -3.33301 10 -10v-492v0z" />
    <glyph glyph-name="z" unicode="z" horiz-adv-x="427" 
d="M387 10c0 -6.66699 -3.33203 -10.001 -9.99902 -10.001h-322c-7.33301 0 -11 2.66699 -11 8c0 2 1 4.83301 3 8.5l6 10.5l198 342c1.33301 2 2 4.33301 2 7c0 5.33301 -3.66699 8 -11 8h-192c-6.66699 0 -10 3.33301 -10 10v37c0 6.66699 3.33301 10 10 10h303
c7.33301 0 11 -2.66699 11 -8c0 -1.33301 -0.833008 -3.66602 -2.5 -6.99902s-3.83398 -7.33301 -6.50098 -12l-200 -342c-1.33301 -2 -2 -4.33301 -2 -7c0 -5.33301 3.66699 -8 11 -8h213c6.66699 0 10 -3.33301 10 -10v-37v0z" />
    <glyph glyph-name="braceleft" unicode="{" horiz-adv-x="440" 
d="M344 -176c0 -6.66699 -3.00098 -9.99512 -9.00098 -9.99512s-15.5 1.83301 -28.5 5.5s-25.167 8.5 -36.5 14.5c-28 14.667 -49.5 35.167 -64.5 61.5s-22.5 57.166 -22.5 92.499v150c0 25.333 -7.5 47.333 -22.5 66s-35.833 31 -62.5 37
c-5.33301 1.33301 -8 4.66602 -8 9.99902v44c0 5.33301 2.66699 8.66602 8 9.99902c26.667 6 47.5 18.5 62.5 37.5s22.5 41.167 22.5 66.5v151c0 37.333 8.5 69.666 25.5 96.999s41.167 47.666 72.5 60.999c8 3.33301 17.333 6.5 28 9.5s19.334 4.5 26.001 4.5
c6 0 9 -3.33301 9 -10v-39c0 -5.33301 -2.66699 -8.66602 -8 -9.99902c-26.667 -5.33301 -47.5 -17.5 -62.5 -36.5s-22.5 -41.167 -22.5 -66.5v-172c0 -10 -2 -21 -6 -33s-9.66699 -23.833 -17 -35.5s-16 -22.167 -26 -31.5s-21 -16.333 -33 -21v-4
c12 -4.66699 23 -12.334 33 -23.001s18.667 -22.334 26 -35.001s13 -25.667 17 -39s6 -25 6 -35v-164c0 -25.333 7.5 -47.5 22.5 -66.5s35.833 -31.5 62.5 -37.5c5.33301 -1.33301 8 -4.66602 8 -9.99902v-39v0z" />
    <glyph glyph-name="bar" unicode="|" horiz-adv-x="751" 
d="M681 10c0 -6.66699 -3.33301 -10 -10 -10h-47c-6.66699 -0 -10 3.33301 -10 10v552c0 6.66699 -3.33301 10 -10 10h-80c-30 0 -55.167 -10.167 -75.5 -30.5s-30.5 -45.5 -30.5 -75.5v-61c0 -6.66699 3.33301 -10 10 -10h73c6.66699 0 10 -3.33301 10 -10v-37
c0 -6.66699 -3.33301 -10 -10 -10h-73c-6.66699 0 -10 -3.33301 -10 -10v-318c0 -6.66699 -3.33301 -10 -10 -10h-48c-6.66699 -0 -10 3.33301 -10 10v318c0 6.66699 -3.33301 10 -10 10h-176c-6.66699 0 -10 -3.33301 -10 -10v-318c0 -6.66699 -3.33301 -10 -10 -10h-47
c-6.66699 -0 -10 3.33301 -10 10v318c0 6.66699 -3.33301 10 -10 10h-27c-6.66699 0 -10 3.33301 -10 10v37c0 6.66699 3.33301 10 10 10h27c6.66699 0 10 3.33301 10 10v61c0 24 4.5 46.667 13.5 68s21.333 39.833 37 55.5s34 28 55 37s43.5 13.5 67.5 13.5
c17.333 0 32.333 -1.33301 45 -4s24 -6.5 34 -11.5s19.167 -11 27.5 -18s16.5 -14.833 24.5 -23.5c2.66699 -2.66699 4.66699 -4 6 -4c0.666992 0 3 1.33301 7 4c18.667 16.667 38 28.5 58 35.5s40.667 10.5 62 10.5h147c6.66699 0 10 -3.33301 10 -10v-609zM358 516
c0 3.33301 -1.5 7.16699 -4.5 11.5s-6.83301 9.16602 -11.5 14.499c-22.667 26.667 -50 40 -82 40c-14.667 0 -28.5 -2.66699 -41.5 -8s-24.167 -12.833 -33.5 -22.5s-16.833 -21 -22.5 -34s-8.5 -26.833 -8.5 -41.5v-71c0 -6.66699 3.33301 -10 10 -10h176
c6.66699 0 10 3.33301 10 10v61c0 16.667 1.33301 28.334 4 35.001s4 11.667 4 15z" />
    <glyph glyph-name="braceright" unicode="}" horiz-adv-x="440" 
d="M350 251c0 -5.33301 -2.66797 -8.6709 -8.00098 -10.0039c-26.667 -6 -47.5 -18.333 -62.5 -37s-22.5 -40.667 -22.5 -66v-150c0 -35.333 -7.5 -66.166 -22.5 -92.499s-36.5 -46.833 -64.5 -61.5c-11.333 -6 -23.5 -10.833 -36.5 -14.5s-22.5 -5.5 -28.5 -5.5
s-9 3.33301 -9 10v39c0 5.33301 2.66699 8.66602 8 9.99902c26.667 6 47.5 18.5 62.5 37.5s22.5 41.167 22.5 66.5v164c0 10 2 21.667 6 35s9.66699 26.333 17 39s16 24.334 26 35.001s21 18.334 33 23.001v4c-12 4.66699 -23 11.667 -33 21s-18.667 19.833 -26 31.5
s-13 23.5 -17 35.5s-6 23 -6 33v172c0 25.333 -7.5 47.5 -22.5 66.5s-35.833 31.167 -62.5 36.5c-5.33301 1.33301 -8 4.66602 -8 9.99902v39c0 6.66699 3 10 9 10c6.66699 0 15.334 -1.5 26.001 -4.5s20 -6.16699 28 -9.5c31.333 -13.333 55.5 -33.666 72.5 -60.999
s25.5 -59.666 25.5 -96.999v-151c0 -25.333 7.5 -47.5 22.5 -66.5s35.833 -31.5 62.5 -37.5c5.33301 -1.33301 8 -4.66602 8 -9.99902v-44v0z" />
    <glyph glyph-name="asciitilde" unicode="~" horiz-adv-x="540" 
d="M551 588c-1.33301 -4.66699 -4.33203 -6.99902 -8.99902 -6.99902c-2 0 -4.66699 0.166992 -8 0.5s-6.66602 0.5 -9.99902 0.5c-14.667 0 -28.5 -2.66699 -41.5 -8s-24.167 -12.833 -33.5 -22.5s-16.833 -21 -22.5 -34s-8.5 -26.833 -8.5 -41.5v-71
c0 -6.66699 3.33301 -10 10 -10h73c6.66699 0 10 -3.33301 10 -10v-37c0 -6.66699 -3.33301 -10 -10 -10h-73c-6.66699 0 -10 -3.33301 -10 -10v-318c0 -6.66699 -3.33301 -10 -10 -10h-48c-6.66699 0 -10 3.33301 -10 10v318c0 6.66699 -3.33301 10 -10 10h-176
c-6.66699 0 -10 -3.33301 -10 -10v-318c0 -6.66699 -3.33301 -10 -10 -10h-47c-6.66699 0 -10 3.33301 -10 10v318c0 6.66699 -3.33301 10 -10 10h-27c-6.66699 0 -10 3.33301 -10 10v37c0 6.66699 3.33301 10 10 10h27c6.66699 0 10 3.33301 10 10v61
c0 24 4.5 46.667 13.5 68s21.333 39.833 37 55.5s34 28 55 37s43.5 13.5 67.5 13.5c31.333 0 56.166 -4.66699 74.499 -14s35.5 -22 51.5 -38c2 -2 4 -3 6 -3c0.666992 0 3 1.33301 7 4c18.667 17.333 38.5 30.166 59.5 38.499s42.833 12.5 65.5 12.5
c5.33301 0 10.666 -0.166992 15.999 -0.5s10.333 -0.833008 15 -1.5c6 -0.666992 9 -4 9 -10zM358.001 516.001c0 3.33301 -1.5 7.16699 -4.5 11.5s-6.83301 9.16602 -11.5 14.499c-22.667 26.667 -50 40 -82 40c-14.667 0 -28.5 -2.66699 -41.5 -8
s-24.167 -12.833 -33.5 -22.5s-16.833 -21 -22.5 -34s-8.5 -26.833 -8.5 -41.5v-71c0 -6.66699 3.33301 -10 10 -10h176c6.66699 0 10 3.33301 10 10v61c0 16.667 1.33301 28.334 4 35.001s4 11.667 4 15z" />
    <glyph glyph-name="nonbreakingspace" unicode="&#xa0;" 
 />
    <glyph glyph-name="exclamdown" unicode="&#xa1;" horiz-adv-x="289" 
d="M195 409c0 -13.333 -5 -25 -15 -35s-21.667 -15 -35 -15c-14 0 -25.667 4.83301 -35 14.5s-14 21.5 -14 35.5c0 13.333 4.83301 24.666 14.5 33.999s21.167 14 34.5 14s25 -4.66699 35 -14s15 -20.666 15 -33.999zM179 -177c0 -6.66699 -3.33203 -10 -9.99902 -10h-49
c-6.66699 0 -10 3.33301 -10 10v257l21 166c0.666992 6 4 9 10 9h6c5.33301 0 8.66602 -3 9.99902 -9l22 -165v-258z" />
    <glyph glyph-name="cent" unicode="&#xa2;" 
d="M414 96c0 -2.66699 -2.66895 -7.83203 -8.00195 -15.499s-11.333 -15.167 -18 -22.5c-11.333 -11.333 -25 -21.333 -41 -30s-35.667 -14.667 -59 -18c-4.66699 -0.666992 -7 -4 -7 -10v-65c0 -6.66699 -3.33301 -10 -10 -10h-25c-6.66699 0 -10 3.33301 -10 10v66
c0 5.33301 -2.66699 8.66602 -8 9.99902c-46.667 8.66699 -82.167 27.334 -106.5 56.001s-36.5 64 -36.5 106v135c0 42 12.167 77.333 36.5 106s59.833 47.334 106.5 56.001c5.33301 1.33301 8 4.66602 8 9.99902v65c0 6.66699 3.33301 10 10 10h25
c6.66699 0 10 -3.33301 10 -10v-65c0 -6 2.33301 -9.33301 7 -10c26.667 -4 48.5 -11.167 65.5 -21.5s31.167 -22.166 42.5 -35.499l12 -16c4 -5.33301 6 -9.33301 6 -12c0 -3.33301 -2 -6 -6 -8l-35 -19c-2 -1.33301 -4 -2.5 -6 -3.5s-3.66699 -1.5 -5 -1.5
c-3.33301 0 -6 1.66699 -8 5c-5.33301 8 -11.166 15 -17.499 21s-12.833 11.333 -19.5 16c-5.33301 3.33301 -10.666 6.16602 -15.999 8.49902s-9.33301 3.5 -12 3.5c-5.33301 0 -8 -4 -8 -12v-313c0 -6 2.33301 -9 7 -9c3.33301 0 7.33301 1.16699 12 3.5
s8.66699 4.5 12 6.5c8.66699 5.33301 16.167 11.166 22.5 17.499s12.5 13.833 18.5 22.5c2 3.33301 4.66699 5 8 5c2 0 5.66699 -1.66699 11 -5l36 -19c4 -2 6 -4.66699 6 -8zM235.998 397.002c0 6.66699 -2.99902 9.99902 -8.99902 9.99902
c-2.66699 0 -7.33398 -1.5 -14.001 -4.5s-12.667 -6.5 -18 -10.5c-14 -10 -24.5 -22.167 -31.5 -36.5s-10.5 -30.166 -10.5 -47.499v-135c0 -37.333 16.333 -67 49 -89c11.333 -8 20 -12 26 -12c5.33301 0 8 3.33301 8 10v315z" />
    <glyph glyph-name="sterling" unicode="&#xa3;" 
d="M473 554c0 -4 -2.33203 -6.99805 -6.99902 -8.99805l-36 -18c-2 -1.33301 -3.83301 -2.33301 -5.5 -3s-3.5 -1 -5.5 -1c-2.66699 0 -5 1.33301 -7 4c-12 18 -26.5 31.667 -43.5 41s-33.833 14 -50.5 14c-15.333 0 -29.333 -2.66699 -42 -8s-23.834 -12.833 -33.501 -22.5
s-17.167 -21 -22.5 -34s-8 -26.833 -8 -41.5v-118c0 -6.66699 3.33301 -10 10 -10h73c6.66699 0 10 -3.33301 10 -10v-37c0 -6.66699 -3.33301 -10 -10 -10h-73c-6.66699 0 -10 -3.33301 -10 -10v-127c0 -10.667 -1.83301 -20.667 -5.5 -30s-7.66699 -17.833 -12 -25.5
s-8.33301 -14.334 -12 -20.001s-5.5 -9.83398 -5.5 -12.501c0 -6 3.66699 -9 11 -9h248c6.66699 0 10 -3.33301 10 -10v-37c0 -6.66699 -3.33301 -10 -10 -10h-422c-6.66699 -0 -10 3.33301 -10 10v37c0 6.66699 3.33301 10 10 10h37c26.667 4.66699 48.834 17 66.501 37
s26.5 43.333 26.5 70v117c0 6.66699 -3.33301 10 -10 10h-27c-6.66699 0 -10 3.33301 -10 10v37c0 6.66699 3.33301 10 10 10h27c6.66699 0 10 3.33301 10 10v108c0 24 4.5 46.667 13.5 68s21.333 39.833 37 55.5s34.167 28 55.5 37s44 13.5 68 13.5c34 0 61.5 -5 82.5 -15
s38.167 -23 51.5 -39c5.33301 -6.66699 10.166 -13.167 14.499 -19.5s6.5 -10.5 6.5 -12.5z" />
    <glyph glyph-name="currency" unicode="&#xa4;" 
d="M467 72c-5.33301 -8 -10.833 -15.6631 -16.5 -22.9961s-12.167 -14.333 -19.5 -21c-13.333 -11.333 -29.333 -20.5 -48 -27.5s-42 -10.5 -70 -10.5h-31c-26.667 0 -50.667 4 -72 12s-39.5 19.167 -54.5 33.5s-26.667 31.666 -35 51.999s-12.5 42.5 -12.5 66.5v40
c0 6.66699 -3.33301 10 -10 10h-62c-6.66699 0 -10 3.33301 -10 10v36c0 6.66699 3.33301 10 10 10h62c6.66699 0 10 3.33301 10 10v90c0 6.66699 -3.33301 10 -10 10h-62c-6.66699 0 -10 3.33301 -10 10v37c0 6.66699 3.33301 10 10 10h62c6.66699 0 10 3.33301 10 10v39
c0 24 4.16699 46.167 12.5 66.5s20 37.666 35 51.999s33.167 25.5 54.5 33.5s45.333 12 72 12h31c26 0 48.333 -3.16699 67 -9.5s34.667 -14.833 48 -25.5c15.333 -12.667 28.333 -28 39 -46c4 -6 2.33301 -10.667 -5 -14l-42 -21c-5.33301 -2 -9.33301 -1 -12 3
c-12.667 17.333 -27.5 30.833 -44.5 40.5s-33.833 14.5 -50.5 14.5h-31c-15.333 0 -29.333 -2.66699 -42 -8s-23.834 -12.833 -33.501 -22.5s-17.167 -21 -22.5 -34s-8 -26.833 -8 -41.5v-39c0 -6.66699 3.33301 -10 10 -10h158c6.66699 0 10 -3.33301 10 -10v-37
c0 -6.66699 -3.33301 -10 -10 -10h-158c-6.66699 0 -10 -3.33301 -10 -10v-90c0 -6.66699 3.33301 -10 10 -10h158c6.66699 0 10 -3.33301 10 -10v-36c0 -6.66699 -3.33301 -10 -10 -10h-158c-6.66699 0 -10 -3.33301 -10 -10v-40c0 -14.667 2.66699 -28.5 8 -41.5
s12.833 -24.333 22.5 -34s20.834 -17.334 33.501 -23.001s26.667 -8.5 42 -8.5h31c17.333 0 34.5 5.16699 51.5 15.5s31.5 24.166 43.5 41.499c2.66699 4 6.66699 5 12 3l42 -21c7.33301 -3.33301 9 -8 5 -14z" />
    <glyph glyph-name="yen" unicode="&#xa5;" 
d="M466 104c0 -6.66699 -3.33301 -10 -10 -10h-156c-6.66699 0 -10 -3.33301 -10 -10v-74c0 -6.66699 -3.33301 -10 -10 -10h-48c-6.66699 -0 -10 3.33301 -10 10v74c0 6.66699 -3.33301 10 -10 10h-157c-6.66699 0 -10 3.33301 -10 10v36c0 6.66699 3.33301 10 10 10h157
c6.66699 0 10 3.33301 10 10v90c0 6.66699 -3.33301 10 -10 10h-157c-6.66699 0 -10 3.33301 -10 10v37c0 6.66699 3.33301 10 10 10h135c7.33301 0 11 2.66699 11 8c0 2 -0.5 4.16699 -1.5 6.5s-2.16699 4.5 -3.5 6.5l-140 263l-6 11.5c-2 3.66699 -3 6.5 -3 8.5
c0 5.33301 3.66699 8 11 8h57c3.33301 0 6.33301 -2 9 -6l123 -252c2 -5.33301 5 -8 9 -8s7 2.66699 9 8l121 252c2.66699 4 5.66699 6 9 6h57c7.33301 0 11 -2.66699 11 -8c0 -2 -1.33301 -5.66699 -4 -11s-5.66699 -11 -9 -17l-136 -255
c-1.33301 -2 -2.5 -4.16699 -3.5 -6.5s-1.5 -4.5 -1.5 -6.5c0 -5.33301 3.66699 -8 11 -8h136c6.66699 0 10 -3.33301 10 -10v-37c0 -6.66699 -3.33301 -10 -10 -10h-156c-6.66699 0 -10 -3.33301 -10 -10v-90c0 -6.66699 3.33301 -10 10 -10h156
c6.66699 0 10 -3.33301 10 -10v-36v0z" />
    <glyph glyph-name="brokenbar" unicode="&#xa6;" horiz-adv-x="240" 
d="M97 365v368h46v-368h-46zM97 -187v368h46v-368h-46z" />
    <glyph glyph-name="section" unicode="&#xa7;" 
d="M447 -70c0 -24 -4.16992 -46.002 -12.5029 -66.002s-20.166 -37.333 -35.499 -52s-33.666 -26 -54.999 -34s-45.333 -12 -72 -12h-44c-34 0 -61.667 5.16699 -83 15.5s-38.666 23.833 -51.999 40.5c-5.33301 6.66699 -10 12.834 -14 18.501s-6 9.83398 -6 12.501
c0 3.33301 2.33301 6.33301 7 9l34 17c2 1.33301 4.16699 2.5 6.5 3.5s4.16602 1.5 5.49902 1.5c3.33301 0 6 -1.66699 8 -5c12 -18 26.333 -31.833 43 -41.5s33.667 -14.5 51 -14.5h44c14.667 0 28.5 2.83301 41.5 8.5s24.333 13.334 34 23.001s17.334 21 23.001 34
s8.5 26.833 8.5 41.5c0 24 -7.33301 43.667 -22 59s-33 28.833 -55 40.5s-45.833 23 -71.5 34s-49.5 24.333 -71.5 40s-40.333 35.334 -55 59.001s-22 53.834 -22 90.501c0 17.333 2 33.666 6 48.999s11 30.666 21 45.999c1.33301 2.66699 3.33301 5.66699 6 9s4 6 4 8
c0 2.66699 -1.66699 5.83398 -5 9.50098s-5.66602 6.83398 -6.99902 9.50098c-9.33301 13.333 -15.833 27.5 -19.5 42.5s-5.5 31.5 -5.5 49.5c0 48.667 15.5 88.167 46.5 118.5s73.167 45.5 126.5 45.5h17c33.333 0 60.5 -5 81.5 -15s38.5 -23 52.5 -39
c4.66699 -5.33301 9.5 -11.333 14.5 -18s7.5 -11.334 7.5 -14.001c0 -4 -2.33301 -7 -7 -9l-36 -18c-4 -2.66699 -7.66699 -4 -11 -4c-2.66699 0 -5 1.33301 -7 4c-12.667 17.333 -27.5 30.833 -44.5 40.5s-33.833 14.5 -50.5 14.5h-17c-14.667 0 -28.5 -2.66699 -41.5 -8
s-24.167 -12.833 -33.5 -22.5s-16.833 -21 -22.5 -34s-8.5 -26.833 -8.5 -41.5c0 -21.333 7.33301 -38.833 22 -52.5s33 -25.834 55 -36.501s46 -21.667 72 -33s50 -25.333 72 -42s40.333 -37.5 55 -62.5s22 -56.833 22 -95.5c0 -32 -7.66699 -60.333 -23 -85
c-1.33301 -2.66699 -3.83301 -6.16699 -7.5 -10.5s-5.5 -8.16602 -5.5 -11.499c0 -2.66699 1.66699 -6.33398 5 -11.001s5.66602 -8.33398 6.99902 -11.001c8 -14.667 14 -29.667 18 -45s6 -32 6 -50zM378.997 153.998c0 20 -4.83398 37.1689 -14.501 51.502
s-22.667 27.166 -39 38.499s-35 21.833 -56 31.5l-65.5 31.5c-5.33301 3.33301 -10.5 6.33301 -15.5 9s-8.83301 4 -11.5 4c-3.33301 0 -6 -1.66699 -8 -5c-8 -12 -13.333 -22.667 -16 -32s-4 -19.333 -4 -30c0 -18.667 5.16699 -34.5 15.5 -47.5s23.833 -25 40.5 -36
s35.834 -21.5 57.501 -31.5s44.167 -21 67.5 -33c3.33301 -2 7.5 -4.33301 12.5 -7s8.83301 -4 11.5 -4c4 0 7 2 9 6c6 11.333 10.167 21.166 12.5 29.499s3.5 16.5 3.5 24.5z" />
    <glyph glyph-name="dieresis" unicode="&#xa8;" horiz-adv-x="500" 
d="M375 559c0 -12 -4.50098 -22.501 -13.501 -31.501s-19.5 -13.5 -31.5 -13.5c-12.667 0 -23 4.33301 -31 13s-12 19.334 -12 32.001s4 23 12 31s18.333 12 31 12s23.334 -4 32.001 -12s13 -18.333 13 -31zM211.999 558.999c0 -12.667 -4.16699 -23.334 -12.5 -32.001
s-18.833 -13 -31.5 -13s-23.167 4.33301 -31.5 13s-12.5 19.334 -12.5 32.001s4.16699 23 12.5 31s18.833 12 31.5 12s23.167 -4 31.5 -12s12.5 -18.333 12.5 -31z" />
    <glyph glyph-name="copyright" unicode="&#xa9;" horiz-adv-x="700" 
d="M620 95c0 -25.333 -4.16699 -48.333 -12.5 -69s-20.333 -38.5 -36 -53.5s-34.667 -26.667 -57 -35s-47.166 -12.5 -74.499 -12.5h-180c-27.333 0 -52.166 4.16699 -74.499 12.5s-41.333 20 -57 35s-27.667 32.833 -36 53.5s-12.5 43.667 -12.5 69v290
c0 24.667 4.16699 47.5 12.5 68.5s20.333 39 36 54s34.667 26.667 57 35s47.166 12.5 74.499 12.5h180c27.333 0 52.166 -4.16699 74.499 -12.5s41.333 -20 57 -35s27.667 -33 36 -54s12.5 -43.833 12.5 -68.5v-290zM575 385c0 37.333 -12.167 67.5 -36.5 90.5
s-57.166 34.5 -98.499 34.5h-180c-41.333 0 -74.166 -11.5 -98.499 -34.5s-36.5 -53.167 -36.5 -90.5v-290c0 -37.333 12.167 -67.5 36.5 -90.5s57.166 -34.5 98.499 -34.5h180c41.333 0 74.166 11.5 98.499 34.5s36.5 53.167 36.5 90.5v290zM463 141
c0 -5.33301 -4.99902 -13.668 -14.999 -25.001s-22.833 -20.666 -38.5 -27.999s-35.834 -11 -60.501 -11c-38.667 0 -69.5 11 -92.5 33s-34.5 51 -34.5 87v99c0 36 11.5 64.667 34.5 86s53.833 32 92.5 32c23.333 0 42.333 -3.16699 57 -9.5s26.667 -14.5 36 -24.5
c5.33301 -5.33301 9.83301 -10.833 13.5 -16.5s5.5 -9.83398 5.5 -12.501c0 -3.33301 -1.66699 -5.66602 -5 -6.99902l-23 -12c-5.33301 -2.66699 -9 -4 -11 -4c-3.33301 0 -6 1.33301 -8 4c-18 24.667 -39.667 37 -65 37c-20.667 0 -38.167 -7 -52.5 -21
s-21.5 -31.333 -21.5 -52v-99c0 -20 7.33301 -37.333 22 -52s32 -22 52 -22c25.333 0 47 13 65 39c2 3.33301 4.66699 5 8 5c1.33301 0 3 -0.5 5 -1.5s4 -2.16699 6 -3.5l24 -13c4 -2 6 -4.66699 6 -8z" />
    <glyph glyph-name="ordfeminine" unicode="&#xaa;" horiz-adv-x="318" 
d="M274 327c0 -8 -4.00195 -12.001 -12.002 -12.001h-26c-8 0 -12 4 -12 12v26c0 4.66699 -1.33301 7 -4 7s-5 -1.66699 -7 -5c-9.33301 -11.333 -19.833 -20.833 -31.5 -28.5s-22.167 -11.5 -31.5 -11.5h-28c-26 0 -48 7.83301 -66 23.5s-27 36.834 -27 63.501v4
c0 26.667 9 47.667 27 63s40 23 66 23h87c4.66699 0 7 2.66699 7 8v22c0 19.333 -6.66699 35.5 -20 48.5s-29.666 19.5 -48.999 19.5c-27.333 0 -48.333 -11.667 -63 -35c-3.33301 -4.66699 -6.33301 -7 -9 -7c-1.33301 0 -4.66602 1.33301 -9.99902 4l-25 13
c-4.66699 2 -7 5.33301 -7 10c0 2.66699 1.66699 6.66699 5 12s7 10.333 11 15c10 11.333 22.667 20.5 38 27.5s35 10.5 59 10.5c38.667 0 69.667 -10.667 93 -32s35 -50 35 -86v-195zM215.998 441.999c0 4.66699 -2.33301 7.00098 -7 7.00098h-87
c-10 0 -18.667 -3.5 -26 -10.5s-11 -15.5 -11 -25.5v-11c0 -10 3.66699 -18.667 11 -26s16 -11 26 -11h28c15.333 0 28.833 6.16699 40.5 18.5s20.167 25.166 25.5 38.499v20z" />
    <glyph glyph-name="guillemotleft" unicode="&#xab;" horiz-adv-x="556" 
d="M490 114c0 -7.33301 -2.66699 -11 -8 -11c-2.66699 0 -5.33398 1 -8.00098 3l-191 136c-2.66699 2.66699 -4 5.33398 -4 8.00098v55c0 2.66699 1.33301 5.33398 4 8.00098l191 135c2.66699 2 5.33398 3 8.00098 3c5.33301 0 8 -3.66699 8 -11v-42
c0 -2.66699 -1.33301 -5.33398 -4 -8.00098l-145 -104c-3.33301 -3.33301 -5 -6 -5 -8s1.66699 -4.66699 5 -8l145 -105c2.66699 -2.66699 4 -5.33398 4 -8.00098v-43zM265 115c0 -7.33301 -2.66699 -11 -8 -11c-2.66699 0 -5.33398 1 -8.00098 3l-189 135
c-2.66699 2.66699 -4 5.33398 -4 8.00098v55c0 2.66699 1.33301 5.33398 4 8.00098l189 135c2.66699 2 5.33398 3 8.00098 3c5.33301 0 8 -3.66699 8 -11v-42c0 -2.66699 -1.33301 -5.33398 -4 -8.00098l-145 -104c-3.33301 -3.33301 -5 -6 -5 -8s1.66699 -4.66699 5 -8
l145 -105c2.66699 -2.66699 4 -5.33398 4 -8.00098v-42z" />
    <glyph glyph-name="logicalnot" unicode="&#xac;" 
d="M466 130c0 -6.66699 -3.33301 -10 -10 -10h-30c-6.66699 0 -10 3.33301 -10 10v167c0 6.66699 -3.33301 10 -10 10h-351c-6.66699 0 -10 3.33301 -10 10v26c0 6.66699 3.33301 10 10 10h401c6.66699 0 10 -3.33301 10 -10v-213v0z" />
    <glyph glyph-name="registered" unicode="&#xae;" horiz-adv-x="420" 
d="M392 440c0 -25.333 -4.16699 -48.333 -12.5 -69s-20.333 -38.5 -36 -53.5s-34.667 -26.667 -57 -35s-47.166 -12.5 -74.499 -12.5h-4c-27.333 0 -52.166 4.16699 -74.499 12.5s-41.333 20 -57 35s-27.667 32.833 -36 53.5s-12.5 43.667 -12.5 69v20
c0 24.667 4.16699 47.5 12.5 68.5s20.333 39 36 54s34.667 26.667 57 35s47.166 12.5 74.499 12.5h4c27.333 0 52.166 -4.16699 74.499 -12.5s41.333 -20 57 -35s27.667 -33 36 -54s12.5 -43.833 12.5 -68.5v-20zM362 460c0 42 -13.5 75.833 -40.5 101.5
s-63.5 38.5 -109.5 38.5h-4c-46 0 -82.5 -12.833 -109.5 -38.5s-40.5 -59.5 -40.5 -101.5v-20c0 -42 13.5 -75.833 40.5 -101.5s63.5 -38.5 109.5 -38.5h4c46 0 82.5 12.833 109.5 38.5s40.5 59.5 40.5 101.5v20zM284 481c0 -8 -2.66699 -16.1689 -8 -24.502
s-11.333 -15.166 -18 -20.499c-2.66699 -2 -4 -4.33301 -4 -7c0 -1.33301 0.333008 -2.83301 1 -4.5s1.33398 -3.16699 2.00098 -4.5l21 -42c2.66699 -4 4 -7.33301 4 -10c0 -5.33301 -3.66699 -8 -11 -8h-16c-4 0 -7 2 -9 6l-23 53c-2 4 -5 6 -9 6h-25
c-6.66699 0 -10 -3.33301 -10 -10v-45c0 -6.66699 -3.33301 -10 -10 -10h-11c-6.66699 0 -10 3.33301 -10 10v168c0 6.66699 3.33301 10 10 10h63c19.333 0 34.666 -5.66699 45.999 -17s17 -26.666 17 -45.999v-4zM252 487.998c0 9.33301 -2.83301 17 -8.5 23
s-13.167 9 -22.5 9h-32c-6.66699 0 -10 -3.33301 -10 -10v-47c0 -6.66699 3.33301 -10 10 -10h32c9.33301 0 16.833 3 22.5 9s8.5 13.667 8.5 23v3z" />
    <glyph glyph-name="macron" unicode="&#xaf;" horiz-adv-x="500" 
d="M356 545c0 -6.66699 -3.33301 -10 -10 -10h-194c-6.66699 0 -10 3.33301 -10 10v37c0 6.66699 3.33301 10 10 10h194c6.66699 0 10 -3.33301 10 -10v-37v0z" />
    <glyph glyph-name="degree" unicode="&#xb0;" horiz-adv-x="266" 
d="M223 455c0 -25.333 -8 -45.833 -24 -61.5s-38 -23.5 -66 -23.5s-50 7.83301 -66 23.5s-24 36.167 -24 61.5v100c0 25.333 8 45.833 24 61.5s38 23.5 66 23.5s50 -7.83301 66 -23.5s24 -36.167 24 -61.5v-100zM173 555c0 10.667 -4 20 -12 28s-17.333 12 -28 12
s-20 -4 -28 -12s-12 -17.333 -12 -28v-100c0 -10.667 4 -20 12 -28s17.333 -12 28 -12s20 4 28 12s12 17.333 12 28v100z" />
    <glyph glyph-name="plusminus" unicode="&#xb1;" 
d="M466 291c0 -6.66699 -3.33301 -10 -10 -10h-167c-6.66699 0 -10 -3.33301 -10 -10v-167c0 -6.66699 -3.33301 -10 -10 -10h-26c-6.66699 0 -10 3.33301 -10 10v167c0 6.66699 -3.33301 10 -10 10h-168c-6.66699 0 -10 3.33301 -10 10v27c0 6.66699 3.33301 10 10 10h168
c6.66699 0 10 3.33301 10 10v167c0 6.66699 3.33301 10 10 10h26c6.66699 0 10 -3.33301 10 -10v-167c0 -6.66699 3.33301 -10 10 -10h167c6.66699 0 10 -3.33301 10 -10v-27zM466 10c0 -6.66699 -3.33301 -10 -10 -10h-401c-6.66699 -0 -10 3.33301 -10 10v27
c0 6.66699 3.33301 10 10 10h401c6.66699 0 10 -3.33301 10 -10v-27z" />
    <glyph glyph-name="twosuperior" unicode="&#xb2;" horiz-adv-x="337" 
d="M288 467c0 -17.333 -3.33594 -31.3311 -10.0029 -41.998s-15.334 -19.334 -26.001 -26.001s-22.5 -12.167 -35.5 -16.5s-25.5 -8.83301 -37.5 -13.5c-20.667 -8 -38 -15.667 -52 -23s-21 -19 -21 -35v-7c0 -3.33301 2.33301 -5 7 -5h166c4 0 6 -1.66699 6 -5v-38
c0 -3.33301 -2 -5 -6 -5h-224c-4 0 -6 1.66699 -6 5v41c0 18.667 3 34.334 9 47.001s14 23.167 24 31.5s21 15.166 33 20.499s24 10 36 14c12.667 4.66699 24 8.66699 34 12s18.5 7 25.5 11s12.5 8.66699 16.5 14s6 12.666 6 21.999c0 15.333 -5 28.166 -15 38.499
s-25.333 15.5 -46 15.5h-26c-10.667 0 -21.167 -3.16699 -31.5 -9.5s-19.166 -15.166 -26.499 -26.499c-1.33301 -1.33301 -2.66602 -2.33301 -3.99902 -3s-2.66602 -0.333984 -3.99902 0.999023l-38 17c-4.66699 2.66699 -6 5.66699 -4 9c12 20 26.333 35.167 43 45.5
s38.334 15.5 65.001 15.5h26c37.333 0 66 -9.66699 86 -29s30 -44.666 30 -75.999z" />
    <glyph glyph-name="threesuperior" unicode="&#xb3;" horiz-adv-x="337" 
d="M290 327c0 -36 -10.668 -64.1641 -32.001 -84.4971s-50 -30.5 -86 -30.5h-20c-29.333 0 -52 5.33301 -68 16s-29 25 -39 43c-2 4.66699 -1 8 3 10l38 18c2.66699 2 5.33398 1 8.00098 -3c7.33301 -12 16.166 -21.167 26.499 -27.5s21.166 -9.5 32.499 -9.5h19
c17.333 0 32 6.16699 44 18.5s18 27.166 18 44.499v22c0 17.333 -6 31.833 -18 43.5s-26.667 17.5 -44 17.5h-51c-4 0 -6 2.33301 -6 7v35c0 4 2 6 6 6h51c18 0 32.833 6 44.5 18s17.5 26.667 17.5 44v10c0 17.333 -6 32 -18 44s-26.667 18 -44 18h-19
c-11.333 0 -22.166 -3 -32.499 -9s-19.166 -15 -26.499 -27c-2 -4.66699 -5 -5.66699 -9 -3l-37 18c-4 2.66699 -5 6 -3 10c10 18 23 32.333 39 43s38.667 16 68 16h20c36 0 64.667 -10.5 86 -31.5s32 -49.167 32 -84.5v-11c0 -18.667 -5.83301 -34.834 -17.5 -48.501
s-24.167 -22.834 -37.5 -27.501v-2v-1c5.33301 -2 11.166 -5.5 17.499 -10.5s12.333 -11 18 -18s10.334 -15.167 14.001 -24.5s5.5 -19.333 5.5 -30v-19v0z" />
    <glyph glyph-name="acute" unicode="&#xb4;" horiz-adv-x="500" 
d="M372 612c0 -2.66699 -1.33398 -5.33301 -4.00098 -8l-114 -102c-3.33301 -3.33301 -7 -5 -11 -5h-20c-7.33301 0 -11 2.66699 -11 8c0 2 1 4.66699 3 8l69 102c2.66699 4 6.33398 6 11.001 6h66c7.33301 0 11 -3 11 -9z" />
    <glyph glyph-name="mu" unicode="&#xb5;" horiz-adv-x="479" 
d="M409 10c0 -6.66699 -3.33887 -10 -10.0059 -10h-37c-6.66699 -0 -10 3.33301 -10 10v43c0 7.33301 -3 11 -9 11c-3.33301 0 -6.33301 -1.66699 -9 -5c-18 -23.333 -35.833 -39 -53.5 -47s-33.167 -12 -46.5 -12c-35.333 -0 -66.666 7.33301 -93.999 22
c-3.33301 2 -6.16602 2.33301 -8.49902 1s-3.5 -3.66602 -3.5 -6.99902v-166c0 -6.66699 -3.33301 -10 -10 -10h-47c-6.66699 0 -10 3.33301 -10 10v582c0 6.66699 3.33301 10 10 10h47c6.66699 0 10 -3.33301 10 -10v-268c0 -14.667 2.83301 -28.5 8.5 -41.5
s13.334 -24.333 23.001 -34s20.834 -17.334 33.501 -23.001s26.334 -8.5 41.001 -8.5s28.667 2.83301 42 8.5s24.833 13.167 34.5 22.5s17.334 20.5 23.001 33.5s8.5 27.167 8.5 42.5v268c0 6.66699 3.33301 10 10 10h47c6.66699 0 10 -3.33301 10 -10v-422v0z" />
    <glyph glyph-name="mu" unicode="&#x3bc;" horiz-adv-x="479" 
d="M409 10c0 -6.66699 -3.33887 -10 -10.0059 -10h-37c-6.66699 -0 -10 3.33301 -10 10v43c0 7.33301 -3 11 -9 11c-3.33301 0 -6.33301 -1.66699 -9 -5c-18 -23.333 -35.833 -39 -53.5 -47s-33.167 -12 -46.5 -12c-35.333 -0 -66.666 7.33301 -93.999 22
c-3.33301 2 -6.16602 2.33301 -8.49902 1s-3.5 -3.66602 -3.5 -6.99902v-166c0 -6.66699 -3.33301 -10 -10 -10h-47c-6.66699 0 -10 3.33301 -10 10v582c0 6.66699 3.33301 10 10 10h47c6.66699 0 10 -3.33301 10 -10v-268c0 -14.667 2.83301 -28.5 8.5 -41.5
s13.334 -24.333 23.001 -34s20.834 -17.334 33.501 -23.001s26.334 -8.5 41.001 -8.5s28.667 2.83301 42 8.5s24.833 13.167 34.5 22.5s17.334 20.5 23.001 33.5s8.5 27.167 8.5 42.5v268c0 6.66699 3.33301 10 10 10h47c6.66699 0 10 -3.33301 10 -10v-422v0z" />
    <glyph glyph-name="paragraph" unicode="&#xb6;" horiz-adv-x="620" 
d="M539 -215c0 -6.66699 -3.33203 -10 -9.99902 -10h-47c-6.66699 0 -10 3.33301 -10 10v777c0 6.66699 -3.33301 10 -10 10h-100c-6.66699 0 -10 -3.33301 -10 -10v-777c0 -6.66699 -3.33301 -10 -10 -10h-48c-6.66699 0 -10 3.33301 -10 10v299
c0 6.66699 -3.33301 10 -10 10h-34c-26.667 0 -50.667 4.16699 -72 12.5s-39.5 19.833 -54.5 34.5s-26.667 32 -35 52s-12.5 41.667 -12.5 65v198c0 52.667 15.667 94.667 47 126s73.666 47 126.999 47h289c6.66699 0 10 -3.33301 10 -10v-834v0z" />
    <glyph glyph-name="periodcentered" unicode="&#xb7;" 
d="M304 237c0 -13.333 -5 -25 -15 -35s-21.667 -15 -35 -15s-24.666 5 -33.999 15s-14 21.667 -14 35s4.66699 24.833 14 34.5s20.666 14.5 33.999 14.5c14 0 25.833 -4.66699 35.5 -14s14.5 -21 14.5 -35z" />
    <glyph glyph-name="cedilla" unicode="&#xb8;" horiz-adv-x="500" 
d="M312 -150c0 -25.333 -9.16797 -45.666 -27.501 -60.999s-40.166 -23 -65.499 -23h-36c-6.66699 0 -10 3.33301 -10 10v16c0 6.66699 3.33301 10 10 10h36c13.333 0 24.666 4.66699 33.999 14s14 20.666 14 33.999v9c0 13.333 -4.66699 23.666 -14 30.999
s-21.666 13 -36.999 17c-4.66699 0.666992 -7 3.33398 -7 8.00098c0 1.33301 0.666992 3.5 2 6.5s2.66602 6.16699 3.99902 9.5l40 85c2 4 5 6 9 6l22 -4c6 -1.33301 9 -4 9 -8c0 -2 -0.666992 -4.16699 -2 -6.5s-2.66602 -4.83301 -3.99902 -7.5l-23 -48
c-3.33301 -5.33301 -5 -9.66602 -5 -12.999s2 -6 6 -8c14 -6.66699 25 -14.834 33 -24.501s12 -22.5 12 -38.5v-14v0z" />
    <glyph glyph-name="onesuperior" unicode="&#xb9;" horiz-adv-x="337" 
d="M289 257c0 -4 -2.00098 -6 -6.00098 -6h-204c-4 0 -6 2 -6 6v36c0 4 2 6 6 6h67c5.33301 0 8 2.33301 8 7v159c0 3.33301 -1.16699 5.5 -3.5 6.5s-4.83301 0.166992 -7.5 -2.5l-37 -36c-3.33301 -2.66699 -6.33301 -2.66699 -9 0l-25 25
c-3.33301 2.66699 -3.33301 5.66699 0 9l105 103c0.666992 0 1.33398 0.333008 2.00098 1c0.666992 0 1.16699 0.166992 1.5 0.5s0.833008 0.5 1.5 0.5h21c4 0 6 -2.33301 6 -7v-259c0 -4.66699 2.33301 -7 7 -7h67c4 0 6 -2 6 -6v-36v0z" />
    <glyph glyph-name="ordmasculine" unicode="&#xba;" horiz-adv-x="321" 
d="M288 427c0 -36 -11.667 -65 -35 -87s-54.333 -33 -93 -33s-69.334 11 -92.001 33s-34 51 -34 87v94c0 36 11.333 64.833 34 86.5s53.334 32.5 92.001 32.5s69.667 -10.833 93 -32.5s35 -50.5 35 -86.5v-94zM230 521c0 19.333 -6.83496 35.666 -20.502 48.999
s-30.167 20 -49.5 20s-35.666 -6.66699 -48.999 -20s-20 -29.666 -20 -48.999v-94c0 -19.333 6.83301 -35.833 20.5 -49.5s29.834 -20.5 48.501 -20.5c19.333 0 35.833 6.83301 49.5 20.5s20.5 30.167 20.5 49.5v94z" />
    <glyph glyph-name="guillemotright" unicode="&#xbb;" horiz-adv-x="556" 
d="M501 250c0 -2.66699 -1.33301 -5.33398 -4 -8.00098l-189 -135c-3.33301 -2 -6 -3 -8 -3c-5.33301 0 -8 3.66699 -8 11v42c0 2.66699 1.33301 5.33398 4 8.00098l145 105c3.33301 3.33301 5 6 5 8s-1.66699 4.66699 -5 8l-145 104
c-2.66699 2.66699 -4 5.33398 -4 8.00098v42c0 7.33301 2.66699 11 8 11c2 0 4.66699 -1 8 -3l189 -135c2.66699 -2.66699 4 -5.33398 4 -8.00098v-55zM278 250c0 -2.66699 -1.33301 -5.33398 -4 -8.00098l-191 -135c-3.33301 -2 -6 -3 -8 -3c-5.33301 0 -8 3.66699 -8 11
v42c0 2.66699 1.33301 5.33398 4 8.00098l145 105c3.33301 3.33301 5 6 5 8s-1.66699 4.66699 -5 8l-145 104c-2.66699 2.66699 -4 5.33398 -4 8.00098v42c0 7.33301 2.66699 11 8 11c2 0 4.66699 -1 8 -3l191 -135c2.66699 -2.66699 4 -5.33398 4 -8.00098v-55z" />
    <glyph glyph-name="onequarter" unicode="&#xbc;" horiz-adv-x="934" 
d="M357 6c-2 -4 -5 -6 -9 -6h-24c-10 0 -13 4.66699 -9 14l261 610c2 4 5 6 9 6h24c10 0 13 -4.66699 9 -14zM792 10c0 -4 -2.33301 -6 -7 -6h-47c-4 0 -6 -2.33301 -6 -7v-87c0 -4 -2.33301 -6 -7 -6h-43c-4 0 -6 2 -6 6v87c0 4.66699 -2.33301 7 -7 7h-167
c-4.66699 0 -7 2 -7 6v44l177 256c0.666992 2 2.66699 3 6 3h47c4.66699 0 7 -2 7 -6v-249c0 -4.66699 2 -7 6 -7h47c4.66699 0 7 -2 7 -6v-35zM331 257c0 -4 -2 -6 -6 -6h-203c-4.66699 0 -7 2 -7 6v36c0 4 2.33301 6 7 6h67c4.66699 0 7 2.33301 7 7v159
c0 3.33301 -1 5.5 -3 6.5s-4.33301 0.166992 -7 -2.5l-38 -36c-3.33301 -2.66699 -6.33301 -2.66699 -9 0l-25 25c-2.66699 3.33301 -2.66699 6.33301 0 9l105 103c0.666992 0 1.5 0.333008 2.5 1s1.83301 1 2.5 1h21c4 0 6 -2.33301 6 -7v-259c0 -4.66699 2.33301 -7 7 -7
h67c4 0 6 -2 6 -6v-36zM677 228c0 3.33301 -1.33301 5.33301 -4 6s-4.66699 0 -6 -2l-114 -171c-2 -3.33301 -2.5 -5.83301 -1.5 -7.5s3.16699 -2.5 6.5 -2.5h112c4.66699 0 7 2.33301 7 7v170z" />
    <glyph glyph-name="onehalf" unicode="&#xbd;" horiz-adv-x="934" 
d="M785 216c0 -17.333 -3.33301 -31.3301 -10 -41.9971s-15.334 -19.334 -26.001 -26.001s-22.5 -12.167 -35.5 -16.5s-25.5 -8.83301 -37.5 -13.5c-20.667 -8 -38 -15.667 -52 -23s-21 -19 -21 -35v-7c0 -3.33301 2.66699 -5 8 -5h165c4 0 6 -1.66699 6 -5v-38
c0 -3.33301 -2 -5 -6 -5h-223c-4.66699 0 -7 1.66699 -7 5v41c0 18.667 3 34.167 9 46.5s14 22.666 24 30.999s21.167 15.166 33.5 20.499s24.5 10.333 36.5 15l33 11c10 3.33301 18.5 7 25.5 11s12.5 8.83301 16.5 14.5s6 13.167 6 22.5c0 15.333 -5 28.166 -15 38.499
s-25 15.5 -45 15.5h-27c-10.667 0 -21.167 -3.16699 -31.5 -9.5s-19.166 -15.166 -26.499 -26.499c-0.666992 -1.33301 -1.66699 -2.33301 -3 -3s-3 -0.333984 -5 0.999023l-38 17c-3.33301 2.66699 -4.33301 5.66699 -3 9c11.333 20 25.5 35.167 42.5 45.5
s38.5 15.5 64.5 15.5h27c36.667 0 65 -9.66699 85 -29s30 -44.666 30 -75.999zM357 6.00293c-2 -4 -5 -6 -9 -6h-24c-10 0 -13 4.66699 -9 14l261 610c2 4 5 6 9 6h24c10 0 13 -4.66699 9 -14zM331 257.003c0 -4 -2 -6 -6 -6h-203c-4.66699 0 -7 2 -7 6v36
c0 4 2.33301 6 7 6h67c4.66699 0 7 2.33301 7 7v159c0 3.33301 -1 5.5 -3 6.5s-4.33301 0.166992 -7 -2.5l-38 -36c-3.33301 -2.66699 -6.33301 -2.66699 -9 0l-25 25c-2.66699 3.33301 -2.66699 6.33301 0 9l105 103c0.666992 0 1.5 0.333008 2.5 1s1.83301 1 2.5 1h21
c4 0 6 -2.33301 6 -7v-259c0 -4.66699 2.33301 -7 7 -7h67c4 0 6 -2 6 -6v-36z" />
    <glyph glyph-name="threequarters" unicode="&#xbe;" horiz-adv-x="934" 
d="M357 6c-2 -4 -5 -6 -9 -6h-24c-10 0 -13 4.66699 -9 14l261 610c2 4 5 6 9 6h24c10 0 13 -4.66699 9 -14zM792 10c0 -4 -2.33301 -6 -7 -6h-47c-4 0 -6 -2.33301 -6 -7v-87c0 -4 -2.33301 -6 -7 -6h-43c-4 0 -6 2 -6 6v87c0 4.66699 -2.33301 7 -7 7h-167
c-4.66699 0 -7 2 -7 6v44l177 256c0.666992 2 2.66699 3 6 3h47c4.66699 0 7 -2 7 -6v-249c0 -4.66699 2 -7 6 -7h47c4.66699 0 7 -2 7 -6v-35zM358 327c0 -36 -10.834 -64.1641 -32.501 -84.4971s-50.5 -30.5 -86.5 -30.5h-19c-29.333 0 -52 5.33301 -68 16s-29 25 -39 43
c-2.66699 4.66699 -1.66699 8 3 10l37 18c4 2 6.66699 1 8 -3c16.667 -24.667 36.667 -37 60 -37h18c17.333 0 32.166 6.16699 44.499 18.5s18.5 27.166 18.5 44.499v22c0 17.333 -6.16699 31.833 -18.5 43.5s-27.166 17.5 -44.499 17.5h-50c-4 0 -6 2.33301 -6 7v35
c0 4 2 6 6 6h50c18 0 33 6 45 18s18 26.667 18 44v10c0 17.333 -6.16699 32 -18.5 44s-27.166 18 -44.499 18h-18c-24 0 -44 -12 -60 -36c-1.33301 -4.66699 -4 -5.66699 -8 -3l-37 18c-4 2.66699 -5 6 -3 10c10 18 23 32.333 39 43s38.667 16 68 16h19
c36 0 64.833 -10.5 86.5 -31.5s32.5 -49.167 32.5 -84.5v-11c0 -18.667 -5.83301 -34.834 -17.5 -48.501s-24.167 -22.834 -37.5 -27.501c-2 -2 -2 -3 0 -3c5.33301 -2 11.166 -5.5 17.499 -10.5s12.333 -11 18 -18s10.334 -15.167 14.001 -24.5s5.5 -19.333 5.5 -30v-19z
M676.999 228.003c0 3.33301 -1.33301 5.33301 -4 6s-4.66699 0 -6 -2l-114 -171c-2 -3.33301 -2.5 -5.83301 -1.5 -7.5s3.16699 -2.5 6.5 -2.5h112c4.66699 0 7 2.33301 7 7v170z" />
    <glyph glyph-name="questiondown" unicode="&#xbf;" 
d="M336 408c0 -13.333 -4.83301 -24.833 -14.5 -34.5s-21.167 -14.5 -34.5 -14.5c-14 0 -25.833 4.66699 -35.5 14s-14.5 21 -14.5 35s4.83301 25.667 14.5 35s21.5 14 35.5 14c13.333 0 24.833 -4.83301 34.5 -14.5s14.5 -21.167 14.5 -34.5zM439 -111
c0 -2 -2.33496 -6.66309 -7.00195 -13.9961s-9.66699 -14.333 -15 -21c-13.333 -15.333 -30.5 -27.833 -51.5 -37.5s-48.167 -14.5 -81.5 -14.5h-40c-26.667 0 -50.667 4 -72 12s-39.5 19.167 -54.5 33.5s-26.667 31.666 -35 51.999s-12.5 42.5 -12.5 66.5
c0 27.333 3.66699 50 11 68s16.833 32.667 28.5 44s24.334 20.666 38.001 27.999s27.167 14 40.5 20c11.333 5.33301 22 10.833 32 16.5s18.667 12.167 26 19.5s13.166 16 17.499 26s6.5 22 6.5 36c0 3.33301 -0.166992 7 -0.5 11s-0.5 7.66699 -0.5 11c0 6 3.33301 9 10 9
h48c6.66699 0 10 -3 10 -9c0.666992 -8.66699 1 -15.834 1 -21.501v-15.5c0 -22 -3.5 -40.167 -10.5 -54.5s-16.167 -26.333 -27.5 -36s-23.833 -17.834 -37.5 -24.501l-39.5 -20c-11.333 -6 -22.166 -12.167 -32.499 -18.5s-19.5 -13.666 -27.5 -21.999
s-14.333 -18 -19 -29s-7 -23.833 -7 -38.5c0 -15.333 2.83301 -29.333 8.5 -42s13.334 -23.834 23.001 -33.501s21 -17.167 34 -22.5s26.833 -8 41.5 -8h40c16.667 0 33.5 4.66699 50.5 14s31.5 23 43.5 41c2 3.33301 4.66699 5 8 5c2 0 4.33301 -0.666992 7 -2l40 -21
c4 -2 6 -4.66699 6 -8z" />
    <glyph glyph-name="Agrave" unicode="&#xc0;" horiz-adv-x="448" 
d="M264 692c0 -3.33301 -2.33105 -4.99902 -6.99805 -4.99902h-27c-4.66699 0 -9.33398 1.66699 -14.001 5l-115 84c-2.66699 2 -4 4 -4 6c0 4.66699 2.66699 7 8 7h79c5.33301 0 9.66602 -2 12.999 -6l65 -86c1.33301 -2.66699 2 -4.33398 2 -5.00098zM439.002 8.00098
c0 -5.33301 -3.66797 -8.00195 -11.001 -8.00195h-51c-6 0 -9.33301 2.33301 -10 7l-39 138c-0.666992 4 -4 6 -10 6h-188c-6 0 -9.33301 -2 -10 -6l-39 -138c-0.666992 -4.66699 -4 -7 -10 -7h-51c-7.33301 0 -11 2.66699 -11 8c0 2.66699 0.833008 6.33398 2.5 11.001
s3.16699 9.33398 4.5 14.001l179 589c0.666992 4.66699 4 7 10 7h38c6 0 9.33301 -2.33301 10 -7l177 -583c2.66699 -7.33301 4.83398 -13.833 6.50098 -19.5s2.5 -9.5 2.5 -11.5zM238.001 477.999c-0.666992 2.66699 -2.33496 8.83203 -5.00195 18.499
s-4.66699 16.5 -6 20.5h-4c-1.33301 -4 -3.16602 -10.667 -5.49902 -20s-4.16602 -15.666 -5.49902 -18.999l-72 -261c0 -6 3.66699 -9 11 -9h144c7.33301 0 11 3 11 9z" />
    <glyph glyph-name="Aacute" unicode="&#xc1;" horiz-adv-x="448" 
d="M355 782c0 -2 -1.33203 -4.00098 -3.99902 -6.00098l-115 -84c-4.66699 -3.33301 -9.33398 -5 -14.001 -5h-27c-4.66699 0 -7 1.66699 -7 5c0 0.666992 0.666992 2.33398 2 5.00098l65 86c2.66699 4 7 6 13 6h79c5.33301 0 8 -2.33301 8 -7zM439.001 7.99902
c0 -5.33301 -3.66797 -8.00195 -11.001 -8.00195h-51c-6 0 -9.33301 2.33301 -10 7l-39 138c-0.666992 4 -4 6 -10 6h-188c-6 0 -9.33301 -2 -10 -6l-39 -138c-0.666992 -4.66699 -4 -7 -10 -7h-51c-7.33301 0 -11 2.66699 -11 8c0 2.66699 0.833008 6.33398 2.5 11.001
s3.16699 9.33398 4.5 14.001l179 589c0.666992 4.66699 4 7 10 7h38c6 0 9.33301 -2.33301 10 -7l177 -583c2.66699 -7.33301 4.83398 -13.833 6.50098 -19.5s2.5 -9.5 2.5 -11.5zM238 477.997c-0.666992 2.66699 -2.33496 8.83203 -5.00195 18.499s-4.66699 16.5 -6 20.5
h-4c-1.33301 -4 -3.16602 -10.667 -5.49902 -20s-4.16602 -15.666 -5.49902 -18.999l-72 -261c0 -6 3.66699 -9 11 -9h144c7.33301 0 11 3 11 9z" />
    <glyph glyph-name="Acircumflex" unicode="&#xc2;" horiz-adv-x="448" 
d="M328 690c0 -3.33301 -2.33496 -5 -7.00195 -5h-43c-4 0 -7.33301 2 -10 6l-36 55c-2 2.66699 -4 4 -6 4c-1.33301 0 -3.33301 -1.33301 -6 -4l-36 -55c-3.33301 -4 -7 -6 -11 -6h-42c-4.66699 0 -7 1.66699 -7 5l2 4l65 90c2.66699 3.33301 6.33398 5 11.001 5h48
c4.66699 0 8.33398 -1.66699 11.001 -5l65 -90zM438.998 8c0 -5.33301 -3.66797 -8.00195 -11.001 -8.00195h-51c-6 0 -9.33301 2.33301 -10 7l-39 138c-0.666992 4 -4 6 -10 6h-188c-6 0 -9.33301 -2 -10 -6l-39 -138c-0.666992 -4.66699 -4 -7 -10 -7h-51
c-7.33301 0 -11 2.66699 -11 8c0 2.66699 0.833008 6.33398 2.5 11.001s3.16699 9.33398 4.5 14.001l179 589c0.666992 4.66699 4 7 10 7h38c6 0 9.33301 -2.33301 10 -7l177 -583c2.66699 -7.33301 4.83398 -13.833 6.50098 -19.5s2.5 -9.5 2.5 -11.5zM237.997 477.998
c-0.666992 2.66699 -2.33496 8.83203 -5.00195 18.499s-4.66699 16.5 -6 20.5h-4c-1.33301 -4 -3.16602 -10.667 -5.49902 -20s-4.16602 -15.666 -5.49902 -18.999l-72 -261c0 -6 3.66699 -9 11 -9h144c7.33301 0 11 3 11 9z" />
    <glyph glyph-name="Atilde" unicode="&#xc3;" horiz-adv-x="448" 
d="M350 755c0 -1.33301 -1.49609 -4.1709 -4.49609 -8.50391s-5.83301 -8.16602 -8.5 -11.499c-11.333 -15.333 -22 -26.166 -32 -32.499s-21 -9.5 -33 -9.5c-10.667 0 -20.167 2 -28.5 6s-16.166 8.16699 -23.499 12.5l-22 12.5c-7.33301 4 -15.333 6 -24 6
c-6.66699 0 -13.334 -1.66699 -20.001 -5s-14.667 -9.66602 -24 -18.999c-2.66699 -2.66699 -5.33398 -4 -8.00098 -4c-1.33301 0 -4 1.33301 -8 4l-11 9c-4 2.66699 -6 5.33398 -6 8.00098c0 1.33301 1.5 4 4.5 8l9.5 13c10.667 13.333 20.667 22.833 30 28.5
s19.666 8.5 30.999 8.5c10.667 0 20.167 -1.83301 28.5 -5.5s16.166 -7.66699 23.499 -12s14.666 -8.33301 21.999 -12s15.333 -5.5 24 -5.5s16.5 2 23.5 6s15.167 11.333 24.5 22c2.66699 2.66699 5 4 7 4s4.66699 -1.66699 8 -5l12 -10c3.33301 -3.33301 5 -6 5 -8z
M439.004 7.99512c0 -5.33301 -3.66797 -8.00195 -11.001 -8.00195h-51c-6 0 -9.33301 2.33301 -10 7l-39 138c-0.666992 4 -4 6 -10 6h-188c-6 0 -9.33301 -2 -10 -6l-39 -138c-0.666992 -4.66699 -4 -7 -10 -7h-51c-7.33301 0 -11 2.66699 -11 8
c0 2.66699 0.833008 6.33398 2.5 11.001s3.16699 9.33398 4.5 14.001l179 589c0.666992 4.66699 4 7 10 7h38c6 0 9.33301 -2.33301 10 -7l177 -583c2.66699 -7.33301 4.83398 -13.833 6.50098 -19.5s2.5 -9.5 2.5 -11.5zM238.003 477.993
c-0.666992 2.66699 -2.33496 8.83203 -5.00195 18.499s-4.66699 16.5 -6 20.5h-4c-1.33301 -4 -3.16602 -10.667 -5.49902 -20s-4.16602 -15.666 -5.49902 -18.999l-72 -261c0 -6 3.66699 -9 11 -9h144c7.33301 0 11 3 11 9z" />
    <glyph glyph-name="Adieresis" unicode="&#xc4;" horiz-adv-x="448" 
d="M342 738c0 -11.333 -4.16602 -21.333 -12.499 -30s-18.166 -13 -29.499 -13c-12.667 0 -22.334 4.33301 -29.001 13s-10 18.667 -10 30c0 10.667 3.66699 20.167 11 28.5s16.666 12.5 27.999 12.5c12 0 22 -4 30 -12s12 -17.667 12 -29zM191.001 738
c0 -11.333 -4.16699 -21.333 -12.5 -30s-18.166 -13 -29.499 -13c-12.667 0 -22.334 4.33301 -29.001 13s-10 18.667 -10 30c0 10.667 3.5 20.167 10.5 28.5s16.5 12.5 28.5 12.5s22 -4 30 -12s12 -17.667 12 -29zM439.001 8c0 -5.33301 -3.66797 -8.00195 -11.001 -8.00195
h-51c-6 0 -9.33301 2.33301 -10 7l-39 138c-0.666992 4 -4 6 -10 6h-188c-6 0 -9.33301 -2 -10 -6l-39 -138c-0.666992 -4.66699 -4 -7 -10 -7h-51c-7.33301 0 -11 2.66699 -11 8c0 2.66699 0.833008 6.33398 2.5 11.001s3.16699 9.33398 4.5 14.001l179 589
c0.666992 4.66699 4 7 10 7h38c6 0 9.33301 -2.33301 10 -7l177 -583c2.66699 -7.33301 4.83398 -13.833 6.50098 -19.5s2.5 -9.5 2.5 -11.5zM238 477.998c-0.666992 2.66699 -2.33496 8.83203 -5.00195 18.499s-4.66699 16.5 -6 20.5h-4
c-1.33301 -4 -3.16602 -10.667 -5.49902 -20s-4.16602 -15.666 -5.49902 -18.999l-72 -261c0 -6 3.66699 -9 11 -9h144c7.33301 0 11 3 11 9z" />
    <glyph glyph-name="Aring" unicode="&#xc5;" horiz-adv-x="448" 
d="M439 8c0 -5.33301 -3.66797 -8 -11.001 -8h-51c-6 -0 -9.33301 2.33301 -10 7l-39 138c-0.666992 4 -4 6 -10 6h-188c-6 0 -9.33301 -2 -10 -6l-39 -138c-0.666992 -4.66699 -4 -7 -10 -7h-51c-7.33301 0 -11 2.66699 -11 8c0 2.66699 0.833008 6.33398 2.5 11.001
s3.16699 9.33398 4.5 14.001l165 543c1.33301 3.33301 2.5 6.66602 3.5 9.99902s1.5 5.66602 1.5 6.99902c0 2 -2 4.66699 -6 8c-23.333 14 -35 35.667 -35 65v31c0 22.667 7.16699 40.834 21.5 54.501s33.833 20.5 58.5 20.5c24 0 43.5 -6.83301 58.5 -20.5
s22.5 -31.834 22.5 -54.501v-31c0 -14.667 -3.33301 -27.5 -10 -38.5s-15.667 -19.833 -27 -26.5c-4.66699 -2.66699 -7 -5.66699 -7 -9c0 -2 0.5 -4.33301 1.5 -7l3.5 -9l163 -537c2.66699 -7.33301 4.83398 -13.833 6.50098 -19.5s2.5 -9.5 2.5 -11.5zM275.999 697
c0 14 -4.66699 25 -14 33s-21.666 12 -36.999 12s-27.5 -4 -36.5 -12s-13.5 -19 -13.5 -33v-31c0 -14 4.5 -25.167 13.5 -33.5s21.167 -12.5 36.5 -12.5s27.666 4.16699 36.999 12.5s14 19.5 14 33.5v31zM237.999 478c-0.666992 2.66699 -2.33496 8.83203 -5.00195 18.499
s-4.66699 16.5 -6 20.5h-4c-1.33301 -4 -3.16602 -10.667 -5.49902 -20s-4.16602 -15.666 -5.49902 -18.999l-72 -261c0 -6 3.66699 -9 11 -9h144c7.33301 0 11 3 11 9z" />
    <glyph glyph-name="AE" unicode="&#xc6;" horiz-adv-x="706" 
d="M657 10c0 -6.66699 -3.33301 -10 -10 -10h-329c-6.66699 -0 -10 3.33301 -10 10v131c0 6.66699 -3.33301 10 -10 10h-192c-6 0 -10.333 -3 -13 -9l-76 -137c-2 -3.33301 -5 -5 -9 -5h-46c-7.33301 0 -11 2.66699 -11 8c0 2.66699 0.666992 5 2 7l360 609
c2 3.33301 5 5 9 5h325c6.66699 0 10 -3.33301 10 -10v-37c0 -6.66699 -3.33301 -10 -10 -10h-261c-6.66699 0 -10 -3.33301 -10 -10v-204c0 -6.66699 3.33301 -10 10 -10h214c6.66699 0 10 -3.33301 10 -10v-37c0 -6.66699 -3.33301 -10 -10 -10h-214
c-6.66699 0 -10 -3.33301 -10 -10v-214c0 -6.66699 3.33301 -10 10 -10h261c6.66699 0 10 -3.33301 10 -10v-37zM307 517c-0.666992 -2 -1.83105 -4.83301 -3.49805 -8.5s-3.5 -7.16699 -5.5 -10.5s-3.83301 -6.66602 -5.5 -9.99902s-2.83398 -5.33301 -3.50098 -6
l-148 -259c-0.666992 -1.33301 -1.16699 -2.5 -1.5 -3.5s-0.5 -2.16699 -0.5 -3.5c0 -5.33301 3.66699 -8 11 -8h148c6.66699 0 10 3.33301 10 10v66v66.5c0 24.333 0.166992 47.666 0.5 69.999s0.666016 42.333 0.999023 60s0.833008 29.5 1.5 35.5z" />
    <glyph glyph-name="Ccedilla" unicode="&#xc7;" horiz-adv-x="464" 
d="M427 77c0 -2 -2.33496 -6.5 -7.00195 -13.5s-10 -13.833 -16 -20.5c-13.333 -15.333 -30.5 -28 -51.5 -38s-48.167 -15 -81.5 -15c-5.33301 0 -9.16602 -0.833008 -11.499 -2.5s-4.16602 -4.16699 -5.49902 -7.5l-15 -32c-1.33301 -2.66699 -2.5 -5.16699 -3.5 -7.5
s-1.5 -4.16602 -1.5 -5.49902c0 -3.33301 2 -6 6 -8c14 -6.66699 25 -14.834 33 -24.501s12 -22.5 12 -38.5v-14c0 -25.333 -9.16699 -45.666 -27.5 -60.999s-40.166 -23 -65.499 -23h-36c-6.66699 0 -10 3.33301 -10 10v16c0 6.66699 3.33301 10 10 10h36
c13.333 0 24.666 4.66699 33.999 14s14 20.666 14 33.999v9c0 13.333 -4.66699 23.666 -14 30.999s-21.666 13 -36.999 17c-4.66699 0.666992 -7 3.33398 -7 8.00098c0 1.33301 0.666992 3.5 2 6.5s2.66602 6.16699 3.99902 9.5l17 36c3.33301 6.66699 5 12.334 5 17.001
s-2.66699 7.66699 -8 9c-42 7.33301 -75.167 25.333 -99.5 54s-36.5 64.334 -36.5 107.001v322c0 24 4.16699 46.167 12.5 66.5s20 37.666 35 51.999s33.167 25.5 54.5 33.5s45.333 12 72 12h31c33.333 0 60.5 -5 81.5 -15s38.5 -22.667 52.5 -38
c5.33301 -5.33301 10.333 -11.666 15 -18.999s7 -12 7 -14c0 -4 -2.33301 -7 -7 -9l-38 -19c-3.33301 -2 -6.33301 -3 -9 -3s-5 1.33301 -7 4c-12.667 17.333 -27.5 30.833 -44.5 40.5s-33.833 14.5 -50.5 14.5h-31c-15.333 0 -29.333 -2.66699 -42 -8
s-23.834 -12.833 -33.501 -22.5s-17.167 -21 -22.5 -34s-8 -26.833 -8 -41.5v-322c0 -14.667 2.66699 -28.5 8 -41.5s12.833 -24.333 22.5 -34s20.834 -17.334 33.501 -23.001s26.667 -8.5 42 -8.5h31c17.333 0 34.5 5.16699 51.5 15.5s31.5 24.166 43.5 41.499
c2 2.66699 4.33301 4 7 4s5.66699 -1 9 -3l38 -19c4.66699 -2.66699 7 -5.66699 7 -9z" />
    <glyph glyph-name="Egrave" unicode="&#xc8;" horiz-adv-x="479" 
d="M296 692c0 -3.33301 -2.33105 -4.99902 -6.99805 -4.99902h-27c-4.66699 0 -9.33398 1.66699 -14.001 5l-115 84c-2.66699 2 -4 4 -4 6c0 4.66699 2.66699 7 8 7h79c5.33301 0 9.66602 -2 12.999 -6l65 -86c1.33301 -2.66699 2 -4.33398 2 -5.00098zM430.002 10.001
c0 -6.66699 -3.33301 -10 -10 -10h-328c-6.66699 0 -10 3.33301 -10 10v609c0 6.66699 3.33301 10 10 10h328c6.66699 0 10 -3.33301 10 -10v-37c0 -6.66699 -3.33301 -10 -10 -10h-261c-6.66699 0 -10 -3.33301 -10 -10v-204c0 -6.66699 3.33301 -10 10 -10h214
c6.66699 0 10 -3.33301 10 -10v-37c0 -6.66699 -3.33301 -10 -10 -10h-214c-6.66699 0 -10 -3.33301 -10 -10v-214c0 -6.66699 3.33301 -10 10 -10h261c6.66699 0 10 -3.33301 10 -10v-37z" />
    <glyph glyph-name="Eacute" unicode="&#xc9;" horiz-adv-x="479" 
d="M387 782c0 -2 -1.33203 -4.00098 -3.99902 -6.00098l-115 -84c-4.66699 -3.33301 -9.33398 -5 -14.001 -5h-27c-4.66699 0 -7 1.66699 -7 5c0 0.666992 0.666992 2.33398 2 5.00098l65 86c2.66699 4 7 6 13 6h79c5.33301 0 8 -2.33301 8 -7zM430.001 9.99902
c0 -6.66699 -3.33301 -10 -10 -10h-328c-6.66699 0 -10 3.33301 -10 10v609c0 6.66699 3.33301 10 10 10h328c6.66699 0 10 -3.33301 10 -10v-37c0 -6.66699 -3.33301 -10 -10 -10h-261c-6.66699 0 -10 -3.33301 -10 -10v-204c0 -6.66699 3.33301 -10 10 -10h214
c6.66699 0 10 -3.33301 10 -10v-37c0 -6.66699 -3.33301 -10 -10 -10h-214c-6.66699 0 -10 -3.33301 -10 -10v-214c0 -6.66699 3.33301 -10 10 -10h261c6.66699 0 10 -3.33301 10 -10v-37z" />
    <glyph glyph-name="Ecircumflex" unicode="&#xca;" horiz-adv-x="479" 
d="M360 690c0 -3.33301 -2.33496 -5 -7.00195 -5h-43c-4 0 -7.33301 2 -10 6l-36 55c-2 2.66699 -4 4 -6 4c-1.33301 0 -3.33301 -1.33301 -6 -4l-36 -55c-3.33301 -4 -7 -6 -11 -6h-42c-4.66699 0 -7 1.66699 -7 5l2 4l65 90c2.66699 3.33301 6.33398 5 11.001 5h48
c4.66699 0 8.33398 -1.66699 11.001 -5l65 -90zM429.998 10c0 -6.66699 -3.33301 -10 -10 -10h-328c-6.66699 -0 -10 3.33301 -10 10v609c0 6.66699 3.33301 10 10 10h328c6.66699 0 10 -3.33301 10 -10v-37c0 -6.66699 -3.33301 -10 -10 -10h-261
c-6.66699 0 -10 -3.33301 -10 -10v-204c0 -6.66699 3.33301 -10 10 -10h214c6.66699 0 10 -3.33301 10 -10v-37c0 -6.66699 -3.33301 -10 -10 -10h-214c-6.66699 0 -10 -3.33301 -10 -10v-214c0 -6.66699 3.33301 -10 10 -10h261c6.66699 0 10 -3.33301 10 -10v-37z" />
    <glyph glyph-name="Edieresis" unicode="&#xcb;" horiz-adv-x="479" 
d="M374 738c0 -11.333 -4.16602 -21.333 -12.499 -30s-18.166 -13 -29.499 -13c-12.667 0 -22.334 4.33301 -29.001 13s-10 18.667 -10 30c0 10.667 3.66699 20.167 11 28.5s16.666 12.5 27.999 12.5c12 0 22 -4 30 -12s12 -17.667 12 -29zM223.001 738
c0 -11.333 -4.16699 -21.333 -12.5 -30s-18.166 -13 -29.499 -13c-12.667 0 -22.334 4.33301 -29.001 13s-10 18.667 -10 30c0 10.667 3.5 20.167 10.5 28.5s16.5 12.5 28.5 12.5s22 -4 30 -12s12 -17.667 12 -29zM430.001 10c0 -6.66699 -3.33301 -10 -10 -10h-328
c-6.66699 -0 -10 3.33301 -10 10v609c0 6.66699 3.33301 10 10 10h328c6.66699 0 10 -3.33301 10 -10v-37c0 -6.66699 -3.33301 -10 -10 -10h-261c-6.66699 0 -10 -3.33301 -10 -10v-204c0 -6.66699 3.33301 -10 10 -10h214c6.66699 0 10 -3.33301 10 -10v-37
c0 -6.66699 -3.33301 -10 -10 -10h-214c-6.66699 0 -10 -3.33301 -10 -10v-214c0 -6.66699 3.33301 -10 10 -10h261c6.66699 0 10 -3.33301 10 -10v-37z" />
    <glyph glyph-name="Igrave" unicode="&#xcc;" horiz-adv-x="230" 
d="M154 692c0 -3.33301 -2.33105 -4.99902 -6.99805 -4.99902h-27c-4.66699 0 -9.33398 1.66699 -14.001 5l-115 84c-2.66699 2 -4 4 -4 6c0 4.66699 2.66699 7 8 7h79c5.33301 0 9.66602 -2 12.999 -6l65 -86c1.33301 -2.66699 2 -4.33398 2 -5.00098zM149.002 10.001
c0 -6.66699 -3.33301 -10 -10 -10h-47c-6.66699 0 -10 3.33301 -10 10v609c0 6.66699 3.33301 10 10 10h47c6.66699 0 10 -3.33301 10 -10v-609z" />
    <glyph glyph-name="Iacute" unicode="&#xcd;" horiz-adv-x="230" 
d="M245 782c0 -2 -1.33203 -4.00098 -3.99902 -6.00098l-115 -84c-4.66699 -3.33301 -9.33398 -5 -14.001 -5h-27c-4.66699 0 -7 1.66699 -7 5c0 0.666992 0.666992 2.33398 2 5.00098l65 86c2.66699 4 7 6 13 6h79c5.33301 0 8 -2.33301 8 -7zM149.001 9.99902
c0 -6.66699 -3.33301 -10 -10 -10h-47c-6.66699 0 -10 3.33301 -10 10v609c0 6.66699 3.33301 10 10 10h47c6.66699 0 10 -3.33301 10 -10v-609z" />
    <glyph glyph-name="Icircumflex" unicode="&#xce;" horiz-adv-x="230" 
d="M218 690c0 -3.33301 -2.33496 -5 -7.00195 -5h-43c-4 0 -7.33301 2 -10 6l-36 55c-2 2.66699 -4 4 -6 4c-1.33301 0 -3.33301 -1.33301 -6 -4l-36 -55c-3.33301 -4 -7 -6 -11 -6h-42c-4.66699 0 -7 1.66699 -7 5l2 4l65 90c2.66699 3.33301 6.33398 5 11.001 5h48
c4.66699 0 8.33398 -1.66699 11.001 -5l65 -90zM148.998 10c0 -6.66699 -3.33301 -10 -10 -10h-47c-6.66699 -0 -10 3.33301 -10 10v609c0 6.66699 3.33301 10 10 10h47c6.66699 0 10 -3.33301 10 -10v-609z" />
    <glyph glyph-name="Idieresis" unicode="&#xcf;" horiz-adv-x="230" 
d="M232 738c0 -11.333 -4.16602 -21.333 -12.499 -30s-18.166 -13 -29.499 -13c-12.667 0 -22.334 4.33301 -29.001 13s-10 18.667 -10 30c0 10.667 3.66699 20.167 11 28.5s16.666 12.5 27.999 12.5c12 0 22 -4 30 -12s12 -17.667 12 -29zM81.001 738
c0 -11.333 -4.16699 -21.333 -12.5 -30s-18.166 -13 -29.499 -13c-12.667 0 -22.334 4.33301 -29.001 13s-10 18.667 -10 30c0 10.667 3.5 20.167 10.5 28.5s16.5 12.5 28.5 12.5s22 -4 30 -12s12 -17.667 12 -29zM149.001 10c0 -6.66699 -3.33301 -10 -10 -10h-47
c-6.66699 -0 -10 3.33301 -10 10v609c0 6.66699 3.33301 10 10 10h47c6.66699 0 10 -3.33301 10 -10v-609z" />
    <glyph glyph-name="Eth" unicode="&#xd0;" horiz-adv-x="526" 
d="M461 175c0 -54 -15.833 -96.667 -47.5 -128s-74.167 -47 -127.5 -47h-194c-6.66699 -0 -10 3.33301 -10 10v266c0 6 -2.66699 9 -8 9h-43c-6.66699 0 -10 3.33301 -10 10v38c0 6.66699 3.33301 10 10 10h42c6 0 9 3 9 9v267c0 6.66699 3.33301 10 10 10h194
c53.333 0 95.833 -15.5 127.5 -46.5s47.5 -73.167 47.5 -126.5v-281zM394 466c0 14.667 -2.83301 28.3311 -8.5 40.998s-13.334 23.834 -23.001 33.501s-21.167 17.334 -34.5 23.001s-27.333 8.5 -42 8.5h-127c-6.66699 0 -10 -3.33301 -10 -10v-210c0 -6 3 -9 9 -9h78
c6.66699 0 10 -3.33301 10 -10v-38c0 -6.66699 -3.33301 -10 -10 -10h-79c-5.33301 0 -8 -2.66699 -8 -8v-210c0 -6.66699 3.33301 -10 10 -10h127c14.667 0 28.667 2.83301 42 8.5s24.833 13.167 34.5 22.5s17.334 20.5 23.001 33.5s8.5 27.167 8.5 42.5v302z" />
    <glyph glyph-name="Ntilde" unicode="&#xd1;" horiz-adv-x="557" 
d="M405 755c0 -1.33301 -1.49609 -4.1709 -4.49609 -8.50391s-5.83301 -8.16602 -8.5 -11.499c-11.333 -15.333 -22 -26.166 -32 -32.499s-21 -9.5 -33 -9.5c-10.667 0 -20.167 2 -28.5 6s-16.166 8.16699 -23.499 12.5l-22 12.5c-7.33301 4 -15.333 6 -24 6
c-6.66699 0 -13.334 -1.66699 -20.001 -5s-14.667 -9.66602 -24 -18.999c-2.66699 -2.66699 -5.33398 -4 -8.00098 -4c-1.33301 0 -4 1.33301 -8 4l-11 9c-4 2.66699 -6 5.33398 -6 8.00098c0 1.33301 1.5 4 4.5 8l9.5 13c10.667 13.333 20.667 22.833 30 28.5
s19.666 8.5 30.999 8.5c10.667 0 20.167 -1.83301 28.5 -5.5s16.166 -7.66699 23.499 -12s14.666 -8.33301 21.999 -12s15.333 -5.5 24 -5.5s16.5 2 23.5 6s15.167 11.333 24.5 22c2.66699 2.66699 5 4 7 4s4.66699 -1.66699 8 -5l12 -10c3.33301 -3.33301 5 -6 5 -8z
M477.004 9.99512c0 -6.66699 -3.33398 -9.99805 -10.001 -9.99805h-47c-4 0 -7 1.66699 -9 5l-243 440c-2 3.33301 -5.16699 9.16602 -9.5 17.499s-7.16602 14.5 -8.49902 18.5l-4 -1c0.666992 -6 1.16699 -17.833 1.5 -35.5s0.666016 -37.667 0.999023 -60
s0.5 -45.666 0.5 -69.999v-66.5v-238c0 -6.66699 -3.33301 -10 -10 -10h-47c-6.66699 0 -10 3.33301 -10 10v609c0 6.66699 3.33301 10 10 10h46c4 0 7 -1.66699 9 -5l243 -445c1.33301 -2.66699 4.33301 -8.33398 9 -17.001s7.66699 -15 9 -19l4 1
c-0.666992 6 -1.16699 17.833 -1.5 35.5s-0.666016 37.667 -0.999023 60s-0.5 45.666 -0.5 69.999v66.5v243c0 6.66699 3.33301 10 10 10h48c6.66699 0 10 -3.33301 10 -10v-609z" />
    <glyph glyph-name="Ograve" unicode="&#xd2;" 
d="M293 692c0 -3.33301 -2.33105 -4.99902 -6.99805 -4.99902h-27c-4.66699 0 -9.33398 1.66699 -14.001 5l-115 84c-2.66699 2 -4 4 -4 6c0 4.66699 2.66699 7 8 7h79c5.33301 0 9.66602 -2 12.999 -6l65 -86c1.33301 -2.66699 2 -4.33398 2 -5.00098zM446.002 154.001
c0 -24 -4.16699 -46.167 -12.5 -66.5s-20.166 -37.666 -35.499 -51.999s-33.666 -25.5 -54.999 -33.5s-45.333 -12 -72 -12h-31c-26.667 0 -50.667 4 -72 12s-39.5 19.167 -54.5 33.5s-26.667 31.666 -35 51.999s-12.5 42.5 -12.5 66.5v322c0 24 4.16699 46.167 12.5 66.5
s20 37.666 35 51.999s33.167 25.5 54.5 33.5s45.333 12 72 12h31c26.667 0 50.667 -4 72 -12s39.666 -19.167 54.999 -33.5s27.166 -31.666 35.499 -51.999s12.5 -42.5 12.5 -66.5v-322zM378.002 476.001c0 14.667 -2.83301 28.5 -8.5 41.5s-13.334 24.333 -23.001 34
s-21 17.167 -34 22.5s-26.833 8 -41.5 8h-31c-15.333 0 -29.333 -2.66699 -42 -8s-23.834 -12.833 -33.501 -22.5s-17.167 -21 -22.5 -34s-8 -26.833 -8 -41.5v-322c0 -14.667 2.66699 -28.5 8 -41.5s12.833 -24.333 22.5 -34s20.834 -17.334 33.501 -23.001
s26.667 -8.5 42 -8.5h31c14.667 0 28.5 2.83301 41.5 8.5s24.333 13.334 34 23.001s17.334 21 23.001 34s8.5 26.833 8.5 41.5v322z" />
    <glyph glyph-name="Oacute" unicode="&#xd3;" 
d="M384 782c0 -2 -1.33203 -4.00098 -3.99902 -6.00098l-115 -84c-4.66699 -3.33301 -9.33398 -5 -14.001 -5h-27c-4.66699 0 -7 1.66699 -7 5c0 0.666992 0.666992 2.33398 2 5.00098l65 86c2.66699 4 7 6 13 6h79c5.33301 0 8 -2.33301 8 -7zM446.001 153.999
c0 -24 -4.16699 -46.167 -12.5 -66.5s-20.166 -37.666 -35.499 -51.999s-33.666 -25.5 -54.999 -33.5s-45.333 -12 -72 -12h-31c-26.667 0 -50.667 4 -72 12s-39.5 19.167 -54.5 33.5s-26.667 31.666 -35 51.999s-12.5 42.5 -12.5 66.5v322c0 24 4.16699 46.167 12.5 66.5
s20 37.666 35 51.999s33.167 25.5 54.5 33.5s45.333 12 72 12h31c26.667 0 50.667 -4 72 -12s39.666 -19.167 54.999 -33.5s27.166 -31.666 35.499 -51.999s12.5 -42.5 12.5 -66.5v-322zM378.001 475.999c0 14.667 -2.83301 28.5 -8.5 41.5s-13.334 24.333 -23.001 34
s-21 17.167 -34 22.5s-26.833 8 -41.5 8h-31c-15.333 0 -29.333 -2.66699 -42 -8s-23.834 -12.833 -33.501 -22.5s-17.167 -21 -22.5 -34s-8 -26.833 -8 -41.5v-322c0 -14.667 2.66699 -28.5 8 -41.5s12.833 -24.333 22.5 -34s20.834 -17.334 33.501 -23.001
s26.667 -8.5 42 -8.5h31c14.667 0 28.5 2.83301 41.5 8.5s24.333 13.334 34 23.001s17.334 21 23.001 34s8.5 26.833 8.5 41.5v322z" />
    <glyph glyph-name="Ocircumflex" unicode="&#xd4;" 
d="M357 690c0 -3.33301 -2.33496 -5 -7.00195 -5h-43c-4 0 -7.33301 2 -10 6l-36 55c-2 2.66699 -4 4 -6 4c-1.33301 0 -3.33301 -1.33301 -6 -4l-36 -55c-3.33301 -4 -7 -6 -11 -6h-42c-4.66699 0 -7 1.66699 -7 5l2 4l65 90c2.66699 3.33301 6.33398 5 11.001 5h48
c4.66699 0 8.33398 -1.66699 11.001 -5l65 -90zM445.998 154c0 -24 -4.16699 -46.167 -12.5 -66.5s-20.166 -37.666 -35.499 -51.999s-33.666 -25.5 -54.999 -33.5s-45.333 -12 -72 -12h-31c-26.667 0 -50.667 4 -72 12s-39.5 19.167 -54.5 33.5s-26.667 31.666 -35 51.999
s-12.5 42.5 -12.5 66.5v322c0 24 4.16699 46.167 12.5 66.5s20 37.666 35 51.999s33.167 25.5 54.5 33.5s45.333 12 72 12h31c26.667 0 50.667 -4 72 -12s39.666 -19.167 54.999 -33.5s27.166 -31.666 35.499 -51.999s12.5 -42.5 12.5 -66.5v-322zM377.998 476
c0 14.667 -2.83301 28.5 -8.5 41.5s-13.334 24.333 -23.001 34s-21 17.167 -34 22.5s-26.833 8 -41.5 8h-31c-15.333 0 -29.333 -2.66699 -42 -8s-23.834 -12.833 -33.501 -22.5s-17.167 -21 -22.5 -34s-8 -26.833 -8 -41.5v-322c0 -14.667 2.66699 -28.5 8 -41.5
s12.833 -24.333 22.5 -34s20.834 -17.334 33.501 -23.001s26.667 -8.5 42 -8.5h31c14.667 0 28.5 2.83301 41.5 8.5s24.333 13.334 34 23.001s17.334 21 23.001 34s8.5 26.833 8.5 41.5v322z" />
    <glyph glyph-name="Otilde" unicode="&#xd5;" 
d="M379 755c0 -1.33301 -1.49609 -4.1709 -4.49609 -8.50391s-5.83301 -8.16602 -8.5 -11.499c-11.333 -15.333 -22 -26.166 -32 -32.499s-21 -9.5 -33 -9.5c-10.667 0 -20.167 2 -28.5 6s-16.166 8.16699 -23.499 12.5l-22 12.5c-7.33301 4 -15.333 6 -24 6
c-6.66699 0 -13.334 -1.66699 -20.001 -5s-14.667 -9.66602 -24 -18.999c-2.66699 -2.66699 -5.33398 -4 -8.00098 -4c-1.33301 0 -4 1.33301 -8 4l-11 9c-4 2.66699 -6 5.33398 -6 8.00098c0 1.33301 1.5 4 4.5 8l9.5 13c10.667 13.333 20.667 22.833 30 28.5
s19.666 8.5 30.999 8.5c10.667 0 20.167 -1.83301 28.5 -5.5s16.166 -7.66699 23.499 -12s14.666 -8.33301 21.999 -12s15.333 -5.5 24 -5.5s16.5 2 23.5 6s15.167 11.333 24.5 22c2.66699 2.66699 5 4 7 4s4.66699 -1.66699 8 -5l12 -10c3.33301 -3.33301 5 -6 5 -8z
M446.004 153.995c0 -24 -4.16699 -46.167 -12.5 -66.5s-20.166 -37.666 -35.499 -51.999s-33.666 -25.5 -54.999 -33.5s-45.333 -12 -72 -12h-31c-26.667 0 -50.667 4 -72 12s-39.5 19.167 -54.5 33.5s-26.667 31.666 -35 51.999s-12.5 42.5 -12.5 66.5v322
c0 24 4.16699 46.167 12.5 66.5s20 37.666 35 51.999s33.167 25.5 54.5 33.5s45.333 12 72 12h31c26.667 0 50.667 -4 72 -12s39.666 -19.167 54.999 -33.5s27.166 -31.666 35.499 -51.999s12.5 -42.5 12.5 -66.5v-322zM378.004 475.995c0 14.667 -2.83301 28.5 -8.5 41.5
s-13.334 24.333 -23.001 34s-21 17.167 -34 22.5s-26.833 8 -41.5 8h-31c-15.333 0 -29.333 -2.66699 -42 -8s-23.834 -12.833 -33.501 -22.5s-17.167 -21 -22.5 -34s-8 -26.833 -8 -41.5v-322c0 -14.667 2.66699 -28.5 8 -41.5s12.833 -24.333 22.5 -34
s20.834 -17.334 33.501 -23.001s26.667 -8.5 42 -8.5h31c14.667 0 28.5 2.83301 41.5 8.5s24.333 13.334 34 23.001s17.334 21 23.001 34s8.5 26.833 8.5 41.5v322z" />
    <glyph glyph-name="Odieresis" unicode="&#xd6;" 
d="M371 738c0 -11.333 -4.16602 -21.333 -12.499 -30s-18.166 -13 -29.499 -13c-12.667 0 -22.334 4.33301 -29.001 13s-10 18.667 -10 30c0 10.667 3.66699 20.167 11 28.5s16.666 12.5 27.999 12.5c12 0 22 -4 30 -12s12 -17.667 12 -29zM220.001 738
c0 -11.333 -4.16699 -21.333 -12.5 -30s-18.166 -13 -29.499 -13c-12.667 0 -22.334 4.33301 -29.001 13s-10 18.667 -10 30c0 10.667 3.5 20.167 10.5 28.5s16.5 12.5 28.5 12.5s22 -4 30 -12s12 -17.667 12 -29zM446.001 154c0 -24 -4.16699 -46.167 -12.5 -66.5
s-20.166 -37.666 -35.499 -51.999s-33.666 -25.5 -54.999 -33.5s-45.333 -12 -72 -12h-31c-26.667 0 -50.667 4 -72 12s-39.5 19.167 -54.5 33.5s-26.667 31.666 -35 51.999s-12.5 42.5 -12.5 66.5v322c0 24 4.16699 46.167 12.5 66.5s20 37.666 35 51.999
s33.167 25.5 54.5 33.5s45.333 12 72 12h31c26.667 0 50.667 -4 72 -12s39.666 -19.167 54.999 -33.5s27.166 -31.666 35.499 -51.999s12.5 -42.5 12.5 -66.5v-322zM378.001 476c0 14.667 -2.83301 28.5 -8.5 41.5s-13.334 24.333 -23.001 34s-21 17.167 -34 22.5
s-26.833 8 -41.5 8h-31c-15.333 0 -29.333 -2.66699 -42 -8s-23.834 -12.833 -33.501 -22.5s-17.167 -21 -22.5 -34s-8 -26.833 -8 -41.5v-322c0 -14.667 2.66699 -28.5 8 -41.5s12.833 -24.333 22.5 -34s20.834 -17.334 33.501 -23.001s26.667 -8.5 42 -8.5h31
c14.667 0 28.5 2.83301 41.5 8.5s24.333 13.334 34 23.001s17.334 21 23.001 34s8.5 26.833 8.5 41.5v322z" />
    <glyph glyph-name="multiply" unicode="&#xd7;" 
d="M409 64c-4.66699 -4.66699 -9.33398 -4.66699 -14.001 0l-132 132c-5.33301 4.66699 -10.333 4.66699 -15 0l-132 -132c-4.66699 -4.66699 -9.33398 -4.66699 -14.001 0l-19 19c-4.66699 4.66699 -4.66699 9.33398 0 14.001l132 132
c4.66699 4.66699 4.66699 9.66699 0 15l-132 132c-4.66699 4.66699 -4.66699 9.33398 0 14.001l19 19c4.66699 4.66699 9.33398 4.66699 14.001 0l132 -132c4.66699 -5.33301 9.66699 -5.33301 15 0l132 132c4.66699 4.66699 9.33398 4.66699 14.001 0l19 -19
c4.66699 -4.66699 4.66699 -9.33398 0 -14.001l-132 -132c-5.33301 -5.33301 -5.33301 -10.333 0 -15l132 -132c4.66699 -4.66699 4.66699 -9.33398 0 -14.001z" />
    <glyph glyph-name="Oslash" unicode="&#xd8;" 
d="M446 154c0 -24 -4.16699 -46.167 -12.5 -66.5s-20.166 -37.666 -35.499 -51.999s-33.666 -25.5 -54.999 -33.5s-45.333 -12 -72 -12h-31c-26.667 0 -50.667 4 -72 12s-39.5 19.167 -54.5 33.5s-26.667 31.666 -35 51.999s-12.5 42.5 -12.5 66.5v322
c0 24 4.16699 46.167 12.5 66.5s20 37.666 35 51.999s33.167 25.5 54.5 33.5s45.333 12 72 12h31c26.667 0 50.667 -4 72 -12s39.666 -19.167 54.999 -33.5s27.166 -31.666 35.499 -51.999s12.5 -42.5 12.5 -66.5v-322zM335 557c0 3.33301 -1.66504 6 -4.99805 8
c-16.667 11.333 -36.334 17 -59.001 17h-31c-15.333 0 -29.333 -2.66699 -42 -8s-23.834 -12.833 -33.501 -22.5s-17.167 -21 -22.5 -34s-8 -26.833 -8 -41.5v-322v-9c0 -2.66699 0.333008 -5 1 -7c2 -6.66699 5.33301 -10 10 -10c4 0 7 2.66699 9 8l180 417
c0.666992 0.666992 1 2 1 4zM378.002 476c0 3.33301 -0.166016 6.99902 -0.499023 10.999s-0.833008 7.66699 -1.5 11c-1.33301 6.66699 -4.33301 10 -9 10s-8 -2.66699 -10 -8l-181 -421c-0.666992 -1.33301 -1 -3 -1 -5c0 -2.66699 1 -5 3 -7
c7.33301 -5.33301 16.166 -10 26.499 -14s22.166 -6 35.499 -6h31c14.667 0 28.5 2.83301 41.5 8.5s24.333 13.334 34 23.001s17.334 21 23.001 34s8.5 26.833 8.5 41.5v322z" />
    <glyph glyph-name="Ugrave" unicode="&#xd9;" 
d="M280 692c0 -3.33301 -2.33105 -4.99902 -6.99805 -4.99902h-27c-4.66699 0 -9.33398 1.66699 -14.001 5l-115 84c-2.66699 2 -4 4 -4 6c0 4.66699 2.66699 7 8 7h79c5.33301 0 9.66602 -2 12.999 -6l65 -86c1.33301 -2.66699 2 -4.33398 2 -5.00098zM446.002 154.001
c0 -24 -4.1709 -46.167 -12.5039 -66.5s-20.166 -37.666 -35.499 -51.999s-33.666 -25.5 -54.999 -33.5s-45.333 -12 -72 -12h-31c-26.667 0 -50.667 4 -72 12s-39.5 19.167 -54.5 33.5s-26.667 31.666 -35 51.999s-12.5 42.5 -12.5 66.5v465c0 6.66699 3.33301 10 10 10h48
c6.66699 0 10 -3.33301 10 -10v-465c0 -14.667 2.66699 -28.5 8 -41.5s12.833 -24.333 22.5 -34s20.834 -17.334 33.501 -23.001s26.667 -8.5 42 -8.5h31c14.667 0 28.5 2.83301 41.5 8.5s24.333 13.334 34 23.001s17.334 21 23.001 34s8.5 26.833 8.5 41.5v465
c0 6.66699 3.33301 10 10 10h48c6.66699 0 10 -3.33301 10 -10v-465z" />
    <glyph glyph-name="Uacute" unicode="&#xda;" 
d="M371 782c0 -2 -1.33203 -4.00098 -3.99902 -6.00098l-115 -84c-4.66699 -3.33301 -9.33398 -5 -14.001 -5h-27c-4.66699 0 -7 1.66699 -7 5c0 0.666992 0.666992 2.33398 2 5.00098l65 86c2.66699 4 7 6 13 6h79c5.33301 0 8 -2.33301 8 -7zM446.001 153.999
c0 -24 -4.1709 -46.167 -12.5039 -66.5s-20.166 -37.666 -35.499 -51.999s-33.666 -25.5 -54.999 -33.5s-45.333 -12 -72 -12h-31c-26.667 0 -50.667 4 -72 12s-39.5 19.167 -54.5 33.5s-26.667 31.666 -35 51.999s-12.5 42.5 -12.5 66.5v465c0 6.66699 3.33301 10 10 10h48
c6.66699 0 10 -3.33301 10 -10v-465c0 -14.667 2.66699 -28.5 8 -41.5s12.833 -24.333 22.5 -34s20.834 -17.334 33.501 -23.001s26.667 -8.5 42 -8.5h31c14.667 0 28.5 2.83301 41.5 8.5s24.333 13.334 34 23.001s17.334 21 23.001 34s8.5 26.833 8.5 41.5v465
c0 6.66699 3.33301 10 10 10h48c6.66699 0 10 -3.33301 10 -10v-465z" />
    <glyph glyph-name="Ucircumflex" unicode="&#xdb;" 
d="M344 690c0 -3.33301 -2.33496 -5 -7.00195 -5h-43c-4 0 -7.33301 2 -10 6l-36 55c-2 2.66699 -4 4 -6 4c-1.33301 0 -3.33301 -1.33301 -6 -4l-36 -55c-3.33301 -4 -7 -6 -11 -6h-42c-4.66699 0 -7 1.66699 -7 5l2 4l65 90c2.66699 3.33301 6.33398 5 11.001 5h48
c4.66699 0 8.33398 -1.66699 11.001 -5l65 -90zM445.998 154c0 -24 -4.1709 -46.167 -12.5039 -66.5s-20.166 -37.666 -35.499 -51.999s-33.666 -25.5 -54.999 -33.5s-45.333 -12 -72 -12h-31c-26.667 0 -50.667 4 -72 12s-39.5 19.167 -54.5 33.5
s-26.667 31.666 -35 51.999s-12.5 42.5 -12.5 66.5v465c0 6.66699 3.33301 10 10 10h48c6.66699 0 10 -3.33301 10 -10v-465c0 -14.667 2.66699 -28.5 8 -41.5s12.833 -24.333 22.5 -34s20.834 -17.334 33.501 -23.001s26.667 -8.5 42 -8.5h31
c14.667 0 28.5 2.83301 41.5 8.5s24.333 13.334 34 23.001s17.334 21 23.001 34s8.5 26.833 8.5 41.5v465c0 6.66699 3.33301 10 10 10h48c6.66699 0 10 -3.33301 10 -10v-465z" />
    <glyph glyph-name="Udieresis" unicode="&#xdc;" 
d="M358 738c0 -11.333 -4.16602 -21.333 -12.499 -30s-18.166 -13 -29.499 -13c-12.667 0 -22.334 4.33301 -29.001 13s-10 18.667 -10 30c0 10.667 3.66699 20.167 11 28.5s16.666 12.5 27.999 12.5c12 0 22 -4 30 -12s12 -17.667 12 -29zM207.001 738
c0 -11.333 -4.16699 -21.333 -12.5 -30s-18.166 -13 -29.499 -13c-12.667 0 -22.334 4.33301 -29.001 13s-10 18.667 -10 30c0 10.667 3.5 20.167 10.5 28.5s16.5 12.5 28.5 12.5s22 -4 30 -12s12 -17.667 12 -29zM446.001 154c0 -24 -4.1709 -46.167 -12.5039 -66.5
s-20.166 -37.666 -35.499 -51.999s-33.666 -25.5 -54.999 -33.5s-45.333 -12 -72 -12h-31c-26.667 0 -50.667 4 -72 12s-39.5 19.167 -54.5 33.5s-26.667 31.666 -35 51.999s-12.5 42.5 -12.5 66.5v465c0 6.66699 3.33301 10 10 10h48c6.66699 0 10 -3.33301 10 -10v-465
c0 -14.667 2.66699 -28.5 8 -41.5s12.833 -24.333 22.5 -34s20.834 -17.334 33.501 -23.001s26.667 -8.5 42 -8.5h31c14.667 0 28.5 2.83301 41.5 8.5s24.333 13.334 34 23.001s17.334 21 23.001 34s8.5 26.833 8.5 41.5v465c0 6.66699 3.33301 10 10 10h48
c6.66699 0 10 -3.33301 10 -10v-465z" />
    <glyph glyph-name="Yacute" unicode="&#xdd;" horiz-adv-x="448" 
d="M353 782c0 -2 -1.33203 -4.00098 -3.99902 -6.00098l-115 -84c-4.66699 -3.33301 -9.33398 -5 -14.001 -5h-27c-4.66699 0 -7 1.66699 -7 5c0 0.666992 0.666992 2.33398 2 5.00098l65 86c2.66699 4 7 6 13 6h79c5.33301 0 8 -2.33301 8 -7zM432.001 620.999
c0 -2.66699 -6.66602 -16.333 -19.999 -41l-154 -289v-281c0 -6.66699 -3.33301 -10 -10 -10h-49c-6.66699 0 -10 3.33301 -10 10v281l-155 293c-4.66699 8 -8.83398 15.667 -12.501 23s-5.5 12 -5.5 14c0 5.33301 3.66699 8 11 8h57c3.33301 0 6.33301 -2 9 -6l123 -252
c2 -5.33301 5 -8 9 -8s7 2.66699 9 8l121 252c2.66699 4 5.66699 6 9 6h57c7.33301 0 11 -2.66699 11 -8z" />
    <glyph glyph-name="Thorn" unicode="&#xde;" horiz-adv-x="484" 
d="M461 336c0 -23.333 -4.16895 -45 -12.502 -65s-20.166 -37.5 -35.499 -52.5s-33.666 -26.667 -54.999 -35s-45.333 -12.5 -72 -12.5h-127c-6.66699 0 -10 -3.33301 -10 -10v-151c0 -6.66699 -3.33301 -10 -10 -10h-47c-6.66699 -0 -10 3.33301 -10 10v609
c0 6.66699 3.33301 10 10 10h47c6.66699 0 10 -3.33301 10 -10v-100c0 -6.66699 3.66699 -10 11 -10h126c53.333 0 95.833 -15.667 127.5 -47s47.5 -73.333 47.5 -126zM393.998 346c0 14.667 -2.83301 28.3301 -8.5 40.9971s-13.334 23.834 -23.001 33.501
s-21.167 17.334 -34.5 23.001s-27.333 8.5 -42 8.5h-127c-6.66699 0 -10 -3.33301 -10 -10v-204c0 -6.66699 3.33301 -10 10 -10h127c14.667 0 28.667 2.83301 42 8.5s24.833 13.334 34.5 23.001s17.334 21 23.001 34s8.5 27.167 8.5 42.5v10z" />
    <glyph glyph-name="germandbls" unicode="&#xdf;" horiz-adv-x="487" 
d="M436 162c0 -38.667 -8.99902 -71.667 -26.999 -99s-43.667 -47.333 -77 -60c-8 -3.33301 -17.167 -6.16602 -27.5 -8.49902s-17.5 -3.5 -21.5 -3.5c-6 0 -9 3.33301 -9 10v39c0 5.33301 2.66699 8.66602 8 9.99902c26.667 6 47.667 18.5 63 37.5s23 41.167 23 66.5v31
c0 25.333 -7.66699 47.333 -23 66s-36.333 31 -63 37c-5.33301 1.33301 -8 4.66602 -8 9.99902v43c0 5.33301 2.66699 8.66602 8 9.99902c26.667 6.66699 47.667 19.5 63 38.5s23 41.167 23 66.5v20c0 14.667 -2.83301 28.5 -8.5 41.5s-13.334 24.333 -23.001 34
s-21 17.167 -34 22.5s-26.833 8 -41.5 8c-32 0 -57.667 -10.167 -77 -30.5s-29 -45.5 -29 -75.5v-466c0 -6.66699 -3.33301 -10 -10 -10h-48c-6.66699 0 -10 3.33301 -10 10v318c0 6.66699 -3.33301 10 -10 10h-27c-6.66699 0 -10 3.33301 -10 10v37
c0 6.66699 3.33301 10 10 10h27c6.66699 0 10 3.33301 10 10v61c0 24 4.5 46.667 13.5 68s21.333 39.833 37 55.5s34.167 28 55.5 37s44 13.5 68 13.5c53.333 0 95.833 -15.667 127.5 -47s47.5 -73.666 47.5 -126.999v-21c0 -22.667 -7.33301 -45 -22 -67
s-32.667 -38.333 -54 -49c-5.33301 -2 -8 -5 -8 -9c0 -2.66699 2.66699 -5.66699 8 -9c10.667 -5.33301 20.667 -12.666 30 -21.999s17.5 -19.5 24.5 -30.5s12.333 -22.5 16 -34.5s5.5 -24 5.5 -36v-26v0z" />
    <glyph glyph-name="agrave" unicode="&#xe0;" horiz-adv-x="462" 
d="M258 505c0 -5.33301 -3.66797 -8.00098 -11.001 -8.00098h-20c-4 0 -7.66699 1.66699 -11 5l-114 102c-2.66699 2.66699 -4 5.33398 -4 8.00098c0 6 3.66699 9 11 9h66c4.66699 0 8.33398 -2 11.001 -6l69 -102c2 -3.33301 3 -6 3 -8zM391.999 9.99902
c0 -6.66699 -3.33398 -10.001 -10.001 -10.001h-37c-6.66699 0 -10 3.33301 -10 10v43c0 8 -3 12 -9 12c-2.66699 0 -5.66699 -1.66699 -9 -5c-15.333 -17.333 -31.666 -31.666 -48.999 -42.999s-32.666 -17 -45.999 -17h-40c-17.333 0 -33.666 2.83301 -48.999 8.5
s-28.666 13.5 -39.999 23.5s-20.333 22.167 -27 36.5s-10 30.5 -10 48.5v6c0 18 3.33301 34.167 10 48.5s15.667 26.5 27 36.5s24.666 17.667 39.999 23s31.666 8 48.999 8h132c6.66699 0 10 3 10 9v41c0 30 -10.333 54.833 -31 74.5s-46 29.5 -76 29.5
c-16.667 0 -33.5 -4.66699 -50.5 -14s-31.5 -23 -43.5 -41c-2 -3.33301 -4.66699 -5 -8 -5c-2 0 -5.66699 1.33301 -11 4l-36 19c-4 2 -6 4.66699 -6 8c0 2 2.16699 6.16699 6.5 12.5l12.5 17.5c13.333 16.667 30.666 30.167 51.999 40.5s49.333 15.5 84 15.5
c53.333 0 95.833 -14.667 127.5 -44s47.5 -68.333 47.5 -117v-279zM323.998 181.998c0 6.66699 -3.33301 10.001 -10 10.001h-132c-16.667 0 -30.667 -5.66699 -42 -17s-17 -25.333 -17 -42v-16c0 -16 5.83301 -30 17.5 -42s25.5 -18 41.5 -18h40
c11.333 0 22.333 2.5 33 7.5s20.5 11.667 29.5 20s16.833 17.666 23.5 27.999s12 20.833 16 31.5v38z" />
    <glyph glyph-name="aacute" unicode="&#xe1;" horiz-adv-x="462" 
d="M359 612c0 -2.66699 -1.33398 -5.33301 -4.00098 -8l-114 -102c-3.33301 -3.33301 -7 -5 -11 -5h-20c-7.33301 0 -11 2.66699 -11 8c0 2 1 4.66699 3 8l69 102c2.66699 4 6.33398 6 11.001 6h66c7.33301 0 11 -3 11 -9zM391.999 10.001
c0 -6.66699 -3.33398 -10.001 -10.001 -10.001h-37c-6.66699 -0 -10 3.33301 -10 10v43c0 8 -3 12 -9 12c-2.66699 0 -5.66699 -1.66699 -9 -5c-15.333 -17.333 -31.666 -31.666 -48.999 -42.999s-32.666 -17 -45.999 -17h-40c-17.333 0 -33.666 2.83301 -48.999 8.5
s-28.666 13.5 -39.999 23.5s-20.333 22.167 -27 36.5s-10 30.5 -10 48.5v6c0 18 3.33301 34.167 10 48.5s15.667 26.5 27 36.5s24.666 17.667 39.999 23s31.666 8 48.999 8h132c6.66699 0 10 3 10 9v41c0 30 -10.333 54.833 -31 74.5s-46 29.5 -76 29.5
c-16.667 0 -33.5 -4.66699 -50.5 -14s-31.5 -23 -43.5 -41c-2 -3.33301 -4.66699 -5 -8 -5c-2 0 -5.66699 1.33301 -11 4l-36 19c-4 2 -6 4.66699 -6 8c0 2 2.16699 6.16699 6.5 12.5l12.5 17.5c13.333 16.667 30.666 30.167 51.999 40.5s49.333 15.5 84 15.5
c53.333 0 95.833 -14.667 127.5 -44s47.5 -68.333 47.5 -117v-279zM323.998 182c0 6.66699 -3.33301 10.001 -10 10.001h-132c-16.667 0 -30.667 -5.66699 -42 -17s-17 -25.333 -17 -42v-16c0 -16 5.83301 -30 17.5 -42s25.5 -18 41.5 -18h40c11.333 0 22.333 2.5 33 7.5
s20.5 11.667 29.5 20s16.833 17.666 23.5 27.999s12 20.833 16 31.5v38z" />
    <glyph glyph-name="acircumflex" unicode="&#xe2;" horiz-adv-x="462" 
d="M335 505c0 -5.33301 -3.66699 -8 -11 -8h-35c-2.66699 0 -5.33398 1.33301 -8.00098 4l-44 62c-2 3.33301 -4.66699 5 -8 5c-2 0 -4.66699 -1.66699 -8 -5l-47 -62c-2.66699 -2.66699 -5.33398 -4 -8.00098 -4h-34c-7.33301 0 -11 2.66699 -11 8c0 2 1 4.66699 3 8
l80 105c2.66699 2.66699 5.33398 4 8.00098 4h31c2.66699 0 5.33398 -1.33301 8.00098 -4l81 -105c2 -3.33301 3 -6 3 -8zM392 10c0 -6.66699 -3.33398 -10.001 -10.001 -10.001h-37c-6.66699 0 -10 3.33301 -10 10v43c0 8 -3 12 -9 12c-2.66699 0 -5.66699 -1.66699 -9 -5
c-15.333 -17.333 -31.666 -31.666 -48.999 -42.999s-32.666 -17 -45.999 -17h-40c-17.333 -0 -33.666 2.83301 -48.999 8.5s-28.666 13.5 -39.999 23.5s-20.333 22.167 -27 36.5s-10 30.5 -10 48.5v6c0 18 3.33301 34.167 10 48.5s15.667 26.5 27 36.5
s24.666 17.667 39.999 23s31.666 8 48.999 8h132c6.66699 0 10 3 10 9v41c0 30 -10.333 54.833 -31 74.5s-46 29.5 -76 29.5c-16.667 0 -33.5 -4.66699 -50.5 -14s-31.5 -23 -43.5 -41c-2 -3.33301 -4.66699 -5 -8 -5c-2 0 -5.66699 1.33301 -11 4l-36 19
c-4 2 -6 4.66699 -6 8c0 2 2.16699 6.16699 6.5 12.5l12.5 17.5c13.333 16.667 30.666 30.167 51.999 40.5s49.333 15.5 84 15.5c53.333 0 95.833 -14.667 127.5 -44s47.5 -68.333 47.5 -117v-279zM323.999 181.999c0 6.66699 -3.33301 10.001 -10 10.001h-132
c-16.667 0 -30.667 -5.66699 -42 -17s-17 -25.333 -17 -42v-16c0 -16 5.83301 -30 17.5 -42s25.5 -18 41.5 -18h40c11.333 0 22.333 2.5 33 7.5s20.5 11.667 29.5 20s16.833 17.666 23.5 27.999s12 20.833 16 31.5v38z" />
    <glyph glyph-name="atilde" unicode="&#xe3;" horiz-adv-x="462" 
d="M369 571c0 -2 -2 -5.83105 -6 -11.498l-12 -16.5c-20 -24.667 -41 -37 -63 -37c-9.33301 0 -19.166 2.5 -29.499 7.5s-21.166 11.167 -32.499 18.5l-20 13c-15.333 10 -29.333 15 -42 15c-8 0 -16.167 -1.83301 -24.5 -5.5s-17.5 -10.5 -27.5 -20.5
c-2 -2 -4.33301 -3 -7 -3s-4.66699 0.666992 -6 2l-10 7c-3.33301 2 -5 4.66699 -5 8c0 2 1.5 5.16699 4.5 9.5s6.16699 9.16602 9.5 14.499c19.333 26.667 41.333 40 66 40c19.333 0 39 -7.66699 59 -23l21 -16c5.33301 -4.66699 12.166 -8.33398 20.499 -11.001
s16.166 -4 23.499 -4c8 0 16.5 2 25.5 6s18.5 11 28.5 21c2.66699 2.66699 5 4 7 4s4 -1 6 -3l9 -7c3.33301 -2 5 -4.66699 5 -8zM392 10.002c0 -6.66699 -3.33398 -10.001 -10.001 -10.001h-37c-6.66699 0 -10 3.33301 -10 10v43c0 8 -3 12 -9 12
c-2.66699 0 -5.66699 -1.66699 -9 -5c-15.333 -17.333 -31.666 -31.666 -48.999 -42.999s-32.666 -17 -45.999 -17h-40c-17.333 0 -33.666 2.83301 -48.999 8.5s-28.666 13.5 -39.999 23.5s-20.333 22.167 -27 36.5s-10 30.5 -10 48.5v6c0 18 3.33301 34.167 10 48.5
s15.667 26.5 27 36.5s24.666 17.667 39.999 23s31.666 8 48.999 8h132c6.66699 0 10 3 10 9v41c0 30 -10.333 54.833 -31 74.5s-46 29.5 -76 29.5c-16.667 0 -33.5 -4.66699 -50.5 -14s-31.5 -23 -43.5 -41c-2 -3.33301 -4.66699 -5 -8 -5c-2 0 -5.66699 1.33301 -11 4
l-36 19c-4 2 -6 4.66699 -6 8c0 2 2.16699 6.16699 6.5 12.5l12.5 17.5c13.333 16.667 30.666 30.167 51.999 40.5s49.333 15.5 84 15.5c53.333 0 95.833 -14.667 127.5 -44s47.5 -68.333 47.5 -117v-279zM323.999 182.001c0 6.66699 -3.33301 10.001 -10 10.001h-132
c-16.667 0 -30.667 -5.66699 -42 -17s-17 -25.333 -17 -42v-16c0 -16 5.83301 -30 17.5 -42s25.5 -18 41.5 -18h40c11.333 0 22.333 2.5 33 7.5s20.5 11.667 29.5 20s16.833 17.666 23.5 27.999s12 20.833 16 31.5v38z" />
    <glyph glyph-name="adieresis" unicode="&#xe4;" horiz-adv-x="462" 
d="M354 559c0 -12 -4.50098 -22.501 -13.501 -31.501s-19.5 -13.5 -31.5 -13.5c-12.667 0 -23 4.33301 -31 13s-12 19.334 -12 32.001s4 23 12 31s18.333 12 31 12s23.334 -4 32.001 -12s13 -18.333 13 -31zM190.999 558.999c0 -12.667 -4.16699 -23.334 -12.5 -32.001
s-18.833 -13 -31.5 -13s-23.167 4.33301 -31.5 13s-12.5 19.334 -12.5 32.001s4.16699 23 12.5 31s18.833 12 31.5 12s23.167 -4 31.5 -12s12.5 -18.333 12.5 -31zM391.999 9.99902c0 -6.66699 -3.33398 -10.001 -10.001 -10.001h-37c-6.66699 0 -10 3.33301 -10 10v43
c0 8 -3 12 -9 12c-2.66699 0 -5.66699 -1.66699 -9 -5c-15.333 -17.333 -31.666 -31.666 -48.999 -42.999s-32.666 -17 -45.999 -17h-40c-17.333 0 -33.666 2.83301 -48.999 8.5s-28.666 13.5 -39.999 23.5s-20.333 22.167 -27 36.5s-10 30.5 -10 48.5v6
c0 18 3.33301 34.167 10 48.5s15.667 26.5 27 36.5s24.666 17.667 39.999 23s31.666 8 48.999 8h132c6.66699 0 10 3 10 9v41c0 30 -10.333 54.833 -31 74.5s-46 29.5 -76 29.5c-16.667 0 -33.5 -4.66699 -50.5 -14s-31.5 -23 -43.5 -41c-2 -3.33301 -4.66699 -5 -8 -5
c-2 0 -5.66699 1.33301 -11 4l-36 19c-4 2 -6 4.66699 -6 8c0 2 2.16699 6.16699 6.5 12.5l12.5 17.5c13.333 16.667 30.666 30.167 51.999 40.5s49.333 15.5 84 15.5c53.333 0 95.833 -14.667 127.5 -44s47.5 -68.333 47.5 -117v-279zM323.998 181.998
c0 6.66699 -3.33301 10.001 -10 10.001h-132c-16.667 0 -30.667 -5.66699 -42 -17s-17 -25.333 -17 -42v-16c0 -16 5.83301 -30 17.5 -42s25.5 -18 41.5 -18h40c11.333 0 22.333 2.5 33 7.5s20.5 11.667 29.5 20s16.833 17.666 23.5 27.999s12 20.833 16 31.5v38z" />
    <glyph glyph-name="aring" unicode="&#xe5;" horiz-adv-x="462" 
d="M309 573c0 -22.667 -7.5 -41 -22.5 -55s-34.5 -21 -58.5 -21c-24.667 0 -44.167 7 -58.5 21s-21.5 32.333 -21.5 55v31c0 22.667 7.16699 40.834 21.5 54.501s33.833 20.5 58.5 20.5c24 0 43.5 -6.83301 58.5 -20.5s22.5 -31.834 22.5 -54.501v-31zM392 10
c0 -6.66699 -3.33398 -10.001 -10.001 -10.001h-37c-6.66699 0 -10 3.33301 -10 10v43c0 8 -3 12 -9 12c-2.66699 0 -5.66699 -1.66699 -9 -5c-15.333 -17.333 -31.666 -31.666 -48.999 -42.999s-32.666 -17 -45.999 -17h-40c-17.333 -0 -33.666 2.83301 -48.999 8.5
s-28.666 13.5 -39.999 23.5s-20.333 22.167 -27 36.5s-10 30.5 -10 48.5v6c0 18 3.33301 34.167 10 48.5s15.667 26.5 27 36.5s24.666 17.667 39.999 23s31.666 8 48.999 8h132c6.66699 0 10 3 10 9v41c0 30 -10.333 54.833 -31 74.5s-46 29.5 -76 29.5
c-16.667 0 -33.5 -4.66699 -50.5 -14s-31.5 -23 -43.5 -41c-2 -3.33301 -4.66699 -5 -8 -5c-2 0 -5.66699 1.33301 -11 4l-36 19c-4 2 -6 4.66699 -6 8c0 2 2.16699 6.16699 6.5 12.5l12.5 17.5c13.333 16.667 30.666 30.167 51.999 40.5s49.333 15.5 84 15.5
c53.333 0 95.833 -14.667 127.5 -44s47.5 -68.333 47.5 -117v-279zM278.999 603.999c0 14 -4.66699 25 -14 33s-21.666 12 -36.999 12s-27.5 -4 -36.5 -12s-13.5 -19 -13.5 -33v-31c0 -14 4.5 -25.167 13.5 -33.5s21.167 -12.5 36.5 -12.5s27.666 4.16699 36.999 12.5
s14 19.5 14 33.5v31zM323.999 181.999c0 6.66699 -3.33301 10.001 -10 10.001h-132c-16.667 0 -30.667 -5.66699 -42 -17s-17 -25.333 -17 -42v-16c0 -16 5.83301 -30 17.5 -42s25.5 -18 41.5 -18h40c11.333 0 22.333 2.5 33 7.5s20.5 11.667 29.5 20
s16.833 17.666 23.5 27.999s12 20.833 16 31.5v38z" />
    <glyph glyph-name="ae" unicode="&#xe6;" horiz-adv-x="739" 
d="M685 228c0 -6.66699 -3.33203 -10.0029 -9.99902 -10.0029h-261c-6.66699 0 -10 -3.33301 -10 -10v-54c0 -14.667 2.83301 -28.5 8.5 -41.5s13.334 -24.333 23.001 -34s20.834 -17.334 33.501 -23.001s26.334 -8.5 41.001 -8.5c17.333 0 34.5 5.16699 51.5 15.5
s31.5 24.166 43.5 41.499c2 2.66699 4.33301 4 7 4c1.33301 0 2.83301 -0.333008 4.5 -1s3.16699 -1.33398 4.5 -2.00098l38 -19c4.66699 -2.66699 7 -5.66699 7 -9c0 -1.33301 -1.83301 -5.16602 -5.5 -11.499s-8.83398 -13.166 -15.501 -20.499
c-13.333 -16 -30.666 -29.167 -51.999 -39.5s-49 -15.5 -83 -15.5c-62 0 -111 24.333 -147 73c-2.66699 3.33301 -5.33398 5 -8.00098 5c-4 0 -7 -2 -9 -6c-7.33301 -12.667 -16 -23.5 -26 -32.5s-20.167 -16.5 -30.5 -22.5s-20.333 -10.333 -30 -13s-18.167 -4 -25.5 -4
h-52c-17.333 0 -33.666 2.83301 -48.999 8.5s-28.666 13.5 -39.999 23.5s-20.333 22.167 -27 36.5s-10 30.5 -10 48.5v31c0 18 3.33301 33.5 10 46.5s15.667 24 27 33s24.666 15.667 39.999 20s31.666 6.5 48.999 6.5h144c6.66699 0 10 3.33301 10 10v33
c0 14.667 -2.83301 28.334 -8.5 41.001s-13.334 23.834 -23.001 33.501s-21 17.334 -34 23.001s-26.833 8.5 -41.5 8.5c-16.667 0 -33.5 -4.66699 -50.5 -14s-31.5 -23 -43.5 -41c-2 -3.33301 -4.66699 -5 -8 -5c-1.33301 0 -3.33301 0.5 -6 1.5s-5 2.16699 -7 3.5l-34 18
c-4 2 -6 4.66699 -6 8c0 2 1.66699 5.83301 5 11.5s7.33301 11.167 12 16.5c13.333 17.333 30.833 31.333 52.5 42s50.167 16 85.5 16c27.333 0 52.333 -4.16699 75 -12.5s43.667 -22.166 63 -41.499c4 -2.66699 6.33301 -4 7 -4c2.66699 0 5 1.33301 7 4
c36 37.333 79 56 129 56c26.667 0 50.667 -4.83301 72 -14.5s39.666 -22.334 54.999 -38.001s27.166 -33.167 35.499 -52.5s12.5 -38.666 12.5 -57.999v-61zM617.001 288.997c0 14.667 -2.83203 28.3311 -8.49902 40.998s-13.334 23.834 -23.001 33.501
s-21 17.334 -34 23.001s-26.833 8.5 -41.5 8.5c-30 0 -55.167 -10.167 -75.5 -30.5s-30.5 -45.5 -30.5 -75.5v-14c0 -6.66699 3.33301 -10 10 -10h193c6.66699 0 10 3.33301 10 10v14zM336.002 186.994c0 6.66699 -3.33301 10.002 -10 10.002h-144
c-16.667 0 -30.667 -5.66699 -42 -17s-17 -25.333 -17 -42v-31c0 -16 5.83301 -30 17.5 -42s25.5 -18 41.5 -18h52c11.333 0 22.333 2.66699 33 8s20.5 12.166 29.5 20.499s16.833 17.666 23.5 27.999s12 20.833 16 31.5v52z" />
    <glyph glyph-name="ccedilla" unicode="&#xe7;" horiz-adv-x="425" 
d="M385 77c0 -2 -2.00098 -5.99805 -6.00098 -11.998s-9.33301 -13 -16 -21c-16 -18.667 -34.833 -32.167 -56.5 -40.5s-41.167 -12.5 -58.5 -12.5c-6.66699 0 -11.334 -3 -14.001 -9l-16 -34c-1.33301 -2.66699 -2.5 -5.16699 -3.5 -7.5s-1.5 -4.16602 -1.5 -5.49902
c0 -3.33301 2 -6 6 -8c14 -6.66699 25 -14.834 33 -24.501s12 -22.5 12 -38.5v-14c0 -25.333 -9.16699 -45.666 -27.5 -60.999s-40.166 -23 -65.499 -23h-36c-6.66699 0 -10 3.33301 -10 10v16c0 6.66699 3.33301 10 10 10h36c13.333 0 24.666 4.66699 33.999 14
s14 20.666 14 33.999v9c0 13.333 -4.66699 23.666 -14 30.999s-21.666 13 -36.999 17c-4.66699 0.666992 -7 3.33398 -7 8.00098c0 1.33301 0.666992 3.5 2 6.5s2.66602 6.16699 3.99902 9.5l19 40c1.33301 2 2.5 4.5 3.5 7.5s1.5 5.5 1.5 7.5c0 4.66699 -3 7.66699 -9 9
c-39.333 8.66699 -70.166 27 -92.499 55s-33.5 62.667 -33.5 104v135c0 48.667 15.5 88 46.5 118s73.167 45 126.5 45c33.333 0 60.666 -4.83301 81.999 -14.5s38.666 -22.167 51.999 -37.5c6 -7.33301 11.167 -14 15.5 -20s6.5 -10.333 6.5 -13c0 -4 -2.33301 -7 -7 -9
l-36 -18c-5.33301 -2.66699 -9 -4 -11 -4c-2.66699 0 -5 1.33301 -7 4c-12 17.333 -26.5 30.833 -43.5 40.5s-34.167 14.5 -51.5 14.5c-30 0 -55.167 -10.167 -75.5 -30.5s-30.5 -45.5 -30.5 -75.5v-135c0 -14.667 2.83301 -28.5 8.5 -41.5s13.334 -24.333 23.001 -34
s20.834 -17.334 33.501 -23.001s26.334 -8.5 41.001 -8.5c17.333 0 34.5 5.16699 51.5 15.5s31.5 24.166 43.5 41.499c2 2.66699 4.33301 4 7 4c2 0 4.16699 -0.5 6.5 -1.5s4.5 -2.16699 6.5 -3.5l34 -17c4.66699 -2.66699 7 -5.66699 7 -9z" />
    <glyph glyph-name="egrave" unicode="&#xe8;" horiz-adv-x="458" 
d="M258 505c0 -5.33301 -3.66797 -8.00098 -11.001 -8.00098h-20c-4 0 -7.66699 1.66699 -11 5l-114 102c-2.66699 2.66699 -4 5.33398 -4 8.00098c0 6 3.66699 9 11 9h66c4.66699 0 8.33398 -2 11.001 -6l69 -102c2 -3.33301 3 -6 3 -8zM403.999 227.999
c0 -6.66699 -3.33496 -9.99902 -10.002 -9.99902h-261c-6.66699 0 -10 -3.33301 -10 -10v-54c0 -14.667 2.83301 -28.5 8.5 -41.5s13.334 -24.333 23.001 -34s20.834 -17.334 33.501 -23.001s26.334 -8.5 41.001 -8.5c17.333 0 34.5 5.16699 51.5 15.5
s31.5 24.166 43.5 41.499c2 2.66699 4.33301 4 7 4c1.33301 0 2.83301 -0.333008 4.5 -1s3.83398 -1.66699 6.50098 -3l36 -18c4.66699 -2.66699 7 -5.66699 7 -9c0 -2 -2.16699 -6.16699 -6.5 -12.5s-9.5 -13.166 -15.5 -20.499c-13.333 -16 -30.5 -29 -51.5 -39
s-48.5 -15 -82.5 -15c-53.333 0 -95.5 15.167 -126.5 45.5s-46.5 69.833 -46.5 118.5v135c0 19.333 4 38.666 12 57.999s19.5 36.833 34.5 52.5s33.167 28.334 54.5 38.001s45.333 14.5 72 14.5s50.667 -4.83301 72 -14.5s39.666 -22.334 54.999 -38.001
s27.166 -33.167 35.499 -52.5s12.5 -38.666 12.5 -57.999v-61zM335.997 289c0 14.667 -2.83203 28.3311 -8.49902 40.998s-13.334 23.834 -23.001 33.501s-21 17.334 -34 23.001s-26.833 8.5 -41.5 8.5c-30 0 -55.167 -10.167 -75.5 -30.5s-30.5 -45.5 -30.5 -75.5v-14
c0 -6.66699 3.33301 -10 10 -10h193c6.66699 0 10 3.33301 10 10v14z" />
    <glyph glyph-name="eacute" unicode="&#xe9;" horiz-adv-x="458" 
d="M359 612c0 -2.66699 -1.33398 -5.33301 -4.00098 -8l-114 -102c-3.33301 -3.33301 -7 -5 -11 -5h-20c-7.33301 0 -11 2.66699 -11 8c0 2 1 4.66699 3 8l69 102c2.66699 4 6.33398 6 11.001 6h66c7.33301 0 11 -3 11 -9zM403.999 228.001
c0 -6.66699 -3.33496 -9.99902 -10.002 -9.99902h-261c-6.66699 0 -10 -3.33301 -10 -10v-54c0 -14.667 2.83301 -28.5 8.5 -41.5s13.334 -24.333 23.001 -34s20.834 -17.334 33.501 -23.001s26.334 -8.5 41.001 -8.5c17.333 0 34.5 5.16699 51.5 15.5
s31.5 24.166 43.5 41.499c2 2.66699 4.33301 4 7 4c1.33301 0 2.83301 -0.333008 4.5 -1s3.83398 -1.66699 6.50098 -3l36 -18c4.66699 -2.66699 7 -5.66699 7 -9c0 -2 -2.16699 -6.16699 -6.5 -12.5s-9.5 -13.166 -15.5 -20.499c-13.333 -16 -30.5 -29 -51.5 -39
s-48.5 -15 -82.5 -15c-53.333 0 -95.5 15.167 -126.5 45.5s-46.5 69.833 -46.5 118.5v135c0 19.333 4 38.666 12 57.999s19.5 36.833 34.5 52.5s33.167 28.334 54.5 38.001s45.333 14.5 72 14.5s50.667 -4.83301 72 -14.5s39.666 -22.334 54.999 -38.001
s27.166 -33.167 35.499 -52.5s12.5 -38.666 12.5 -57.999v-61zM335.997 289.002c0 14.667 -2.83203 28.3311 -8.49902 40.998s-13.334 23.834 -23.001 33.501s-21 17.334 -34 23.001s-26.833 8.5 -41.5 8.5c-30 0 -55.167 -10.167 -75.5 -30.5s-30.5 -45.5 -30.5 -75.5v-14
c0 -6.66699 3.33301 -10 10 -10h193c6.66699 0 10 3.33301 10 10v14z" />
    <glyph glyph-name="ecircumflex" unicode="&#xea;" horiz-adv-x="458" 
d="M335 505c0 -5.33301 -3.66699 -8 -11 -8h-35c-2.66699 0 -5.33398 1.33301 -8.00098 4l-44 62c-2 3.33301 -4.66699 5 -8 5c-2 0 -4.66699 -1.66699 -8 -5l-47 -62c-2.66699 -2.66699 -5.33398 -4 -8.00098 -4h-34c-7.33301 0 -11 2.66699 -11 8c0 2 1 4.66699 3 8
l80 105c2.66699 2.66699 5.33398 4 8.00098 4h31c2.66699 0 5.33398 -1.33301 8.00098 -4l81 -105c2 -3.33301 3 -6 3 -8zM404 228c0 -6.66699 -3.33496 -9.99902 -10.002 -9.99902h-261c-6.66699 0 -10 -3.33301 -10 -10v-54c0 -14.667 2.83301 -28.5 8.5 -41.5
s13.334 -24.333 23.001 -34s20.834 -17.334 33.501 -23.001s26.334 -8.5 41.001 -8.5c17.333 0 34.5 5.16699 51.5 15.5s31.5 24.166 43.5 41.499c2 2.66699 4.33301 4 7 4c1.33301 0 2.83301 -0.333008 4.5 -1s3.83398 -1.66699 6.50098 -3l36 -18
c4.66699 -2.66699 7 -5.66699 7 -9c0 -2 -2.16699 -6.16699 -6.5 -12.5s-9.5 -13.166 -15.5 -20.499c-13.333 -16 -30.5 -29 -51.5 -39s-48.5 -15 -82.5 -15c-53.333 0 -95.5 15.167 -126.5 45.5s-46.5 69.833 -46.5 118.5v135c0 19.333 4 38.666 12 57.999
s19.5 36.833 34.5 52.5s33.167 28.334 54.5 38.001s45.333 14.5 72 14.5s50.667 -4.83301 72 -14.5s39.666 -22.334 54.999 -38.001s27.166 -33.167 35.499 -52.5s12.5 -38.666 12.5 -57.999v-61zM335.998 289.001c0 14.667 -2.83203 28.3311 -8.49902 40.998
s-13.334 23.834 -23.001 33.501s-21 17.334 -34 23.001s-26.833 8.5 -41.5 8.5c-30 0 -55.167 -10.167 -75.5 -30.5s-30.5 -45.5 -30.5 -75.5v-14c0 -6.66699 3.33301 -10 10 -10h193c6.66699 0 10 3.33301 10 10v14z" />
    <glyph glyph-name="edieresis" unicode="&#xeb;" horiz-adv-x="458" 
d="M354 559c0 -12 -4.50098 -22.501 -13.501 -31.501s-19.5 -13.5 -31.5 -13.5c-12.667 0 -23 4.33301 -31 13s-12 19.334 -12 32.001s4 23 12 31s18.333 12 31 12s23.334 -4 32.001 -12s13 -18.333 13 -31zM190.999 558.999c0 -12.667 -4.16699 -23.334 -12.5 -32.001
s-18.833 -13 -31.5 -13s-23.167 4.33301 -31.5 13s-12.5 19.334 -12.5 32.001s4.16699 23 12.5 31s18.833 12 31.5 12s23.167 -4 31.5 -12s12.5 -18.333 12.5 -31zM403.999 227.999c0 -6.66699 -3.33496 -9.99902 -10.002 -9.99902h-261c-6.66699 0 -10 -3.33301 -10 -10
v-54c0 -14.667 2.83301 -28.5 8.5 -41.5s13.334 -24.333 23.001 -34s20.834 -17.334 33.501 -23.001s26.334 -8.5 41.001 -8.5c17.333 0 34.5 5.16699 51.5 15.5s31.5 24.166 43.5 41.499c2 2.66699 4.33301 4 7 4c1.33301 0 2.83301 -0.333008 4.5 -1
s3.83398 -1.66699 6.50098 -3l36 -18c4.66699 -2.66699 7 -5.66699 7 -9c0 -2 -2.16699 -6.16699 -6.5 -12.5s-9.5 -13.166 -15.5 -20.499c-13.333 -16 -30.5 -29 -51.5 -39s-48.5 -15 -82.5 -15c-53.333 0 -95.5 15.167 -126.5 45.5s-46.5 69.833 -46.5 118.5v135
c0 19.333 4 38.666 12 57.999s19.5 36.833 34.5 52.5s33.167 28.334 54.5 38.001s45.333 14.5 72 14.5s50.667 -4.83301 72 -14.5s39.666 -22.334 54.999 -38.001s27.166 -33.167 35.499 -52.5s12.5 -38.666 12.5 -57.999v-61zM335.997 289
c0 14.667 -2.83203 28.3311 -8.49902 40.998s-13.334 23.834 -23.001 33.501s-21 17.334 -34 23.001s-26.833 8.5 -41.5 8.5c-30 0 -55.167 -10.167 -75.5 -30.5s-30.5 -45.5 -30.5 -75.5v-14c0 -6.66699 3.33301 -10 10 -10h193c6.66699 0 10 3.33301 10 10v14z" />
    <glyph glyph-name="igrave" unicode="&#xec;" horiz-adv-x="209" 
d="M134 505c0 -5.33301 -3.66797 -8.00098 -11.001 -8.00098h-20c-4 0 -7.66699 1.66699 -11 5l-114 102c-2.66699 2.66699 -4 5.33398 -4 8.00098c0 6 3.66699 9 11 9h66c4.66699 0 8.33398 -2 11.001 -6l69 -102c2 -3.33301 3 -6 3 -8zM138.999 9.99902
c0 -6.66699 -3.33301 -10 -10 -10h-48c-6.66699 0 -10 3.33301 -10 10v422c0 6.66699 3.33301 10 10 10h48c6.66699 0 10 -3.33301 10 -10v-422z" />
    <glyph glyph-name="iacute" unicode="&#xed;" horiz-adv-x="209" 
d="M235 612c0 -2.66699 -1.33398 -5.33301 -4.00098 -8l-114 -102c-3.33301 -3.33301 -7 -5 -11 -5h-20c-7.33301 0 -11 2.66699 -11 8c0 2 1 4.66699 3 8l69 102c2.66699 4 6.33398 6 11.001 6h66c7.33301 0 11 -3 11 -9zM138.999 10.001c0 -6.66699 -3.33301 -10 -10 -10
h-48c-6.66699 0 -10 3.33301 -10 10v422c0 6.66699 3.33301 10 10 10h48c6.66699 0 10 -3.33301 10 -10v-422z" />
    <glyph glyph-name="icircumflex" unicode="&#xee;" horiz-adv-x="209" 
d="M211 505c0 -5.33301 -3.66699 -8 -11 -8h-35c-2.66699 0 -5.33398 1.33301 -8.00098 4l-44 62c-2 3.33301 -4.66699 5 -8 5c-2 0 -4.66699 -1.66699 -8 -5l-47 -62c-2.66699 -2.66699 -5.33398 -4 -8.00098 -4h-34c-7.33301 0 -11 2.66699 -11 8c0 2 1 4.66699 3 8
l80 105c2.66699 2.66699 5.33398 4 8.00098 4h31c2.66699 0 5.33398 -1.33301 8.00098 -4l81 -105c2 -3.33301 3 -6 3 -8zM139 10c0 -6.66699 -3.33301 -10 -10 -10h-48c-6.66699 -0 -10 3.33301 -10 10v422c0 6.66699 3.33301 10 10 10h48c6.66699 0 10 -3.33301 10 -10
v-422z" />
    <glyph glyph-name="idieresis" unicode="&#xef;" horiz-adv-x="209" 
d="M230 559c0 -12 -4.50098 -22.501 -13.501 -31.501s-19.5 -13.5 -31.5 -13.5c-12.667 0 -23 4.33301 -31 13s-12 19.334 -12 32.001s4 23 12 31s18.333 12 31 12s23.334 -4 32.001 -12s13 -18.333 13 -31zM66.999 558.999c0 -12.667 -4.16699 -23.334 -12.5 -32.001
s-18.833 -13 -31.5 -13s-23.167 4.33301 -31.5 13s-12.5 19.334 -12.5 32.001s4.16699 23 12.5 31s18.833 12 31.5 12s23.167 -4 31.5 -12s12.5 -18.333 12.5 -31zM138.999 9.99902c0 -6.66699 -3.33301 -10 -10 -10h-48c-6.66699 0 -10 3.33301 -10 10v422
c0 6.66699 3.33301 10 10 10h48c6.66699 0 10 -3.33301 10 -10v-422z" />
    <glyph glyph-name="eth" unicode="&#xf0;" horiz-adv-x="458" 
d="M404 154c0 -24 -4.17188 -46.168 -12.5049 -66.501s-20.166 -37.666 -35.499 -51.999s-33.666 -25.5 -54.999 -33.5s-45.333 -12 -72 -12c-53.333 0 -95.5 15.167 -126.5 45.5s-46.5 69.833 -46.5 118.5v135c0 48.667 15.5 88 46.5 118s73.167 45 126.5 45h1l-57 57
l-92 -41c-3.33301 -1.33301 -6.5 -1.5 -9.5 -0.5s-4.5 2.83301 -4.5 5.5v19c0 3.33301 0.333008 6.5 1 9.5s2.33398 5.16699 5.00098 6.5l70 31l-77 77c-3.33301 3.33301 -3.66602 6.33301 -0.999023 9s6.33398 4 11.001 4h52c2.66699 0 4.5 -0.666992 5.5 -2s2.5 -3 4.5 -5
l59 -59l101 45c2.66699 1.33301 5.66699 1.5 9 0.5s5 -3.16699 5 -6.5v-22c0 -6.66699 -2.66699 -11 -8 -13l-77 -34l146 -145c20.667 -26.667 31 -59.667 31 -99v-135zM335.995 288.999c0 14.667 -2.83594 28.3311 -8.50293 40.998s-13.334 23.834 -23.001 33.501
s-21 17.334 -34 23.001s-26.833 8.5 -41.5 8.5c-30 0 -55.167 -10.167 -75.5 -30.5s-30.5 -45.5 -30.5 -75.5v-135c0 -14.667 2.83301 -28.5 8.5 -41.5s13.334 -24.333 23.001 -34s20.834 -17.334 33.501 -23.001s26.334 -8.5 41.001 -8.5s28.5 2.83301 41.5 8.5
s24.333 13.334 34 23.001s17.334 21 23.001 34s8.5 26.833 8.5 41.5v135z" />
    <glyph glyph-name="ntilde" unicode="&#xf1;" horiz-adv-x="490" 
d="M384 571c0 -2 -2 -5.83105 -6 -11.498l-12 -16.5c-20 -24.667 -41 -37 -63 -37c-9.33301 0 -19.166 2.5 -29.499 7.5s-21.166 11.167 -32.499 18.5l-20 13c-15.333 10 -29.333 15 -42 15c-8 0 -16.167 -1.83301 -24.5 -5.5s-17.5 -10.5 -27.5 -20.5
c-2 -2 -4.33301 -3 -7 -3s-4.66699 0.666992 -6 2l-10 7c-3.33301 2 -5 4.66699 -5 8c0 2 1.5 5.16699 4.5 9.5s6.16699 9.16602 9.5 14.499c19.333 26.667 41.333 40 66 40c19.333 0 39 -7.66699 59 -23l21 -16c5.33301 -4.66699 12.166 -8.33398 20.499 -11.001
s16.166 -4 23.499 -4c8 0 16.5 2 25.5 6s18.5 11 28.5 21c2.66699 2.66699 5 4 7 4s4 -1 6 -3l9 -7c3.33301 -2 5 -4.66699 5 -8zM420 10.002c0 -6.66699 -3.33008 -10.0029 -9.99707 -10.0029h-48c-6.66699 0 -10 3.33301 -10 10v269c0 14.667 -2.83301 28.334 -8.5 41.001
s-13.334 23.834 -23.001 33.501s-21 17.334 -34 23.001s-26.833 8.5 -41.5 8.5c-30 0 -55.167 -10.167 -75.5 -30.5s-30.5 -45.5 -30.5 -75.5v-269c0 -6.66699 -3.33301 -10 -10 -10h-48c-6.66699 0 -10 3.33301 -10 10v422c0 6.66699 3.33301 10 10 10h37
c6.66699 0 10 -3.33301 10 -10v-40c0 -7.33301 3 -11 9 -11c3.33301 0 6.33301 1.66699 9 5c17.333 22 35 36.833 53 44.5s33.333 11.5 46 11.5c26.667 0 50.667 -4 72 -12s39.666 -19.167 54.999 -33.5s27.166 -31.5 35.499 -51.5s12.5 -42 12.5 -66v-269z" />
    <glyph glyph-name="ograve" unicode="&#xf2;" horiz-adv-x="458" 
d="M258 505c0 -5.33301 -3.66797 -8.00098 -11.001 -8.00098h-20c-4 0 -7.66699 1.66699 -11 5l-114 102c-2.66699 2.66699 -4 5.33398 -4 8.00098c0 6 3.66699 9 11 9h66c4.66699 0 8.33398 -2 11.001 -6l69 -102c2 -3.33301 3 -6 3 -8zM403.999 153.999
c0 -24 -4.16699 -46.168 -12.5 -66.501s-20.166 -37.666 -35.499 -51.999s-33.666 -25.5 -54.999 -33.5s-45.333 -12 -72 -12c-53.333 0 -95.5 15.167 -126.5 45.5s-46.5 69.833 -46.5 118.5v135c0 48.667 15.5 88 46.5 118s73.167 45 126.5 45c26.667 0 50.667 -4 72 -12
s39.666 -19.167 54.999 -33.5s27.166 -31.5 35.499 -51.5s12.5 -42 12.5 -66v-135zM335.999 288.998c0 14.667 -2.83594 28.3311 -8.50293 40.998s-13.334 23.834 -23.001 33.501s-21 17.334 -34 23.001s-26.833 8.5 -41.5 8.5c-30 0 -55.167 -10.167 -75.5 -30.5
s-30.5 -45.5 -30.5 -75.5v-135c0 -14.667 2.83301 -28.5 8.5 -41.5s13.334 -24.333 23.001 -34s20.834 -17.334 33.501 -23.001s26.334 -8.5 41.001 -8.5s28.5 2.83301 41.5 8.5s24.333 13.334 34 23.001s17.334 21 23.001 34s8.5 26.833 8.5 41.5v135z" />
    <glyph glyph-name="oacute" unicode="&#xf3;" horiz-adv-x="458" 
d="M359 612c0 -2.66699 -1.33398 -5.33301 -4.00098 -8l-114 -102c-3.33301 -3.33301 -7 -5 -11 -5h-20c-7.33301 0 -11 2.66699 -11 8c0 2 1 4.66699 3 8l69 102c2.66699 4 6.33398 6 11.001 6h66c7.33301 0 11 -3 11 -9zM403.999 154.001
c0 -24 -4.16699 -46.168 -12.5 -66.501s-20.166 -37.666 -35.499 -51.999s-33.666 -25.5 -54.999 -33.5s-45.333 -12 -72 -12c-53.333 0 -95.5 15.167 -126.5 45.5s-46.5 69.833 -46.5 118.5v135c0 48.667 15.5 88 46.5 118s73.167 45 126.5 45c26.667 0 50.667 -4 72 -12
s39.666 -19.167 54.999 -33.5s27.166 -31.5 35.499 -51.5s12.5 -42 12.5 -66v-135zM335.999 289c0 14.667 -2.83594 28.3311 -8.50293 40.998s-13.334 23.834 -23.001 33.501s-21 17.334 -34 23.001s-26.833 8.5 -41.5 8.5c-30 0 -55.167 -10.167 -75.5 -30.5
s-30.5 -45.5 -30.5 -75.5v-135c0 -14.667 2.83301 -28.5 8.5 -41.5s13.334 -24.333 23.001 -34s20.834 -17.334 33.501 -23.001s26.334 -8.5 41.001 -8.5s28.5 2.83301 41.5 8.5s24.333 13.334 34 23.001s17.334 21 23.001 34s8.5 26.833 8.5 41.5v135z" />
    <glyph glyph-name="ocircumflex" unicode="&#xf4;" horiz-adv-x="458" 
d="M335 505c0 -5.33301 -3.66699 -8 -11 -8h-35c-2.66699 0 -5.33398 1.33301 -8.00098 4l-44 62c-2 3.33301 -4.66699 5 -8 5c-2 0 -4.66699 -1.66699 -8 -5l-47 -62c-2.66699 -2.66699 -5.33398 -4 -8.00098 -4h-34c-7.33301 0 -11 2.66699 -11 8c0 2 1 4.66699 3 8
l80 105c2.66699 2.66699 5.33398 4 8.00098 4h31c2.66699 0 5.33398 -1.33301 8.00098 -4l81 -105c2 -3.33301 3 -6 3 -8zM404 154c0 -24 -4.16699 -46.168 -12.5 -66.501s-20.166 -37.666 -35.499 -51.999s-33.666 -25.5 -54.999 -33.5s-45.333 -12 -72 -12
c-53.333 0 -95.5 15.167 -126.5 45.5s-46.5 69.833 -46.5 118.5v135c0 48.667 15.5 88 46.5 118s73.167 45 126.5 45c26.667 0 50.667 -4 72 -12s39.666 -19.167 54.999 -33.5s27.166 -31.5 35.499 -51.5s12.5 -42 12.5 -66v-135zM336 288.999
c0 14.667 -2.83594 28.3311 -8.50293 40.998s-13.334 23.834 -23.001 33.501s-21 17.334 -34 23.001s-26.833 8.5 -41.5 8.5c-30 0 -55.167 -10.167 -75.5 -30.5s-30.5 -45.5 -30.5 -75.5v-135c0 -14.667 2.83301 -28.5 8.5 -41.5s13.334 -24.333 23.001 -34
s20.834 -17.334 33.501 -23.001s26.334 -8.5 41.001 -8.5s28.5 2.83301 41.5 8.5s24.333 13.334 34 23.001s17.334 21 23.001 34s8.5 26.833 8.5 41.5v135z" />
    <glyph glyph-name="otilde" unicode="&#xf5;" horiz-adv-x="458" 
d="M369 571c0 -2 -2 -5.83105 -6 -11.498l-12 -16.5c-20 -24.667 -41 -37 -63 -37c-9.33301 0 -19.166 2.5 -29.499 7.5s-21.166 11.167 -32.499 18.5l-20 13c-15.333 10 -29.333 15 -42 15c-8 0 -16.167 -1.83301 -24.5 -5.5s-17.5 -10.5 -27.5 -20.5
c-2 -2 -4.33301 -3 -7 -3s-4.66699 0.666992 -6 2l-10 7c-3.33301 2 -5 4.66699 -5 8c0 2 1.5 5.16699 4.5 9.5s6.16699 9.16602 9.5 14.499c19.333 26.667 41.333 40 66 40c19.333 0 39 -7.66699 59 -23l21 -16c5.33301 -4.66699 12.166 -8.33398 20.499 -11.001
s16.166 -4 23.499 -4c8 0 16.5 2 25.5 6s18.5 11 28.5 21c2.66699 2.66699 5 4 7 4s4 -1 6 -3l9 -7c3.33301 -2 5 -4.66699 5 -8zM404 154.002c0 -24 -4.16699 -46.168 -12.5 -66.501s-20.166 -37.666 -35.499 -51.999s-33.666 -25.5 -54.999 -33.5s-45.333 -12 -72 -12
c-53.333 0 -95.5 15.167 -126.5 45.5s-46.5 69.833 -46.5 118.5v135c0 48.667 15.5 88 46.5 118s73.167 45 126.5 45c26.667 0 50.667 -4 72 -12s39.666 -19.167 54.999 -33.5s27.166 -31.5 35.499 -51.5s12.5 -42 12.5 -66v-135zM336 289.001
c0 14.667 -2.83594 28.3311 -8.50293 40.998s-13.334 23.834 -23.001 33.501s-21 17.334 -34 23.001s-26.833 8.5 -41.5 8.5c-30 0 -55.167 -10.167 -75.5 -30.5s-30.5 -45.5 -30.5 -75.5v-135c0 -14.667 2.83301 -28.5 8.5 -41.5s13.334 -24.333 23.001 -34
s20.834 -17.334 33.501 -23.001s26.334 -8.5 41.001 -8.5s28.5 2.83301 41.5 8.5s24.333 13.334 34 23.001s17.334 21 23.001 34s8.5 26.833 8.5 41.5v135z" />
    <glyph glyph-name="odieresis" unicode="&#xf6;" horiz-adv-x="458" 
d="M354 559c0 -12 -4.50098 -22.501 -13.501 -31.501s-19.5 -13.5 -31.5 -13.5c-12.667 0 -23 4.33301 -31 13s-12 19.334 -12 32.001s4 23 12 31s18.333 12 31 12s23.334 -4 32.001 -12s13 -18.333 13 -31zM190.999 558.999c0 -12.667 -4.16699 -23.334 -12.5 -32.001
s-18.833 -13 -31.5 -13s-23.167 4.33301 -31.5 13s-12.5 19.334 -12.5 32.001s4.16699 23 12.5 31s18.833 12 31.5 12s23.167 -4 31.5 -12s12.5 -18.333 12.5 -31zM403.999 153.999c0 -24 -4.16699 -46.168 -12.5 -66.501s-20.166 -37.666 -35.499 -51.999
s-33.666 -25.5 -54.999 -33.5s-45.333 -12 -72 -12c-53.333 0 -95.5 15.167 -126.5 45.5s-46.5 69.833 -46.5 118.5v135c0 48.667 15.5 88 46.5 118s73.167 45 126.5 45c26.667 0 50.667 -4 72 -12s39.666 -19.167 54.999 -33.5s27.166 -31.5 35.499 -51.5
s12.5 -42 12.5 -66v-135zM335.999 288.998c0 14.667 -2.83594 28.3311 -8.50293 40.998s-13.334 23.834 -23.001 33.501s-21 17.334 -34 23.001s-26.833 8.5 -41.5 8.5c-30 0 -55.167 -10.167 -75.5 -30.5s-30.5 -45.5 -30.5 -75.5v-135c0 -14.667 2.83301 -28.5 8.5 -41.5
s13.334 -24.333 23.001 -34s20.834 -17.334 33.501 -23.001s26.334 -8.5 41.001 -8.5s28.5 2.83301 41.5 8.5s24.333 13.334 34 23.001s17.334 21 23.001 34s8.5 26.833 8.5 41.5v135z" />
    <glyph glyph-name="divide" unicode="&#xf7;" 
d="M305 398c0 -13.333 -5 -25 -15 -35s-21.667 -15 -35 -15s-24.666 5 -33.999 15s-14 21.667 -14 35s4.66699 24.833 14 34.5s20.666 14.5 33.999 14.5c14 0 25.833 -4.66699 35.5 -14s14.5 -21 14.5 -35zM466 223c0 -6.66699 -3.33301 -10 -10 -10h-401
c-6.66699 0 -10 3.33301 -10 10v27c0 6.66699 3.33301 10 10 10h401c6.66699 0 10 -3.33301 10 -10v-27zM305 76c0 -13.333 -5 -25 -15 -35s-21.667 -15 -35 -15s-24.666 5 -33.999 15s-14 21.667 -14 35s4.66699 24.833 14 34.5s20.666 14.5 33.999 14.5
c14 0 25.833 -4.66699 35.5 -14s14.5 -21 14.5 -35z" />
    <glyph glyph-name="oslash" unicode="&#xf8;" horiz-adv-x="458" 
d="M404 154c0 -24 -4.16699 -46.168 -12.5 -66.501s-20.166 -37.666 -35.499 -51.999s-33.666 -25.5 -54.999 -33.5s-45.333 -12 -72 -12c-53.333 0 -95.5 15.167 -126.5 45.5s-46.5 69.833 -46.5 118.5v135c0 48.667 15.5 88 46.5 118s73.167 45 126.5 45
c26.667 0 50.667 -4 72 -12s39.666 -19.167 54.999 -33.5s27.166 -31.5 35.499 -51.5s12.5 -42 12.5 -66v-135zM336 288.999c0 18 -5.66699 36.998 -17 56.998c-2.66699 4.66699 -5.66699 7 -9 7c-4 0 -7 -2.66699 -9 -8l-111 -262
c-1.33301 -3.33301 -2.83301 -6.83301 -4.5 -10.5s-2.5 -6.16699 -2.5 -7.5c0 -4 2.33301 -7 7 -9c7.33301 -3.33301 14.166 -5.66602 20.499 -6.99902s12.5 -2 18.5 -2c14.667 0 28.5 2.83301 41.5 8.5s24.333 13.334 34 23.001s17.334 21 23.001 34s8.5 26.833 8.5 41.5
v135zM267 381.997c0 4.66699 -2.66699 7.66797 -8 9.00098c-10.667 2.66699 -20.667 4 -30 4c-30 0 -55.167 -10.167 -75.5 -30.5s-30.5 -45.5 -30.5 -75.5v-135c0 -6.66699 0.666992 -13.334 2 -20.001s4 -14.667 8 -24c2 -4.66699 5 -7 9 -7s7 2.33301 9 7l109 253
c1.33301 4 2.83301 7.66699 4.5 11s2.5 6 2.5 8z" />
    <glyph glyph-name="ugrave" unicode="&#xf9;" horiz-adv-x="479" 
d="M265 505c0 -5.33301 -3.66797 -8.00098 -11.001 -8.00098h-20c-4 0 -7.66699 1.66699 -11 5l-114 102c-2.66699 2.66699 -4 5.33398 -4 8.00098c0 6 3.66699 9 11 9h66c4.66699 0 8.33398 -2 11.001 -6l69 -102c2 -3.33301 3 -6 3 -8zM408.999 9.99902
c0 -6.66699 -3.33691 -9.99902 -10.0039 -9.99902h-37c-6.66699 -0 -10 3.33301 -10 10v43c0 7.33301 -3 11 -9 11c-3.33301 0 -6.33301 -1.66699 -9 -5c-18 -23.333 -35.833 -39 -53.5 -47s-33.167 -12 -46.5 -12c-26.667 0 -50.667 4 -72 12s-39.5 19.333 -54.5 34
s-26.5 32 -34.5 52s-12 42 -12 66v268c0 6.66699 3.33301 10 10 10h47c6.66699 0 10 -3.33301 10 -10v-268c0 -14.667 2.83301 -28.5 8.5 -41.5s13.334 -24.333 23.001 -34s20.834 -17.334 33.501 -23.001s26.334 -8.5 41.001 -8.5s28.667 2.83301 42 8.5
s24.833 13.167 34.5 22.5s17.334 20.5 23.001 33.5s8.5 27.167 8.5 42.5v268c0 6.66699 3.33301 10 10 10h47c6.66699 0 10 -3.33301 10 -10v-422z" />
    <glyph glyph-name="uacute" unicode="&#xfa;" horiz-adv-x="479" 
d="M366 612c0 -2.66699 -1.33398 -5.33301 -4.00098 -8l-114 -102c-3.33301 -3.33301 -7 -5 -11 -5h-20c-7.33301 0 -11 2.66699 -11 8c0 2 1 4.66699 3 8l69 102c2.66699 4 6.33398 6 11.001 6h66c7.33301 0 11 -3 11 -9zM408.999 10.001
c0 -6.66699 -3.33691 -9.99902 -10.0039 -9.99902h-37c-6.66699 0 -10 3.33301 -10 10v43c0 7.33301 -3 11 -9 11c-3.33301 0 -6.33301 -1.66699 -9 -5c-18 -23.333 -35.833 -39 -53.5 -47s-33.167 -12 -46.5 -12c-26.667 0 -50.667 4 -72 12s-39.5 19.333 -54.5 34
s-26.5 32 -34.5 52s-12 42 -12 66v268c0 6.66699 3.33301 10 10 10h47c6.66699 0 10 -3.33301 10 -10v-268c0 -14.667 2.83301 -28.5 8.5 -41.5s13.334 -24.333 23.001 -34s20.834 -17.334 33.501 -23.001s26.334 -8.5 41.001 -8.5s28.667 2.83301 42 8.5
s24.833 13.167 34.5 22.5s17.334 20.5 23.001 33.5s8.5 27.167 8.5 42.5v268c0 6.66699 3.33301 10 10 10h47c6.66699 0 10 -3.33301 10 -10v-422z" />
    <glyph glyph-name="ucircumflex" unicode="&#xfb;" horiz-adv-x="479" 
d="M342 505c0 -5.33301 -3.66699 -8 -11 -8h-35c-2.66699 0 -5.33398 1.33301 -8.00098 4l-44 62c-2 3.33301 -4.66699 5 -8 5c-2 0 -4.66699 -1.66699 -8 -5l-47 -62c-2.66699 -2.66699 -5.33398 -4 -8.00098 -4h-34c-7.33301 0 -11 2.66699 -11 8c0 2 1 4.66699 3 8
l80 105c2.66699 2.66699 5.33398 4 8.00098 4h31c2.66699 0 5.33398 -1.33301 8.00098 -4l81 -105c2 -3.33301 3 -6 3 -8zM409 10c0 -6.66699 -3.33691 -9.99902 -10.0039 -9.99902h-37c-6.66699 0 -10 3.33301 -10 10v43c0 7.33301 -3 11 -9 11
c-3.33301 0 -6.33301 -1.66699 -9 -5c-18 -23.333 -35.833 -39 -53.5 -47s-33.167 -12 -46.5 -12c-26.667 0 -50.667 4 -72 12s-39.5 19.333 -54.5 34s-26.5 32 -34.5 52s-12 42 -12 66v268c0 6.66699 3.33301 10 10 10h47c6.66699 0 10 -3.33301 10 -10v-268
c0 -14.667 2.83301 -28.5 8.5 -41.5s13.334 -24.333 23.001 -34s20.834 -17.334 33.501 -23.001s26.334 -8.5 41.001 -8.5s28.667 2.83301 42 8.5s24.833 13.167 34.5 22.5s17.334 20.5 23.001 33.5s8.5 27.167 8.5 42.5v268c0 6.66699 3.33301 10 10 10h47
c6.66699 0 10 -3.33301 10 -10v-422z" />
    <glyph glyph-name="udieresis" unicode="&#xfc;" horiz-adv-x="479" 
d="M361 559c0 -12 -4.50098 -22.501 -13.501 -31.501s-19.5 -13.5 -31.5 -13.5c-12.667 0 -23 4.33301 -31 13s-12 19.334 -12 32.001s4 23 12 31s18.333 12 31 12s23.334 -4 32.001 -12s13 -18.333 13 -31zM197.999 558.999c0 -12.667 -4.16699 -23.334 -12.5 -32.001
s-18.833 -13 -31.5 -13s-23.167 4.33301 -31.5 13s-12.5 19.334 -12.5 32.001s4.16699 23 12.5 31s18.833 12 31.5 12s23.167 -4 31.5 -12s12.5 -18.333 12.5 -31zM408.999 9.99902c0 -6.66699 -3.33691 -9.99902 -10.0039 -9.99902h-37c-6.66699 -0 -10 3.33301 -10 10v43
c0 7.33301 -3 11 -9 11c-3.33301 0 -6.33301 -1.66699 -9 -5c-18 -23.333 -35.833 -39 -53.5 -47s-33.167 -12 -46.5 -12c-26.667 0 -50.667 4 -72 12s-39.5 19.333 -54.5 34s-26.5 32 -34.5 52s-12 42 -12 66v268c0 6.66699 3.33301 10 10 10h47
c6.66699 0 10 -3.33301 10 -10v-268c0 -14.667 2.83301 -28.5 8.5 -41.5s13.334 -24.333 23.001 -34s20.834 -17.334 33.501 -23.001s26.334 -8.5 41.001 -8.5s28.667 2.83301 42 8.5s24.833 13.167 34.5 22.5s17.334 20.5 23.001 33.5s8.5 27.167 8.5 42.5v268
c0 6.66699 3.33301 10 10 10h47c6.66699 0 10 -3.33301 10 -10v-422z" />
    <glyph glyph-name="yacute" unicode="&#xfd;" horiz-adv-x="479" 
d="M366 612c0 -2.66699 -1.33398 -5.33301 -4.00098 -8l-114 -102c-3.33301 -3.33301 -7 -5 -11 -5h-20c-7.33301 0 -11 2.66699 -11 8c0 2 1 4.66699 3 8l69 102c2.66699 4 6.33398 6 11.001 6h66c7.33301 0 11 -3 11 -9zM408.999 -59.999
c0 -25.333 -3.66992 -48.665 -11.0029 -69.998s-18.333 -39.833 -33 -55.5s-33 -27.834 -55 -36.501s-47.333 -13 -76 -13c-32 0 -58.667 5 -80 15s-38.666 22.667 -51.999 38c-4.66699 5.33301 -9.66699 11.833 -15 19.5s-8 12.5 -8 14.5c0 3.33301 2.33301 6.33301 7 9
l36 18c5.33301 2.66699 8.66602 4 9.99902 4c3.33301 0 6 -1.66699 8 -5c11.333 -17.333 25.5 -31 42.5 -41s34.167 -15 51.5 -15c14.667 0 28.667 2.83301 42 8.5s24.833 13.167 34.5 22.5s17.334 20.5 23.001 33.5s8.5 27.167 8.5 42.5v119c0 7.33301 -3 11 -9 11
c-3.33301 0 -6.33301 -1.66699 -9 -5c-14.667 -19.333 -30.334 -33.166 -47.001 -41.499s-31 -12.5 -43 -12.5c-26.667 0 -50.667 4 -72 12s-39.5 19.333 -54.5 34s-26.5 32 -34.5 52s-12 42 -12 66v268c0 6.66699 3.33301 10 10 10h47c6.66699 0 10 -3.33301 10 -10v-268
c0 -14.667 2.83301 -28.5 8.5 -41.5s13.334 -24.333 23.001 -34s20.834 -17.334 33.501 -23.001s26.334 -8.5 41.001 -8.5c18.667 0 34.667 3.5 48 10.5s24.5 15.833 33.5 26.5s15.667 22.167 20 34.5s6.5 24.166 6.5 35.499v268c0 6.66699 3.33301 10 10 10h47
c6.66699 0 10 -3.33301 10 -10v-492z" />
    <glyph glyph-name="thorn" unicode="&#xfe;" horiz-adv-x="474" 
d="M420 164c0 -24 -4.33008 -45.999 -12.9971 -65.999s-20.334 -37.333 -35.001 -52s-32.167 -26 -52.5 -34s-41.833 -12 -64.5 -12c-12.667 0 -28 4.16699 -46 12.5s-35.667 23.166 -53 44.499c-3.33301 3.33301 -6.33301 5 -9 5c-5.33301 0 -8 -4 -8 -12v-265
c0 -6.66699 -3.33301 -10 -10 -10h-48c-6.66699 0 -10 3.33301 -10 10v834c0 6.66699 3.33301 10 10 10h37c6.66699 0 10 -3.33301 10 -10v-227c0 -7.33301 3 -11 9 -11c3.33301 0 6.33301 1.66699 9 5c17.333 22 35 36.833 53 44.5s33.333 11.5 46 11.5
c26.667 0 50.667 -4 72 -12s39.666 -19.167 54.999 -33.5s27.166 -31.5 35.499 -51.5s12.5 -42 12.5 -66v-115zM352.003 279.001c0 14.667 -2.83594 28.3311 -8.50293 40.998s-13.334 23.834 -23.001 33.501s-21 17.334 -34 23.001s-26.833 8.5 -41.5 8.5
c-30 0 -55.167 -10.167 -75.5 -30.5s-30.5 -45.5 -30.5 -75.5v-115c0 -14.667 2.83301 -28.5 8.5 -41.5s13.334 -24.333 23.001 -34s20.834 -17.334 33.501 -23.001s26.334 -8.5 41.001 -8.5s28.5 2.83301 41.5 8.5s24.333 13.334 34 23.001s17.334 21 23.001 34
s8.5 26.833 8.5 41.5v115z" />
    <glyph glyph-name="ydieresis" unicode="&#xff;" horiz-adv-x="479" 
d="M361 559c0 -12 -4.50098 -22.501 -13.501 -31.501s-19.5 -13.5 -31.5 -13.5c-12.667 0 -23 4.33301 -31 13s-12 19.334 -12 32.001s4 23 12 31s18.333 12 31 12s23.334 -4 32.001 -12s13 -18.333 13 -31zM197.999 558.999c0 -12.667 -4.16699 -23.334 -12.5 -32.001
s-18.833 -13 -31.5 -13s-23.167 4.33301 -31.5 13s-12.5 19.334 -12.5 32.001s4.16699 23 12.5 31s18.833 12 31.5 12s23.167 -4 31.5 -12s12.5 -18.333 12.5 -31zM408.999 -60.001c0 -25.333 -3.66992 -48.665 -11.0029 -69.998s-18.333 -39.833 -33 -55.5
s-33 -27.834 -55 -36.501s-47.333 -13 -76 -13c-32 0 -58.667 5 -80 15s-38.666 22.667 -51.999 38c-4.66699 5.33301 -9.66699 11.833 -15 19.5s-8 12.5 -8 14.5c0 3.33301 2.33301 6.33301 7 9l36 18c5.33301 2.66699 8.66602 4 9.99902 4c3.33301 0 6 -1.66699 8 -5
c11.333 -17.333 25.5 -31 42.5 -41s34.167 -15 51.5 -15c14.667 0 28.667 2.83301 42 8.5s24.833 13.167 34.5 22.5s17.334 20.5 23.001 33.5s8.5 27.167 8.5 42.5v119c0 7.33301 -3 11 -9 11c-3.33301 0 -6.33301 -1.66699 -9 -5
c-14.667 -19.333 -30.334 -33.166 -47.001 -41.499s-31 -12.5 -43 -12.5c-26.667 0 -50.667 4 -72 12s-39.5 19.333 -54.5 34s-26.5 32 -34.5 52s-12 42 -12 66v268c0 6.66699 3.33301 10 10 10h47c6.66699 0 10 -3.33301 10 -10v-268c0 -14.667 2.83301 -28.5 8.5 -41.5
s13.334 -24.333 23.001 -34s20.834 -17.334 33.501 -23.001s26.334 -8.5 41.001 -8.5c18.667 0 34.667 3.5 48 10.5s24.5 15.833 33.5 26.5s15.667 22.167 20 34.5s6.5 24.166 6.5 35.499v268c0 6.66699 3.33301 10 10 10h47c6.66699 0 10 -3.33301 10 -10v-492z" />
    <glyph glyph-name="Gbreve" unicode="&#x11e;" 
d="M446 154c0 -24 -4.16895 -46.166 -12.502 -66.499s-20.166 -37.666 -35.499 -51.999s-33.666 -25.5 -54.999 -33.5s-45.333 -12 -72 -12h-31c-26.667 0 -50.667 4 -72 12s-39.5 19.167 -54.5 33.5s-26.667 31.666 -35 51.999s-12.5 42.5 -12.5 66.5v322
c0 24 4.16699 46.167 12.5 66.5s20 37.666 35 51.999s33.167 25.5 54.5 33.5s45.333 12 72 12h50c34 0 61.5 -5 82.5 -15s38.167 -23 51.5 -39c5.33301 -6 10.166 -12.167 14.499 -18.5s6.5 -10.833 6.5 -13.5c0 -4 -2.33301 -7 -7 -9l-36 -18
c-5.33301 -2.66699 -9 -4 -11 -4c-2.66699 0 -5 1.33301 -7 4c-12 18 -26.5 31.667 -43.5 41s-33.833 14 -50.5 14h-50c-15.333 0 -29.333 -2.66699 -42 -8s-23.834 -12.833 -33.501 -22.5s-17.167 -21 -22.5 -34s-8 -26.833 -8 -41.5v-322c0 -14.667 2.66699 -28.5 8 -41.5
s12.833 -24.333 22.5 -34s20.834 -17.334 33.501 -23.001s26.667 -8.5 42 -8.5h31c14.667 0 28.5 2.83301 41.5 8.5s24.333 13.334 34 23.001s17.334 21 23.001 34s8.5 26.833 8.5 41.5v80c0 6.66699 -3.33301 10 -10 10h-105c-6.66699 0 -10 3.33301 -10 10v38
c0 6.66699 3.33301 10 10 10h173c6.66699 0 10 -3.33301 10 -10v-138v0zM363.998 772.001c0 -22 -8 -40.001 -24 -54.001s-37 -21 -63 -21h-46c-26.667 0 -47.5 6.83301 -62.5 20.5s-22.5 31.834 -22.5 54.501v40c0 6.66699 3.33301 10 10 10h10
c6.66699 0 10 -3.33301 10 -10v-21c0 -13.333 5.33301 -25 16 -35s23.667 -15 39 -15h46c15.333 0 28.5 5 39.5 15s16.5 21.667 16.5 35v21c0 6.66699 3.33301 10 10 10h11c6.66699 0 10 -3.33301 10 -10v-40v0z" />
    <glyph glyph-name="gbreve" unicode="&#x11f;" horiz-adv-x="458" 
d="M451 -109c0 -18 -3.33398 -34.168 -10.001 -48.501s-15.834 -26.5 -27.501 -36.5s-25.334 -17.667 -41.001 -23s-32.167 -8 -49.5 -8h-141c-17.333 0 -33.666 2.66699 -48.999 8s-28.666 13 -39.999 23s-20.333 22.167 -27 36.5s-10 30.5 -10 48.5v6
c0 18.667 5.5 35.5 16.5 50.5s26.167 29.167 45.5 42.5c3.33301 1.33301 5 4 5 8c0 2 -0.833008 4.5 -2.5 7.5s-3.16699 5.83301 -4.5 8.5c-8.66699 15.333 -13 30.333 -13 45c0 16.667 5 33.667 15 51c1.33301 2.66699 3.33301 5.83398 6 9.50098s4 6.5 4 8.5
s-1.5 4.5 -4.5 7.5s-6.16699 5.83301 -9.5 8.5c-20 17.333 -34.667 36.333 -44 57s-14 43.334 -14 68.001v10c0 24 4.5 46 13.5 66s21.167 37.167 36.5 51.5s33.666 25.5 54.999 33.5s44 12 68 12c12.667 0 28 -4 46 -12s36 -23.333 54 -46
c2.66699 -3.33301 5.66699 -5 9 -5c6 0 9 3.66699 9 11v42c0 6.66699 3.33301 10 10 10h37c6.66699 0 10 -3.33301 10 -10v-163c0 -24 -4.5 -46 -13.5 -66s-21.5 -37.333 -37.5 -52s-34.667 -26 -56 -34s-44 -12 -68 -12c-4.66699 0 -10 0.166992 -16 0.5
s-11.333 0.833008 -16 1.5c-9.33301 -4 -17.833 -10.333 -25.5 -19s-11.5 -18.334 -11.5 -29.001s3.33301 -20.667 10 -30s15.334 -15.333 26.001 -18h127c18 0 34.667 -2.66699 50 -8s28.833 -12.833 40.5 -22.5s20.834 -21.5 27.501 -35.5s10 -30 10 -48v-6z
M335.999 278.999c0 14.667 -2.83594 28.3311 -8.50293 40.998s-13.334 23.834 -23.001 33.501s-21 17.334 -34 23.001s-26.833 8.5 -41.5 8.5c-30 0 -55.167 -10.167 -75.5 -30.5s-30.5 -45.5 -30.5 -75.5v-10c0 -14.667 2.83301 -28.5 8.5 -41.5s13.334 -24.333 23.001 -34
s20.834 -17.334 33.501 -23.001s26.334 -8.5 41.001 -8.5s28.5 2.83301 41.5 8.5s24.333 13.334 34 23.001s17.334 21 23.001 34s8.5 26.833 8.5 41.5v10zM382.996 -103.004c0 16 -5.99902 29.333 -17.999 40s-26 16 -42 16h-141c-16.667 0 -30.667 -5.16699 -42 -15.5
s-17 -23.833 -17 -40.5v-6c0 -17.333 5.5 -31.5 16.5 -42.5s25.167 -16.5 42.5 -16.5h141c17.333 0 31.666 5.5 42.999 16.5s17 25.167 17 42.5v6zM338.997 571.996c0 -22 -8 -40.001 -24 -54.001s-37 -21 -63 -21h-46c-26.667 0 -47.5 6.83301 -62.5 20.5
s-22.5 31.834 -22.5 54.501v40c0 6.66699 3.33301 10 10 10h10c6.66699 0 10 -3.33301 10 -10v-21c0 -13.333 5.33301 -25 16 -35s23.667 -15 39 -15h46c15.333 0 28.5 5 39.5 15s16.5 21.667 16.5 35v21c0 6.66699 3.33301 10 10 10h11c6.66699 0 10 -3.33301 10 -10v-40v0
z" />
    <glyph glyph-name="Idotaccent" unicode="&#x130;" horiz-adv-x="230" 
d="M157 738c0 -11.333 -4.16602 -21.333 -12.499 -30s-18.166 -13 -29.499 -13c-12.667 0 -22.334 4.33301 -29.001 13s-10 18.667 -10 30c0 10.667 3.66699 20.167 11 28.5s16.666 12.5 27.999 12.5c12 0 22 -4 30 -12s12 -17.667 12 -29zM149.001 10
c0 -6.66699 -3.33301 -10 -10 -10h-47c-6.66699 -0 -10 3.33301 -10 10v609c0 6.66699 3.33301 10 10 10h47c6.66699 0 10 -3.33301 10 -10v-609z" />
    <glyph glyph-name="dotlessi" unicode="&#x131;" horiz-adv-x="209" 
d="M139 10c0 -6.66699 -3.33301 -10 -10 -10h-48c-6.66699 -0 -10 3.33301 -10 10v422c0 6.66699 3.33301 10 10 10h48c6.66699 0 10 -3.33301 10 -10v-422v0z" />
    <glyph glyph-name="Lslash" unicode="&#x141;" horiz-adv-x="453" 
d="M430 10c0 -6.66699 -3.33301 -10 -10 -10h-328c-6.66699 -0 -10 3.33301 -10 10v218c0 6.66699 -1.66699 10 -5 10c-2 0 -4 -1 -6 -3l-23 -23c-2 -2 -4.33301 -3 -7 -3s-5 1 -7 3l-25 25c-2 2 -3 4.33301 -3 7s1 5 3 7l61 60c5.33301 4.66699 8.66602 9.5 9.99902 14.5
s2 11.5 2 19.5v274c0 6.66699 3.33301 10 10 10h47c6.66699 0 10 -3.33301 10 -10v-212c0 -5.33301 1.66699 -8 5 -8c2.66699 0 5.33398 1.33301 8.00098 4l27 27c2 2 4.33301 3 7 3s5 -1 7 -3l24 -24c2 -2 3 -4.66699 3 -8c0 -2.66699 -1 -5 -3 -7l-67 -67
c-7.33301 -7.33301 -11 -17.333 -11 -30v-227c0 -6.66699 3.33301 -10 10 -10h261c6.66699 0 10 -3.33301 10 -10v-37v0z" />
    <glyph glyph-name="lslash" unicode="&#x142;" horiz-adv-x="209" 
d="M218 398c0 -2.66699 -1 -5 -3 -7l-65 -65c-7.33301 -7.33301 -11 -17.333 -11 -30v-286c0 -6.66699 -3.33301 -10 -10 -10h-48c-6.66699 -0 -10 3.33301 -10 10v220c0 6.66699 -1.66699 10 -5 10c-2 0 -4 -1 -6 -3l-25 -25c-2 -2 -4.33301 -3 -7 -3s-5 1 -7 3l-25 25
c-2 2 -3 4.33301 -3 7s1 5 3 7l63 62c5.33301 4.66699 8.66602 9.5 9.99902 14.5s2 11.5 2 19.5v272c0 6.66699 3.33301 10 10 10h48c6.66699 0 10 -3.33301 10 -10v-210c0 -5.33301 1.66699 -8 5 -8c2.66699 0 5.33398 1.33301 8.00098 4l25 25c2 2 4.33301 3 7 3
s5 -1 7 -3l24 -24c2 -2 3 -4.66699 3 -8z" />
    <glyph glyph-name="OE" unicode="&#x152;" horiz-adv-x="775" 
d="M726 10c0 -6.66699 -3.33203 -9.99609 -9.99902 -9.99609h-381c-9.33301 -3.33301 -19.5 -5.83301 -30.5 -7.5s-22.167 -2.5 -33.5 -2.5h-31c-26.667 0 -50.667 4 -72 12s-39.5 19.167 -54.5 33.5s-26.667 31.666 -35 51.999s-12.5 42.5 -12.5 66.5v322
c0 24 4.16699 46.167 12.5 66.5s20 37.666 35 51.999s33.167 25.5 54.5 33.5s45.333 12 72 12h31c11.333 0 23 -1 35 -3s22.667 -4.66699 32 -8h378c6.66699 0 10 -3.33301 10 -10v-37c0 -6.66699 -3.33301 -10 -10 -10h-282c-6.66699 0 -10 -2.66699 -10 -8
c0 -2.66699 0.5 -5.33398 1.5 -8.00098s2.16699 -5.33398 3.5 -8.00098c6.66699 -14.667 11.167 -27.5 13.5 -38.5s3.5 -22.167 3.5 -33.5v-118c0 -6.66699 3.33301 -10 10 -10h214c6.66699 0 10 -3.33301 10 -10v-37c0 -6.66699 -3.33301 -10 -10 -10h-214
c-6.66699 0 -10 -3.33301 -10 -10v-127c0 -9.33301 -0.833008 -19 -2.5 -29s-4.83398 -20.667 -9.50098 -32c-1.33301 -3.33301 -3.33301 -8 -6 -14s-4 -10.667 -4 -14c0 -5.33301 3.33301 -8 10 -8h282c6.66699 0 10 -3.33301 10 -10v-37zM378.001 476.004
c0 14.667 -2.83301 28.5 -8.5 41.5s-13.334 24.333 -23.001 34s-21 17.167 -34 22.5s-26.833 8 -41.5 8h-31c-15.333 0 -29.333 -2.66699 -42 -8s-23.834 -12.833 -33.501 -22.5s-17.167 -21 -22.5 -34s-8 -26.833 -8 -41.5v-322c0 -14.667 2.66699 -28.5 8 -41.5
s12.833 -24.333 22.5 -34s20.834 -17.334 33.501 -23.001s26.667 -8.5 42 -8.5h31c14.667 0 28.5 2.83301 41.5 8.5s24.333 13.334 34 23.001s17.334 21 23.001 34s8.5 26.833 8.5 41.5v322z" />
    <glyph glyph-name="oe" unicode="&#x153;" horiz-adv-x="739" 
d="M685 228c0 -6.66699 -3.33008 -10.001 -9.99707 -10.001h-261c-6.66699 0 -10 -3.33301 -10 -10v-54v-9.5c0 -4.33301 -0.333008 -8.16602 -1 -11.499c4 -10 9.33301 -20 16 -30s14.5 -19.167 23.5 -27.5s19.167 -15.166 30.5 -20.499s23.666 -8 36.999 -8
c17.333 0 34.5 5.16699 51.5 15.5s31.5 24.166 43.5 41.499c2 2.66699 4.33301 4 7 4c1.33301 0 2.83301 -0.333008 4.5 -1s3.83398 -1.66699 6.50098 -3l36 -18c4.66699 -2.66699 7 -5.66699 7 -9c0 -2 -2.16699 -6.16699 -6.5 -12.5s-9.5 -13.166 -15.5 -20.499
c-13.333 -16 -30.5 -29 -51.5 -39s-48.5 -15 -82.5 -15c-26 0 -49.833 4.16699 -71.5 12.5s-42.167 21.833 -61.5 40.5c-1.33301 1.33301 -2.5 2.33301 -3.5 3s-2.16699 1 -3.5 1s-2.5 -0.333008 -3.5 -1s-2.16699 -1.66699 -3.5 -3c-19.333 -18.667 -40 -32.167 -62 -40.5
s-46 -12.5 -72 -12.5c-53.333 0 -95.5 15.167 -126.5 45.5s-46.5 69.833 -46.5 118.5v135c0 48.667 15.5 88 46.5 118s73.167 45 126.5 45c27.333 0 52.166 -4 74.499 -12s43.5 -21.667 63.5 -41c4 -2.66699 6.66699 -4 8 -4c2.66699 0 5 1 7 3
c18 17.333 37.5 30.666 58.5 39.999s44.167 14 69.5 14c26.667 0 50.667 -4.83301 72 -14.5s39.666 -22.334 54.999 -38.001s27.166 -33.167 35.499 -52.5s12.5 -38.666 12.5 -57.999v-61zM617.003 288.999c0 14.667 -2.83105 28.3311 -8.49805 40.998
s-13.334 23.834 -23.001 33.501s-21 17.334 -34 23.001s-26.833 8.5 -41.5 8.5s-27.834 -2.66699 -39.501 -8s-22 -12.166 -31 -20.499s-16.5 -17.5 -22.5 -27.5s-10.667 -19.667 -14 -29c0.666992 -2.66699 1 -6.33398 1 -11.001v-10v-14c0 -6.66699 3.33301 -10 10 -10
h193c6.66699 0 10 3.33301 10 10v14zM336.005 288.996c0 14.667 -2.83594 28.3311 -8.50293 40.998s-13.334 23.834 -23.001 33.501s-21 17.334 -34 23.001s-26.833 8.5 -41.5 8.5c-30 0 -55.167 -10.167 -75.5 -30.5s-30.5 -45.5 -30.5 -75.5v-135
c0 -14.667 2.83301 -28.5 8.5 -41.5s13.334 -24.333 23.001 -34s20.834 -17.334 33.501 -23.001s26.334 -8.5 41.001 -8.5s28.5 2.83301 41.5 8.5s24.333 13.334 34 23.001s17.334 21 23.001 34s8.5 26.833 8.5 41.5v135z" />
    <glyph glyph-name="Scedilla" unicode="&#x15e;" horiz-adv-x="462" 
d="M301 -150c0 -25.333 -9.16895 -45.6641 -27.502 -60.9971s-40.166 -23 -65.499 -23h-36c-6.66699 0 -10 3.33301 -10 10v16c0 6.66699 3.33301 10 10 10h36c13.333 0 24.666 4.66699 33.999 14s14 20.666 14 33.999v9c0 13.333 -4.66699 23.666 -14 30.999
s-21.666 13 -36.999 17c-4.66699 0.666992 -7 3.33398 -7 8.00098c0 1.33301 0.666992 3.5 2 6.5s2.66602 6.16699 3.99902 9.5l28 59h-32c-34 0 -61.667 5 -83 15s-38.666 23 -51.999 39c-4.66699 5.33301 -9.16699 11.5 -13.5 18.5s-6.5 11.833 -6.5 14.5
c0 3.33301 2 6 6 8l38 20c1.33301 0.666992 2.83301 1.33398 4.5 2.00098s3.16699 1 4.5 1c3.33301 0 6 -1.66699 8 -5c12 -18 26.333 -31.833 43 -41.5s33.667 -14.5 51 -14.5h43c14.667 0 28.667 2.83301 42 8.5s24.833 13.167 34.5 22.5s17.334 20.5 23.001 33.5
s8.5 27.167 8.5 42.5c0 18 -3.66699 33.5 -11 46.5s-17.333 24.667 -30 35s-27 19.666 -43 27.999s-33 16.5 -51 24.5c-19.333 8.66699 -38.666 18 -57.999 28s-36.833 22 -52.5 36s-28.334 31 -38.001 51s-14.5 44.333 -14.5 73c0 24 4.16699 46.167 12.5 66.5
s20 37.666 35 51.999s33.167 25.5 54.5 33.5s45.333 12 72 12h16c34 0 61.5 -5 82.5 -15s38.167 -22.667 51.5 -38c5.33301 -6.66699 10.333 -13.334 15 -20.001s7 -11 7 -13c0 -4 -2.33301 -7 -7 -9l-34 -17c-2 -1.33301 -4.33301 -2.5 -7 -3.5s-4.66699 -1.5 -6 -1.5
c-2.66699 0 -5 1.33301 -7 4c-12 18 -26.5 31.667 -43.5 41s-34.167 14 -51.5 14h-16c-14.667 0 -28.5 -2.66699 -41.5 -8s-24.167 -12.833 -33.5 -22.5s-16.833 -21 -22.5 -34s-8.5 -26.833 -8.5 -41.5c0 -16 3.83301 -30 11.5 -42s18 -22.833 31 -32.5
s28.167 -18.667 45.5 -27l54 -25.5c18.667 -8.66699 37.167 -18.167 55.5 -28.5s34.833 -23 49.5 -38s26.667 -32.833 36 -53.5s14 -45.667 14 -75c0 -44 -12.667 -80.333 -38 -109s-60 -46 -104 -52l-21 -45c-3.33301 -5.33301 -5 -9.66602 -5 -12.999s2 -6 6 -8
c14 -6.66699 25 -14.834 33 -24.501s12 -22.5 12 -38.5v-14v0z" />
    <glyph glyph-name="scedilla" unicode="&#x15f;" horiz-adv-x="438" 
d="M289 -150c0 -25.333 -9.16895 -45.6621 -27.502 -60.9951s-40.166 -23 -65.499 -23h-36c-6.66699 0 -10 3.33301 -10 10v16c0 6.66699 3.33301 10 10 10h36c13.333 0 24.666 4.66699 33.999 14s14 20.666 14 33.999v9c0 13.333 -4.66699 23.666 -14 30.999
s-21.666 13 -36.999 17c-4.66699 0.666992 -7 3.33398 -7 8.00098c0 1.33301 0.666992 3.5 2 6.5s2.66602 6.16699 3.99902 9.5l28 59h-20c-34 0 -61.5 5.33301 -82.5 16s-38.167 23.667 -51.5 39c-5.33301 6 -10 12.167 -14 18.5s-6 10.5 -6 12.5c0 3.33301 2.33301 6 7 8
l35 17c2.66699 2 5.66699 3 9 3s6 -1.66699 8 -5c10 -16.667 23.5 -30.167 40.5 -40.5s35.167 -15.5 54.5 -15.5h31c31.333 0 54.5 8 69.5 24s22.5 33.667 22.5 53c0 12 -4 22.167 -12 30.5s-18.5 15.5 -31.5 21.5s-28.167 11 -45.5 15s-35.333 7.66699 -54 11
c-16 3.33301 -32 7.16602 -48 11.499s-30.333 10.666 -43 18.999s-23 19.166 -31 32.499s-12 30.666 -12 51.999c0 22 4 41.667 12 59s19 32 33 44s30.333 21 49 27s38.667 9 60 9h31c32.667 0 59.334 -5 80.001 -15s37.667 -22 51 -36
c6 -6.66699 11.167 -13.167 15.5 -19.5s6.5 -10.5 6.5 -12.5c0 -4 -2.33301 -7 -7 -9l-30 -15l-7 -3.5c-2 -1 -3.66699 -1.5 -5 -1.5c-3.33301 0 -6 1.66699 -8 5c-11.333 16 -25.5 29 -42.5 39s-34.833 15 -53.5 15h-31c-32.667 0 -55.667 -6.5 -69 -19.5
s-20 -29.5 -20 -49.5c0 -13.333 4 -24.333 12 -33s18.5 -16 31.5 -22s28 -10.833 45 -14.5l52.5 -11.5c16 -3.33301 32.333 -7.33301 49 -12s31.5 -11.167 44.5 -19.5s23.667 -19.166 32 -32.499s12.5 -30.333 12.5 -51c0 -34.667 -10.667 -65.334 -32 -92.001
s-52.666 -43 -93.999 -49l-21 -45c-3.33301 -5.33301 -5 -9.66602 -5 -12.999s2 -6 6 -8c14 -6.66699 25 -14.834 33 -24.501s12 -22.5 12 -38.5v-14v0z" />
    <glyph glyph-name="Scaron" unicode="&#x160;" horiz-adv-x="462" 
d="M331 784l-1.99805 -4l-65 -90c-2.66699 -3.33301 -6.33398 -5 -11.001 -5h-48c-4.66699 0 -8.33398 1.66699 -11.001 5l-65 90l-2 4c0 3.33301 2.33301 5 7 5h43c3.33301 0 6.66602 -2 9.99902 -6l36 -55c2 -2.66699 4 -4 6 -4c1.33301 0 3.33301 1.33301 6 4l36 55
c2.66699 4 6.33398 6 11.001 6h42c4.66699 0 7 -1.66699 7 -5zM418.002 154c0 -24 -4.16797 -46.166 -12.501 -66.499s-20 -37.666 -35 -51.999s-33.333 -25.5 -55 -33.5s-45.834 -12 -72.501 -12h-43c-34 0 -61.667 5 -83 15s-38.666 23 -51.999 39
c-4.66699 5.33301 -9.16699 11.5 -13.5 18.5s-6.5 11.833 -6.5 14.5c0 3.33301 2 6 6 8l38 20c1.33301 0.666992 2.83301 1.33398 4.5 2.00098s3.16699 1 4.5 1c3.33301 0 6 -1.66699 8 -5c12 -18 26.333 -31.833 43 -41.5s33.667 -14.5 51 -14.5h43
c14.667 0 28.667 2.83301 42 8.5s24.833 13.167 34.5 22.5s17.334 20.5 23.001 33.5s8.5 27.167 8.5 42.5c0 18 -3.66699 33.5 -11 46.5s-17.333 24.667 -30 35s-27 19.666 -43 27.999s-33 16.5 -51 24.5c-19.333 8.66699 -38.666 18 -57.999 28s-36.833 22 -52.5 36
s-28.334 31 -38.001 51s-14.5 44.333 -14.5 73c0 24 4.16699 46.167 12.5 66.5s20 37.666 35 51.999s33.167 25.5 54.5 33.5s45.333 12 72 12h16c34 0 61.5 -5 82.5 -15s38.167 -22.667 51.5 -38c5.33301 -6.66699 10.333 -13.334 15 -20.001s7 -11 7 -13
c0 -4 -2.33301 -7 -7 -9l-34 -17c-2 -1.33301 -4.33301 -2.5 -7 -3.5s-4.66699 -1.5 -6 -1.5c-2.66699 0 -5 1.33301 -7 4c-12 18 -26.5 31.667 -43.5 41s-34.167 14 -51.5 14h-16c-14.667 0 -28.5 -2.66699 -41.5 -8s-24.167 -12.833 -33.5 -22.5s-16.833 -21 -22.5 -34
s-8.5 -26.833 -8.5 -41.5c0 -16 3.83301 -30 11.5 -42s18 -22.833 31 -32.5s28.167 -18.667 45.5 -27l54 -25.5c18.667 -8.66699 37.167 -18.167 55.5 -28.5s34.833 -23 49.5 -38s26.667 -32.833 36 -53.5s14 -45.667 14 -75z" />
    <glyph glyph-name="scaron" unicode="&#x161;" horiz-adv-x="438" 
d="M313 614c0 -2.66699 -1 -5.33398 -3 -8.00098l-81 -105c-2.66699 -2.66699 -5.33398 -4 -8.00098 -4h-31c-2.66699 0 -5.33398 1.33301 -8.00098 4l-80 105c-2 2.66699 -3 5.33398 -3 8.00098c0 5.33301 3.66699 8 11 8h35c2.66699 0 5.33398 -1.33301 8.00098 -4l46 -60
c3.33301 -3.33301 6 -5 8 -5c3.33301 0 6 1.66699 8 5l43 60c2.66699 2.66699 5.33398 4 8.00098 4h36c7.33301 0 11 -2.66699 11 -8zM390 134c0 -19.333 -3.33203 -37.8301 -9.99902 -55.4971s-16.834 -33 -30.501 -46s-30.334 -23.333 -50.001 -31
s-42.5 -11.5 -68.5 -11.5h-31c-34 0 -61.5 5.33301 -82.5 16s-38.167 23.667 -51.5 39c-5.33301 6 -10 12.167 -14 18.5s-6 10.5 -6 12.5c0 3.33301 2.33301 6 7 8l35 17c2.66699 2 5.66699 3 9 3s6 -1.66699 8 -5c10 -16.667 23.5 -30.167 40.5 -40.5
s35.167 -15.5 54.5 -15.5h31c31.333 0 54.5 8 69.5 24s22.5 33.667 22.5 53c0 12 -4 22.167 -12 30.5s-18.5 15.5 -31.5 21.5s-28.167 11 -45.5 15s-35.333 7.66699 -54 11c-16 3.33301 -32 7.16602 -48 11.499s-30.333 10.666 -43 18.999s-23 19.166 -31 32.499
s-12 30.666 -12 51.999c0 22 4 41.667 12 59s19 32 33 44s30.333 21 49 27s38.667 9 60 9h31c32.667 0 59.334 -5 80.001 -15s37.667 -22 51 -36c6 -6.66699 11.167 -13.167 15.5 -19.5s6.5 -10.5 6.5 -12.5c0 -4 -2.33301 -7 -7 -9l-30 -15l-7 -3.5
c-2 -1 -3.66699 -1.5 -5 -1.5c-3.33301 0 -6 1.66699 -8 5c-11.333 16 -25.5 29 -42.5 39s-34.833 15 -53.5 15h-31c-32.667 0 -55.667 -6.5 -69 -19.5s-20 -29.5 -20 -49.5c0 -13.333 4 -24.333 12 -33s18.5 -16 31.5 -22s28 -10.833 45 -14.5l52.5 -11.5
c16 -3.33301 32.333 -7.33301 49 -12s31.5 -11.167 44.5 -19.5s23.667 -19.166 32 -32.499s12.5 -30.333 12.5 -51z" />
    <glyph glyph-name="Ydieresis" unicode="&#x178;" horiz-adv-x="448" 
d="M340 738c0 -11.333 -4.16602 -21.333 -12.499 -30s-18.166 -13 -29.499 -13c-12.667 0 -22.334 4.33301 -29.001 13s-10 18.667 -10 30c0 10.667 3.66699 20.167 11 28.5s16.666 12.5 27.999 12.5c12 0 22 -4 30 -12s12 -17.667 12 -29zM189.001 738
c0 -11.333 -4.16699 -21.333 -12.5 -30s-18.166 -13 -29.499 -13c-12.667 0 -22.334 4.33301 -29.001 13s-10 18.667 -10 30c0 10.667 3.5 20.167 10.5 28.5s16.5 12.5 28.5 12.5s22 -4 30 -12s12 -17.667 12 -29zM432.001 621c0 -0.666992 -0.666992 -3 -2 -7l-172 -323
v-281c0 -6.66699 -3.33301 -10 -10 -10h-49c-6.66699 -0 -10 3.33301 -10 10v281l-171 323c-1.33301 4 -2 6.33301 -2 7c0 5.33301 3.66699 8 11 8h57c3.33301 0 6.33301 -2 9 -6l123 -252c2 -5.33301 5 -8 9 -8s7 2.66699 9 8l121 252c2.66699 4 5.66699 6 9 6h57
c7.33301 0 11 -2.66699 11 -8z" />
    <glyph glyph-name="Zcaron" unicode="&#x17d;" horiz-adv-x="438" 
d="M307 784l-1.99805 -4l-65 -90c-2.66699 -3.33301 -6.33398 -5 -11.001 -5h-48c-4.66699 0 -8.33398 1.66699 -11.001 5l-65 90l-2 4c0 3.33301 2.33301 5 7 5h43c3.33301 0 6.66602 -2 9.99902 -6l36 -55c2 -2.66699 4 -4 6 -4c1.33301 0 3.33301 1.33301 6 4l36 55
c2.66699 4 6.33398 6 11.001 6h42c4.66699 0 7 -1.66699 7 -5zM394.002 10c0 -6.66699 -3.33301 -10 -10 -10h-338c-6.66699 0 -10 2.66699 -10 8c0 2.66699 1.33301 7 4 13l9 20l221 497c2 5.33301 4.16699 10.5 6.5 15.5s3.5 8.5 3.5 10.5c0 5.33301 -3.33301 8 -10 8
h-215c-6.66699 0 -10 3.33301 -10 10v37c0 6.66699 3.33301 10 10 10h315c6.66699 0 10 -2.66699 10 -8c0 -2 -0.833008 -5 -2.5 -9s-4.16699 -9.66699 -7.5 -17l-221 -493l-10.5 -23.5c-3 -7 -4.5 -11.5 -4.5 -13.5c0 -5.33301 3.33301 -8 10 -8h240
c6.66699 0 10 -3.33301 10 -10v-37z" />
    <glyph glyph-name="zcaron" unicode="&#x17e;" horiz-adv-x="427" 
d="M305 614c0 -2.66699 -1 -5.33398 -3 -8.00098l-81 -105c-2.66699 -2.66699 -5.33398 -4 -8.00098 -4h-31c-2.66699 0 -5.33398 1.33301 -8.00098 4l-80 105c-2 2.66699 -3 5.33398 -3 8.00098c0 5.33301 3.66699 8 11 8h35c2.66699 0 5.33398 -1.33301 8.00098 -4l46 -60
c3.33301 -3.33301 6 -5 8 -5c3.33301 0 6 1.66699 8 5l43 60c2.66699 2.66699 5.33398 4 8.00098 4h36c7.33301 0 11 -2.66699 11 -8zM387 10c0 -6.66699 -3.33203 -10.001 -9.99902 -10.001h-322c-7.33301 0 -11 2.66699 -11 8c0 2 1 4.83301 3 8.5l6 10.5l198 342
c1.33301 2 2 4.33301 2 7c0 5.33301 -3.66699 8 -11 8h-192c-6.66699 0 -10 3.33301 -10 10v37c0 6.66699 3.33301 10 10 10h303c7.33301 0 11 -2.66699 11 -8c0 -1.33301 -0.833008 -3.66602 -2.5 -6.99902s-3.83398 -7.33301 -6.50098 -12l-200 -342
c-1.33301 -2 -2 -4.33301 -2 -7c0 -5.33301 3.66699 -8 11 -8h213c6.66699 0 10 -3.33301 10 -10v-37z" />
    <glyph glyph-name="florin" unicode="&#x192;" 
d="M404 588c-1.33301 -4.66699 -4.33398 -7.00195 -9.00098 -7.00195c-2 0 -4.66699 0.166992 -8 0.5s-6.66602 0.5 -9.99902 0.5c-14.667 0 -28.5 -2.66699 -41.5 -8s-24.167 -12.833 -33.5 -22.5s-16.833 -21 -22.5 -34s-8.5 -26.833 -8.5 -41.5v-118
c0 -6.66699 3.33301 -10 10 -10h73c6.66699 0 10 -3.33301 10 -10v-37c0 -6.66699 -3.33301 -10 -10 -10h-73c-6.66699 0 -10 -3.33301 -10 -10v-341c0 -24 -4.5 -46.667 -13.5 -68s-21.5 -40 -37.5 -56s-34.667 -28.5 -56 -37.5s-44 -13.5 -68 -13.5
c-5.33301 0 -10.5 0.166992 -15.5 0.5s-10.167 0.833008 -15.5 1.5c-6 0.666992 -9 3.33398 -9 8.00098c0 2 0.333008 3.83301 1 5.5s1.33398 3.5 2.00098 5.5l12 32c2 4 5 6 9 6c2.66699 0 5.16699 -0.333008 7.5 -1s5.16602 -1 8.49902 -1c14.667 0 28.5 2.83301 41.5 8.5
s24.333 13.334 34 23.001s17.334 21 23.001 34s8.5 26.833 8.5 41.5v352c0 6.66699 -3.33301 10 -10 10h-27c-6.66699 0 -10 3.33301 -10 10v37c0 6.66699 3.33301 10 10 10h27c6.66699 0 10 3.33301 10 10v108c0 24 4.5 46.667 13.5 68s21.5 39.833 37.5 55.5
s34.5 28 55.5 37s43.5 13.5 67.5 13.5c5.33301 0 10.666 -0.166992 15.999 -0.5s10.333 -0.833008 15 -1.5c6 -0.666992 9 -4 9 -10z" />
    <glyph glyph-name="circumflex" unicode="&#x2c6;" horiz-adv-x="500" 
d="M358 505c0 -5.33301 -3.66699 -8 -11 -8h-35c-2.66699 0 -5.33398 1.33301 -8.00098 4l-44 62c-2 3.33301 -4.66699 5 -8 5c-2 0 -4.66699 -1.66699 -8 -5l-47 -62c-2.66699 -2.66699 -5.33398 -4 -8.00098 -4h-34c-7.33301 0 -11 2.66699 -11 8c0 2 1 4.66699 3 8
l80 105c2.66699 2.66699 5.33398 4 8.00098 4h31c2.66699 0 5.33398 -1.33301 8.00098 -4l81 -105c2 -3.33301 3 -6 3 -8z" />
    <glyph glyph-name="caron" unicode="&#x2c7;" horiz-adv-x="500" 
d="M358 614c0 -2.66699 -1 -5.33398 -3 -8.00098l-81 -105c-2.66699 -2.66699 -5.33398 -4 -8.00098 -4h-31c-2.66699 0 -5.33398 1.33301 -8.00098 4l-80 105c-2 2.66699 -3 5.33398 -3 8.00098c0 5.33301 3.66699 8 11 8h35c2.66699 0 5.33398 -1.33301 8.00098 -4l46 -60
c3.33301 -3.33301 6 -5 8 -5c3.33301 0 6 1.66699 8 5l43 60c2.66699 2.66699 5.33398 4 8.00098 4h36c7.33301 0 11 -2.66699 11 -8z" />
    <glyph glyph-name="breve" unicode="&#x2d8;" horiz-adv-x="500" 
d="M358 572c0 -22 -8 -40.001 -24 -54.001s-37 -21 -63 -21h-46c-26.667 0 -47.5 6.83301 -62.5 20.5s-22.5 31.834 -22.5 54.501v40c0 6.66699 3.33301 10 10 10h10c6.66699 0 10 -3.33301 10 -10v-21c0 -13.333 5.33301 -25 16 -35s23.667 -15 39 -15h46
c15.333 0 28.5 5 39.5 15s16.5 21.667 16.5 35v21c0 6.66699 3.33301 10 10 10h11c6.66699 0 10 -3.33301 10 -10v-40v0z" />
    <glyph glyph-name="dotaccent" unicode="&#x2d9;" horiz-adv-x="500" 
d="M300 544c0 -13.333 -4.66699 -24.166 -14 -32.499s-21.333 -12.5 -36 -12.5c-15.333 0 -27.333 4.16699 -36 12.5s-13 19.166 -13 32.499v31c0 13.333 4.33301 24 13 32s20.667 12 36 12c14.667 0 26.667 -4 36 -12s14 -18.667 14 -32v-31v0z" />
    <glyph glyph-name="ring" unicode="&#x2da;" horiz-adv-x="454" 
d="M331 573c0 -22.667 -7.5 -41 -22.5 -55s-34.5 -21 -58.5 -21c-24.667 0 -44.167 7 -58.5 21s-21.5 32.333 -21.5 55v31c0 22.667 7.16699 40.834 21.5 54.501s33.833 20.5 58.5 20.5c24 0 43.5 -6.83301 58.5 -20.5s22.5 -31.834 22.5 -54.501v-31zM301 604
c0 14 -4.66699 25 -14 33s-21.666 12 -36.999 12s-27.5 -4 -36.5 -12s-13.5 -19 -13.5 -33v-31c0 -14 4.5 -25.167 13.5 -33.5s21.167 -12.5 36.5 -12.5s27.666 4.16699 36.999 12.5s14 19.5 14 33.5v31z" />
    <glyph glyph-name="ogonek" unicode="&#x2db;" horiz-adv-x="500" 
d="M342 -221c0 -6.66699 -2.66699 -10 -8 -10h-4c-31.333 7.33301 -56.333 22.5 -75 45.5s-28 49.5 -28 79.5v127c0 6.66699 3.33301 10 10 10h25c6.66699 0 10 -3.33301 10 -10v-134c0 -19.333 5.5 -36.333 16.5 -51s26.5 -24.667 46.5 -30c4.66699 -0.666992 7 -4 7 -10
v-17v0z" />
    <glyph glyph-name="tilde" unicode="&#x2dc;" horiz-adv-x="500" 
d="M393 571c0 -2 -2 -5.83105 -6 -11.498l-12 -16.5c-20 -24.667 -41 -37 -63 -37c-9.33301 0 -19.166 2.5 -29.499 7.5s-21.166 11.167 -32.499 18.5l-20 13c-15.333 10 -29.333 15 -42 15c-8 0 -16.167 -1.83301 -24.5 -5.5s-17.5 -10.5 -27.5 -20.5
c-2 -2 -4.33301 -3 -7 -3s-4.66699 0.666992 -6 2l-10 7c-3.33301 2 -5 4.66699 -5 8c0 2 1.5 5.16699 4.5 9.5s6.16699 9.16602 9.5 14.499c19.333 26.667 41.333 40 66 40c19.333 0 39 -7.66699 59 -23l21 -16c5.33301 -4.66699 12.166 -8.33398 20.499 -11.001
s16.166 -4 23.499 -4c8 0 16.5 2 25.5 6s18.5 11 28.5 21c2.66699 2.66699 5 4 7 4s4 -1 6 -3l9 -7c3.33301 -2 5 -4.66699 5 -8z" />
    <glyph glyph-name="hungarumlaut" unicode="&#x2dd;" horiz-adv-x="500" 
d="M381 614c0 -1.33301 -0.833008 -3.5 -2.5 -6.5s-3.16699 -5.83301 -4.5 -8.5l-61 -97c-2 -3.33301 -4.66699 -5 -8 -5h-6c-6.66699 0 -10 2.66699 -10 8c0 1.33301 0.5 3.33301 1.5 6s1.83301 5 2.5 7l34 97c1.33301 4.66699 4.33301 7 9 7h35
c6.66699 0 10 -2.66699 10 -8zM279 614c0 -1.33301 -0.833008 -3.5 -2.5 -6.5s-3.16699 -5.83301 -4.5 -8.5l-61 -97c-2 -3.33301 -4.66699 -5 -8 -5h-6c-6.66699 0 -10 2.66699 -10 8c0 1.33301 0.5 3.33301 1.5 6s1.83301 5 2.5 7l34 97c1.33301 4.66699 4.33301 7 9 7h35
c6.66699 0 10 -2.66699 10 -8z" />
    <glyph glyph-name="Delta" unicode="&#x394;" horiz-adv-x="612" 
d="M6 0l320 688l282 -688h-602zM290 517l-218 -468h412z" />
    <glyph glyph-name="Delta" unicode="&#x2206;" horiz-adv-x="612" 
d="M6 0l320 688l282 -688h-602zM290 517l-218 -468h412z" />
    <glyph glyph-name="Omega" unicode="&#x3a9;" horiz-adv-x="768" 
d="M441 0l15.9912 152c16 6.66699 29.833 13.167 41.5 19.5s21.834 13.666 30.501 21.999s16.5 18.166 23.5 29.499s14.5 25.666 22.5 42.999c8.66699 19.333 14.834 41.5 18.501 66.5s5.5 48.167 5.5 69.5c0 34.667 -4 67.5 -12 98.5s-20.5 58 -37.5 81
s-39.167 41.167 -66.5 54.5s-60 20 -98 20s-70.667 -6.66699 -98 -20s-49.5 -31.5 -66.5 -54.5s-29.5 -50 -37.5 -81s-12 -63.833 -12 -98.5c0 -21.333 1.83301 -44.5 5.5 -69.5s9.83398 -47.167 18.501 -66.5c8 -17.333 15.5 -31.666 22.5 -42.999
s14.833 -21.166 23.5 -29.499s18.834 -15.666 30.501 -21.999s25.5 -12.833 41.5 -19.5l16 -152h-295v162h15c5.33301 -21.333 11.833 -36.833 19.5 -46.5s23.167 -14.5 46.5 -14.5h158l-2 28c-35.333 10.667 -66.666 23.667 -93.999 39s-51.666 38.666 -72.999 69.999
c-16 24 -28.333 49.5 -37 76.5s-13 54.833 -13 83.5c0 46.667 9.16699 88 27.5 124s42.833 66.333 73.5 91s65.834 43.334 105.501 56.001s81.167 19 124.5 19c42.667 0 84 -6.33301 124 -19s75.333 -31.334 106 -56.001s55.167 -55 73.5 -91s27.5 -77.333 27.5 -124
c0 -28.667 -4.33301 -56.5 -13 -83.5s-21 -52.5 -37 -76.5c-21.333 -31.333 -45.666 -54.666 -72.999 -69.999s-58.666 -28.333 -93.999 -39l-2 -28h158c23.333 0 38.833 4.83301 46.5 14.5s14.167 25.167 19.5 46.5h15v-162h-295z" />
    <glyph glyph-name="Omega" unicode="&#x2126;" horiz-adv-x="768" 
d="M441 0l15.9912 152c16 6.66699 29.833 13.167 41.5 19.5s21.834 13.666 30.501 21.999s16.5 18.166 23.5 29.499s14.5 25.666 22.5 42.999c8.66699 19.333 14.834 41.5 18.501 66.5s5.5 48.167 5.5 69.5c0 34.667 -4 67.5 -12 98.5s-20.5 58 -37.5 81
s-39.167 41.167 -66.5 54.5s-60 20 -98 20s-70.667 -6.66699 -98 -20s-49.5 -31.5 -66.5 -54.5s-29.5 -50 -37.5 -81s-12 -63.833 -12 -98.5c0 -21.333 1.83301 -44.5 5.5 -69.5s9.83398 -47.167 18.501 -66.5c8 -17.333 15.5 -31.666 22.5 -42.999
s14.833 -21.166 23.5 -29.499s18.834 -15.666 30.501 -21.999s25.5 -12.833 41.5 -19.5l16 -152h-295v162h15c5.33301 -21.333 11.833 -36.833 19.5 -46.5s23.167 -14.5 46.5 -14.5h158l-2 28c-35.333 10.667 -66.666 23.667 -93.999 39s-51.666 38.666 -72.999 69.999
c-16 24 -28.333 49.5 -37 76.5s-13 54.833 -13 83.5c0 46.667 9.16699 88 27.5 124s42.833 66.333 73.5 91s65.834 43.334 105.501 56.001s81.167 19 124.5 19c42.667 0 84 -6.33301 124 -19s75.333 -31.334 106 -56.001s55.167 -55 73.5 -91s27.5 -77.333 27.5 -124
c0 -28.667 -4.33301 -56.5 -13 -83.5s-21 -52.5 -37 -76.5c-21.333 -31.333 -45.666 -54.666 -72.999 -69.999s-58.666 -28.333 -93.999 -39l-2 -28h158c23.333 0 38.833 4.83301 46.5 14.5s14.167 25.167 19.5 46.5h15v-162h-295z" />
    <glyph glyph-name="pi" unicode="&#x3c0;" horiz-adv-x="549" 
d="M530 151c-0.666992 -17.333 -3.33496 -35.8359 -8.00195 -55.5029s-11.834 -37.667 -21.501 -54s-22 -30 -37 -41s-32.833 -16.5 -53.5 -16.5c-11.333 0 -21.5 2.66699 -30.5 8s-17 12.166 -24 20.499s-13 17.5 -18 27.5s-9.16699 19.667 -12.5 29
c-4.66699 13.333 -7.66699 29.333 -9 48s-2 35.334 -2 50.001c0 38.667 2.5 77.834 7.5 117.501s9.5 78.5 13.5 116.5h-113c-5.33301 -56.667 -11.166 -115.5 -17.499 -176.5s-15.833 -119.167 -28.5 -174.5c-4 -16.667 -11 -32.334 -21 -47.001s-24.667 -22 -44 -22
c-15.333 0 -28.166 5.33301 -38.499 16s-15.5 23.334 -15.5 38.001c0 11.333 3.5 22 10.5 32s15 20.167 24 30.5s17.5 21.333 25.5 33s13 25.5 15 41.5l29 229h-47c-23.333 0 -40.833 -6.16699 -52.5 -18.5s-23.167 -27.166 -34.5 -44.499h-17c6 16.667 12.667 33.667 20 51
s16.333 33.333 27 48s23.334 26.667 38.001 36s32.667 14 54 14h373v-86h-126c-8 -78 -12 -156.333 -12 -235c0 -10 1.16699 -20.167 3.5 -30.5s6.16602 -20 11.499 -29s12 -16.333 20 -22s18 -8.5 30 -8.5s23.333 4.33301 34 13c11.333 9.33301 17.833 18.833 19.5 28.5
s3.83398 20.834 6.50098 33.501h21v0z" />
    </font>
</defs>
</svg>
